#N canvas 1 76 868 408 10;
#X obj 44 184 spectre~;
#X floatatom 201 103 5 0 0 0 - - -;
#X obj 44 160 expr~ atan2($v1 \, 1-$v2);
#X msg 201 120 \$1 50;
#X obj 201 140 line~;
#X obj 204 85 hsl 100 15 0 1 0 0 empty empty empty -2 -8 0 10 -262144
-1 -1 0 0;
#X obj 44 139 osc~ 1000;
#X text 202 85 Drive;
#X obj 412 184 spectre~;
#X floatatom 648 104 5 0 0 0 - - -;
#X msg 648 121 \$1 50;
#X obj 648 141 line~;
#X obj 651 42 hsl 100 15 0 1 0 0 empty empty empty -2 -8 0 10 -262144
-1 -1 7200 0;
#X obj 412 140 osc~ 1000;
#X text 649 42 Drive;
#X obj 648 83 expr 2 * $f1 / (1 - $f1);
#X obj 412 161 expr~ (1+$v2)*$v1/(1+$v2*abs($v1));
#X obj 648 62 clip 0 0.999;
#X text 411 66 x = signal d'entrée [-1..1];
#X text 411 82 k = 2 * drive / (1 - drive);
#X text 635 84 k;
#X text 411 98 y = (1+k)*x / (1+k*abs(x));
#X text 23 65 y = atan2(x \, 1-drive);
#X text 23 47 x = signal d'entrée [-1..1];
#X text 6 -24 Fonctions mathématiques continues;
#X text 23 26 Distorsion arctangente;
#X text 407 45 "Waveshaper";
#X connect 1 0 3 0;
#X connect 2 0 0 0;
#X connect 3 0 4 0;
#X connect 4 0 2 1;
#X connect 5 0 1 0;
#X connect 6 0 2 0;
#X connect 9 0 10 0;
#X connect 10 0 11 0;
#X connect 11 0 16 1;
#X connect 12 0 17 0;
#X connect 13 0 16 0;
#X connect 15 0 9 0;
#X connect 16 0 8 0;
#X connect 17 0 15 0;
