#N canvas 52 76 870 553 10;
#X floatatom 66 27 5 0 0 0 - - -;
#X obj 207 158 spectre~;
#X floatatom 168 12 5 0 0 0 - - -;
#N canvas 466 128 449 237 oversampling 0;
#X obj 18 162 outlet~;
#X obj 17 82 lop~ 15000;
#X obj 17 102 lop~ 15000;
#X obj 17 122 lop~ 15000;
#X obj 17 142 lop~ 15000;
#X obj 255 136 block~ 64 1 8;
#X obj 175 42 clip~ 0 1;
#X obj 17 62 expr~ atan2($v1 \, 1-$v2);
#X obj 175 22 inlet~ drive;
#X obj 17 22 inlet~ signal;
#X text 136 122 block size : 64;
#X text 136 135 overlaps : 1;
#X text 136 149 resampling : 8;
#X text 136 164 sr = 44 \, 1 * 8 = 352 \, 8 kHz;
#X text 94 82 passe-bas d'ordre 4 (anti-repliement);
#X connect 1 0 2 0;
#X connect 2 0 3 0;
#X connect 3 0 4 0;
#X connect 4 0 0 0;
#X connect 6 0 7 1;
#X connect 7 0 1 0;
#X connect 8 0 6 0;
#X connect 9 0 7 0;
#X restore 66 172 pd oversampling;
#X obj 66 300 spectre~;
#X obj 521 264 *~ 0;
#X floatatom 546 245 5 0 0 0 - - -;
#X obj 207 111 expr~ atan2($v1 \, 1-$v2);
#X obj 365 89 clip~ 0 1;
#X msg 168 29 \$1 50;
#X obj 168 49 line~;
#X obj 546 173 vsl 15 64 0 1 0 0 empty empty empty 0 -9 0 10 -262144
-1 -1 0 0;
#X obj 171 -6 hsl 100 15 0 1 0 0 empty empty Drive -2 -8 0 10 -262144
-1 -1 9800 0;
#X obj 635 264 *~ 0;
#X floatatom 660 245 5 0 0 0 - - -;
#X obj 660 173 vsl 15 64 0 1 0 0 empty empty empty 0 -9 0 10 -262144
-1 -1 0 0;
#X obj 225 135 s~ no_over_samp;
#X obj 77 221 s~ over_samp;
#X obj 66 195 *~ 4;
#X obj 635 149 r~ over_samp;
#X obj 521 149 r~ no_over_samp;
#X obj 66 48 osc~ 1000;
#X obj 574 299 *~ 0.1;
#X obj 575 326 dac~;
#X connect 0 0 21 0;
#X connect 2 0 9 0;
#X connect 3 0 18 0;
#X connect 5 0 22 0;
#X connect 6 0 5 1;
#X connect 7 0 1 0;
#X connect 7 0 16 0;
#X connect 8 0 7 1;
#X connect 9 0 10 0;
#X connect 10 0 3 1;
#X connect 10 0 8 0;
#X connect 11 0 6 0;
#X connect 12 0 2 0;
#X connect 13 0 22 0;
#X connect 14 0 13 1;
#X connect 15 0 14 0;
#X connect 18 0 4 0;
#X connect 18 0 17 0;
#X connect 19 0 13 0;
#X connect 20 0 5 0;
#X connect 21 0 3 0;
#X connect 21 0 7 0;
#X connect 22 0 23 0;
#X connect 22 0 23 1;
