#N canvas 228 120 592 548 10;
#X floatatom 340 193 5 0 1 0 - - -;
#N canvas 818 222 319 288 oversampling 0;
#X obj 20 65 inlet~;
#X obj 178 35 clip 0 1;
#X obj 178 15 inlet;
#X obj 21 195 outlet~;
#X obj 20 115 lop~ 15000;
#X obj 20 135 lop~ 15000;
#X obj 20 155 lop~ 15000;
#X obj 20 175 lop~ 15000;
#X obj 121 195 block~ 64 1 8;
#X msg 178 55 \$1 50;
#X obj 178 75 line~;
#X obj 20 95 expr~ atan2($v1 \, 1-$v2);
#X connect 0 0 11 0;
#X connect 1 0 9 0;
#X connect 2 0 1 0;
#X connect 4 0 5 0;
#X connect 5 0 6 0;
#X connect 6 0 7 0;
#X connect 7 0 3 0;
#X connect 9 0 10 0;
#X connect 10 0 11 1;
#X connect 11 0 4 0;
#X restore 23 190 pd oversampling;
#X obj 62 399 dac~;
#X floatatom 342 371 5 0 0 0 - - -;
#N canvas 1 76 617 279 snd_load_and_play 0;
#X obj 43 41 openpanel;
#X obj 43 62 t a b;
#X obj 43 170 soundfiler;
#X obj 257 84 bng 15 250 50 0 empty empty empty 17 7 0 10 -262144 -1
-1;
#X obj 43 20 inlet open file;
#X obj 440 22 inlet start;
#X obj 257 56 sel 1;
#X obj 256 212 outlet~;
#X obj 387 212 spigot 1;
#X obj 43 126 pack s s s;
#X obj 76 86 symbol \$0-table_l;
#X obj 110 106 symbol \$0-table_r;
#X msg 43 148 read -resize \$1 \$2 \$3;
#X obj 44 200 table \$0-table_l;
#X obj 44 223 table \$0-table_r;
#X obj 462 212 outlet~;
#X obj 257 144 tabplay~ \$0-table_l;
#X obj 462 145 tabplay~ \$0-table_r;
#N canvas 1 76 316 224 port 0;
#X obj 54 42 inlet;
#X msg 54 64 \$1 50;
#X obj 54 86 line~;
#X obj 54 108 outlet~;
#X connect 0 0 1 0;
#X connect 1 0 2 0;
#X connect 2 0 3 0;
#X restore 449 46 pd port;
#X obj 256 183 *~;
#X obj 461 184 *~;
#X connect 0 0 1 0;
#X connect 1 0 9 0;
#X connect 1 1 10 0;
#X connect 1 1 11 0;
#X connect 3 0 16 0;
#X connect 3 0 17 0;
#X connect 4 0 0 0;
#X connect 5 0 6 0;
#X connect 5 0 8 1;
#X connect 5 0 18 0;
#X connect 6 0 3 0;
#X connect 8 0 16 0;
#X connect 8 0 17 0;
#X connect 9 0 12 0;
#X connect 10 0 9 1;
#X connect 11 0 9 2;
#X connect 12 0 2 0;
#X connect 16 0 19 0;
#X connect 16 1 8 0;
#X connect 17 0 20 0;
#X connect 18 0 19 1;
#X connect 18 0 20 1;
#X connect 19 0 7 0;
#X connect 20 0 15 0;
#X restore 23 28 pd snd_load_and_play;
#X obj 23 7 bng 15 250 50 0 empty empty empty 17 7 0 10 -262144 -1
-1;
#X obj 160 7 tgl 15 0 empty empty empty 17 7 0 10 -262144 -1 -1 0 1
;
#X text 16 -8 load stereo file;
#X text 150 -8 start;
#X obj 345 355 hsl 128 15 0 1 0 0 empty gain empty -2 -8 0 10 -262144
-1 -1 2540 0;
#X obj 24 375 *~;
#X obj 125 375 *~;
#N canvas 818 222 319 288 oversampling 0;
#X obj 20 65 inlet~;
#X obj 178 35 clip 0 1;
#X obj 178 15 inlet;
#X obj 21 195 outlet~;
#X obj 20 115 lop~ 15000;
#X obj 20 135 lop~ 15000;
#X obj 20 155 lop~ 15000;
#X obj 20 175 lop~ 15000;
#X obj 121 195 block~ 64 1 8;
#X msg 178 55 \$1 50;
#X obj 178 75 line~;
#X obj 20 95 expr~ atan2($v1 \, 1-$v2);
#X connect 0 0 11 0;
#X connect 1 0 9 0;
#X connect 2 0 1 0;
#X connect 4 0 5 0;
#X connect 5 0 6 0;
#X connect 6 0 7 0;
#X connect 7 0 3 0;
#X connect 9 0 10 0;
#X connect 10 0 11 1;
#X connect 11 0 4 0;
#X restore 159 190 pd oversampling;
#X obj 343 177 hsl 128 15 0 0.999 0 0 empty drive empty -2 -8 0 10
-262144 -1 -1 12300 0;
#X obj 22 87 hip~ 150;
#X obj 159 87 hip~ 150;
#X obj 22 157 vcf~ 1;
#X obj 159 157 vcf~ 1;
#X obj 23 237 lop~ 2500;
#X obj 160 237 lop~ 2500;
#X obj 343 -1 hsl 128 15 1 500 0 0 empty high_cut empty -2 -8 0 10
-262144 -1 -1 3792 0;
#X floatatom 340 15 5 0 0 0 - - -;
#X obj 342 52 hsl 128 15 100 5000 0 0 empty bp_freq empty -2 -8 0 10
-262144 -1 -1 1800 0;
#X floatatom 339 68 5 0 0 0 - - -;
#N canvas 1 75 316 224 port 0;
#X obj 54 42 inlet;
#X msg 54 64 \$1 50;
#X obj 54 86 line~;
#X obj 54 108 outlet~;
#X connect 0 0 1 0;
#X connect 1 0 2 0;
#X connect 2 0 3 0;
#X restore 339 84 pd port;
#X text 393 13 high cutoff;
#X text 436 191 drive;
#X text 446 369 gain;
#X obj 343 124 hsl 128 15 1 20 0 0 empty bp_q empty -2 -8 0 10 -262144
-1 -1 1500 0;
#X floatatom 340 140 5 0 0 0 - - -;
#X text 441 138 bp Q;
#X obj 343 230 hsl 128 15 100 10000 0 0 empty low_cut empty -2 -8 0
10 -262144 -1 -1 3800 0;
#X floatatom 340 246 5 0 0 0 - - -;
#X text 401 244 low cutoff;
#X obj 236 295 loadbang;
#X floatatom 341 299 5 0 1 0 - - -;
#X obj 344 283 hsl 128 15 0 1 0 0 empty mix empty -2 -8 0 10 -262144
-1 -1 10000 0;
#X text 451 297 mix;
#N canvas 1 75 316 224 port 0;
#X obj 54 42 inlet;
#X msg 54 64 \$1 50;
#X obj 54 86 line~;
#X obj 54 108 outlet~;
#X connect 0 0 1 0;
#X connect 1 0 2 0;
#X connect 2 0 3 0;
#X restore 342 387 pd port;
#X obj 23 320 *~;
#X obj 52 320 *~;
#X obj 142 316 *~;
#X obj 171 316 *~;
#N canvas 1 77 316 224 port_inv 0;
#X obj 54 42 inlet;
#X msg 54 64 \$1 50;
#X obj 54 86 line~;
#X obj 55 153 outlet~;
#X obj 120 77 sig~ 1;
#X obj 121 126 -~;
#X obj 122 153 outlet~;
#X connect 0 0 1 0;
#X connect 1 0 2 0;
#X connect 2 0 3 0;
#X connect 2 0 5 1;
#X connect 4 0 5 0;
#X connect 5 0 6 0;
#X restore 341 315 pd port_inv;
#X text 419 66 bp freq;
#X obj 341 406 s~ v_gain;
#X obj 56 349 r~ v_gain;
#X obj 342 334 s~ wet;
#X obj 414 334 s~ dry;
#X obj 41 268 r~ wet;
#X obj 171 268 r~ dry;
#X obj 220 214 r v_low_cut;
#X obj 340 262 s v_low_cut;
#X obj 32 51 s~ L;
#X obj 169 51 s~ R;
#X obj 52 298 r~ L;
#X obj 189 294 r~ R;
#X obj 340 209 s v_drive;
#X obj 261 167 r v_drive;
#X obj 340 156 s v_bp_q;
#X obj 198 134 r v_bp_q;
#X obj 340 103 s~ v_bp_freq;
#X obj 178 114 r~ v_bp_freq;
#X obj 340 31 s v_high_cut;
#X obj 212 64 r v_high_cut;
#X text 8 -57 Module de distorsion avec sur-échantillonnage \, pre-filtrage
\, post-filtrage et mixage.;
#X msg 236 315 \; high_cut 150 \; bp_freq 500 \; bp_q 1 \; drive 0.95
\; low_cut 3000 \; mix 0.75 \; gain 0.2;
#X connect 0 0 57 0;
#X connect 1 0 18 0;
#X connect 3 0 38 0;
#X connect 4 0 14 0;
#X connect 4 0 53 0;
#X connect 4 1 15 0;
#X connect 4 1 54 0;
#X connect 5 0 4 0;
#X connect 6 0 4 1;
#X connect 9 0 3 0;
#X connect 10 0 2 0;
#X connect 11 0 2 1;
#X connect 12 0 19 0;
#X connect 13 0 0 0;
#X connect 14 0 16 0;
#X connect 15 0 17 0;
#X connect 16 0 1 0;
#X connect 17 0 12 0;
#X connect 18 0 39 0;
#X connect 19 0 41 1;
#X connect 20 0 21 0;
#X connect 21 0 63 0;
#X connect 22 0 23 0;
#X connect 23 0 24 0;
#X connect 24 0 61 0;
#X connect 28 0 29 0;
#X connect 29 0 59 0;
#X connect 31 0 32 0;
#X connect 32 0 52 0;
#X connect 34 0 66 0;
#X connect 35 0 43 0;
#X connect 36 0 35 0;
#X connect 38 0 45 0;
#X connect 39 0 10 0;
#X connect 40 0 10 0;
#X connect 41 0 11 1;
#X connect 42 0 11 1;
#X connect 43 0 47 0;
#X connect 43 1 48 0;
#X connect 46 0 10 1;
#X connect 46 0 11 0;
#X connect 49 0 39 1;
#X connect 49 0 41 0;
#X connect 50 0 40 1;
#X connect 50 0 42 0;
#X connect 51 0 18 1;
#X connect 51 0 19 1;
#X connect 55 0 40 0;
#X connect 56 0 42 1;
#X connect 58 0 12 1;
#X connect 58 0 1 1;
#X connect 60 0 17 2;
#X connect 60 0 16 2;
#X connect 62 0 16 1;
#X connect 62 0 17 1;
#X connect 64 0 15 1;
#X connect 64 0 14 1;
