#N canvas 288 138 598 516 10;
#X text 4 75 1) Créer une mémoire (RAM) avec un mécanisme permettant
à l'utilisateur d'y charger le son (mono) de son choix. Le son "transparent.wav"
doit être chargé à l'ouverture de la patch \, et ce \, peut importe
la machine sur laquelle le programme est exécuté.;
#X text 4 6 Le multi-modulateur;
#X text 4 26 Le projet consiste à créer un module de traitement appliquant
différents types de modulation sur un son jouant en boucle.;
#X text 4 149 2) Vous devez d'abord mettre en place un mécanisme permettant
de lire le son en boucle. Le son doit être lu en entier et la vitesse
de lecture doit s'adapter automatiquement si un autre son est chargé
dans la mémoire.;
#X text 4 212 3) Vous devez ensuite appliquer deux techniques de modulation
sur la lecture du son:;
#X text 4 382 5) N'oubliez pas d'initialiser correctement votre patch.
On ne devrait pas avoir à modifier les paramètres de modulation pour
obtenir du son!;
#X text 4 354 4) On veut un contrôle de volume global.;
#X text 30 248 - Modulation de fréquence. Une « amplitude » de 0
donnée à l'oscillateur modulant devrait laisser entendre la lecture
du son sans FM.;
#X text 29 295 - Modulation d'amplitude (et non une modulation en anneaux).
Une « fréquence » de 0 donnée à l'oscillateur modulant devrait
laisser entendre la lecture du son sans AM.;
