#N canvas 1017 280 646 454 12;
#X obj 247 64 sel 0 1 2 3 4 5 6 7;
#X msg 312 98 45;
#X msg 347 98 36;
#X obj 247 40 selMetro 0 32;
#X msg 279 98 26;
#N canvas 984 282 653 406 (subpatch) 0;
#X obj 67 132 t f b b, f 26;
#X obj 67 156 mtof;
#X obj 67 199 phasor~;
#X obj 67 223 vcf~ 1;
#X obj 156 157 envelo~;
#X obj 246 153 envelo~;
#X obj 156 199 *~ 5000;
#X floatatom 202 178 5 0 0 1 cutoff_Hz - -;
#X floatatom 325 132 5 0 0 1 amp_decay - -;
#X floatatom 121 223 5 0 0 1 Resonnance - -;
#X obj 106 248 *~;
#X obj 107 272 outlet~;
#X floatatom 230 109 5 0 0 2 filter_decay - -;
#X floatatom 67 99 5 0 0 0 - - -;
#X floatatom 106 99 5 0 0 0 - - -;
#X obj 88 177 * 8;
#X msg 230 70 182;
#X msg 325 111 571;
#X msg 250 253 6;
#X obj 382 70 loadbang;
#X obj 32 65 inlet frq;
#X obj 106 65 inlet filterOpen;
#X text 56 312 https://www.youtube.com/watch?v=_qImZOcHz2U&ab_channel=ReallyUsefulPlugins
;
#X connect 0 0 1 0;
#X connect 0 1 4 0;
#X connect 0 2 5 0;
#X connect 1 0 2 0;
#X connect 1 0 15 0;
#X connect 2 0 3 0;
#X connect 3 1 10 0;
#X connect 4 0 6 0;
#X connect 5 0 10 1;
#X connect 6 0 3 1;
#X connect 7 0 6 1;
#X connect 8 0 5 1;
#X connect 9 0 3 2;
#X connect 10 0 11 0;
#X connect 12 0 4 1;
#X connect 13 0 0 0;
#X connect 14 0 15 1;
#X connect 15 0 7 0;
#X connect 16 0 12 0;
#X connect 17 0 8 0;
#X connect 18 0 9 0;
#X connect 19 0 18 0;
#X connect 19 0 17 0;
#X connect 19 0 16 0;
#X connect 20 0 13 0;
#X connect 21 0 14 0;
#X restore 312 153 pd 303;
#X floatatom 351 132 5 0 72 1 filter_opening - -;
#X obj 312 131 + 12;
#X obj 322 233 *~;
#X obj 354 233 *~;
#X obj 403 205 line~;
#X msg 403 183 \$1 50;
#X obj 319 193 freeverb~;
#X msg 163 154 wet 0.25;
#X msg 234 154 dry 0.75;
#X obj 163 131 loadbang;
#X msg 116 166 0.18;
#X obj 403 157 r v3Ms;
#X obj 116 190 s v3init;
#X obj 247 18 inlet count;
#X obj 301 270 outlet~ L;
#X obj 382 270 outlet~ R;
#X text 177 325 Son de type 303 jouant 3 notes.;
#X text 177 342 Ajout de reverb avec freeverb~;
#X text 14 210 intialisation du volume dans le mix;
#X connect 0 2 4 0;
#X connect 0 4 1 0;
#X connect 0 5 2 0;
#X connect 1 0 7 0;
#X connect 2 0 7 0;
#X connect 3 0 0 0;
#X connect 4 0 7 0;
#X connect 5 0 12 0;
#X connect 5 0 12 1;
#X connect 6 0 5 1;
#X connect 7 0 5 0;
#X connect 8 0 20 0;
#X connect 9 0 21 0;
#X connect 10 0 8 1;
#X connect 10 0 9 1;
#X connect 11 0 10 0;
#X connect 12 0 8 0;
#X connect 12 1 9 0;
#X connect 13 0 12 0;
#X connect 14 0 12 0;
#X connect 15 0 13 0;
#X connect 15 0 14 0;
#X connect 15 0 16 0;
#X connect 16 0 18 0;
#X connect 17 0 11 0;
#X connect 19 0 3 0;
