#N canvas 542 93 1147 785 12;
#N canvas 1179 130 653 406 (subpatch) 0;
#X obj 67 132 t f b b, f 26;
#X obj 67 156 mtof;
#X obj 67 199 phasor~;
#X obj 67 223 vcf~ 1;
#X obj 156 157 envelo~;
#X obj 246 153 envelo~;
#X obj 156 199 *~ 5000;
#X floatatom 202 178 5 0 0 1 cutoff_Hz - -;
#X floatatom 325 132 5 0 0 1 amp_decay - -;
#X floatatom 121 223 5 0 0 1 Resonnance - -;
#X obj 106 248 *~;
#X obj 107 272 outlet~;
#X floatatom 230 109 5 0 0 2 filter_decay - -;
#X floatatom 67 99 5 0 0 0 - - -;
#X floatatom 106 99 5 0 0 0 - - -;
#X obj 88 177 * 8;
#X msg 230 70 182;
#X msg 325 111 571;
#X msg 250 253 6;
#X obj 382 70 loadbang;
#X obj 32 65 inlet frq;
#X obj 106 65 inlet filterOpen;
#X text 58 311 https://www.youtube.com/watch?v=_qImZOcHz2U&ab_channel=ReallyUsefulPlugins
;
#X connect 0 0 1 0;
#X connect 0 1 4 0;
#X connect 0 2 5 0;
#X connect 1 0 2 0;
#X connect 1 0 15 0;
#X connect 2 0 3 0;
#X connect 3 1 10 0;
#X connect 4 0 6 0;
#X connect 5 0 10 1;
#X connect 6 0 3 1;
#X connect 7 0 6 1;
#X connect 8 0 5 1;
#X connect 9 0 3 2;
#X connect 10 0 11 0;
#X connect 12 0 4 1;
#X connect 13 0 0 0;
#X connect 14 0 15 1;
#X connect 15 0 7 0;
#X connect 16 0 12 0;
#X connect 17 0 8 0;
#X connect 18 0 9 0;
#X connect 19 0 18 0;
#X connect 19 0 17 0;
#X connect 19 0 16 0;
#X connect 20 0 13 0;
#X connect 21 0 14 0;
#X restore 161 273 pd 303;
#X obj 153 373 *~;
#X obj 185 373 *~;
#X obj 214 418 line~;
#X msg 214 396 \$1 50;
#X floatatom 200 252 5 0 72 1 filter_opening - -;
#X obj 161 181 counter 15;
#X obj 161 204 funbuff;
#C restore;
#X floatatom 161 228 5 0 0 0 - - -;
#X obj 161 158 metro 117;
#X obj 161 139 tgl 15 0 empty empty empty 17 7 0 10 -262144 -1 -1 0
1;
#X obj 504 39 loadbang;
#X text 509 135 -150 = 0Hz;
#X msg 504 61 0 36 \, 1 19 \, 2 36 \, 3 26 \, 4 36 \, 5 36 \, 6 26
\, 7 26 \, 8 26 \, 9 36 \, 10 36 \, 11 36 \, 12 36 \, 13 45 \, 14 -150
\, 15 -150;
#X msg 504 157 0 36 \, 1 -150 \, 2 -150 \, 3 26 \, 4 36 \, 5 36 \,
6 -150 \, 7 26 \, 8 26 \, 9 36 \, 10 36 \, 11 -150 \, 12 36 \, 13 45
\, 14 -150 \, 15 -150;
#X obj 161 251 + 12;
#X msg 505 98 0 36 \, 1 19 \, 2 36 \, 3 14 \, 4 36 \, 5 36 \, 6 14
\, 7 26 \, 8 14 \, 9 36 \, 10 36 \, 11 36 \, 12 36 \, 13 45 \, 14 -150
\, 15 -150;
#X obj 161 116 sel 17;
#X obj 442 490 hsl 128 15 0 72 0 0 empty empty empty -2 -8 0 10 -262144
-1 -1 353 1;
#X obj 459 435 loadbang;
#X msg 459 460 2;
#X obj 439 412 + 4;
#X obj 670 384 vline~;
#X obj 734 405 snapshot~;
#X floatatom 734 454 5 0 0 0 - - -;
#X obj 734 363 tgl 15 0 empty empty empty 17 7 0 10 -262144 -1 -1 1
1;
#X msg 670 361 0;
#X obj 734 380 metro 10;
#X obj 734 342 loadbang;
#X obj 670 296 bng 15 250 50 0 empty empty empty 17 7 0 10 -262144
-1 -1;
#X obj 439 302 sel 23;
#X obj 439 365 metro 117;
#X obj 439 324 tgl 15 0 empty empty empty 17 7 0 10 -262144 -1 -1 0
1;
#X obj 670 274 sel 17;
#X obj 734 429 + 2;
#X msg 670 314 2 5616;
#X obj 468 338 t b;
#X obj 519 365 metro 500;
#X obj 519 410 + 30;
#X obj 519 388 drunk 38 6;
#X obj 439 511 expr if($f1 > 34 \, 1 \, 0) \;;
#X obj 439 535 sel 1;
#X obj 439 559 bng 15 250 50 0 empty empty empty 17 7 0 10 -262144
-1 -1;
#X obj 439 388 drunk 26 6;
#X text 716 274 filter rise init;
#X text 488 303 filter drunk;
#X obj 214 117 r stop;
#X obj 440 281 r stop;
#X obj 214 373 r v303;
#X obj 302 66 inlet count;
#X obj 51 414 outlet~ L;
#X obj 122 414 outlet~ R;
#X obj 51 483 s v303init;
#X msg 51 461 0.4;
#X obj 51 438 loadbang;
#X text 114 655 Son de type 303 jouant melodie.;
#X text 115 673 Fitlre passant de 2 a 4 en 5.6s \, puis il devient
aleatoire avec le drunk;
#X text 132 486 <-- intialisation du volume dans le mix;
#X connect 0 0 1 0;
#X connect 0 0 2 0;
#X connect 1 0 50 0;
#X connect 2 0 51 0;
#X connect 3 0 1 1;
#X connect 3 0 2 1;
#X connect 4 0 3 0;
#X connect 5 0 0 1;
#X connect 6 0 7 0;
#X connect 7 0 8 0;
#X connect 8 0 15 0;
#X connect 9 0 6 0;
#X connect 10 0 9 0;
#X connect 11 0 13 0;
#X connect 13 0 7 0;
#X connect 14 0 7 0;
#X connect 15 0 0 0;
#X connect 16 0 7 0;
#X connect 17 0 10 0;
#X connect 18 0 5 0;
#X connect 18 0 40 0;
#X connect 19 0 20 0;
#X connect 20 0 18 0;
#X connect 21 0 18 0;
#X connect 22 0 23 0;
#X connect 23 0 34 0;
#X connect 24 0 18 0;
#X connect 25 0 27 0;
#X connect 26 0 22 0;
#X connect 27 0 23 0;
#X connect 28 0 25 0;
#X connect 28 0 26 0;
#X connect 29 0 35 0;
#X connect 30 0 32 0;
#X connect 31 0 43 0;
#X connect 32 0 36 0;
#X connect 32 0 31 0;
#X connect 32 0 37 0;
#X connect 33 0 29 0;
#X connect 34 0 24 0;
#X connect 35 0 22 0;
#X connect 36 0 25 0;
#X connect 37 0 39 0;
#X connect 38 0 18 0;
#X connect 39 0 38 0;
#X connect 40 0 41 0;
#X connect 41 0 42 0;
#X connect 43 0 21 0;
#X connect 46 0 10 0;
#X connect 47 0 32 0;
#X connect 48 0 4 0;
#X connect 49 0 17 0;
#X connect 49 0 30 0;
#X connect 49 0 33 0;
#X connect 53 0 52 0;
#X connect 54 0 53 0;
