#N canvas 483 77 1066 785 12;
#N canvas 836 235 653 406 (subpatch) 0;
#X obj 67 132 t f b b, f 26;
#X obj 67 156 mtof;
#X obj 67 199 phasor~;
#X obj 67 223 vcf~ 1;
#X obj 156 157 envelo~;
#X obj 246 153 envelo~;
#X obj 156 199 *~ 5000;
#X floatatom 202 178 5 0 0 1 cutoff_Hz - -;
#X floatatom 325 132 5 0 0 1 amp_decay - -;
#X floatatom 121 223 5 0 0 1 Resonnance - -;
#X obj 106 248 *~;
#X obj 107 272 outlet~;
#X floatatom 230 109 5 0 0 2 filter_decay - -;
#X floatatom 67 99 5 0 0 0 - - -;
#X floatatom 106 99 5 0 0 0 - - -;
#X obj 88 177 * 8;
#X msg 230 70 182;
#X msg 325 111 571;
#X msg 250 253 6;
#X obj 382 70 loadbang;
#X obj 32 65 inlet frq;
#X obj 106 65 inlet filterOpen;
#X text 58 311 https://www.youtube.com/watch?v=_qImZOcHz2U&ab_channel=ReallyUsefulPlugins
;
#X connect 0 0 1 0;
#X connect 0 1 4 0;
#X connect 0 2 5 0;
#X connect 1 0 2 0;
#X connect 1 0 15 0;
#X connect 2 0 3 0;
#X connect 3 1 10 0;
#X connect 4 0 6 0;
#X connect 5 0 10 1;
#X connect 6 0 3 1;
#X connect 7 0 6 1;
#X connect 8 0 5 1;
#X connect 9 0 3 2;
#X connect 10 0 11 0;
#X connect 12 0 4 1;
#X connect 13 0 0 0;
#X connect 14 0 15 1;
#X connect 15 0 7 0;
#X connect 16 0 12 0;
#X connect 17 0 8 0;
#X connect 18 0 9 0;
#X connect 19 0 18 0;
#X connect 19 0 17 0;
#X connect 19 0 16 0;
#X connect 20 0 13 0;
#X connect 21 0 14 0;
#X restore 161 346 pd 303;
#X obj 153 373 *~;
#X obj 185 373 *~;
#X obj 214 418 line~;
#X msg 214 396 \$1 50;
#X floatatom 200 325 5 0 72 1 filter_opening - -;
#X obj 161 254 counter 15;
#X obj 161 277 funbuff;
#C restore;
#X floatatom 161 301 5 0 0 0 - - -;
#X obj 161 231 metro 117;
#X obj 161 212 tgl 15 0 empty empty empty 17 7 0 10 -262144 -1 -1 0
1;
#X obj 579 9 loadbang;
#X msg 579 31 0 36 \, 1 19 \, 2 36 \, 3 26 \, 4 36 \, 5 36 \, 6 26
\, 7 26 \, 8 26 \, 9 36 \, 10 36 \, 11 36 \, 12 36 \, 13 45 \, 14 -150
\, 15 -150;
#X obj 161 324 + 12;
#X obj 161 189 sel 17;
#X obj 442 500 hsl 128 15 0 72 0 0 empty empty empty -2 -8 0 10 -262144
-1 -1 176 1;
#X obj 459 445 loadbang;
#X msg 459 470 2;
#X obj 439 422 + 4;
#X obj 665 384 vline~;
#X obj 729 403 snapshot~;
#X floatatom 729 452 5 0 0 0 - - -;
#X obj 729 361 tgl 15 0 empty empty empty 17 7 0 10 -262144 -1 -1 1
1;
#X msg 665 361 0;
#X obj 729 378 metro 10;
#X obj 729 340 loadbang;
#X obj 665 290 bng 15 250 50 0 empty empty empty 17 7 0 10 -262144
-1 -1;
#X obj 439 301 sel 23;
#X obj 439 375 metro 117;
#X obj 439 324 tgl 15 0 empty empty empty 17 7 0 10 -262144 -1 -1 0
1;
#X obj 665 268 sel 17;
#X obj 468 348 t b;
#X obj 519 375 metro 500;
#X obj 519 420 + 30;
#X obj 519 398 drunk 38 6;
#X obj 439 521 expr if($f1 > 34 \, 1 \, 0) \;;
#X obj 439 545 sel 1;
#X obj 439 569 bng 15 250 50 0 empty empty empty 17 7 0 10 -262144
-1 -1;
#X obj 439 398 drunk 26 6;
#X text 711 268 filter rise init;
#X text 488 303 filter drunk;
#X obj 214 373 r v303;
#X obj 161 108 inlet count;
#X obj 51 414 outlet~ L;
#X obj 122 414 outlet~ R;
#X obj 51 483 s v303init;
#X msg 51 461 0.4;
#X obj 51 438 loadbang;
#X text 114 655 Son de type 303 jouant melodie.;
#X text 115 673 Fitlre passant de 2 a 4 en 5.6s \, puis il devient
aleatoire avec le drunk;
#X text 132 486 <-- intialisation du volume dans le mix;
#X msg 580 72 0 48 \, 1 19 \, 2 48 \, 3 14 \, 4 48 \, 5 36 \, 6 24
\, 7 26 \, 8 14 \, 9 36 \, 10 36 \, 11 24 \, 12 24 \, 13 45 \, 14 -150
\, 15 -150;
#X text 703 10 -150 = 0...Hz;
#X obj 665 332 r reset;
#X obj 641 9 r reset;
#X msg 580 112 0 36 \, 1 19 \, 2 48 \, 3 26 \, 4 36 \, 5 36 \, 6 26
\, 7 26 \, 8 26 \, 9 48 \, 10 36 \, 11 36 \, 12 36 \, 13 45 \, 14 -150
\, 15 -150;
#X text 1016 38 main;
#X text 1013 73 break;
#X text 1018 160 end;
#X obj 335 129 r reset;
#X msg 665 308 3 5616;
#X obj 729 427 + 1;
#X msg 581 155 0 36 \, 1 -150 \, 2 48 \, 3 -150 \, 4 36 \, 5 36 \,
6 -150 \, 7 26 \, 8 -150 \, 9 48 \, 10 -150 \, 11 36 \, 12 36 \, 13
-150 \, 14 -150 \, 15 -150;
#X obj 388 26 sel 51 61 74;
#X obj 85 207 midReset;
#X obj 468 324 midReset;
#X connect 0 0 1 0;
#X connect 0 0 2 0;
#X connect 1 0 43 0;
#X connect 2 0 44 0;
#X connect 3 0 1 1;
#X connect 3 0 2 1;
#X connect 4 0 3 0;
#X connect 5 0 0 1;
#X connect 6 0 7 0;
#X connect 7 0 8 0;
#X connect 8 0 13 0;
#X connect 9 0 6 0;
#X connect 10 0 9 0;
#X connect 10 0 64 0;
#X connect 11 0 12 0;
#X connect 12 0 7 0;
#X connect 13 0 0 0;
#X connect 14 0 10 0;
#X connect 15 0 5 0;
#X connect 15 0 35 0;
#X connect 16 0 17 0;
#X connect 17 0 15 0;
#X connect 18 0 15 0;
#X connect 19 0 20 0;
#X connect 20 0 61 0;
#X connect 21 0 15 0;
#X connect 22 0 24 0;
#X connect 23 0 19 0;
#X connect 24 0 20 0;
#X connect 25 0 22 0;
#X connect 25 0 23 0;
#X connect 26 0 60 0;
#X connect 27 0 29 0;
#X connect 28 0 38 0;
#X connect 29 0 31 0;
#X connect 29 0 28 0;
#X connect 29 0 32 0;
#X connect 29 0 65 0;
#X connect 30 0 26 0;
#X connect 31 0 22 0;
#X connect 32 0 34 0;
#X connect 33 0 15 0;
#X connect 34 0 33 0;
#X connect 35 0 36 0;
#X connect 36 0 37 0;
#X connect 38 0 18 0;
#X connect 41 0 4 0;
#X connect 42 0 14 0;
#X connect 42 0 27 0;
#X connect 42 0 30 0;
#X connect 42 0 63 0;
#X connect 46 0 45 0;
#X connect 47 0 46 0;
#X connect 51 0 7 0;
#X connect 53 0 23 0;
#X connect 54 0 12 0;
#X connect 55 0 7 0;
#X connect 59 0 6 2;
#X connect 60 0 19 0;
#X connect 61 0 21 0;
#X connect 62 0 7 0;
#X connect 63 0 51 0;
#X connect 63 1 55 0;
#X connect 63 2 62 0;
#X connect 64 0 10 0;
#X connect 65 0 29 0;
