#N canvas 1002 367 705 538 12;
#X obj 204 415 dac~;
#X obj 205 375 *~;
#X obj 237 375 *~;
#X obj 272 409 line~;
#X msg 279 373 \$1 50;
#N canvas 648 286 424 361 squareW 0;
#X obj 36 107 phasor~;
#X obj 110 108 phasor~;
#X obj 79 152 +~;
#X obj 79 176 -~ 1;
#X obj 110 77 * -1;
#X msg 154 72 0;
#X msg 203 74 0.5;
#X obj 182 33 bng 15 250 50 0 empty empty empty 17 7 0 10 -262144 -1
-1;
#X obj 37 17 inlet frq;
#X obj 79 287 outlet~;
#X obj 181 8 loadbang;
#X obj 79 200 *~ 0.6;
#X obj 124 172 inlet;
#X obj 79 250 lop~ 600;
#X obj 37 43 mtof;
#X connect 0 0 2 0;
#X connect 1 0 2 0;
#X connect 2 0 3 0;
#X connect 3 0 11 0;
#X connect 4 0 1 0;
#X connect 5 0 0 1;
#X connect 6 0 1 1;
#X connect 7 0 6 0;
#X connect 7 0 5 0;
#X connect 8 0 14 0;
#X connect 10 0 7 0;
#X connect 11 0 13 0;
#X connect 12 0 11 1;
#X connect 13 0 9 0;
#X connect 14 0 0 0;
#X connect 14 0 4 0;
#X restore 214 242 pd squareW;
#N canvas 821 241 424 361 trianW 0;
#X obj 36 107 phasor~;
#X obj 110 108 phasor~;
#X obj 110 70 * -1;
#X msg 154 72 0;
#X obj 182 33 bng 15 250 50 0 empty empty empty 17 7 0 10 -262144 -1
-1;
#X obj 33 7 inlet frq;
#X obj 85 259 outlet~;
#X obj 181 8 loadbang;
#X obj 36 131 *~ 2;
#X obj 36 155 -~ 1;
#X obj 35 180 clip~ 0 1;
#X obj 110 131 *~ 2;
#X obj 110 155 -~ 1;
#X obj 110 179 clip~ 0 1;
#X obj 85 206 +~;
#X obj 129 210 inlet;
#X obj 85 235 *~ 0.5;
#X obj 33 31 mtof;
#X connect 0 0 8 0;
#X connect 1 0 11 0;
#X connect 2 0 1 0;
#X connect 3 0 0 1;
#X connect 3 0 1 1;
#X connect 4 0 3 0;
#X connect 5 0 17 0;
#X connect 7 0 4 0;
#X connect 8 0 9 0;
#X connect 9 0 10 0;
#X connect 10 0 14 0;
#X connect 11 0 12 0;
#X connect 12 0 13 0;
#X connect 13 0 14 1;
#X connect 14 0 16 0;
#X connect 15 0 16 1;
#X connect 16 0 6 0;
#X connect 17 0 2 0;
#X connect 17 0 0 0;
#X restore 292 242 pd trianW;
#N canvas 738 190 450 300 sawtW 0;
#X obj 52 106 phasor~;
#X obj 52 130 *~ 2;
#X obj 52 154 -~ 1;
#X obj 52 178 *~ 0.1;
#X obj 52 202 outlet~;
#X obj 52 57 inlet fr;
#X obj 108 157 inlet;
#X obj 52 81 mtof;
#X connect 0 0 1 0;
#X connect 1 0 2 0;
#X connect 2 0 3 0;
#X connect 3 0 4 0;
#X connect 5 0 7 0;
#X connect 6 0 3 1;
#X connect 7 0 0 0;
#X restore 150 242 pd sawtW;
#X obj 213 281 bob~;
#X obj 235 143 counter 1;
#X obj 235 166 sel 1;
#X msg 235 189 24;
#X msg 267 189 28;
#X floatatom 70 219 5 0 0 0 bob_freq - -;
#X obj 70 241 pack 0 50;
#X obj 70 263 line~;
#X obj 471 111 vsl 15 128 0 1 0 0 empty empty SwT 0 -9 0 10 -262144
-1 -1 8255 1;
#X obj 492 111 vsl 15 128 0 1 0 0 empty empty Sq 0 -9 0 10 -262144
-1 -1 10160 1;
#X obj 513 111 vsl 15 128 0 1 0 0 empty empty Tr 0 -9 0 10 -262144
-1 -1 8509 1;
#X obj 292 219 + 12;
#X obj 213 305 lop~ 55;
#X obj 533 111 vsl 15 128 0 1 0 0 empty empty Sub 0 -9 0 10 -262144
-1 -1 2540 1;
#X msg 70 197 200;
#N canvas 1064 273 450 300 sub 0;
#X obj 37 59 osc~ 100;
#X obj 37 37 mtof;
#X obj 37 80 *~;
#X obj 37 104 outlet~;
#X obj 37 15 inlet;
#X obj 66 81 inlet lvl;
#X connect 0 0 2 0;
#X connect 1 0 0 0;
#X connect 2 0 3 0;
#X connect 4 0 1 0;
#X connect 5 0 2 1;
#X restore 364 242 pd sub;
#N canvas 592 94 1191 805 sidechain 0;
#X obj 194 228 hsl 128 15 0 1 0 0 empty empty empty -2 -8 0 10 -258113
-4032 -4032 5080 1;
#X floatatom 37 87 5 0 0 0 - - -;
#X obj 37 110 * -1;
#X obj 37 133 + 70;
#X floatatom 37 181 5 0 0 0 - - -;
#X obj 40 203 hsl 128 15 -1 0 0 0 empty empty empty -2 -8 0 10 -262144
-1 -1 8868 1;
#X floatatom 173 273 5 0 0 0 - - -;
#X obj 37 158 * 0.05;
#X obj 173 296 outlet;
#X obj 173 249 *;
#X floatatom 191 206 5 0 0 0 - - -;
#X obj 191 183 expr if($f1 < 0.01 \, 0 \, 0.4) \;;
#X obj 38 59 sigmund~;
#X obj 38 33 r~ kick;
#X text 37 9 genre de sidechain;
#X connect 0 0 9 1;
#X connect 1 0 2 0;
#X connect 2 0 3 0;
#X connect 3 0 7 0;
#X connect 4 0 5 0;
#X connect 5 0 9 0;
#X connect 6 0 8 0;
#X connect 7 0 4 0;
#X connect 9 0 6 0;
#X connect 10 0 0 0;
#X connect 11 0 10 0;
#X connect 12 1 11 0;
#X connect 12 1 1 0;
#X connect 13 0 12 0;
#X restore 279 347 pd sidechain;
#X msg 452 72 0.65;
#X msg 490 72 0.8;
#X msg 521 72 0.67;
#X msg 559 71 0.2;
#X obj 500 40 loadbang;
#X obj 235 118 inlet metro;
#X obj 70 175 loadbang;
#X connect 1 0 0 0;
#X connect 2 0 0 1;
#X connect 3 0 1 1;
#X connect 3 0 2 1;
#X connect 4 0 3 0;
#X connect 5 0 8 0;
#X connect 6 0 8 0;
#X connect 7 0 8 0;
#X connect 8 0 20 0;
#X connect 9 0 10 0;
#X connect 10 0 11 0;
#X connect 10 1 12 0;
#X connect 11 0 19 0;
#X connect 11 0 23 0;
#X connect 11 0 7 0;
#X connect 11 0 5 0;
#X connect 12 0 19 0;
#X connect 12 0 23 0;
#X connect 12 0 7 0;
#X connect 12 0 5 0;
#X connect 13 0 14 0;
#X connect 14 0 15 0;
#X connect 15 0 8 1;
#X connect 16 0 7 1;
#X connect 17 0 5 1;
#X connect 18 0 6 1;
#X connect 19 0 6 0;
#X connect 20 0 1 0;
#X connect 20 0 2 0;
#X connect 21 0 23 1;
#X connect 22 0 13 0;
#X connect 23 0 1 0;
#X connect 23 0 2 0;
#X connect 24 0 4 0;
#X connect 25 0 16 0;
#X connect 26 0 17 0;
#X connect 27 0 18 0;
#X connect 28 0 21 0;
#X connect 29 0 26 0;
#X connect 29 0 28 0;
#X connect 29 0 27 0;
#X connect 29 0 25 0;
#X connect 30 0 9 0;
#X connect 31 0 22 0;
