#N canvas 1061 183 736 642 12;
#X obj 200 442 *~;
#X obj 232 442 *~;
#X obj 274 463 line~;
#X msg 274 440 \$1 50;
#N canvas 648 286 424 361 squareW 0;
#X obj 36 107 phasor~;
#X obj 110 108 phasor~;
#X obj 79 152 +~;
#X obj 79 176 -~ 1;
#X obj 110 77 * -1;
#X msg 154 72 0;
#X msg 203 74 0.5;
#X obj 182 33 bng 15 250 50 0 empty empty empty 17 7 0 10 -262144 -1
-1;
#X obj 37 17 inlet frq;
#X obj 79 287 outlet~;
#X obj 181 8 loadbang;
#X obj 79 200 *~ 0.6;
#X obj 124 172 inlet;
#X obj 79 250 lop~ 600;
#X obj 37 43 mtof;
#X connect 0 0 2 0;
#X connect 1 0 2 0;
#X connect 2 0 3 0;
#X connect 3 0 11 0;
#X connect 4 0 1 0;
#X connect 5 0 0 1;
#X connect 6 0 1 1;
#X connect 7 0 6 0;
#X connect 7 0 5 0;
#X connect 8 0 14 0;
#X connect 10 0 7 0;
#X connect 11 0 13 0;
#X connect 12 0 11 1;
#X connect 13 0 9 0;
#X connect 14 0 0 0;
#X connect 14 0 4 0;
#X restore 214 296 pd squareW;
#N canvas 821 241 424 361 trianW 0;
#X obj 36 107 phasor~;
#X obj 110 108 phasor~;
#X obj 110 70 * -1;
#X msg 154 72 0;
#X obj 182 33 bng 15 250 50 0 empty empty empty 17 7 0 10 -262144 -1
-1;
#X obj 33 7 inlet frq;
#X obj 85 259 outlet~;
#X obj 181 8 loadbang;
#X obj 36 131 *~ 2;
#X obj 36 155 -~ 1;
#X obj 35 180 clip~ 0 1;
#X obj 110 131 *~ 2;
#X obj 110 155 -~ 1;
#X obj 110 179 clip~ 0 1;
#X obj 85 206 +~;
#X obj 129 210 inlet;
#X obj 85 235 *~ 0.5;
#X obj 33 31 mtof;
#X connect 0 0 8 0;
#X connect 1 0 11 0;
#X connect 2 0 1 0;
#X connect 3 0 0 1;
#X connect 3 0 1 1;
#X connect 4 0 3 0;
#X connect 5 0 17 0;
#X connect 7 0 4 0;
#X connect 8 0 9 0;
#X connect 9 0 10 0;
#X connect 10 0 14 0;
#X connect 11 0 12 0;
#X connect 12 0 13 0;
#X connect 13 0 14 1;
#X connect 14 0 16 0;
#X connect 15 0 16 1;
#X connect 16 0 6 0;
#X connect 17 0 2 0;
#X connect 17 0 0 0;
#X restore 292 296 pd trianW;
#N canvas 738 190 450 300 sawtW 0;
#X obj 52 106 phasor~;
#X obj 52 130 *~ 2;
#X obj 52 154 -~ 1;
#X obj 52 178 *~ 0.1;
#X obj 52 202 outlet~;
#X obj 52 57 inlet fr;
#X obj 108 157 inlet;
#X obj 52 81 mtof;
#X connect 0 0 1 0;
#X connect 1 0 2 0;
#X connect 2 0 3 0;
#X connect 3 0 4 0;
#X connect 5 0 7 0;
#X connect 6 0 3 1;
#X connect 7 0 0 0;
#X restore 150 296 pd sawtW;
#X obj 205 372 bob~;
#X floatatom 70 273 5 0 0 0 bob_freq - -;
#X obj 70 295 pack 0 50;
#X obj 70 317 line~;
#X obj 471 165 vsl 15 128 0 1 0 0 empty empty SwT 0 -9 0 10 -262144
-1 -1 8255 1;
#X obj 492 165 vsl 15 128 0 1 0 0 empty empty Sq 0 -9 0 10 -262144
-1 -1 10160 1;
#X obj 513 165 vsl 15 128 0 1 0 0 empty empty Tr 0 -9 0 10 -262144
-1 -1 8509 1;
#X obj 292 254 + 12;
#X obj 205 396 lop~ 55;
#X obj 533 165 vsl 15 128 0 1 0 0 empty empty Sub 0 -9 0 10 -262144
-1 -1 0 1;
#X msg 70 251 200;
#N canvas 1064 273 450 300 sub 0;
#X obj 37 59 osc~ 100;
#X obj 37 37 mtof;
#X obj 37 80 *~;
#X obj 37 104 outlet~;
#X obj 37 15 inlet;
#X obj 66 81 inlet lvl;
#X connect 0 0 2 0;
#X connect 1 0 0 0;
#X connect 2 0 3 0;
#X connect 4 0 1 0;
#X connect 5 0 2 1;
#X restore 364 296 pd sub;
#N canvas 1266 192 466 472 sidechain 0;
#X obj 194 228 hsl 128 15 0 1 0 0 empty empty empty -2 -8 0 10 -258113
-4032 -4032 5080 1;
#X floatatom 37 87 5 0 0 0 - - -;
#X obj 37 110 * -1;
#X obj 37 133 + 70;
#X floatatom 37 181 5 0 0 0 - - -;
#X obj 40 203 hsl 128 15 -1 0 0 0 empty empty empty -2 -8 0 10 -262144
-1 -1 0 1;
#X floatatom 173 273 5 0 0 0 - - -;
#X obj 37 158 * 0.05;
#X obj 173 296 outlet;
#X obj 173 249 *;
#X floatatom 191 206 5 0 0 0 - - -;
#X obj 38 59 sigmund~;
#X text 37 9 genre de sidechain;
#X obj 38 33 r~ kicks;
#X floatatom 384 161 5 0 1 0 - - -;
#X obj 191 183 expr if($f1 < 0.01 \, 0 \, $f2) \;;
#X obj 384 139 r vBass;
#X connect 0 0 9 1;
#X connect 1 0 2 0;
#X connect 2 0 3 0;
#X connect 3 0 7 0;
#X connect 4 0 5 0;
#X connect 5 0 9 0;
#X connect 6 0 8 0;
#X connect 7 0 4 0;
#X connect 9 0 6 0;
#X connect 10 0 0 0;
#X connect 11 1 1 0;
#X connect 11 1 15 0;
#X connect 13 0 11 0;
#X connect 14 0 15 1;
#X connect 15 0 10 0;
#X connect 16 0 14 0;
#X restore 274 417 pd sidechain;
#X msg 452 126 0.65;
#X msg 490 126 0.8;
#X msg 521 126 0.67;
#X obj 500 94 loadbang;
#X obj 70 229 loadbang;
#X obj 343 208 envelo~;
#X obj 260 174 t f b;
#X obj 204 339 *~;
#X floatatom 389 185 5 0 0 0 - - -;
#X msg 389 161 300;
#X msg 559 125 0;
#X obj 170 490 outlet~ L;
#X obj 241 490 outlet~ R;
#X text 168 531 Rolling bass avec onde en DdS \, carre \, triangle
et sinus;
#X text 168 550 envelo~ vient changer la longueur du decay;
#X obj 210 116 sel 0 1 2 3 4 5 6 7;
#X obj 210 70 inlet count;
#X msg 241 149 24;
#X msg 274 149 28;
#X obj 210 92 selMetro 0 8;
#X msg 367 466 0.4;
#X obj 367 490 s vBinit;
#X text 432 490 <-- intialisation du volume dans le mix;
#X obj 367 441 loadbang;
#X text 364 417 <-- Ducking from kick;
#X connect 0 0 31 0;
#X connect 1 0 32 0;
#X connect 2 0 0 1;
#X connect 2 0 1 1;
#X connect 3 0 2 0;
#X connect 4 0 27 0;
#X connect 5 0 27 0;
#X connect 6 0 27 0;
#X connect 7 0 15 0;
#X connect 8 0 9 0;
#X connect 9 0 10 0;
#X connect 10 0 7 1;
#X connect 11 0 6 1;
#X connect 12 0 4 1;
#X connect 13 0 5 1;
#X connect 14 0 5 0;
#X connect 15 0 0 0;
#X connect 15 0 1 0;
#X connect 16 0 18 1;
#X connect 17 0 8 0;
#X connect 18 0 0 0;
#X connect 18 0 1 0;
#X connect 19 0 3 0;
#X connect 20 0 11 0;
#X connect 21 0 12 0;
#X connect 22 0 13 0;
#X connect 23 0 21 0;
#X connect 23 0 30 0;
#X connect 23 0 22 0;
#X connect 23 0 20 0;
#X connect 23 0 29 0;
#X connect 24 0 17 0;
#X connect 25 0 27 1;
#X connect 26 0 6 0;
#X connect 26 0 4 0;
#X connect 26 0 14 0;
#X connect 26 0 18 0;
#X connect 26 1 25 0;
#X connect 27 0 7 0;
#X connect 28 0 25 1;
#X connect 29 0 28 0;
#X connect 30 0 16 0;
#X connect 35 1 37 0;
#X connect 35 2 38 0;
#X connect 35 3 37 0;
#X connect 35 5 37 0;
#X connect 35 6 38 0;
#X connect 35 7 37 0;
#X connect 36 0 39 0;
#X connect 37 0 26 0;
#X connect 38 0 26 0;
#X connect 39 0 35 0;
#X connect 40 0 41 0;
#X connect 43 0 40 0;
