#N canvas 577 43 1193 867 12;
#X obj 120 124 tgl 30 0 empty empty empty 17 7 0 10 -257985 -1 -1 0
1;
#X text 250 262 mesure;
#X obj 154 198 sel 0;
#X obj 178 261 counter 7;
#X obj 178 285 counter;
#X floatatom 178 309 5 0 0 0 - - -;
#X obj 75 373 bass~;
#X obj 244 87 tgl 15 0 empty empty empty 17 7 0 10 -262144 -1 -1 0
1;
#X obj 244 107 s godStop;
#X obj 164 674 vsl 15 128 0 1 0 0 empty empty Drums 0 -9 0 10 -262144
-1 -1 12700 1;
#X obj 238 675 vsl 15 128 0 1 0 0 empty empty 303_misc 0 -9 0 10 -262144
-1 -1 2286 1;
#X obj 313 673 vsl 15 128 0 1 0 0 empty empty 303 0 -9 0 10 -262144
-1 -1 5080 1;
#X obj 164 810 s vDrum;
#X obj 238 811 s v3Ms;
#X obj 238 636 r v3init;
#X obj 313 809 s v303;
#X obj 396 672 vsl 15 128 0 1 0 0 empty empty Bass 0 -9 0 10 -262144
-1 -1 5080 1;
#X obj 396 808 s vBass;
#X obj 395 636 r vBinit;
#X obj 514 368 vsl 15 128 0 1 0 0 empty empty Master 0 -9 0 10 -262144
-1 -1 0 1;
#X obj 514 505 line~ 50;
#X obj 333 560 dac~;
#X obj 327 534 *~;
#X obj 359 534 *~;
#X obj 171 373 303misc~;
#X obj 120 373 drums~;
#X obj 239 373 303~;
#X text 561 132 utilisation de freeverb~;
#X obj 164 636 r vDrinit;
#X obj 313 636 r v303init;
#X text 222 310 64 / min;
#X text 294 310 1 temps == 936ms;
#X obj 228 213 s reset;
#X obj 280 374 dotdot~;
#X obj 466 672 vsl 15 128 0 1 0 0 empty empty Dotdot 0 -9 0 10 -262144
-1 -1 0 1;
#X obj 467 808 s vDot;
#X obj 465 636 r vDotinit;
#X obj 337 374 whiteNoise~;
#X text 746 267 voir pour changer les vline~ par des line;
#X msg 515 297 1 1000;
#X obj 515 324 line 0 10;
#X msg 628 283 0 1000;
#X obj 628 258 r reset;
#X text 751 300 voir pour enlever le [s stop];
#X connect 0 0 2 0;
#X connect 0 0 25 0;
#X connect 0 0 39 0;
#X connect 2 0 3 2;
#X connect 2 0 4 2;
#X connect 2 0 32 0;
#X connect 3 0 4 0;
#X connect 4 0 5 0;
#X connect 5 0 24 0;
#X connect 5 0 26 0;
#X connect 5 0 25 1;
#X connect 5 0 33 0;
#X connect 5 0 6 0;
#X connect 5 0 37 0;
#X connect 6 0 22 0;
#X connect 6 1 23 0;
#X connect 7 0 8 0;
#X connect 9 0 12 0;
#X connect 10 0 13 0;
#X connect 11 0 15 0;
#X connect 14 0 10 0;
#X connect 16 0 17 0;
#X connect 18 0 16 0;
#X connect 19 0 20 0;
#X connect 20 0 23 1;
#X connect 20 0 22 1;
#X connect 22 0 21 0;
#X connect 23 0 21 1;
#X connect 24 0 22 0;
#X connect 24 1 23 0;
#X connect 25 0 3 0;
#X connect 25 1 22 0;
#X connect 25 2 23 0;
#X connect 26 0 22 0;
#X connect 26 1 23 0;
#X connect 28 0 9 0;
#X connect 29 0 11 0;
#X connect 33 0 22 0;
#X connect 33 0 23 0;
#X connect 34 0 35 0;
#X connect 36 0 34 0;
#X connect 37 0 22 0;
#X connect 37 1 23 0;
#X connect 39 0 40 0;
#X connect 40 0 19 0;
#X connect 41 0 40 0;
#X connect 42 0 41 0;
