#N canvas 528 342 1110 623 12;
#X obj 103 550 dac~;
#X obj 97 524 *~;
#X obj 129 524 *~;
#X obj 478 404 line~;
#X obj 481 359 hsl 128 15 0 1 0 0 empty empty empty -2 -8 0 10 -258113
-4032 -4032 2800 1;
#X msg 478 382 \$1 50;
#X obj 54 6 tgl 15 0 empty empty empty 17 7 0 10 -262144 -1 -1 0 1
;
#X obj 1 91 counter;
#X obj 54 288 sel 0 1 2 3 4 5 6 7;
#X obj 62 313 bng 15 250 50 0 empty empty empty 17 7 0 10 -262144 -1
-1;
#X obj 77 313 bng 15 250 50 0 empty empty empty 17 7 0 10 -262144 -1
-1;
#X obj 92 313 bng 15 250 50 0 empty empty empty 17 7 0 10 -262144 -1
-1;
#X obj 107 313 bng 15 250 50 0 empty empty empty 17 7 0 10 -262144
-1 -1;
#X obj 122 313 bng 15 250 50 0 empty empty empty 17 7 0 10 -262144
-1 -1;
#X obj 137 313 bng 15 250 50 0 empty empty empty 17 7 0 10 -262144
-1 -1;
#X obj 152 313 bng 15 250 50 0 empty empty empty 17 7 0 10 -262144
-1 -1;
#X obj 167 313 bng 15 250 50 0 empty empty empty 17 7 0 10 -262144
-1 -1;
#X obj 1 115 % 8;
#X obj 1 66 metro 117;
#X obj 652 172 soundfiler;
#X floatatom 652 196 5 0 0 0 - - -;
#X obj 652 99 loadbang;
#X msg 652 124 symbol kick.wav;
#X msg 652 148 read -resize \$1 kick;
#N canvas 0 50 450 250 (subpatch) 0;
#X array kick 22858 float 2;
#X coords 0 1 22858 -1 200 140 1;
#X restore 984 96 graph;
#N canvas 0 50 450 250 (subpatch) 0;
#X array hh 22858 float 2;
#X coords 0 1 22858 -1 200 140 1;
#X restore 987 259 graph;
#X obj 809 172 soundfiler;
#X floatatom 809 196 5 0 0 0 - - -;
#X msg 809 148 read -resize \$1 hh;
#X msg 809 124 symbol hh.wav;
#X obj 12 390 tabplay~ kick;
#X obj 227 410 tabplay~ hh;
#X obj 282 27 vsl 15 128 20 20000 1 0 empty empty cutoff 0 -9 0 10
-262144 -1 -1 0 1;
#X obj 11 419 hip~;
#X floatatom 198 361 5 0 0 0 - - -;
#X obj 486 117 osc~;
#X msg 470 66 48;
#X msg 509 66 64;
#X obj 486 92 mtof;
#N canvas 1144 138 212 315 osc 0;
#X obj 26 14 inlet~ signal;
#X obj 46 36 inlet~ frequency;
#X obj 27 246 +~;
#X obj 27 270 outlet~;
#X obj 45 128 * 1;
#X msg 45 152 \$1 10;
#X obj 45 176 line~;
#X obj 45 198 osc~;
#X obj 45 222 *~ 0.25;
#X obj 54 58 outlet~ frequency;
#X obj 63 81 loadbang;
#X obj 63 105 f \$1;
#X connect 0 0 2 0;
#X connect 1 0 4 0;
#X connect 1 0 9 0;
#X connect 2 0 3 0;
#X connect 4 0 5 0;
#X connect 5 0 6 0;
#X connect 6 0 7 0;
#X connect 7 0 8 0;
#X connect 8 0 2 1;
#X connect 10 0 11 0;
#X connect 11 0 4 1;
#X restore 471 251 pd osc;
#N canvas 1160 241 450 300 voice 0;
#X restore 479 284 pd voice;
#X obj 125 94 / 2;
#X obj 125 118 int;
#X text 125 52 mesure;
#X obj 66 27 sel 0;
#X obj 125 70 counter 7;
#X obj 125 143 hradio 15 1 0 4 empty empty empty 0 -8 0 10 -262144
-1 -1 1;
#X obj 652 276 soundfiler;
#X floatatom 652 300 5 0 0 0 - - -;
#X msg 652 228 symbol snr.wav;
#X msg 652 251 read -resize \$1 snr;
#N canvas 0 50 450 250 (subpatch) 0;
#X array snr 21001 float 2;
#X coords 0 1 21001 -1 200 140 1;
#X restore 986 418 graph;
#X obj 110 376 tabplay~ snr;
#X obj 147 430 delay~ 22050 22050;
#X obj 79 452 delay~ 20050 20050;
#X connect 1 0 0 0;
#X connect 2 0 0 1;
#X connect 3 0 1 1;
#X connect 3 0 2 1;
#X connect 4 0 5 0;
#X connect 5 0 3 0;
#X connect 6 0 18 0;
#X connect 6 0 44 0;
#X connect 7 0 17 0;
#X connect 8 0 9 0;
#X connect 8 0 45 0;
#X connect 8 1 10 0;
#X connect 8 2 11 0;
#X connect 8 3 12 0;
#X connect 8 4 13 0;
#X connect 8 5 14 0;
#X connect 8 6 15 0;
#X connect 8 7 16 0;
#X connect 9 0 30 0;
#X connect 10 0 31 0;
#X connect 11 0 31 0;
#X connect 12 0 31 0;
#X connect 13 0 30 0;
#X connect 13 0 52 0;
#X connect 14 0 31 0;
#X connect 15 0 31 0;
#X connect 16 0 31 0;
#X connect 17 0 8 0;
#X connect 18 0 7 0;
#X connect 19 0 20 0;
#X connect 21 0 22 0;
#X connect 21 0 29 0;
#X connect 21 0 49 0;
#X connect 22 0 23 0;
#X connect 23 0 19 0;
#X connect 26 0 27 0;
#X connect 28 0 26 0;
#X connect 29 0 28 0;
#X connect 30 0 33 0;
#X connect 31 0 2 0;
#X connect 31 0 1 0;
#X connect 32 0 34 0;
#X connect 33 0 1 0;
#X connect 33 0 2 0;
#X connect 34 0 33 1;
#X connect 36 0 38 0;
#X connect 37 0 38 0;
#X connect 38 0 35 0;
#X connect 41 0 42 0;
#X connect 42 0 46 0;
#X connect 44 0 7 2;
#X connect 44 0 45 2;
#X connect 45 0 41 0;
#X connect 47 0 48 0;
#X connect 49 0 50 0;
#X connect 50 0 47 0;
#X connect 52 0 53 0;
#X connect 52 0 54 0;
#X connect 53 0 2 0;
#X connect 54 0 1 0;
