#N canvas -8 -8 1920 1007 12;
#X obj 89 647 dac~;
#X obj 83 621 *~;
#X obj 115 621 *~;
#X obj 157 714 line~;
#X obj 160 669 hsl 128 15 0 1 0 0 empty empty empty -2 -8 0 10 -258113
-4032 -4032 0 1;
#X msg 157 692 \$1 50;
#X obj 56 -10 tgl 15 0 empty empty empty 17 7 0 10 -262144 -1 -1 0
1;
#X obj 54 288 sel 0 1 2 3 4 5 6 7;
#X obj 62 313 bng 15 250 50 0 empty empty empty 17 7 0 10 -262144 -1
-1;
#X obj 77 313 bng 15 250 50 0 empty empty empty 17 7 0 10 -262144 -1
-1;
#X obj 92 313 bng 15 250 50 0 empty empty empty 17 7 0 10 -262144 -1
-1;
#X obj 107 313 bng 15 250 50 0 empty empty empty 17 7 0 10 -262144
-1 -1;
#X obj 122 313 bng 15 250 50 0 empty empty empty 17 7 0 10 -262144
-1 -1;
#X obj 137 313 bng 15 250 50 0 empty empty empty 17 7 0 10 -262144
-1 -1;
#X obj 152 313 bng 15 250 50 0 empty empty empty 17 7 0 10 -262144
-1 -1;
#X obj 167 313 bng 15 250 50 0 empty empty empty 17 7 0 10 -262144
-1 -1;
#X obj 62 333 tabplay~ kick;
#X obj 383 338 tabplay~ hh;
#X obj 20 237 vsl 15 128 20 1100 1 0 empty empty cutoff 0 -9 0 10 -262144
-1 -1 0 1;
#X obj 61 362 hip~;
#X floatatom 17 385 5 0 0 0 - - -;
#X obj 125 132 / 2;
#X obj 125 154 int;
#X text 125 52 mesure;
#X obj 85 21 sel 0;
#X obj 124 178 hradio 15 1 0 8 empty empty empty 0 -8 0 10 -262144
-1 -1 0;
#X obj 501 351 tabplay~ snr;
#N canvas 853 273 450 300 delayLR 0;
#X obj 152 18 inlet~ audio;
#X obj 47 220 outlet~ L;
#X obj 300 221 outlet~ R;
#X obj 249 107 *~ 0.6;
#X obj 278 139 delread~ delayR 150;
#X obj 278 82 delwrite~ delayR 500;
#X obj 69 108 *~ 0.6;
#X obj 98 83 delwrite~ delayL 400;
#X obj 98 140 delread~ delayL 200;
#X connect 0 0 7 0;
#X connect 0 0 5 0;
#X connect 3 0 5 0;
#X connect 4 0 3 0;
#X connect 4 0 2 0;
#X connect 6 0 7 0;
#X connect 8 0 6 0;
#X connect 8 0 1 0;
#X restore 424 488 pd delayLR;
#N canvas 982 220 450 300 2minStop 0;
#X obj 102 41 inlet;
#X obj 124 210 outlet;
#X obj 106 70 metro 1000;
#X floatatom 106 118 5 0 0 0 - - -;
#X obj 106 165 bng 15 250 50 0 empty empty empty 17 7 0 10 -262144
-1 -1;
#X obj 106 141 sel 120;
#X obj 106 94 counter 120;
#X connect 0 0 2 0;
#X connect 2 0 6 0;
#X connect 3 0 5 0;
#X connect 4 0 1 0;
#X connect 5 0 4 0;
#X connect 6 0 3 0;
#X restore 153 11 pd 2minStop;
#X obj 248 315 tabplay~ shk;
#X obj 196 288 sel 0 1 2 3 4 5 6 7;
#X obj 125 70 counter 7;
#X floatatom 125 94 5 0 0 0 - - -;
#X obj 338 98 counter;
#X floatatom 338 122 5 0 0 0 - - -;
#X obj 16 77 metroReset;
#X obj 59 50 s stop;
#X obj 346 310 sel 0 1 2 3 4 5 6 7;
#X obj 249 339 *~ 0.1;
#N canvas 0 50 1334 785 arraySnd 0;
#X obj 33 96 soundfiler;
#X floatatom 33 120 5 0 0 0 - - -;
#X obj 33 23 loadbang;
#X msg 33 48 symbol kick.wav;
#X msg 33 72 read -resize \$1 kick;
#N canvas 0 50 450 250 (subpatch) 0;
#X array kick 22858 float 2;
#X coords 0 1 22858 -1 200 140 1;
#X restore 31 167 graph;
#N canvas 0 50 450 250 (subpatch) 0;
#X array hh 22858 float 2;
#X coords 0 1 22858 -1 200 140 1;
#X restore 467 168 graph;
#X obj 472 93 soundfiler;
#X floatatom 472 117 5 0 0 0 - - -;
#X msg 472 69 read -resize \$1 hh;
#X msg 472 45 symbol hh.wav;
#X obj 250 95 soundfiler;
#X floatatom 250 119 5 0 0 0 - - -;
#X msg 250 47 symbol snr.wav;
#X msg 250 70 read -resize \$1 snr;
#N canvas 0 50 450 250 (subpatch) 0;
#X array snr 21001 float 2;
#X coords 0 1 21001 -1 200 140 1;
#X restore 243 168 graph;
#X obj 687 92 soundfiler;
#X floatatom 687 116 5 0 0 0 - - -;
#X msg 687 44 symbol shk.wav;
#X msg 687 67 read -resize \$1 shk;
#N canvas 0 50 450 250 (subpatch) 0;
#X array shk 8559 float 2;
#X coords 0 1 8559 -1 200 140 1;
#X restore 686 168 graph;
#X connect 0 0 1 0;
#X connect 2 0 3 0;
#X connect 2 0 10 0;
#X connect 2 0 13 0;
#X connect 2 0 18 0;
#X connect 3 0 4 0;
#X connect 4 0 0 0;
#X connect 7 0 8 0;
#X connect 9 0 7 0;
#X connect 10 0 9 0;
#X connect 11 0 12 0;
#X connect 13 0 14 0;
#X connect 14 0 11 0;
#X connect 16 0 17 0;
#X connect 18 0 19 0;
#X connect 19 0 16 0;
#X restore 296 15 pd arraySnd;
#X obj 500 286 selMetro 8 32;
#X obj 500 309 sel 0 1 2 3 4 5 6 7;
#N canvas 0 50 450 300 oscTest 0;
#X obj 858 566 dac~;
#X obj 852 540 *~;
#X obj 884 540 *~;
#X obj 926 560 line~;
#X obj 929 515 hsl 128 15 0 1 0 0 empty empty empty -2 -8 0 10 -258113
-4032 -4032 0 1;
#X msg 926 538 \$1 50;
#X floatatom 762 277 5 0 0 0 - - -;
#X obj 762 300 mtof;
#X obj 762 324 +~;
#X floatatom 821 282 5 0 0 0 - - -;
#X obj 821 305 osc~;
#X obj 821 329 *~;
#X floatatom 860 305 5 0 0 0 - - -;
#X obj 743 410 +~;
#X obj 762 357 osc~;
#X obj 762 381 *~;
#X floatatom 801 357 5 0 0 0 - - -;
#X obj 780 461 osc~;
#X floatatom 709 325 5 0 0 0 - - -;
#X obj 686 369 phasor~;
#X obj 822 499 lop~;
#X floatatom 852 467 5 0 0 0 - - -;
#X obj 759 219 mtof;
#X msg 728 181 32;
#X msg 813 177 34;
#X obj 754 56 tgl 15 0 empty empty empty 17 7 0 10 -262144 -1 -1 0
1;
#X obj 754 76 metro 117;
#X floatatom 754 124 5 0 0 0 - - -;
#X msg 819 257 514;
#X msg 866 278 1570;
#X msg 706 299 128;
#X msg 864 344 140;
#X msg 858 439 370;
#X obj 753 102 counter 3;
#X obj 754 144 sel 3;
#X connect 1 0 0 0;
#X connect 2 0 0 1;
#X connect 3 0 1 1;
#X connect 3 0 2 1;
#X connect 4 0 5 0;
#X connect 5 0 3 0;
#X connect 6 0 7 0;
#X connect 7 0 8 0;
#X connect 8 0 14 0;
#X connect 9 0 10 0;
#X connect 10 0 11 0;
#X connect 11 0 8 1;
#X connect 12 0 11 1;
#X connect 13 0 17 0;
#X connect 14 0 15 0;
#X connect 15 0 13 1;
#X connect 16 0 15 1;
#X connect 17 0 20 0;
#X connect 18 0 19 0;
#X connect 19 0 13 0;
#X connect 20 0 1 0;
#X connect 20 0 2 0;
#X connect 21 0 20 1;
#X connect 22 0 6 0;
#X connect 23 0 22 0;
#X connect 24 0 22 0;
#X connect 25 0 26 0;
#X connect 26 0 33 0;
#X connect 27 0 34 0;
#X connect 28 0 9 0;
#X connect 29 0 12 0;
#X connect 30 0 18 0;
#X connect 31 0 16 0;
#X connect 32 0 21 0;
#X connect 33 0 27 0;
#X connect 34 0 23 0;
#X connect 34 1 24 0;
#X restore 425 16 pd oscTest;
#X obj 479 513 *~ 0.05;
#X obj 424 512 *~ 0.05;
#X obj 346 287 selMetro 4 8;
#X obj 196 265 selMetro 12 8;
#X obj 32 124 bass~;
#X obj 109 364 s~ kicks;
#X obj 523 448 freeverb~;
#X text 566 13 installation de freeverb~;
#X msg 591 409 wet \$1;
#X floatatom 607 380 5 0 1 0 - - -;
#X msg 654 410 dry \$1;
#X floatatom 654 381 5 0 1 0 - - -;
#N canvas 1179 130 653 406 (subpatch) 0;
#X obj 67 132 t f b b, f 26;
#X obj 67 156 mtof;
#X obj 67 199 phasor~;
#X obj 67 223 vcf~ 1;
#X obj 156 157 envelo~;
#X obj 246 153 envelo~;
#X obj 156 199 *~ 5000;
#X floatatom 202 178 5 0 0 1 cutoff_Hz - -;
#X floatatom 325 132 5 0 0 1 amp_decay - -;
#X floatatom 121 223 5 0 0 1 Resonnance - -;
#X obj 106 248 *~;
#X obj 107 272 outlet~;
#X floatatom 230 109 5 0 0 2 filter_decay - -;
#X floatatom 67 99 5 0 0 0 - - -;
#X floatatom 106 99 5 0 0 0 - - -;
#X obj 88 177 * 8;
#X msg 230 70 182;
#X msg 325 111 571;
#X msg 250 253 6;
#X obj 382 70 loadbang;
#X obj 32 65 inlet frq;
#X obj 106 65 inlet filterOpen;
#X connect 0 0 1 0;
#X connect 0 1 4 0;
#X connect 0 2 5 0;
#X connect 1 0 2 0;
#X connect 1 0 15 0;
#X connect 2 0 3 0;
#X connect 3 1 10 0;
#X connect 4 0 6 0;
#X connect 5 0 10 1;
#X connect 6 0 3 1;
#X connect 7 0 6 1;
#X connect 8 0 5 1;
#X connect 9 0 3 2;
#X connect 10 0 11 0;
#X connect 12 0 4 1;
#X connect 13 0 0 0;
#X connect 14 0 15 1;
#X connect 15 0 7 0;
#X connect 16 0 12 0;
#X connect 17 0 8 0;
#X connect 18 0 9 0;
#X connect 19 0 18 0;
#X connect 19 0 17 0;
#X connect 19 0 16 0;
#X connect 20 0 13 0;
#X connect 21 0 14 0;
#X restore 995 200 pd 303;
#X obj 994 254 dac~;
#X obj 988 228 *~;
#X obj 1020 228 *~;
#X obj 1062 321 line~;
#X obj 1065 276 hsl 128 15 0 1 0 0 empty empty empty -2 -8 0 10 -258113
-4032 -4032 12700 1;
#X msg 1062 299 \$1 50;
#X floatatom 1034 179 5 0 72 1 filter_opening - -;
#X obj 995 108 counter 15;
#X obj 995 131 funbuff;
#C restore;
#X floatatom 995 155 5 0 0 0 - - -;
#X obj 995 85 metro 117;
#X obj 995 66 tgl 15 0 empty empty empty 17 7 0 10 -262144 -1 -1 0
1;
#X obj 995 178 + 12;
#X msg 1101 99 0 36 \, 1 19 \, 2 36 \, 3 26 \, 4 36 \, 5 36 \, 6 26
\, 7 26 \, 8 26 \, 9 36 \, 10 36 \, 11 36 \, 12 36 \, 13 45 \, 14 1
\, 15 1;
#X obj 1101 76 loadbang;
#X obj 743 321 sel 0 1 2 3 4 5 6 7;
#X msg 813 355 45;
#X msg 857 358 36;
#X obj 501 375 *~ 0.05;
#X obj 743 297 selMetro 0 32;
#X msg 759 355 26;
#N canvas 1179 130 653 406 (subpatch) 0;
#X obj 67 132 t f b b, f 26;
#X obj 67 156 mtof;
#X obj 67 199 phasor~;
#X obj 67 223 vcf~ 1;
#X obj 156 157 envelo~;
#X obj 246 153 envelo~;
#X obj 156 199 *~ 5000;
#X floatatom 202 178 5 0 0 1 cutoff_Hz - -;
#X floatatom 325 132 5 0 0 1 amp_decay - -;
#X floatatom 121 223 5 0 0 1 Resonnance - -;
#X obj 106 248 *~;
#X obj 107 272 outlet~;
#X floatatom 230 109 5 0 0 2 filter_decay - -;
#X floatatom 67 99 5 0 0 0 - - -;
#X floatatom 106 99 5 0 0 0 - - -;
#X obj 88 177 * 8;
#X msg 230 70 182;
#X msg 325 111 571;
#X msg 250 253 6;
#X obj 382 70 loadbang;
#X obj 32 65 inlet frq;
#X obj 106 65 inlet filterOpen;
#X connect 0 0 1 0;
#X connect 0 1 4 0;
#X connect 0 2 5 0;
#X connect 1 0 2 0;
#X connect 1 0 15 0;
#X connect 2 0 3 0;
#X connect 3 1 10 0;
#X connect 4 0 6 0;
#X connect 5 0 10 1;
#X connect 6 0 3 1;
#X connect 7 0 6 1;
#X connect 8 0 5 1;
#X connect 9 0 3 2;
#X connect 10 0 11 0;
#X connect 12 0 4 1;
#X connect 13 0 0 0;
#X connect 14 0 15 1;
#X connect 15 0 7 0;
#X connect 16 0 12 0;
#X connect 17 0 8 0;
#X connect 18 0 9 0;
#X connect 19 0 18 0;
#X connect 19 0 17 0;
#X connect 19 0 16 0;
#X connect 20 0 13 0;
#X connect 21 0 14 0;
#X restore 829 504 pd 303;
#X floatatom 868 483 5 0 72 1 filter_opening - -;
#X obj 829 482 + 12;
#X connect 1 0 0 0;
#X connect 2 0 0 1;
#X connect 3 0 1 1;
#X connect 3 0 2 1;
#X connect 4 0 5 0;
#X connect 5 0 3 0;
#X connect 6 0 24 0;
#X connect 6 0 28 0;
#X connect 6 0 35 0;
#X connect 6 0 66 0;
#X connect 7 0 8 0;
#X connect 7 0 31 0;
#X connect 7 1 9 0;
#X connect 7 2 10 0;
#X connect 7 3 11 0;
#X connect 7 4 12 0;
#X connect 7 5 13 0;
#X connect 7 6 14 0;
#X connect 7 7 15 0;
#X connect 8 0 16 0;
#X connect 12 0 16 0;
#X connect 16 0 19 0;
#X connect 16 0 48 0;
#X connect 17 0 1 0;
#X connect 17 0 2 0;
#X connect 17 0 27 0;
#X connect 18 0 20 0;
#X connect 19 0 1 0;
#X connect 19 0 2 0;
#X connect 20 0 19 1;
#X connect 21 0 22 0;
#X connect 22 0 25 0;
#X connect 24 0 31 2;
#X connect 24 0 33 2;
#X connect 24 0 36 0;
#X connect 26 0 27 0;
#X connect 26 0 74 0;
#X connect 27 0 44 0;
#X connect 27 1 43 0;
#X connect 29 0 38 0;
#X connect 30 3 29 0;
#X connect 30 4 29 0;
#X connect 31 0 21 0;
#X connect 31 0 32 0;
#X connect 31 0 33 0;
#X connect 33 0 34 0;
#X connect 34 0 40 0;
#X connect 34 0 45 0;
#X connect 34 0 46 0;
#X connect 34 0 75 0;
#X connect 35 0 7 0;
#X connect 35 0 47 0;
#X connect 37 1 17 0;
#X connect 37 2 17 0;
#X connect 37 3 17 0;
#X connect 37 5 17 0;
#X connect 37 6 17 0;
#X connect 37 7 17 0;
#X connect 38 0 2 0;
#X connect 38 0 1 0;
#X connect 40 0 41 0;
#X connect 41 4 26 0;
#X connect 43 0 2 0;
#X connect 44 0 1 0;
#X connect 45 0 37 0;
#X connect 46 0 30 0;
#X connect 49 0 1 0;
#X connect 49 1 2 0;
#X connect 51 0 49 0;
#X connect 52 0 51 0;
#X connect 53 0 49 0;
#X connect 54 0 53 0;
#X connect 55 0 57 0;
#X connect 55 0 58 0;
#X connect 57 0 56 0;
#X connect 58 0 56 1;
#X connect 59 0 57 1;
#X connect 59 0 58 1;
#X connect 60 0 61 0;
#X connect 61 0 59 0;
#X connect 62 0 55 1;
#X connect 63 0 64 0;
#X connect 64 0 65 0;
#X connect 65 0 68 0;
#X connect 66 0 63 0;
#X connect 67 0 66 0;
#X connect 68 0 55 0;
#X connect 69 0 64 0;
#X connect 70 0 69 0;
#X connect 71 1 76 0;
#X connect 71 3 72 0;
#X connect 71 4 73 0;
#X connect 74 0 1 0;
#X connect 74 0 2 0;
#X connect 74 0 49 0;
#X connect 74 0 49 1;
#X connect 75 0 71 0;
#X connect 78 0 77 1;
#X connect 79 0 77 0;
