#N canvas 46 25 1827 849 12;
#X obj 56 -10 tgl 15 0 empty empty empty 17 7 0 10 -262144 -1 -1 0
1;
#X text 125 52 mesure;
#X obj 85 21 sel 0;
#N canvas 982 220 450 300 2minStop 0;
#X obj 102 41 inlet;
#X obj 124 210 outlet;
#X obj 106 70 metro 1000;
#X floatatom 106 118 5 0 0 0 - - -;
#X obj 106 165 bng 15 250 50 0 empty empty empty 17 7 0 10 -262144
-1 -1;
#X obj 106 141 sel 120;
#X obj 106 94 counter 120;
#X connect 0 0 2 0;
#X connect 2 0 6 0;
#X connect 3 0 5 0;
#X connect 4 0 1 0;
#X connect 5 0 4 0;
#X connect 6 0 3 0;
#X restore 153 11 pd 2minStop;
#X obj 125 70 counter 7;
#X floatatom 125 92 5 0 0 0 - - -;
#X obj 338 98 counter;
#X floatatom 338 122 5 0 0 0 - - -;
#X obj 16 77 metroReset;
#X obj 59 50 s stop;
#N canvas 0 50 1334 785 arraySnd 0;
#X obj 33 96 soundfiler;
#X floatatom 33 120 5 0 0 0 - - -;
#X obj 33 23 loadbang;
#X msg 33 48 symbol kick.wav;
#X msg 33 72 read -resize \$1 kick;
#N canvas 0 50 450 250 (subpatch) 0;
#X array kick 22858 float 2;
#X coords 0 1 22858 -1 200 140 1;
#X restore 31 167 graph;
#N canvas 0 50 450 250 (subpatch) 0;
#X array hh 22858 float 2;
#X coords 0 1 22858 -1 200 140 1;
#X restore 467 168 graph;
#X obj 472 93 soundfiler;
#X floatatom 472 117 5 0 0 0 - - -;
#X msg 472 69 read -resize \$1 hh;
#X msg 472 45 symbol hh.wav;
#X obj 250 95 soundfiler;
#X floatatom 250 119 5 0 0 0 - - -;
#X msg 250 47 symbol snr.wav;
#X msg 250 70 read -resize \$1 snr;
#N canvas 0 50 450 250 (subpatch) 0;
#X array snr 21001 float 2;
#X coords 0 1 21001 -1 200 140 1;
#X restore 243 168 graph;
#X obj 687 92 soundfiler;
#X floatatom 687 116 5 0 0 0 - - -;
#X msg 687 44 symbol shk.wav;
#X msg 687 67 read -resize \$1 shk;
#N canvas 0 50 450 250 (subpatch) 0;
#X array shk 8559 float 2;
#X coords 0 1 8559 -1 200 140 1;
#X restore 686 168 graph;
#X connect 0 0 1 0;
#X connect 2 0 3 0;
#X connect 2 0 10 0;
#X connect 2 0 13 0;
#X connect 2 0 18 0;
#X connect 3 0 4 0;
#X connect 4 0 0 0;
#X connect 7 0 8 0;
#X connect 9 0 7 0;
#X connect 10 0 9 0;
#X connect 11 0 12 0;
#X connect 13 0 14 0;
#X connect 14 0 11 0;
#X connect 16 0 17 0;
#X connect 18 0 19 0;
#X connect 19 0 16 0;
#X restore 296 15 pd arraySnd;
#N canvas 0 50 1041 734 oscTest 0;
#X obj 858 566 dac~;
#X obj 852 540 *~;
#X obj 884 540 *~;
#X obj 926 560 line~;
#X obj 929 515 hsl 128 15 0 1 0 0 empty empty empty -2 -8 0 10 -258113
-4032 -4032 0 1;
#X msg 926 538 \$1 50;
#X floatatom 762 277 5 0 0 0 - - -;
#X obj 762 300 mtof;
#X obj 762 324 +~;
#X floatatom 821 282 5 0 0 0 - - -;
#X obj 821 305 osc~;
#X obj 821 329 *~;
#X floatatom 860 305 5 0 0 0 - - -;
#X obj 743 410 +~;
#X obj 762 357 osc~;
#X obj 762 381 *~;
#X floatatom 801 357 5 0 0 0 - - -;
#X obj 780 461 osc~;
#X floatatom 709 325 5 0 0 0 - - -;
#X obj 686 369 phasor~;
#X obj 822 499 lop~;
#X floatatom 852 467 5 0 0 0 - - -;
#X obj 759 219 mtof;
#X msg 728 181 32;
#X msg 813 177 34;
#X obj 754 56 tgl 15 0 empty empty empty 17 7 0 10 -262144 -1 -1 0
1;
#X obj 754 76 metro 117;
#X floatatom 754 124 5 0 0 0 - - -;
#X msg 819 257 514;
#X msg 866 278 1570;
#X msg 706 299 128;
#X msg 864 344 140;
#X msg 858 439 370;
#X obj 753 102 counter 3;
#X obj 754 144 sel 3;
#X connect 1 0 0 0;
#X connect 2 0 0 1;
#X connect 3 0 1 1;
#X connect 3 0 2 1;
#X connect 4 0 5 0;
#X connect 5 0 3 0;
#X connect 6 0 7 0;
#X connect 7 0 8 0;
#X connect 8 0 14 0;
#X connect 9 0 10 0;
#X connect 10 0 11 0;
#X connect 11 0 8 1;
#X connect 12 0 11 1;
#X connect 13 0 17 0;
#X connect 14 0 15 0;
#X connect 15 0 13 1;
#X connect 16 0 15 1;
#X connect 17 0 20 0;
#X connect 18 0 19 0;
#X connect 19 0 13 0;
#X connect 20 0 1 0;
#X connect 20 0 2 0;
#X connect 21 0 20 1;
#X connect 22 0 6 0;
#X connect 23 0 22 0;
#X connect 24 0 22 0;
#X connect 25 0 26 0;
#X connect 26 0 33 0;
#X connect 27 0 34 0;
#X connect 28 0 9 0;
#X connect 29 0 12 0;
#X connect 30 0 18 0;
#X connect 31 0 16 0;
#X connect 32 0 21 0;
#X connect 33 0 27 0;
#X connect 34 0 23 0;
#X connect 34 1 24 0;
#X restore 425 16 pd oscTest;
#X obj 16 239 bass~;
#X text 566 13 installation de freeverb~;
#X obj 519 18 tgl 15 0 empty empty empty 17 7 0 10 -262144 -1 -1 0
1;
#X obj 519 38 s godStop;
#X obj 426 259 vsl 15 128 0 1 0 0 empty empty Drums 0 -9 0 10 -262144
-1 -1 9400 1;
#X obj 507 259 vsl 15 128 0 1 0 0 empty empty 303_misc 0 -9 0 10 -262144
-1 -1 2286 1;
#X obj 582 257 vsl 15 128 0 1 0 0 empty empty 303 0 -9 0 10 -262144
-1 -1 4600 1;
#X obj 426 395 s vDrum;
#X obj 507 395 s v3Ms;
#X obj 507 221 r v3init;
#X obj 582 393 s v303;
#X obj 662 259 vsl 15 128 0 1 0 0 empty empty Bass 0 -9 0 10 -262144
-1 -1 4680 1;
#X obj 662 395 s vBass;
#X obj 661 223 r vBinit;
#X obj 240 228 vsl 15 128 0 1 0 0 empty empty Master 0 -9 0 10 -262144
-1 -1 11100 1;
#X obj 240 365 line~ 50;
#X obj 186 429 dac~;
#X obj 180 403 *~;
#X obj 212 403 *~;
#X obj 112 239 303misc~;
#X obj 61 239 drums~;
#X obj 180 239 303~;
#X connect 0 0 2 0;
#X connect 0 0 3 0;
#X connect 0 0 8 0;
#X connect 2 0 4 2;
#X connect 2 0 6 2;
#X connect 2 0 9 0;
#X connect 4 0 5 0;
#X connect 4 0 6 0;
#X connect 6 0 7 0;
#X connect 7 0 31 0;
#X connect 7 0 32 1;
#X connect 7 0 33 0;
#X connect 8 0 12 0;
#X connect 8 0 32 0;
#X connect 12 0 29 0;
#X connect 12 1 30 0;
#X connect 14 0 15 0;
#X connect 16 0 19 0;
#X connect 17 0 20 0;
#X connect 18 0 22 0;
#X connect 21 0 17 0;
#X connect 23 0 24 0;
#X connect 25 0 23 0;
#X connect 26 0 27 0;
#X connect 27 0 30 1;
#X connect 27 0 29 1;
#X connect 29 0 28 0;
#X connect 30 0 28 1;
#X connect 31 0 29 0;
#X connect 31 1 30 0;
#X connect 32 0 4 0;
#X connect 32 1 29 0;
#X connect 32 2 30 0;
#X connect 33 0 29 0;
#X connect 33 1 30 0;
