#N canvas 117 0 1575 966 12;
#X obj 56 -10 tgl 15 0 empty empty empty 17 7 0 10 -262144 -1 -1 0
1;
#X text 191 128 mesure;
#X obj 96 76 sel 0;
#N canvas 982 220 450 300 2minStop 0;
#X obj 102 41 inlet;
#X obj 124 210 outlet;
#X obj 106 70 metro 1000;
#X floatatom 106 118 5 0 0 0 - - -;
#X obj 106 165 bng 15 250 50 0 empty empty empty 17 7 0 10 -262144
-1 -1;
#X obj 106 141 sel 120;
#X obj 106 94 counter 120;
#X connect 0 0 2 0;
#X connect 2 0 6 0;
#X connect 3 0 5 0;
#X connect 4 0 1 0;
#X connect 5 0 4 0;
#X connect 6 0 3 0;
#X restore 153 11 pd 2minStop;
#X obj 119 127 counter 7;
#X obj 119 151 counter;
#X floatatom 119 175 5 0 0 0 - - -;
#X obj 96 99 s stop;
#X obj 16 239 bass~;
#X obj 388 55 tgl 15 0 empty empty empty 17 7 0 10 -262144 -1 -1 0
1;
#X obj 388 75 s godStop;
#X obj 586 126 vsl 15 128 0 1 0 0 empty empty Drums 0 -9 0 10 -262144
-1 -1 12700 1;
#X obj 667 126 vsl 15 128 0 1 0 0 empty empty 303_misc 0 -9 0 10 -262144
-1 -1 2286 1;
#X obj 742 124 vsl 15 128 0 1 0 0 empty empty 303 0 -9 0 10 -262144
-1 -1 5080 1;
#X obj 586 262 s vDrum;
#X obj 667 262 s v3Ms;
#X obj 667 88 r v3init;
#X obj 742 260 s v303;
#X obj 822 126 vsl 15 128 0 1 0 0 empty empty Bass 0 -9 0 10 -262144
-1 -1 5080 1;
#X obj 822 262 s vBass;
#X obj 821 90 r vBinit;
#X obj 328 225 vsl 15 128 0 1 0 0 empty empty Master 0 -9 0 10 -262144
-1 -1 12700 1;
#X obj 328 362 line~ 50;
#X obj 274 426 dac~;
#X obj 268 400 *~;
#X obj 300 400 *~;
#X obj 112 239 303misc~;
#X obj 61 239 drums~;
#X obj 180 239 303~;
#X text 502 -2 utilisation de freeverb~;
#X obj 586 88 r vDrinit;
#X obj 743 88 r v303init;
#X text 163 176 64 / min;
#X text 235 176 1 temps == 936ms;
#X obj 169 79 s reset;
#X obj 221 240 dotdot~;
#X obj 910 128 vsl 15 128 0 1 0 0 empty empty Dotdot 0 -9 0 10 -262144
-1 -1 0 1;
#X obj 911 264 s vDot;
#X obj 909 92 r vDotinit;
#X obj 815 437 noise~;
#X obj 815 463 hip~;
#X obj 849 636 dac~;
#X obj 843 610 *~;
#X obj 875 610 *~;
#X obj 920 570 line~;
#X obj 923 525 hsl 128 15 0 0.5 0 0 empty empty empty -2 -8 0 10 -258113
-4032 -4032 0 1;
#X msg 920 548 \$1 50;
#X obj 877 426 hsl 128 15 500 15000 0 0 empty empty empty -2 -8 0 10
-262144 -1 -1 12700 1;
#X obj 1105 431 vline~;
#X obj 1170 469 snapshot~;
#X floatatom 1170 494 5 0 0 0 - - -;
#X obj 1170 427 tgl 15 0 empty empty empty 17 7 0 10 -262144 -1 -1
1 1;
#X msg 1105 409 0;
#X obj 1170 444 metro 10;
#X obj 1170 406 loadbang;
#X obj 1069 360 bng 15 250 50 0 empty empty empty 17 7 0 10 -262144
-1 -1;
#X obj 1069 334 sel 15;
#X text 1117 359 filter up&down;
#X msg 1070 378 0.2 935 \, 0 936 1871;
#X obj 1170 519 * -1;
#X connect 0 0 2 0;
#X connect 0 0 3 0;
#X connect 0 0 8 0;
#X connect 0 0 27 0;
#X connect 2 0 4 2;
#X connect 2 0 5 2;
#X connect 2 0 7 0;
#X connect 2 0 34 0;
#X connect 4 0 5 0;
#X connect 5 0 6 0;
#X connect 6 0 26 0;
#X connect 6 0 28 0;
#X connect 6 0 27 1;
#X connect 6 0 35 0;
#X connect 8 0 24 0;
#X connect 8 1 25 0;
#X connect 9 0 10 0;
#X connect 11 0 14 0;
#X connect 12 0 15 0;
#X connect 13 0 17 0;
#X connect 16 0 12 0;
#X connect 18 0 19 0;
#X connect 20 0 18 0;
#X connect 21 0 22 0;
#X connect 22 0 25 1;
#X connect 22 0 24 1;
#X connect 24 0 23 0;
#X connect 25 0 23 1;
#X connect 26 0 24 0;
#X connect 26 1 25 0;
#X connect 27 0 4 0;
#X connect 27 1 24 0;
#X connect 27 2 25 0;
#X connect 28 0 24 0;
#X connect 28 1 25 0;
#X connect 30 0 11 0;
#X connect 31 0 13 0;
#X connect 35 0 24 0;
#X connect 35 0 25 0;
#X connect 36 0 37 0;
#X connect 38 0 36 0;
#X connect 39 0 40 0;
#X connect 40 0 42 0;
#X connect 40 0 43 0;
#X connect 42 0 41 0;
#X connect 43 0 41 1;
#X connect 44 0 42 1;
#X connect 44 0 43 1;
#X connect 45 0 46 0;
#X connect 46 0 44 0;
#X connect 47 0 40 1;
#X connect 48 0 49 0;
#X connect 49 0 50 0;
#X connect 50 0 45 0;
#X connect 50 0 59 0;
#X connect 51 0 53 0;
#X connect 52 0 48 0;
#X connect 53 0 49 0;
#X connect 54 0 51 0;
#X connect 55 0 58 0;
#X connect 56 0 55 0;
#X connect 58 0 48 0;
