#N canvas 29 34 1827 849 12;
#X obj 103 290 dac~;
#X obj 97 264 *~;
#X obj 129 264 *~;
#X obj 171 357 line~;
#X obj 174 312 hsl 128 15 0 1 0 0 empty empty empty -2 -8 0 10 -258113
-4032 -4032 0 1;
#X msg 171 335 \$1 50;
#X obj 56 -10 tgl 15 0 empty empty empty 17 7 0 10 -262144 -1 -1 0
1;
#X obj 125 154 int;
#X text 125 52 mesure;
#X obj 85 21 sel 0;
#N canvas 982 220 450 300 2minStop 0;
#X obj 102 41 inlet;
#X obj 124 210 outlet;
#X obj 106 70 metro 1000;
#X floatatom 106 118 5 0 0 0 - - -;
#X obj 106 165 bng 15 250 50 0 empty empty empty 17 7 0 10 -262144
-1 -1;
#X obj 106 141 sel 120;
#X obj 106 94 counter 120;
#X connect 0 0 2 0;
#X connect 2 0 6 0;
#X connect 3 0 5 0;
#X connect 4 0 1 0;
#X connect 5 0 4 0;
#X connect 6 0 3 0;
#X restore 153 11 pd 2minStop;
#X obj 125 70 counter 7;
#X floatatom 125 94 5 0 0 0 - - -;
#X obj 338 98 counter;
#X floatatom 338 122 5 0 0 0 - - -;
#X obj 16 77 metroReset;
#X obj 59 50 s stop;
#N canvas 0 50 1334 785 arraySnd 0;
#X obj 33 96 soundfiler;
#X floatatom 33 120 5 0 0 0 - - -;
#X obj 33 23 loadbang;
#X msg 33 48 symbol kick.wav;
#X msg 33 72 read -resize \$1 kick;
#N canvas 0 50 450 250 (subpatch) 0;
#X array kick 22858 float 2;
#X coords 0 1 22858 -1 200 140 1;
#X restore 31 167 graph;
#N canvas 0 50 450 250 (subpatch) 0;
#X array hh 22858 float 2;
#X coords 0 1 22858 -1 200 140 1;
#X restore 467 168 graph;
#X obj 472 93 soundfiler;
#X floatatom 472 117 5 0 0 0 - - -;
#X msg 472 69 read -resize \$1 hh;
#X msg 472 45 symbol hh.wav;
#X obj 250 95 soundfiler;
#X floatatom 250 119 5 0 0 0 - - -;
#X msg 250 47 symbol snr.wav;
#X msg 250 70 read -resize \$1 snr;
#N canvas 0 50 450 250 (subpatch) 0;
#X array snr 21001 float 2;
#X coords 0 1 21001 -1 200 140 1;
#X restore 243 168 graph;
#X obj 687 92 soundfiler;
#X floatatom 687 116 5 0 0 0 - - -;
#X msg 687 44 symbol shk.wav;
#X msg 687 67 read -resize \$1 shk;
#N canvas 0 50 450 250 (subpatch) 0;
#X array shk 8559 float 2;
#X coords 0 1 8559 -1 200 140 1;
#X restore 686 168 graph;
#X connect 0 0 1 0;
#X connect 2 0 3 0;
#X connect 2 0 10 0;
#X connect 2 0 13 0;
#X connect 2 0 18 0;
#X connect 3 0 4 0;
#X connect 4 0 0 0;
#X connect 7 0 8 0;
#X connect 9 0 7 0;
#X connect 10 0 9 0;
#X connect 11 0 12 0;
#X connect 13 0 14 0;
#X connect 14 0 11 0;
#X connect 16 0 17 0;
#X connect 18 0 19 0;
#X connect 19 0 16 0;
#X restore 296 15 pd arraySnd;
#N canvas 0 50 1041 734 oscTest 0;
#X obj 858 566 dac~;
#X obj 852 540 *~;
#X obj 884 540 *~;
#X obj 926 560 line~;
#X obj 929 515 hsl 128 15 0 1 0 0 empty empty empty -2 -8 0 10 -258113
-4032 -4032 0 1;
#X msg 926 538 \$1 50;
#X floatatom 762 277 5 0 0 0 - - -;
#X obj 762 300 mtof;
#X obj 762 324 +~;
#X floatatom 821 282 5 0 0 0 - - -;
#X obj 821 305 osc~;
#X obj 821 329 *~;
#X floatatom 860 305 5 0 0 0 - - -;
#X obj 743 410 +~;
#X obj 762 357 osc~;
#X obj 762 381 *~;
#X floatatom 801 357 5 0 0 0 - - -;
#X obj 780 461 osc~;
#X floatatom 709 325 5 0 0 0 - - -;
#X obj 686 369 phasor~;
#X obj 822 499 lop~;
#X floatatom 852 467 5 0 0 0 - - -;
#X obj 759 219 mtof;
#X msg 728 181 32;
#X msg 813 177 34;
#X obj 754 56 tgl 15 0 empty empty empty 17 7 0 10 -262144 -1 -1 0
1;
#X obj 754 76 metro 117;
#X floatatom 754 124 5 0 0 0 - - -;
#X msg 819 257 514;
#X msg 866 278 1570;
#X msg 706 299 128;
#X msg 864 344 140;
#X msg 858 439 370;
#X obj 753 102 counter 3;
#X obj 754 144 sel 3;
#X connect 1 0 0 0;
#X connect 2 0 0 1;
#X connect 3 0 1 1;
#X connect 3 0 2 1;
#X connect 4 0 5 0;
#X connect 5 0 3 0;
#X connect 6 0 7 0;
#X connect 7 0 8 0;
#X connect 8 0 14 0;
#X connect 9 0 10 0;
#X connect 10 0 11 0;
#X connect 11 0 8 1;
#X connect 12 0 11 1;
#X connect 13 0 17 0;
#X connect 14 0 15 0;
#X connect 15 0 13 1;
#X connect 16 0 15 1;
#X connect 17 0 20 0;
#X connect 18 0 19 0;
#X connect 19 0 13 0;
#X connect 20 0 1 0;
#X connect 20 0 2 0;
#X connect 21 0 20 1;
#X connect 22 0 6 0;
#X connect 23 0 22 0;
#X connect 24 0 22 0;
#X connect 25 0 26 0;
#X connect 26 0 33 0;
#X connect 27 0 34 0;
#X connect 28 0 9 0;
#X connect 29 0 12 0;
#X connect 30 0 18 0;
#X connect 31 0 16 0;
#X connect 32 0 21 0;
#X connect 33 0 27 0;
#X connect 34 0 23 0;
#X connect 34 1 24 0;
#X restore 425 16 pd oscTest;
#X obj 40 239 bass~;
#X text 566 13 installation de freeverb~;
#N canvas 1179 130 653 406 (subpatch) 0;
#X obj 67 132 t f b b, f 26;
#X obj 67 156 mtof;
#X obj 67 199 phasor~;
#X obj 67 223 vcf~ 1;
#X obj 156 157 envelo~;
#X obj 246 153 envelo~;
#X obj 156 199 *~ 5000;
#X floatatom 202 178 5 0 0 1 cutoff_Hz - -;
#X floatatom 325 132 5 0 0 1 amp_decay - -;
#X floatatom 121 223 5 0 0 1 Resonnance - -;
#X obj 106 248 *~;
#X obj 107 272 outlet~;
#X floatatom 230 109 5 0 0 2 filter_decay - -;
#X floatatom 67 99 5 0 0 0 - - -;
#X floatatom 106 99 5 0 0 0 - - -;
#X obj 88 177 * 8;
#X msg 230 70 182;
#X msg 325 111 571;
#X msg 250 253 6;
#X obj 382 70 loadbang;
#X obj 32 65 inlet frq;
#X obj 106 65 inlet filterOpen;
#X text 58 311 https://www.youtube.com/watch?v=_qImZOcHz2U&ab_channel=ReallyUsefulPlugins
;
#X connect 0 0 1 0;
#X connect 0 1 4 0;
#X connect 0 2 5 0;
#X connect 1 0 2 0;
#X connect 1 0 15 0;
#X connect 2 0 3 0;
#X connect 3 1 10 0;
#X connect 4 0 6 0;
#X connect 5 0 10 1;
#X connect 6 0 3 1;
#X connect 7 0 6 1;
#X connect 8 0 5 1;
#X connect 9 0 3 2;
#X connect 10 0 11 0;
#X connect 12 0 4 1;
#X connect 13 0 0 0;
#X connect 14 0 15 1;
#X connect 15 0 7 0;
#X connect 16 0 12 0;
#X connect 17 0 8 0;
#X connect 18 0 9 0;
#X connect 19 0 18 0;
#X connect 19 0 17 0;
#X connect 19 0 16 0;
#X connect 20 0 13 0;
#X connect 21 0 14 0;
#X restore 995 200 pd 303;
#X obj 994 254 dac~;
#X obj 988 228 *~;
#X obj 1020 228 *~;
#X obj 1062 321 line~;
#X obj 1065 276 hsl 128 15 0 1 0 0 empty empty empty -2 -8 0 10 -258113
-4032 -4032 0 1;
#X msg 1062 299 \$1 50;
#X floatatom 1034 179 5 0 72 1 filter_opening - -;
#X obj 995 108 counter 15;
#X obj 995 131 funbuff;
#C restore;
#X floatatom 995 155 5 0 0 0 - - -;
#X obj 995 85 metro 117;
#X obj 995 66 tgl 15 0 empty empty empty 17 7 0 10 -262144 -1 -1 0
1;
#X obj 1269 39 loadbang;
#X obj 743 321 sel 0 1 2 3 4 5 6 7;
#X msg 813 356 45;
#X msg 857 358 36;
#X obj 743 297 selMetro 0 32;
#X msg 759 355 26;
#N canvas 984 282 653 406 (subpatch) 0;
#X obj 67 132 t f b b, f 26;
#X obj 67 156 mtof;
#X obj 67 199 phasor~;
#X obj 67 223 vcf~ 1;
#X obj 156 157 envelo~;
#X obj 246 153 envelo~;
#X obj 156 199 *~ 5000;
#X floatatom 202 178 5 0 0 1 cutoff_Hz - -;
#X floatatom 325 132 5 0 0 1 amp_decay - -;
#X floatatom 121 223 5 0 0 1 Resonnance - -;
#X obj 106 248 *~;
#X obj 107 272 outlet~;
#X floatatom 230 109 5 0 0 2 filter_decay - -;
#X floatatom 67 99 5 0 0 0 - - -;
#X floatatom 106 99 5 0 0 0 - - -;
#X obj 88 177 * 8;
#X msg 230 70 182;
#X msg 325 111 571;
#X msg 250 253 6;
#X obj 382 70 loadbang;
#X obj 32 65 inlet frq;
#X obj 106 65 inlet filterOpen;
#X text 56 312 https://www.youtube.com/watch?v=_qImZOcHz2U&ab_channel=ReallyUsefulPlugins
;
#X connect 0 0 1 0;
#X connect 0 1 4 0;
#X connect 0 2 5 0;
#X connect 1 0 2 0;
#X connect 1 0 15 0;
#X connect 2 0 3 0;
#X connect 3 1 10 0;
#X connect 4 0 6 0;
#X connect 5 0 10 1;
#X connect 6 0 3 1;
#X connect 7 0 6 1;
#X connect 8 0 5 1;
#X connect 9 0 3 2;
#X connect 10 0 11 0;
#X connect 12 0 4 1;
#X connect 13 0 0 0;
#X connect 14 0 15 1;
#X connect 15 0 7 0;
#X connect 16 0 12 0;
#X connect 17 0 8 0;
#X connect 18 0 9 0;
#X connect 19 0 18 0;
#X connect 19 0 17 0;
#X connect 19 0 16 0;
#X connect 20 0 13 0;
#X connect 21 0 14 0;
#X restore 812 453 pd 303;
#X floatatom 851 432 5 0 72 1 filter_opening - -;
#X obj 812 431 + 12;
#X obj 828 559 dac~;
#X obj 822 533 *~;
#X obj 854 533 *~;
#X obj 896 626 line~;
#X obj 899 581 hsl 128 15 0 1 0 0 empty empty empty -2 -8 0 10 -258113
-4032 -4032 2286 1;
#X msg 896 604 \$1 50;
#X obj 819 493 freeverb~;
#X text 1217 158 -150 = 0Hz;
#X msg 1269 61 0 36 \, 1 19 \, 2 36 \, 3 26 \, 4 36 \, 5 36 \, 6 26
\, 7 26 \, 8 26 \, 9 36 \, 10 36 \, 11 36 \, 12 36 \, 13 45 \, 14 -150
\, 15 -150;
#X msg 1212 180 0 36 \, 1 -150 \, 2 -150 \, 3 26 \, 4 36 \, 5 36 \,
6 -150 \, 7 26 \, 8 26 \, 9 36 \, 10 36 \, 11 -150 \, 12 36 \, 13 45
\, 14 -150 \, 15 -150;
#X obj 995 178 + 12;
#X msg 952 493 wet 0.25;
#X msg 1023 493 dry 0.75;
#X obj 954 459 loadbang;
#X msg 899 551 0.18;
#X msg 1272 108 0 36 \, 1 19 \, 2 36 \, 3 14 \, 4 36 \, 5 36 \, 6 14
\, 7 26 \, 8 14 \, 9 36 \, 10 36 \, 11 36 \, 12 36 \, 13 45 \, 14 -150
\, 15 -150;
#X obj 125 132 / 2;
#X floatatom 125 181 5 0 0 0 - - -;
#N canvas 559 153 1230 847 drum 0;
#X obj 356 91 sel 0 1 2 3 4 5 6 7;
#X obj 364 116 bng 15 250 50 0 empty empty empty 17 7 0 10 -262144
-1 -1;
#X obj 379 116 bng 15 250 50 0 empty empty empty 17 7 0 10 -262144
-1 -1;
#X obj 394 116 bng 15 250 50 0 empty empty empty 17 7 0 10 -262144
-1 -1;
#X obj 409 116 bng 15 250 50 0 empty empty empty 17 7 0 10 -262144
-1 -1;
#X obj 424 116 bng 15 250 50 0 empty empty empty 17 7 0 10 -262144
-1 -1;
#X obj 439 116 bng 15 250 50 0 empty empty empty 17 7 0 10 -262144
-1 -1;
#X obj 454 116 bng 15 250 50 0 empty empty empty 17 7 0 10 -262144
-1 -1;
#X obj 469 116 bng 15 250 50 0 empty empty empty 17 7 0 10 -262144
-1 -1;
#X obj 364 136 tabplay~ kick;
#X obj 685 141 tabplay~ hh;
#X obj 363 165 hip~;
#X obj 803 154 tabplay~ snr;
#N canvas 853 273 450 300 delayLR 0;
#X obj 152 18 inlet~ audio;
#X obj 47 220 outlet~ L;
#X obj 300 221 outlet~ R;
#X obj 249 107 *~ 0.6;
#X obj 278 139 delread~ delayR 150;
#X obj 278 82 delwrite~ delayR 500;
#X obj 69 108 *~ 0.6;
#X obj 98 83 delwrite~ delayL 400;
#X obj 98 140 delread~ delayL 200;
#X connect 0 0 7 0;
#X connect 0 0 5 0;
#X connect 3 0 5 0;
#X connect 4 0 3 0;
#X connect 4 0 2 0;
#X connect 6 0 7 0;
#X connect 8 0 6 0;
#X connect 8 0 1 0;
#X restore 671 274 pd delayLR;
#X obj 550 140 tabplay~ shk;
#X obj 498 113 sel 0 1 2 3 4 5 6 7;
#X obj 648 113 sel 0 1 2 3 4 5 6 7;
#X obj 551 164 *~ 0.1;
#X obj 802 89 selMetro 8 32;
#X obj 802 112 sel 0 1 2 3 4 5 6 7;
#X obj 726 299 *~ 0.05;
#X obj 671 298 *~ 0.05;
#X obj 648 90 selMetro 4 8;
#X obj 498 90 selMetro 12 8;
#X obj 411 167 s~ kicks;
#X obj 793 299 freeverb~;
#X msg 867 266 wet \$1;
#X floatatom 867 245 5 0 1 0 - - -;
#X msg 930 266 dry \$1;
#X floatatom 930 245 5 0 1 0 - - -;
#X obj 803 178 *~ 0.05;
#X obj 68 166 vline~;
#X obj 133 202 snapshot~;
#X floatatom 133 249 5 0 0 0 - - -;
#X obj 133 162 tgl 15 0 empty empty empty 17 7 0 10 -262144 -1 -1 1
1;
#X msg 68 144 0;
#X obj 133 226 + 20;
#X obj 133 179 metro 10;
#X obj 133 141 loadbang;
#X obj 32 97 bng 15 250 50 0 empty empty empty 17 7 0 10 -262144 -1
-1;
#X msg 32 114 580 7488 \, 0 0 7488;
#X obj 32 71 sel 15;
#X text 87 70 filter up;
#X obj 354 61 inlet kickmetro;
#X obj 650 13 inlet counter;
#X obj 493 386 outlet~ R;
#X obj 421 386 outlet~ L;
#X obj 256 117 outlet toCount;
#X obj 492 363 *~ 1;
#X obj 421 364 *~ 1;
#X msg 867 222 0.6;
#X msg 930 223 1;
#X obj 867 200 loadbang;
#X connect 0 0 1 0;
#X connect 0 0 47 0;
#X connect 0 1 2 0;
#X connect 0 2 3 0;
#X connect 0 3 4 0;
#X connect 0 4 5 0;
#X connect 0 5 6 0;
#X connect 0 6 7 0;
#X connect 0 7 8 0;
#X connect 1 0 9 0;
#X connect 5 0 9 0;
#X connect 9 0 11 0;
#X connect 9 0 24 0;
#X connect 10 0 13 0;
#X connect 10 0 48 0;
#X connect 10 0 49 0;
#X connect 11 0 48 0;
#X connect 11 0 49 0;
#X connect 12 0 13 0;
#X connect 12 0 30 0;
#X connect 13 0 21 0;
#X connect 13 1 20 0;
#X connect 14 0 17 0;
#X connect 15 3 14 0;
#X connect 15 4 14 0;
#X connect 16 1 10 0;
#X connect 16 2 10 0;
#X connect 16 3 10 0;
#X connect 16 5 10 0;
#X connect 16 6 10 0;
#X connect 16 7 10 0;
#X connect 17 0 48 0;
#X connect 17 0 49 0;
#X connect 18 0 19 0;
#X connect 19 4 12 0;
#X connect 20 0 48 0;
#X connect 21 0 49 0;
#X connect 22 0 16 0;
#X connect 23 0 15 0;
#X connect 25 0 49 0;
#X connect 25 1 48 0;
#X connect 26 0 25 0;
#X connect 27 0 26 0;
#X connect 28 0 25 0;
#X connect 29 0 28 0;
#X connect 30 0 25 0;
#X connect 30 0 25 1;
#X connect 30 0 48 0;
#X connect 30 0 49 0;
#X connect 31 0 32 0;
#X connect 32 0 36 0;
#X connect 33 0 11 1;
#X connect 34 0 37 0;
#X connect 35 0 31 0;
#X connect 36 0 33 0;
#X connect 37 0 32 0;
#X connect 38 0 34 0;
#X connect 39 0 40 0;
#X connect 40 0 31 0;
#X connect 41 0 39 0;
#X connect 43 0 0 0;
#X connect 44 0 22 0;
#X connect 44 0 23 0;
#X connect 44 0 18 0;
#X connect 44 0 41 0;
#X connect 48 0 45 0;
#X connect 49 0 46 0;
#X connect 50 0 27 0;
#X connect 51 0 29 0;
#X connect 52 0 51 0;
#X connect 52 0 50 0;
#X restore 84 240 pd drum;
#X obj 471 109 tgl 15 0 empty empty empty 17 7 0 10 -262144 -1 -1 0
1;
#X obj 471 129 s godStop;
#X connect 1 0 0 0;
#X connect 2 0 0 1;
#X connect 3 0 1 1;
#X connect 3 0 2 1;
#X connect 4 0 5 0;
#X connect 5 0 3 0;
#X connect 6 0 9 0;
#X connect 6 0 10 0;
#X connect 6 0 15 0;
#X connect 6 0 32 0;
#X connect 7 0 60 0;
#X connect 9 0 11 2;
#X connect 9 0 13 2;
#X connect 9 0 16 0;
#X connect 11 0 12 0;
#X connect 11 0 13 0;
#X connect 11 0 59 0;
#X connect 13 0 14 0;
#X connect 14 0 38 0;
#X connect 14 0 61 1;
#X connect 15 0 19 0;
#X connect 15 0 61 0;
#X connect 21 0 23 0;
#X connect 21 0 24 0;
#X connect 23 0 22 0;
#X connect 24 0 22 1;
#X connect 25 0 23 1;
#X connect 25 0 24 1;
#X connect 26 0 27 0;
#X connect 27 0 25 0;
#X connect 28 0 21 1;
#X connect 29 0 30 0;
#X connect 30 0 31 0;
#X connect 31 0 53 0;
#X connect 32 0 29 0;
#X connect 33 0 32 0;
#X connect 34 0 51 0;
#X connect 35 2 39 0;
#X connect 35 4 36 0;
#X connect 35 5 37 0;
#X connect 36 0 42 0;
#X connect 37 0 42 0;
#X connect 38 0 35 0;
#X connect 39 0 42 0;
#X connect 40 0 49 0;
#X connect 40 0 49 1;
#X connect 41 0 40 1;
#X connect 42 0 40 0;
#X connect 44 0 43 0;
#X connect 45 0 43 1;
#X connect 46 0 44 1;
#X connect 46 0 45 1;
#X connect 47 0 48 0;
#X connect 48 0 46 0;
#X connect 49 0 44 0;
#X connect 49 1 45 0;
#X connect 51 0 30 0;
#X connect 52 0 30 0;
#X connect 53 0 21 0;
#X connect 54 0 49 0;
#X connect 55 0 49 0;
#X connect 56 0 54 0;
#X connect 56 0 55 0;
#X connect 56 0 57 0;
#X connect 57 0 47 0;
#X connect 58 0 30 0;
#X connect 59 0 7 0;
#X connect 61 0 11 0;
#X connect 61 1 1 0;
#X connect 61 2 2 0;
#X connect 62 0 63 0;
