#N canvas 46 25 1827 849 12;
#X obj 56 -10 tgl 15 0 empty empty empty 17 7 0 10 -262144 -1 -1 0
1;
#X text 191 128 mesure;
#X obj 96 76 sel 0;
#N canvas 982 220 450 300 2minStop 0;
#X obj 102 41 inlet;
#X obj 124 210 outlet;
#X obj 106 70 metro 1000;
#X floatatom 106 118 5 0 0 0 - - -;
#X obj 106 165 bng 15 250 50 0 empty empty empty 17 7 0 10 -262144
-1 -1;
#X obj 106 141 sel 120;
#X obj 106 94 counter 120;
#X connect 0 0 2 0;
#X connect 2 0 6 0;
#X connect 3 0 5 0;
#X connect 4 0 1 0;
#X connect 5 0 4 0;
#X connect 6 0 3 0;
#X restore 153 11 pd 2minStop;
#X obj 119 127 counter 7;
#X obj 119 151 counter;
#X floatatom 119 175 5 0 0 0 - - -;
#X obj 16 75 metroReset;
#X obj 96 99 s stop;
#N canvas 0 50 1334 785 arraySnd 0;
#X obj 33 96 soundfiler;
#X floatatom 33 120 5 0 0 0 - - -;
#X obj 33 23 loadbang;
#X msg 33 48 symbol kick.wav;
#X msg 33 72 read -resize \$1 kick;
#N canvas 0 50 450 250 (subpatch) 0;
#X array kick 22858 float 2;
#X coords 0 1 22858 -1 200 140 1;
#X restore 31 167 graph;
#N canvas 0 50 450 250 (subpatch) 0;
#X array hh 22858 float 2;
#X coords 0 1 22858 -1 200 140 1;
#X restore 467 168 graph;
#X obj 472 93 soundfiler;
#X floatatom 472 117 5 0 0 0 - - -;
#X msg 472 69 read -resize \$1 hh;
#X msg 472 45 symbol hh.wav;
#X obj 250 95 soundfiler;
#X floatatom 250 119 5 0 0 0 - - -;
#X msg 250 47 symbol snr.wav;
#X msg 250 70 read -resize \$1 snr;
#N canvas 0 50 450 250 (subpatch) 0;
#X array snr 21001 float 2;
#X coords 0 1 21001 -1 200 140 1;
#X restore 243 168 graph;
#X obj 687 92 soundfiler;
#X floatatom 687 116 5 0 0 0 - - -;
#X msg 687 44 symbol shk.wav;
#X msg 687 67 read -resize \$1 shk;
#N canvas 0 50 450 250 (subpatch) 0;
#X array shk 8559 float 2;
#X coords 0 1 8559 -1 200 140 1;
#X restore 686 168 graph;
#X connect 0 0 1 0;
#X connect 2 0 3 0;
#X connect 2 0 10 0;
#X connect 2 0 13 0;
#X connect 2 0 18 0;
#X connect 3 0 4 0;
#X connect 4 0 0 0;
#X connect 7 0 8 0;
#X connect 9 0 7 0;
#X connect 10 0 9 0;
#X connect 11 0 12 0;
#X connect 13 0 14 0;
#X connect 14 0 11 0;
#X connect 16 0 17 0;
#X connect 18 0 19 0;
#X connect 19 0 16 0;
#X restore 272 4 pd arraySnd;
#X obj 16 239 bass~;
#X obj 519 18 tgl 15 0 empty empty empty 17 7 0 10 -262144 -1 -1 0
1;
#X obj 519 38 s godStop;
#X obj 426 259 vsl 15 128 0 1 0 0 empty empty Drums 0 -9 0 10 -262144
-1 -1 12000 1;
#X obj 507 259 vsl 15 128 0 1 0 0 empty empty 303_misc 0 -9 0 10 -262144
-1 -1 1986 1;
#X obj 582 257 vsl 15 128 0 1 0 0 empty empty 303 0 -9 0 10 -262144
-1 -1 5000 1;
#X obj 426 395 s vDrum;
#X obj 507 395 s v3Ms;
#X obj 507 221 r v3init;
#X obj 582 393 s v303;
#X obj 662 259 vsl 15 128 0 1 0 0 empty empty Bass 0 -9 0 10 -262144
-1 -1 5480 1;
#X obj 662 395 s vBass;
#X obj 661 223 r vBinit;
#X obj 240 228 vsl 15 128 0 1 0 0 empty empty Master 0 -9 0 10 -262144
-1 -1 12700 1;
#X obj 240 365 line~ 50;
#X obj 186 429 dac~;
#X obj 180 403 *~;
#X obj 212 403 *~;
#X obj 112 239 303misc~;
#X obj 61 239 drums~;
#X obj 180 239 303~;
#X text 54 524 utilisation de freeverb~;
#X connect 0 0 2 0;
#X connect 0 0 3 0;
#X connect 0 0 7 0;
#X connect 2 0 4 2;
#X connect 2 0 5 2;
#X connect 2 0 8 0;
#X connect 4 0 5 0;
#X connect 5 0 6 0;
#X connect 6 0 28 0;
#X connect 6 0 29 1;
#X connect 6 0 30 0;
#X connect 7 0 10 0;
#X connect 7 0 29 0;
#X connect 10 0 26 0;
#X connect 10 1 27 0;
#X connect 11 0 12 0;
#X connect 13 0 16 0;
#X connect 14 0 17 0;
#X connect 15 0 19 0;
#X connect 18 0 14 0;
#X connect 20 0 21 0;
#X connect 22 0 20 0;
#X connect 23 0 24 0;
#X connect 24 0 27 1;
#X connect 24 0 26 1;
#X connect 26 0 25 0;
#X connect 27 0 25 1;
#X connect 28 0 26 0;
#X connect 28 1 27 0;
#X connect 29 0 4 0;
#X connect 29 1 26 0;
#X connect 29 2 27 0;
#X connect 30 0 26 0;
#X connect 30 1 27 0;
