#N canvas -8 -8 1920 1007 12;
#X obj 89 647 dac~;
#X obj 83 621 *~;
#X obj 115 621 *~;
#X obj 157 714 line~;
#X obj 160 669 hsl 128 15 0 1 0 0 empty empty empty -2 -8 0 10 -258113
-4032 -4032 9900 1;
#X msg 157 692 \$1 50;
#X obj 54 6 tgl 15 0 empty empty empty 17 7 0 10 -262144 -1 -1 0 1
;
#X obj 54 288 sel 0 1 2 3 4 5 6 7;
#X obj 62 313 bng 15 250 50 0 empty empty empty 17 7 0 10 -262144 -1
-1;
#X obj 77 313 bng 15 250 50 0 empty empty empty 17 7 0 10 -262144 -1
-1;
#X obj 92 313 bng 15 250 50 0 empty empty empty 17 7 0 10 -262144 -1
-1;
#X obj 107 313 bng 15 250 50 0 empty empty empty 17 7 0 10 -262144
-1 -1;
#X obj 122 313 bng 15 250 50 0 empty empty empty 17 7 0 10 -262144
-1 -1;
#X obj 137 313 bng 15 250 50 0 empty empty empty 17 7 0 10 -262144
-1 -1;
#X obj 152 313 bng 15 250 50 0 empty empty empty 17 7 0 10 -262144
-1 -1;
#X obj 167 313 bng 15 250 50 0 empty empty empty 17 7 0 10 -262144
-1 -1;
#X obj 62 333 tabplay~ kick;
#X obj 378 373 tabplay~ hh;
#X obj 20 237 vsl 15 128 20 1100 1 0 empty empty cutoff 0 -9 0 10 -262144
-1 -1 0 1;
#X obj 61 362 hip~;
#X floatatom 17 385 5 0 0 0 - - -;
#X obj 125 132 / 2;
#X obj 125 154 int;
#X text 125 52 mesure;
#X obj 85 21 sel 0;
#X obj 124 178 hradio 15 1 0 8 empty empty empty 0 -8 0 10 -262144
-1 -1 1;
#X obj 501 351 tabplay~ snr;
#N canvas 853 273 450 300 delayLR 0;
#X obj 152 18 inlet~ audio;
#X obj 47 220 outlet~ L;
#X obj 300 221 outlet~ R;
#X obj 249 107 *~ 0.6;
#X obj 278 139 delread~ delayR 150;
#X obj 278 82 delwrite~ delayR 500;
#X obj 69 108 *~ 0.6;
#X obj 98 83 delwrite~ delayL 400;
#X obj 98 140 delread~ delayL 200;
#X connect 0 0 7 0;
#X connect 0 0 5 0;
#X connect 3 0 5 0;
#X connect 4 0 3 0;
#X connect 4 0 2 0;
#X connect 6 0 7 0;
#X connect 8 0 6 0;
#X connect 8 0 1 0;
#X restore 424 488 pd delayLR;
#N canvas 982 220 450 300 2minStop 0;
#X obj 102 41 inlet;
#X obj 124 210 outlet;
#X obj 106 70 metro 1000;
#X floatatom 106 118 5 0 0 0 - - -;
#X obj 106 165 bng 15 250 50 0 empty empty empty 17 7 0 10 -262144
-1 -1;
#X obj 106 141 sel 120;
#X obj 106 94 counter 120;
#X connect 0 0 2 0;
#X connect 2 0 6 0;
#X connect 3 0 5 0;
#X connect 4 0 1 0;
#X connect 5 0 4 0;
#X connect 6 0 3 0;
#X restore 157 11 pd 2minStop;
#X obj 238 350 tabplay~ shk;
#X obj 196 288 sel 0 1 2 3 4 5 6 7;
#X obj 125 70 counter 7;
#X floatatom 125 94 5 0 0 0 - - -;
#X obj 338 98 counter;
#X floatatom 338 122 5 0 0 0 - - -;
#X obj 16 77 metroReset;
#X obj 59 50 s stop;
#X obj 346 310 sel 0 1 2 3 4 5 6 7;
#X obj 239 374 *~ 0.1;
#N canvas 0 50 1334 785 arraySnd 0;
#X obj 33 96 soundfiler;
#X floatatom 33 120 5 0 0 0 - - -;
#X obj 33 23 loadbang;
#X msg 33 48 symbol kick.wav;
#X msg 33 72 read -resize \$1 kick;
#N canvas 0 50 450 250 (subpatch) 0;
#X array kick 22858 float 2;
#X coords 0 1 22858 -1 200 140 1;
#X restore 31 167 graph;
#N canvas 0 50 450 250 (subpatch) 0;
#X array hh 22858 float 2;
#X coords 0 1 22858 -1 200 140 1;
#X restore 467 168 graph;
#X obj 472 93 soundfiler;
#X floatatom 472 117 5 0 0 0 - - -;
#X msg 472 69 read -resize \$1 hh;
#X msg 472 45 symbol hh.wav;
#X obj 250 95 soundfiler;
#X floatatom 250 119 5 0 0 0 - - -;
#X msg 250 47 symbol snr.wav;
#X msg 250 70 read -resize \$1 snr;
#N canvas 0 50 450 250 (subpatch) 0;
#X array snr 21001 float 2;
#X coords 0 1 21001 -1 200 140 1;
#X restore 243 168 graph;
#X obj 687 92 soundfiler;
#X floatatom 687 116 5 0 0 0 - - -;
#X msg 687 44 symbol shk.wav;
#X msg 687 67 read -resize \$1 shk;
#N canvas 0 50 450 250 (subpatch) 0;
#X array shk 8559 float 2;
#X coords 0 1 8559 -1 200 140 1;
#X restore 686 168 graph;
#X connect 0 0 1 0;
#X connect 2 0 3 0;
#X connect 2 0 10 0;
#X connect 2 0 13 0;
#X connect 2 0 18 0;
#X connect 3 0 4 0;
#X connect 4 0 0 0;
#X connect 7 0 8 0;
#X connect 9 0 7 0;
#X connect 10 0 9 0;
#X connect 11 0 12 0;
#X connect 13 0 14 0;
#X connect 14 0 11 0;
#X connect 16 0 17 0;
#X connect 18 0 19 0;
#X connect 19 0 16 0;
#X restore 296 15 pd arraySnd;
#X obj 500 286 selMetro 8 32;
#X obj 500 309 sel 0 1 2 3 4 5 6 7;
#X obj 926 761 dac~;
#X obj 927 721 *~;
#X obj 959 721 *~;
#X obj 994 755 line~;
#X msg 1001 719 \$1 50;
#N canvas 0 50 450 300 oscTest 0;
#X obj 858 566 dac~;
#X obj 852 540 *~;
#X obj 884 540 *~;
#X obj 926 560 line~;
#X obj 929 515 hsl 128 15 0 1 0 0 empty empty empty -2 -8 0 10 -258113
-4032 -4032 0 1;
#X msg 926 538 \$1 50;
#X floatatom 762 277 5 0 0 0 - - -;
#X obj 762 300 mtof;
#X obj 762 324 +~;
#X floatatom 821 282 5 0 0 0 - - -;
#X obj 821 305 osc~;
#X obj 821 329 *~;
#X floatatom 860 305 5 0 0 0 - - -;
#X obj 743 410 +~;
#X obj 762 357 osc~;
#X obj 762 381 *~;
#X floatatom 801 357 5 0 0 0 - - -;
#X obj 780 461 osc~;
#X floatatom 709 325 5 0 0 0 - - -;
#X obj 686 369 phasor~;
#X obj 822 499 lop~;
#X floatatom 852 467 5 0 0 0 - - -;
#X obj 759 219 mtof;
#X msg 728 181 32;
#X msg 813 177 34;
#X obj 754 56 tgl 15 0 empty empty empty 17 7 0 10 -262144 -1 -1 0
1;
#X obj 754 76 metro 117;
#X floatatom 754 124 5 0 0 0 - - -;
#X msg 819 257 514;
#X msg 866 278 1570;
#X msg 706 299 128;
#X msg 864 344 140;
#X msg 858 439 370;
#X obj 753 102 counter 3;
#X obj 754 144 sel 3;
#X connect 1 0 0 0;
#X connect 2 0 0 1;
#X connect 3 0 1 1;
#X connect 3 0 2 1;
#X connect 4 0 5 0;
#X connect 5 0 3 0;
#X connect 6 0 7 0;
#X connect 7 0 8 0;
#X connect 8 0 14 0;
#X connect 9 0 10 0;
#X connect 10 0 11 0;
#X connect 11 0 8 1;
#X connect 12 0 11 1;
#X connect 13 0 17 0;
#X connect 14 0 15 0;
#X connect 15 0 13 1;
#X connect 16 0 15 1;
#X connect 17 0 20 0;
#X connect 18 0 19 0;
#X connect 19 0 13 0;
#X connect 20 0 1 0;
#X connect 20 0 2 0;
#X connect 21 0 20 1;
#X connect 22 0 6 0;
#X connect 23 0 22 0;
#X connect 24 0 22 0;
#X connect 25 0 26 0;
#X connect 26 0 33 0;
#X connect 27 0 34 0;
#X connect 28 0 9 0;
#X connect 29 0 12 0;
#X connect 30 0 18 0;
#X connect 31 0 16 0;
#X connect 32 0 21 0;
#X connect 33 0 27 0;
#X connect 34 0 23 0;
#X connect 34 1 24 0;
#X restore 425 16 pd oscTest;
#N canvas 648 286 424 361 squareW 0;
#X obj 36 107 phasor~;
#X obj 110 108 phasor~;
#X obj 79 152 +~;
#X obj 79 176 -~ 1;
#X obj 110 77 * -1;
#X msg 154 72 0;
#X msg 203 74 0.5;
#X obj 182 33 bng 15 250 50 0 empty empty empty 17 7 0 10 -262144 -1
-1;
#X obj 37 17 inlet frq;
#X obj 79 287 outlet~;
#X obj 181 8 loadbang;
#X obj 79 200 *~ 0.6;
#X obj 124 172 inlet;
#X obj 79 250 lop~ 600;
#X obj 37 43 mtof;
#X connect 0 0 2 0;
#X connect 1 0 2 0;
#X connect 2 0 3 0;
#X connect 3 0 11 0;
#X connect 4 0 1 0;
#X connect 5 0 0 1;
#X connect 6 0 1 1;
#X connect 7 0 6 0;
#X connect 7 0 5 0;
#X connect 8 0 14 0;
#X connect 10 0 7 0;
#X connect 11 0 13 0;
#X connect 12 0 11 1;
#X connect 13 0 9 0;
#X connect 14 0 0 0;
#X connect 14 0 4 0;
#X restore 1008 406 pd squareW;
#N canvas 821 241 424 361 trianW 0;
#X obj 36 107 phasor~;
#X obj 110 108 phasor~;
#X obj 110 70 * -1;
#X msg 154 72 0;
#X obj 182 33 bng 15 250 50 0 empty empty empty 17 7 0 10 -262144 -1
-1;
#X obj 33 7 inlet frq;
#X obj 85 259 outlet~;
#X obj 181 8 loadbang;
#X obj 36 131 *~ 2;
#X obj 36 155 -~ 1;
#X obj 35 180 clip~ 0 1;
#X obj 110 131 *~ 2;
#X obj 110 155 -~ 1;
#X obj 110 179 clip~ 0 1;
#X obj 85 206 +~;
#X obj 129 210 inlet;
#X obj 85 235 *~ 0.5;
#X obj 33 31 mtof;
#X connect 0 0 8 0;
#X connect 1 0 11 0;
#X connect 2 0 1 0;
#X connect 3 0 0 1;
#X connect 3 0 1 1;
#X connect 4 0 3 0;
#X connect 5 0 17 0;
#X connect 7 0 4 0;
#X connect 8 0 9 0;
#X connect 9 0 10 0;
#X connect 10 0 14 0;
#X connect 11 0 12 0;
#X connect 12 0 13 0;
#X connect 13 0 14 1;
#X connect 14 0 16 0;
#X connect 15 0 16 1;
#X connect 16 0 6 0;
#X connect 17 0 2 0;
#X connect 17 0 0 0;
#X restore 1086 405 pd trianW;
#N canvas 738 190 450 300 sawtW 0;
#X obj 52 106 phasor~;
#X obj 52 130 *~ 2;
#X obj 52 154 -~ 1;
#X obj 52 178 *~ 0.1;
#X obj 52 202 outlet~;
#X obj 52 57 inlet fr;
#X obj 108 157 inlet;
#X obj 52 81 mtof;
#X connect 0 0 1 0;
#X connect 1 0 2 0;
#X connect 2 0 3 0;
#X connect 3 0 4 0;
#X connect 5 0 7 0;
#X connect 6 0 3 1;
#X connect 7 0 0 0;
#X restore 944 408 pd sawtW;
#X obj 1046 510 bob~;
#X obj 1029 161 counter 1;
#X obj 1029 185 sel 1;
#X msg 1023 211 24;
#X msg 1060 210 28;
#X obj 501 375 *~ 0.2;
#X obj 475 512 *~ 0.05;
#X obj 424 512 *~ 0.05;
#X floatatom 845 425 5 0 0 0 - - -;
#X obj 845 447 pack 0 50;
#X obj 845 469 line~;
#X obj 1265 408 vsl 15 128 0 1 0 0 empty empty SwT 0 -9 0 10 -262144
-1 -1 8300 1;
#X obj 1286 408 vsl 15 128 0 1 0 0 empty empty Sq 0 -9 0 10 -262144
-1 -1 10400 1;
#X obj 1307 408 vsl 15 128 0 1 0 0 empty empty Tr 0 -9 0 10 -262144
-1 -1 8500 1;
#X obj 1085 345 + 12;
#X obj 1046 534 lop~ 55;
#X obj 1327 408 vsl 15 128 0 1 0 0 empty empty Sub 0 -9 0 10 -262144
-1 -1 2800 1;
#X obj 947 351 +;
#X obj 1019 344 +;
#X msg 845 403 200;
#N canvas 1064 273 450 300 sub 0;
#X obj 37 59 osc~ 100;
#X obj 37 37 mtof;
#X obj 37 80 *~;
#X obj 37 104 outlet~;
#X obj 37 15 inlet;
#X obj 66 81 inlet lvl;
#X connect 0 0 2 0;
#X connect 1 0 0 0;
#X connect 2 0 3 0;
#X connect 4 0 1 0;
#X connect 5 0 2 1;
#X restore 1158 406 pd sub;
#X floatatom 1216 565 5 0 0 0 - - -;
#X floatatom 1267 568 5 0 0 0 - - -;
#X floatatom 1295 545 5 0 0 0 - - -;
#X floatatom 1333 566 5 0 0 0 - - -;
#N canvas 592 94 1191 805 sidechain 0;
#X obj 313 302 hsl 128 15 0 1 0 0 empty empty empty -2 -8 0 10 -258113
-4032 -4032 0 1;
#X obj 156 135 fiddle;
#X floatatom 156 161 5 0 0 0 - - -;
#X obj 156 184 * -1;
#X obj 156 207 + 70;
#X floatatom 156 255 5 0 0 0 - - -;
#X obj 159 277 hsl 128 15 -1 0 0 0 empty empty empty -2 -8 0 10 -262144
-1 -1 12700 1;
#X floatatom 292 347 5 0 0 0 - - -;
#X obj 156 232 * 0.05;
#X obj 156 111 inlet~ kick;
#X obj 292 370 outlet;
#X obj 292 323 *;
#X floatatom 310 280 5 0 0 0 - - -;
#X obj 310 257 expr if($f1 < 0.01 \, 0 \, 0.4) \;;
#X connect 0 0 11 1;
#X connect 1 3 2 0;
#X connect 1 3 13 0;
#X connect 2 0 3 0;
#X connect 3 0 4 0;
#X connect 4 0 8 0;
#X connect 5 0 6 0;
#X connect 6 0 11 0;
#X connect 7 0 10 0;
#X connect 8 0 5 0;
#X connect 9 0 1 0;
#X connect 11 0 7 0;
#X connect 12 0 0 0;
#X connect 13 0 12 0;
#X restore 694 614 pd sidechain;
#X obj 1242 256 loadbang 0.65;
#X obj 1244 280 loadbang 0.8;
#X obj 1245 304 loadbang 0.67;
#X obj 1245 332 loadbang 0.2;
#X obj 346 287 selMetro 4 8;
#X obj 196 265 selMetro 12 8;
#X connect 1 0 0 0;
#X connect 2 0 0 1;
#X connect 3 0 1 1;
#X connect 3 0 2 1;
#X connect 4 0 5 0;
#X connect 5 0 3 0;
#X connect 6 0 24 0;
#X connect 6 0 28 0;
#X connect 6 0 35 0;
#X connect 7 0 8 0;
#X connect 7 0 31 0;
#X connect 7 1 9 0;
#X connect 7 2 10 0;
#X connect 7 3 11 0;
#X connect 7 4 12 0;
#X connect 7 5 13 0;
#X connect 7 6 14 0;
#X connect 7 7 15 0;
#X connect 8 0 16 0;
#X connect 12 0 16 0;
#X connect 16 0 19 0;
#X connect 16 0 76 0;
#X connect 17 0 1 0;
#X connect 17 0 2 0;
#X connect 17 0 27 0;
#X connect 18 0 20 0;
#X connect 19 0 1 0;
#X connect 19 0 2 0;
#X connect 20 0 19 1;
#X connect 21 0 22 0;
#X connect 22 0 25 0;
#X connect 24 0 31 2;
#X connect 24 0 33 2;
#X connect 24 0 36 0;
#X connect 26 0 27 0;
#X connect 26 0 56 0;
#X connect 27 0 58 0;
#X connect 27 1 57 0;
#X connect 29 0 38 0;
#X connect 30 3 29 0;
#X connect 30 4 29 0;
#X connect 31 0 21 0;
#X connect 31 0 32 0;
#X connect 31 0 33 0;
#X connect 33 0 34 0;
#X connect 34 0 40 0;
#X connect 34 0 81 0;
#X connect 34 0 82 0;
#X connect 35 0 7 0;
#X connect 35 1 52 0;
#X connect 37 1 17 0;
#X connect 37 2 17 0;
#X connect 37 3 17 0;
#X connect 37 5 17 0;
#X connect 37 6 17 0;
#X connect 37 7 17 0;
#X connect 38 0 2 0;
#X connect 38 0 1 0;
#X connect 40 0 41 0;
#X connect 43 0 42 0;
#X connect 44 0 42 1;
#X connect 45 0 43 1;
#X connect 45 0 44 1;
#X connect 46 0 45 0;
#X connect 48 0 51 0;
#X connect 49 0 51 0;
#X connect 50 0 51 0;
#X connect 51 0 66 0;
#X connect 52 0 53 0;
#X connect 53 0 54 0;
#X connect 53 1 55 0;
#X connect 54 0 65 0;
#X connect 54 0 68 0;
#X connect 54 0 69 0;
#X connect 54 0 71 0;
#X connect 55 0 65 0;
#X connect 55 0 68 0;
#X connect 55 0 69 0;
#X connect 55 0 71 0;
#X connect 56 0 1 0;
#X connect 56 0 2 0;
#X connect 57 0 2 0;
#X connect 58 0 1 0;
#X connect 59 0 60 0;
#X connect 60 0 61 0;
#X connect 61 0 51 1;
#X connect 62 0 50 1;
#X connect 62 0 72 0;
#X connect 63 0 48 1;
#X connect 63 0 73 0;
#X connect 64 0 49 1;
#X connect 64 0 74 0;
#X connect 65 0 49 0;
#X connect 66 0 43 0;
#X connect 66 0 44 0;
#X connect 67 0 71 1;
#X connect 67 0 75 0;
#X connect 68 0 50 0;
#X connect 69 0 48 0;
#X connect 70 0 59 0;
#X connect 71 0 43 0;
#X connect 71 0 44 0;
#X connect 76 0 46 0;
#X connect 77 0 62 0;
#X connect 78 0 63 0;
#X connect 79 0 64 0;
#X connect 80 0 67 0;
#X connect 81 0 37 0;
#X connect 82 0 30 0;
