#N canvas 267 172 917 636 12;
#X obj 153 297 phasor~;
#X obj 140 339 expr~ $v1 > $v2;
#X obj 242 247 osc~;
#X floatatom 242 223 5 0 0 0 - - -;
#X obj 121 247 sig~;
#X floatatom 121 225 5 0 0 0 - - -;
#X obj 157 247 osc~ 5;
#X obj 140 272 +~;
#X obj 270 346 envelo~;
#X obj 251 369 *~;
#X floatatom 316 324 5 0 0 0 - - -;
#X obj 121 202 t f b;
#X obj 121 179 mtof;
#X msg 316 302 110;
#X obj 316 280 loadbang;
#X obj 123 80 metro 117;
#X obj 242 173 loadbang;
#X msg 242 197 1;
#X obj 616 445 line~ 50;
#X obj 251 417 *~;
#X obj 123 60 tgl 15 0 empty empty empty 17 7 0 10 -262144 -1 -1 1
1;
#N canvas 0 50 450 250 (subpatch) 0;
#X array sqr 1027 float 2;
#X coords 0 1 1027 -1 200 140 1 0 0;
#X restore 515 23 graph;
#X msg 515 186 sinesum 1024 1 0 0.33 0 0.2 0 0.143 0 0.111 0 0.093
;
#X msg 121 155 62;
#X obj 242 295 +~ 0.5;
#X obj 242 271 *~ 0.4;
#X obj 515 207 s sqr;
#X obj 53 298 tabosc4~ sqr;
#X obj 123 127 sel 11;
#X msg 156 155 63;
#X msg 380 332 990;
#X obj 251 393 vcf~;
#X msg 381 353 10;
#X text 410 331 frq;
#X text 412 354 Q;
#X obj 350 111 vline~;
#X obj 415 149 snapshot~;
#X floatatom 415 196 5 0 0 0 - - -;
#X obj 415 107 tgl 15 0 empty empty empty 17 7 0 10 -262144 -1 -1 1
1;
#X msg 350 90 0;
#X obj 415 124 metro 10;
#X obj 415 86 loadbang;
#X obj 341 49 bng 15 250 50 0 empty empty empty 17 7 0 10 -262144 -1
-1;
#X obj 415 173 + 1;
#X msg 341 67 9 9360;
#X obj 123 103 counter 23;
#X obj 515 165 loadbang;
#X obj 123 13 inlet bang;
#X obj 242 13 r reset;
#X text 237 153 modulation;
#X obj 251 443 outlet~;
#X text 107 517 Son iteratif avec onde carre et en DdS;
#X text 107 536 Modulation avec Sinus accelerant;
#X text 391 66 speed up;
#X obj 555 334 vline~;
#X obj 616 356 snapshot~;
#X floatatom 616 403 5 0 0 0 - - -;
#X obj 616 314 tgl 15 0 empty empty empty 17 7 0 10 -262144 -1 -1 1
1;
#X msg 555 312 0;
#X obj 616 331 metro 10;
#X obj 616 293 loadbang;
#X obj 515 247 bng 15 250 50 0 empty empty empty 17 7 0 10 -262144
-1 -1;
#X text 563 246 volume up&down;
#X obj 123 37 sel 51;
#X obj 555 290 r reset;
#X msg 516 266 0.2 8360 \, 0.12 2000 12000;
#X obj 616 380 + 0.05;
#X obj 619 427 hsl 128 15 0 1 0 0 empty empty empty -2 -8 0 10 -262144
-1 -1 2159 1;
#X connect 0 0 1 0;
#X connect 1 0 9 0;
#X connect 2 0 25 0;
#X connect 3 0 2 0;
#X connect 4 0 7 0;
#X connect 5 0 4 0;
#X connect 6 0 7 1;
#X connect 7 0 0 0;
#X connect 7 0 27 0;
#X connect 8 0 9 1;
#X connect 9 0 31 0;
#X connect 10 0 8 1;
#X connect 11 0 5 0;
#X connect 11 1 8 0;
#X connect 12 0 11 0;
#X connect 13 0 10 0;
#X connect 14 0 13 0;
#X connect 14 0 30 0;
#X connect 14 0 32 0;
#X connect 15 0 45 0;
#X connect 16 0 17 0;
#X connect 17 0 3 0;
#X connect 18 0 19 1;
#X connect 19 0 50 0;
#X connect 20 0 15 0;
#X connect 22 0 26 0;
#X connect 23 0 12 0;
#X connect 24 0 1 1;
#X connect 25 0 24 0;
#X connect 27 0 9 0;
#X connect 28 0 29 0;
#X connect 28 1 23 0;
#X connect 29 0 12 0;
#X connect 30 0 31 1;
#X connect 31 0 19 0;
#X connect 32 0 31 2;
#X connect 35 0 36 0;
#X connect 36 0 43 0;
#X connect 37 0 3 0;
#X connect 38 0 40 0;
#X connect 39 0 35 0;
#X connect 40 0 36 0;
#X connect 41 0 38 0;
#X connect 42 0 44 0;
#X connect 43 0 37 0;
#X connect 44 0 35 0;
#X connect 45 0 28 0;
#X connect 46 0 22 0;
#X connect 47 0 63 0;
#X connect 48 0 20 0;
#X connect 48 0 39 0;
#X connect 54 0 55 0;
#X connect 55 0 66 0;
#X connect 56 0 67 0;
#X connect 57 0 59 0;
#X connect 58 0 54 0;
#X connect 59 0 55 0;
#X connect 60 0 57 0;
#X connect 61 0 65 0;
#X connect 63 0 42 0;
#X connect 63 0 20 0;
#X connect 63 0 61 0;
#X connect 64 0 58 0;
#X connect 65 0 54 0;
#X connect 66 0 56 0;
#X connect 67 0 18 0;
