#N canvas 549 167 1175 636 12;
#X obj 153 297 phasor~;
#X obj 140 339 expr~ $v1 > $v2;
#X obj 242 247 osc~;
#X floatatom 242 223 5 0 0 0 - - -;
#X obj 121 247 sig~;
#X floatatom 121 225 5 0 0 0 - - -;
#X obj 157 247 osc~ 5;
#X obj 140 272 +~;
#X obj 270 346 envelo~;
#X obj 251 369 *~;
#X floatatom 316 324 5 0 0 0 - - -;
#X obj 121 202 t f b;
#X obj 121 179 mtof;
#X msg 316 302 110;
#X obj 316 280 loadbang;
#X obj 123 80 metro 117;
#X obj 242 173 loadbang;
#X msg 242 197 1;
#X obj 616 445 line~ 50;
#X obj 251 417 *~;
#X obj 123 60 tgl 15 0 empty empty empty 17 7 0 10 -262144 -1 -1 0
1;
#N canvas 0 50 450 250 (subpatch) 0;
#X array sqr 1027 float 2;
#X coords 0 1 1027 -1 200 140 1 0 0;
#X restore 401 487 graph;
#X msg 401 650 sinesum 1024 1 0 0.33 0 0.2 0 0.143 0 0.111 0 0.093
;
#X msg 121 155 62;
#X obj 242 295 +~ 0.5;
#X obj 242 271 *~ 0.4;
#X obj 401 671 s sqr;
#X obj 53 298 tabosc4~ sqr;
#X obj 123 127 sel 11;
#X msg 156 155 63;
#X msg 380 332 990;
#X obj 251 393 vcf~;
#X msg 381 353 10;
#X text 410 331 frq;
#X text 412 354 Q;
#X obj 123 103 counter 23;
#X obj 401 629 loadbang;
#X obj 123 4 inlet bang;
#X obj 226 30 r reset, f 8;
#X text 237 153 modulation;
#X obj 251 495 outlet~;
#X text 111 575 Son iteratif avec onde carre et en DdS;
#X text 111 594 Modulation avec Sinus accelerant;
#X obj 555 334 vline~;
#X obj 616 356 snapshot~;
#X floatatom 616 403 5 0 0 0 - - -;
#X obj 616 314 tgl 15 0 empty empty empty 17 7 0 10 -262144 -1 -1 1
1;
#X msg 555 312 0;
#X obj 616 331 metro 10;
#X obj 616 293 loadbang;
#X text 563 246 volume up&down;
#X obj 555 290 r reset;
#X msg 516 266 0.2 8360 \, 0.12 2000 12000;
#X obj 616 380 + 0.05;
#X obj 619 427 hsl 128 15 0 1 0 0 empty empty empty -2 -8 0 10 -262144
-1 -1 635 1;
#X obj 357 168 line 1 10;
#X msg 351 103 1, f 2;
#X msg 358 124 20 9360;
#X msg 361 145 1 9360;
#X text 376 100 changement osc;
#X obj 552 79 line 117 10;
#X msg 640 55 117;
#X msg 552 54 468 3744;
#X obj 640 30 r reset;
#X obj 552 28 sel 68;
#X obj 251 443 freeverb~;
#X msg 748 105 wet \$1;
#X obj 748 81 line 0 10;
#X msg 748 56 0.75 3744;
#X msg 713 57 0;
#X msg 162 408 dry 1;
#X obj 162 383 loadbang;
#X obj 713 32 loadbang;
#X text 830 56 ajout reverb;
#X text 553 99 changement bpm;
#X obj 110 501 line~;
#X obj 251 469 *~;
#X msg 110 477 \$1 50;
#X obj 110 451 r vDot;
#X obj 23 499 s vDotinit;
#X msg 23 474 0.7;
#X obj 123 29 sel 51 61 74;
#X connect 0 0 1 0;
#X connect 1 0 9 0;
#X connect 2 0 25 0;
#X connect 3 0 2 0;
#X connect 4 0 7 0;
#X connect 5 0 4 0;
#X connect 6 0 7 1;
#X connect 7 0 0 0;
#X connect 7 0 27 0;
#X connect 8 0 9 1;
#X connect 9 0 31 0;
#X connect 10 0 8 1;
#X connect 11 0 5 0;
#X connect 11 1 8 0;
#X connect 12 0 11 0;
#X connect 13 0 10 0;
#X connect 14 0 13 0;
#X connect 14 0 30 0;
#X connect 14 0 32 0;
#X connect 15 0 35 0;
#X connect 16 0 17 0;
#X connect 17 0 3 0;
#X connect 18 0 19 1;
#X connect 19 0 65 0;
#X connect 19 0 65 1;
#X connect 20 0 15 0;
#X connect 22 0 26 0;
#X connect 23 0 12 0;
#X connect 24 0 1 1;
#X connect 25 0 24 0;
#X connect 27 0 9 0;
#X connect 28 0 29 0;
#X connect 28 1 23 0;
#X connect 29 0 12 0;
#X connect 30 0 31 1;
#X connect 31 0 19 0;
#X connect 32 0 31 2;
#X connect 35 0 28 0;
#X connect 36 0 22 0;
#X connect 37 0 64 0;
#X connect 37 0 81 0;
#X connect 38 0 20 0;
#X connect 38 0 56 0;
#X connect 43 0 44 0;
#X connect 44 0 53 0;
#X connect 45 0 54 0;
#X connect 46 0 48 0;
#X connect 47 0 43 0;
#X connect 48 0 44 0;
#X connect 49 0 46 0;
#X connect 51 0 47 0;
#X connect 52 0 43 0;
#X connect 53 0 45 0;
#X connect 54 0 18 0;
#X connect 55 0 3 0;
#X connect 56 0 55 0;
#X connect 57 0 55 0;
#X connect 58 0 55 0;
#X connect 60 0 15 1;
#X connect 61 0 60 0;
#X connect 62 0 60 0;
#X connect 63 0 61 0;
#X connect 63 0 69 0;
#X connect 64 0 62 0;
#X connect 64 0 68 0;
#X connect 65 0 76 0;
#X connect 66 0 65 0;
#X connect 67 0 66 0;
#X connect 68 0 67 0;
#X connect 69 0 67 0;
#X connect 70 0 65 0;
#X connect 71 0 70 0;
#X connect 71 0 80 0;
#X connect 72 0 69 0;
#X connect 72 0 61 0;
#X connect 75 0 76 1;
#X connect 76 0 40 0;
#X connect 77 0 75 0;
#X connect 78 0 77 0;
#X connect 80 0 79 0;
#X connect 81 0 20 0;
#X connect 81 0 57 0;
#X connect 81 0 52 0;
#X connect 81 1 58 0;
#X connect 81 2 20 0;
