#N canvas 257 100 1472 728 12;
#X obj 357 187 sel 0 1 2 3 4 5 6 7;
#X obj 365 212 bng 15 250 50 0 empty empty empty 17 7 0 10 -262144
-1 -1;
#X obj 380 212 bng 15 250 50 0 empty empty empty 17 7 0 10 -262144
-1 -1;
#X obj 395 212 bng 15 250 50 0 empty empty empty 17 7 0 10 -262144
-1 -1;
#X obj 410 212 bng 15 250 50 0 empty empty empty 17 7 0 10 -262144
-1 -1;
#X obj 425 212 bng 15 250 50 0 empty empty empty 17 7 0 10 -262144
-1 -1;
#X obj 440 212 bng 15 250 50 0 empty empty empty 17 7 0 10 -262144
-1 -1;
#X obj 455 212 bng 15 250 50 0 empty empty empty 17 7 0 10 -262144
-1 -1;
#X obj 470 212 bng 15 250 50 0 empty empty empty 17 7 0 10 -262144
-1 -1;
#X obj 365 236 tabplay~ kick;
#X obj 908 238 tabplay~ hh;
#X obj 1089 234 tabplay~ snr;
#N canvas 853 273 450 300 delayLR 0;
#X obj 152 18 inlet~ audio;
#X obj 47 220 outlet~ L;
#X obj 300 221 outlet~ R;
#X obj 249 107 *~ 0.6;
#X obj 278 139 delread~ delayR 150;
#X obj 278 82 delwrite~ delayR 500;
#X obj 69 108 *~ 0.6;
#X obj 98 83 delwrite~ delayL 400;
#X obj 98 140 delread~ delayL 200;
#X connect 0 0 7 0;
#X connect 0 0 5 0;
#X connect 3 0 5 0;
#X connect 4 0 3 0;
#X connect 4 0 2 0;
#X connect 6 0 7 0;
#X connect 8 0 6 0;
#X connect 8 0 1 0;
#X restore 908 264 pd delayLR;
#X obj 622 235 tabplay~ shk;
#X obj 570 210 sel 0 1 2 3 4 5 6 7;
#X obj 870 202 sel 0 1 2 3 4 5 6 7;
#X obj 1024 178 selMetro 8 32;
#X obj 1024 201 sel 0 1 2 3 4 5 6 7;
#X obj 870 179 selMetro 4 8;
#X obj 570 185 selMetro 12 8;
#X obj 412 263 s~ kicks;
#X obj 357 143 inlet kickmetro;
#X obj 690 44 inlet counter;
#X obj 440 647 outlet~ R;
#X obj 368 647 outlet~ L;
#X obj 257 213 outlet toCount;
#X obj 366 263 hip~;
#X obj 239 587 line~;
#X msg 239 565 \$1 50;
#X obj 239 541 r vDrum;
#X obj 439 624 *~;
#X obj 368 625 *~;
#X obj 357 165 metroReset;
#X obj 367 375 *~ 1;
#X msg 392 351 0;
#X msg 482 352 1;
#X text 39 66 Drum avec kick independant des autres instruments.;
#X text 40 104 Application d'un filtre montant et descendant sur le
kick;
#X text 38 85 Le kick dicte les temps a cout de 2 avec [outlet toCount]
;
#N canvas 849 94 934 785 arraySnd 0;
#X obj 33 96 soundfiler;
#X floatatom 33 120 5 0 0 0 - - -;
#X obj 33 23 loadbang;
#X msg 33 48 symbol kick.wav;
#X msg 33 72 read -resize \$1 kick;
#N canvas 0 50 450 250 (subpatch) 0;
#X array kick 22858 float 2;
#X coords 0 1 22858 -1 200 140 1;
#X restore 31 167 graph;
#N canvas 0 50 450 250 (subpatch) 0;
#X array hh 22858 float 2;
#X coords 0 1 22858 -1 200 140 1;
#X restore 467 168 graph;
#X obj 472 93 soundfiler;
#X floatatom 472 117 5 0 0 0 - - -;
#X msg 472 69 read -resize \$1 hh;
#X obj 250 95 soundfiler;
#X floatatom 250 119 5 0 0 0 - - -;
#X msg 250 47 symbol snr.wav;
#X msg 250 70 read -resize \$1 snr;
#N canvas 0 50 450 250 (subpatch) 0;
#X array snr 21001 float 2;
#X coords 0 1 21001 -1 200 140 1;
#X restore 243 168 graph;
#X obj 687 92 soundfiler;
#X floatatom 687 116 5 0 0 0 - - -;
#X msg 687 44 symbol shk.wav;
#X msg 687 67 read -resize \$1 shk;
#N canvas 0 50 450 250 (subpatch) 0;
#X array shk 8559 float 2;
#X coords 0 1 8559 -1 200 140 1;
#X restore 686 168 graph;
#X msg 472 45 symbol hh.wav soundData;
#X connect 0 0 1 0;
#X connect 2 0 3 0;
#X connect 2 0 20 0;
#X connect 2 0 12 0;
#X connect 2 0 17 0;
#X connect 3 0 4 0;
#X connect 4 0 0 0;
#X connect 7 0 8 0;
#X connect 9 0 7 0;
#X connect 10 0 11 0;
#X connect 12 0 13 0;
#X connect 13 0 10 0;
#X connect 15 0 16 0;
#X connect 17 0 18 0;
#X connect 18 0 15 0;
#X connect 20 0 9 0;
#X restore 811 44 pd arraySnd;
#X obj 165 584 s vDrinit;
#X obj 165 539 loadbang;
#X text 1235 722 <-- intialisation du volume dans le mix;
#X text 411 282 send kick;
#X text 410 293 to sidechain;
#X text 411 306 in bass;
#X text 1024 156 snare;
#X text 871 156 HH;
#X text 573 162 Shaker;
#X text 437 166 kick;
#X floatatom 46 223 5 0 0 0 - - -;
#X obj 482 327 r reset;
#X msg 165 561 0.95;
#X obj 46 201 line 20 10;
#X msg 138 178 20 50;
#X msg 46 178 600 6488;
#X text 226 135 open/close filter;
#X obj 999 278 * 0.05;
#X obj 974 304 *~ 1;
#X obj 936 304 *~ 1;
#X obj 932 353 * 0.6;
#X obj 907 377 *~ 1;
#X obj 1089 332 *~ 1;
#X obj 1114 309 * 0.05;
#X obj 621 314 *~ 1;
#N canvas 640 137 450 300 fadeout 0;
#X obj 88 163 line 1 10;
#X msg 88 140 0 6488;
#X msg 152 136 1;
#X obj 152 114 r reset;
#X obj 152 93 loadbang;
#X obj 88 193 outlet;
#X obj 88 91 inlet;
#X obj 88 117 sel 64;
#X connect 0 0 5 0;
#X connect 1 0 0 0;
#X connect 2 0 0 0;
#X connect 3 0 2 0;
#X connect 4 0 2 0;
#X connect 6 0 7 0;
#X connect 7 0 1 0;
#X restore 1114 269 pd fadeout;
#N canvas 351 269 450 300 fadeout 0;
#X obj 88 170 line 1 10;
#X msg 88 140 0 6488;
#X msg 152 136 1;
#X obj 152 114 r reset;
#X obj 152 93 loadbang;
#X obj 88 196 outlet;
#X obj 88 91 inlet;
#X obj 88 117 sel 74;
#X connect 0 0 5 0;
#X connect 1 0 0 0;
#X connect 2 0 0 0;
#X connect 3 0 2 0;
#X connect 4 0 2 0;
#X connect 6 0 7 0;
#X connect 7 0 1 0;
#X restore 646 265 pd fadeout;
#X obj 646 291 * 0.1;
#N canvas 632 231 450 300 fadeout 0;
#X obj 88 163 line 1 10;
#X msg 88 140 0 6488;
#X msg 152 136 1;
#X obj 152 114 r reset;
#X obj 152 93 loadbang;
#X obj 88 193 outlet;
#X obj 88 91 inlet;
#X obj 88 117 sel 68;
#X connect 0 0 5 0;
#X connect 1 0 0 0;
#X connect 2 0 0 0;
#X connect 3 0 2 0;
#X connect 4 0 2 0;
#X connect 6 0 7 0;
#X connect 7 0 1 0;
#X restore 999 251 pd fadeout;
#X text 767 249 Ajout de delai;
#X text 766 265 sur le snare et HH.;
#X obj 139 154 r reset;
#X obj 46 140 sel 15 23 74;
#X obj 392 327 sel 51 61 80;
#X connect 0 0 25 0;
#X connect 0 0 1 0;
#X connect 0 1 2 0;
#X connect 0 2 3 0;
#X connect 0 3 4 0;
#X connect 0 4 5 0;
#X connect 0 5 6 0;
#X connect 0 6 7 0;
#X connect 0 7 8 0;
#X connect 1 0 9 0;
#X connect 5 0 9 0;
#X connect 9 0 20 0;
#X connect 9 0 26 0;
#X connect 10 0 12 0;
#X connect 10 0 61 0;
#X connect 11 0 12 0;
#X connect 11 0 62 0;
#X connect 12 0 59 0;
#X connect 12 1 58 0;
#X connect 13 0 64 0;
#X connect 14 3 13 0;
#X connect 14 4 13 0;
#X connect 15 1 10 0;
#X connect 15 2 10 0;
#X connect 15 3 10 0;
#X connect 15 5 10 0;
#X connect 15 6 10 0;
#X connect 15 7 10 0;
#X connect 16 0 17 0;
#X connect 17 4 11 0;
#X connect 18 0 15 0;
#X connect 19 0 14 0;
#X connect 21 0 32 0;
#X connect 22 0 16 0;
#X connect 22 0 18 0;
#X connect 22 0 19 0;
#X connect 22 0 65 0;
#X connect 22 0 66 0;
#X connect 22 0 68 0;
#X connect 22 0 72 0;
#X connect 22 0 73 0;
#X connect 26 0 33 0;
#X connect 27 0 30 1;
#X connect 27 0 31 1;
#X connect 28 0 27 0;
#X connect 29 0 28 0;
#X connect 30 0 23 0;
#X connect 31 0 24 0;
#X connect 32 0 0 0;
#X connect 33 0 31 0;
#X connect 33 0 30 0;
#X connect 34 0 33 1;
#X connect 35 0 33 1;
#X connect 41 0 52 0;
#X connect 50 0 26 1;
#X connect 51 0 35 0;
#X connect 52 0 40 0;
#X connect 53 0 50 0;
#X connect 54 0 53 0;
#X connect 55 0 53 0;
#X connect 57 0 58 1;
#X connect 57 0 59 1;
#X connect 58 0 30 0;
#X connect 59 0 31 0;
#X connect 60 0 61 1;
#X connect 61 0 30 0;
#X connect 61 0 31 0;
#X connect 62 0 30 0;
#X connect 62 0 31 0;
#X connect 63 0 62 1;
#X connect 64 0 30 0;
#X connect 64 0 31 0;
#X connect 65 0 63 0;
#X connect 66 0 67 0;
#X connect 67 0 64 1;
#X connect 68 0 57 0;
#X connect 68 0 60 0;
#X connect 71 0 54 0;
#X connect 72 0 55 0;
#X connect 72 1 54 0;
#X connect 72 2 55 0;
#X connect 73 0 34 0;
#X connect 73 1 35 0;
#X connect 73 2 34 0;
