#N canvas 151 45 1619 825 12;
#X obj 357 187 sel 0 1 2 3 4 5 6 7;
#X obj 365 212 bng 15 250 50 0 empty empty empty 17 7 0 10 -262144
-1 -1;
#X obj 380 212 bng 15 250 50 0 empty empty empty 17 7 0 10 -262144
-1 -1;
#X obj 395 212 bng 15 250 50 0 empty empty empty 17 7 0 10 -262144
-1 -1;
#X obj 410 212 bng 15 250 50 0 empty empty empty 17 7 0 10 -262144
-1 -1;
#X obj 425 212 bng 15 250 50 0 empty empty empty 17 7 0 10 -262144
-1 -1;
#X obj 440 212 bng 15 250 50 0 empty empty empty 17 7 0 10 -262144
-1 -1;
#X obj 455 212 bng 15 250 50 0 empty empty empty 17 7 0 10 -262144
-1 -1;
#X obj 470 212 bng 15 250 50 0 empty empty empty 17 7 0 10 -262144
-1 -1;
#X obj 365 236 tabplay~ kick;
#X obj 908 238 tabplay~ hh;
#X obj 1025 243 tabplay~ snr;
#N canvas 853 273 450 300 delayLR 0;
#X obj 152 18 inlet~ audio;
#X obj 47 220 outlet~ L;
#X obj 300 221 outlet~ R;
#X obj 249 107 *~ 0.6;
#X obj 278 139 delread~ delayR 150;
#X obj 278 82 delwrite~ delayR 500;
#X obj 69 108 *~ 0.6;
#X obj 98 83 delwrite~ delayL 400;
#X obj 98 140 delread~ delayL 200;
#X connect 0 0 7 0;
#X connect 0 0 5 0;
#X connect 3 0 5 0;
#X connect 4 0 3 0;
#X connect 4 0 2 0;
#X connect 6 0 7 0;
#X connect 8 0 6 0;
#X connect 8 0 1 0;
#X restore 908 264 pd delayLR;
#X obj 551 236 tabplay~ shk;
#X obj 499 209 sel 0 1 2 3 4 5 6 7;
#X obj 870 202 sel 0 1 2 3 4 5 6 7;
#X obj 552 260 *~ 0.1;
#X obj 1024 178 selMetro 8 32;
#X obj 1024 201 sel 0 1 2 3 4 5 6 7;
#X obj 930 557 *~ 0.05;
#X obj 875 557 *~ 0.05;
#X obj 870 179 selMetro 4 8;
#X obj 499 186 selMetro 12 8;
#X obj 412 263 s~ kicks;
#X obj 991 554 freeverb~;
#X obj 1025 267 *~ 0.05;
#X obj 80 251 vline~;
#X obj 147 275 snapshot~;
#X floatatom 147 322 5 0 0 0 - - -;
#X obj 147 233 tgl 15 0 empty empty empty 17 7 0 10 -262144 -1 -1 1
1;
#X msg 80 229 0;
#X obj 147 299 + 20;
#X obj 147 250 metro 10;
#X obj 147 212 loadbang;
#X obj 46 166 bng 15 250 50 0 empty empty empty 17 7 0 10 -262144 -1
-1;
#X obj 357 143 inlet kickmetro;
#X obj 643 110 inlet counter;
#X obj 443 647 outlet~ R;
#X obj 371 647 outlet~ L;
#X obj 257 213 outlet toCount;
#X obj 1070 502 loadbang;
#X obj 366 263 hip~;
#X msg 47 184 580 6488 \, 0 1000 7488;
#X obj 310 601 line~;
#X msg 310 579 \$1 50;
#X obj 310 555 r vDrum;
#X obj 442 624 *~;
#X obj 371 625 *~;
#X obj 357 165 metroReset;
#X obj 392 327 sel 51 61;
#X obj 367 375 *~ 1;
#X msg 392 351 0;
#X msg 428 351 1;
#X text 94 165 filter up&down;
#X text 39 66 Drum avec kick independant des autres instruments.;
#X text 40 104 Application d'un filtre montant et descendant sur le
kick;
#X text 867 645 Ajout de reverb et de delai sur le snare.;
#X text 863 660 Le meme delai sur les HighHat;
#X text 38 85 Le kick dicte les temps a cout de 2 avec [outlet toCount]
;
#N canvas 849 94 934 785 arraySnd 0;
#X obj 33 96 soundfiler;
#X floatatom 33 120 5 0 0 0 - - -;
#X obj 33 23 loadbang;
#X msg 33 48 symbol kick.wav;
#X msg 33 72 read -resize \$1 kick;
#N canvas 0 50 450 250 (subpatch) 0;
#X array kick 22858 float 2;
#X coords 0 1 22858 -1 200 140 1;
#X restore 31 167 graph;
#N canvas 0 50 450 250 (subpatch) 0;
#X array hh 22858 float 2;
#X coords 0 1 22858 -1 200 140 1;
#X restore 467 168 graph;
#X obj 472 93 soundfiler;
#X floatatom 472 117 5 0 0 0 - - -;
#X msg 472 69 read -resize \$1 hh;
#X obj 250 95 soundfiler;
#X floatatom 250 119 5 0 0 0 - - -;
#X msg 250 47 symbol snr.wav;
#X msg 250 70 read -resize \$1 snr;
#N canvas 0 50 450 250 (subpatch) 0;
#X array snr 21001 float 2;
#X coords 0 1 21001 -1 200 140 1;
#X restore 243 168 graph;
#X obj 687 92 soundfiler;
#X floatatom 687 116 5 0 0 0 - - -;
#X msg 687 44 symbol shk.wav;
#X msg 687 67 read -resize \$1 shk;
#N canvas 0 50 450 250 (subpatch) 0;
#X array shk 8559 float 2;
#X coords 0 1 8559 -1 200 140 1;
#X restore 686 168 graph;
#X msg 472 45 symbol hh.wav soundData;
#X connect 0 0 1 0;
#X connect 2 0 3 0;
#X connect 2 0 20 0;
#X connect 2 0 12 0;
#X connect 2 0 17 0;
#X connect 3 0 4 0;
#X connect 4 0 0 0;
#X connect 7 0 8 0;
#X connect 9 0 7 0;
#X connect 10 0 11 0;
#X connect 12 0 13 0;
#X connect 13 0 10 0;
#X connect 15 0 16 0;
#X connect 17 0 18 0;
#X connect 18 0 15 0;
#X connect 20 0 9 0;
#X restore 764 110 pd arraySnd;
#X msg 236 575 1;
#X obj 236 598 s vDrinit;
#X obj 236 553 loadbang;
#X text 1235 722 <-- intialisation du volume dans le mix;
#X text 411 282 send kick;
#X text 410 293 to sidechain;
#X text 411 306 in bass;
#X msg 1070 525 wet 0.6;
#X msg 1133 525 dry 1;
#X obj 80 206 r reset;
#X obj 46 140 sel 15;
#X obj 728 167 sel 64;
#X obj 823 557 *~ 0.6;
#X obj 991 580 *~;
#X obj 1052 582 *~;
#X obj 664 230 r reset;
#X msg 664 256 0.1;
#X msg 1196 270 0.6;
#X msg 1053 40 0.5;
#X msg 1232 269 0.05;
#X obj 1232 244 r reset;
#X text 1269 269 <-- reset des volumes;
#X text 1024 156 snare;
#X text 871 156 HH;
#X text 502 164 Shaker;
#X text 437 166 kick;
#X msg 728 193 0;
#X obj 1512 264 vline~;
#X msg 1446 209 580 6488 \, 0 1000 7488;
#X floatatom 1433 515 5 0 0 0 - - -;
#X obj 1513 289 snapshot~;
#X floatatom 1513 315 5 0 0 0 - - -;
#X msg 1461 437 1 1000;
#X obj 1433 489 line 0 100;
#X msg 1520 437 0;
#X obj 728 218 line 0;
#X connect 0 0 1 0;
#X connect 0 0 39 0;
#X connect 0 1 2 0;
#X connect 0 2 3 0;
#X connect 0 3 4 0;
#X connect 0 4 5 0;
#X connect 0 5 6 0;
#X connect 0 6 7 0;
#X connect 0 7 8 0;
#X connect 1 0 9 0;
#X connect 5 0 9 0;
#X connect 9 0 23 0;
#X connect 9 0 41 0;
#X connect 10 0 12 0;
#X connect 10 0 72 0;
#X connect 11 0 12 0;
#X connect 11 0 25 0;
#X connect 12 0 20 0;
#X connect 12 1 19 0;
#X connect 13 0 16 0;
#X connect 14 3 13 0;
#X connect 14 4 13 0;
#X connect 15 1 10 0;
#X connect 15 2 10 0;
#X connect 15 3 10 0;
#X connect 15 5 10 0;
#X connect 15 6 10 0;
#X connect 15 7 10 0;
#X connect 16 0 46 0;
#X connect 16 0 47 0;
#X connect 17 0 18 0;
#X connect 18 4 11 0;
#X connect 19 0 46 0;
#X connect 20 0 47 0;
#X connect 21 0 15 0;
#X connect 22 0 14 0;
#X connect 24 0 73 0;
#X connect 24 1 74 0;
#X connect 25 0 24 0;
#X connect 25 0 24 1;
#X connect 25 0 46 0;
#X connect 25 0 47 0;
#X connect 26 0 27 0;
#X connect 27 0 31 0;
#X connect 28 0 41 1;
#X connect 29 0 32 0;
#X connect 30 0 26 0;
#X connect 31 0 28 0;
#X connect 32 0 27 0;
#X connect 33 0 29 0;
#X connect 34 0 42 0;
#X connect 35 0 48 0;
#X connect 36 0 17 0;
#X connect 36 0 21 0;
#X connect 36 0 22 0;
#X connect 36 0 49 0;
#X connect 36 0 70 0;
#X connect 36 0 71 0;
#X connect 40 0 67 0;
#X connect 40 0 68 0;
#X connect 41 0 50 0;
#X connect 42 0 26 0;
#X connect 43 0 46 1;
#X connect 43 0 47 1;
#X connect 44 0 43 0;
#X connect 45 0 44 0;
#X connect 46 0 37 0;
#X connect 47 0 38 0;
#X connect 48 0 0 0;
#X connect 49 0 51 0;
#X connect 49 1 52 0;
#X connect 50 0 47 0;
#X connect 50 0 46 0;
#X connect 51 0 50 1;
#X connect 52 0 50 1;
#X connect 60 0 61 0;
#X connect 62 0 60 0;
#X connect 67 0 24 0;
#X connect 68 0 24 0;
#X connect 69 0 30 0;
#X connect 70 0 34 0;
#X connect 71 0 86 0;
#X connect 72 0 47 0;
#X connect 72 0 46 0;
#X connect 73 0 47 0;
#X connect 74 0 46 0;
#X connect 75 0 76 0;
#X connect 76 0 16 1;
#X connect 77 0 72 1;
#X connect 79 0 25 1;
#X connect 79 0 19 1;
#X connect 79 0 20 1;
#X connect 80 0 79 0;
#X connect 80 0 77 0;
#X connect 86 0 95 0;
#X connect 88 0 87 0;
#X connect 88 0 93 0;
#X connect 90 0 91 0;
#X connect 92 0 93 0;
#X connect 93 0 89 0;
#X connect 94 0 93 0;
#X connect 95 0 19 1;
#X connect 95 0 20 1;
#X connect 95 0 72 1;
#X connect 95 0 16 1;
#X connect 95 0 25 1;
