#N canvas 630 182 1039 654 12;
#X obj 356 91 sel 0 1 2 3 4 5 6 7;
#X obj 364 116 bng 15 250 50 0 empty empty empty 17 7 0 10 -262144
-1 -1;
#X obj 379 116 bng 15 250 50 0 empty empty empty 17 7 0 10 -262144
-1 -1;
#X obj 394 116 bng 15 250 50 0 empty empty empty 17 7 0 10 -262144
-1 -1;
#X obj 409 116 bng 15 250 50 0 empty empty empty 17 7 0 10 -262144
-1 -1;
#X obj 424 116 bng 15 250 50 0 empty empty empty 17 7 0 10 -262144
-1 -1;
#X obj 439 116 bng 15 250 50 0 empty empty empty 17 7 0 10 -262144
-1 -1;
#X obj 454 116 bng 15 250 50 0 empty empty empty 17 7 0 10 -262144
-1 -1;
#X obj 469 116 bng 15 250 50 0 empty empty empty 17 7 0 10 -262144
-1 -1;
#X obj 364 136 tabplay~ kick;
#X obj 685 141 tabplay~ hh;
#X obj 803 154 tabplay~ snr;
#N canvas 853 273 450 300 delayLR 0;
#X obj 152 18 inlet~ audio;
#X obj 47 220 outlet~ L;
#X obj 300 221 outlet~ R;
#X obj 249 107 *~ 0.6;
#X obj 278 139 delread~ delayR 150;
#X obj 278 82 delwrite~ delayR 500;
#X obj 69 108 *~ 0.6;
#X obj 98 83 delwrite~ delayL 400;
#X obj 98 140 delread~ delayL 200;
#X connect 0 0 7 0;
#X connect 0 0 5 0;
#X connect 3 0 5 0;
#X connect 4 0 3 0;
#X connect 4 0 2 0;
#X connect 6 0 7 0;
#X connect 8 0 6 0;
#X connect 8 0 1 0;
#X restore 671 274 pd delayLR;
#X obj 550 140 tabplay~ shk;
#X obj 498 113 sel 0 1 2 3 4 5 6 7;
#X obj 648 113 sel 0 1 2 3 4 5 6 7;
#X obj 551 164 *~ 0.1;
#X obj 802 89 selMetro 8 32;
#X obj 802 112 sel 0 1 2 3 4 5 6 7;
#X obj 726 299 *~ 0.05;
#X obj 671 298 *~ 0.05;
#X obj 648 90 selMetro 4 8;
#X obj 498 90 selMetro 12 8;
#X obj 411 167 s~ kicks;
#X obj 793 299 freeverb~;
#X msg 867 266 wet \$1;
#X floatatom 867 245 5 0 1 0 - - -;
#X msg 930 266 dry \$1;
#X floatatom 930 245 5 0 1 0 - - -;
#X obj 803 178 *~ 0.05;
#X obj 68 168 vline~;
#X obj 133 206 snapshot~;
#X floatatom 133 253 5 0 0 0 - - -;
#X obj 133 164 tgl 15 0 empty empty empty 17 7 0 10 -262144 -1 -1 1
1;
#X msg 68 146 0;
#X obj 133 230 + 20;
#X obj 133 181 metro 10;
#X obj 133 143 loadbang;
#X obj 32 97 bng 15 250 50 0 empty empty empty 17 7 0 10 -262144 -1
-1;
#X obj 32 71 sel 15;
#X text 87 70 filter up;
#X obj 354 61 inlet kickmetro;
#X obj 650 13 inlet counter;
#X obj 495 503 outlet~ R;
#X obj 423 503 outlet~ L;
#X obj 256 117 outlet toCount;
#X msg 867 222 0.6;
#X msg 930 223 1;
#X obj 867 200 loadbang;
#X obj 365 167 hip~;
#X msg 33 115 580 6488 \, 0 1000 7488;
#X obj 679 454 line~;
#X msg 679 432 \$1 50;
#X obj 679 408 r vDrum;
#X obj 494 480 *~;
#X obj 423 481 *~;
#X connect 0 0 1 0;
#X connect 0 0 45 0;
#X connect 0 1 2 0;
#X connect 0 2 3 0;
#X connect 0 3 4 0;
#X connect 0 4 5 0;
#X connect 0 5 6 0;
#X connect 0 6 7 0;
#X connect 0 7 8 0;
#X connect 1 0 9 0;
#X connect 5 0 9 0;
#X connect 9 0 23 0;
#X connect 9 0 49 0;
#X connect 10 0 12 0;
#X connect 10 0 54 0;
#X connect 10 0 55 0;
#X connect 11 0 12 0;
#X connect 11 0 29 0;
#X connect 12 0 20 0;
#X connect 12 1 19 0;
#X connect 13 0 16 0;
#X connect 14 3 13 0;
#X connect 14 4 13 0;
#X connect 15 1 10 0;
#X connect 15 2 10 0;
#X connect 15 3 10 0;
#X connect 15 5 10 0;
#X connect 15 6 10 0;
#X connect 15 7 10 0;
#X connect 16 0 54 0;
#X connect 16 0 55 0;
#X connect 17 0 18 0;
#X connect 18 4 11 0;
#X connect 19 0 54 0;
#X connect 20 0 55 0;
#X connect 21 0 15 0;
#X connect 22 0 14 0;
#X connect 24 0 55 0;
#X connect 24 1 54 0;
#X connect 25 0 24 0;
#X connect 26 0 25 0;
#X connect 27 0 24 0;
#X connect 28 0 27 0;
#X connect 29 0 24 0;
#X connect 29 0 24 1;
#X connect 29 0 54 0;
#X connect 29 0 55 0;
#X connect 30 0 31 0;
#X connect 31 0 35 0;
#X connect 32 0 49 1;
#X connect 33 0 36 0;
#X connect 34 0 30 0;
#X connect 35 0 32 0;
#X connect 36 0 31 0;
#X connect 37 0 33 0;
#X connect 38 0 50 0;
#X connect 39 0 38 0;
#X connect 41 0 0 0;
#X connect 42 0 21 0;
#X connect 42 0 22 0;
#X connect 42 0 17 0;
#X connect 42 0 39 0;
#X connect 46 0 26 0;
#X connect 47 0 28 0;
#X connect 48 0 47 0;
#X connect 48 0 46 0;
#X connect 49 0 54 0;
#X connect 49 0 55 0;
#X connect 50 0 30 0;
#X connect 51 0 54 1;
#X connect 51 0 55 1;
#X connect 52 0 51 0;
#X connect 53 0 52 0;
#X connect 54 0 43 0;
#X connect 55 0 44 0;
