#N canvas 506 275 450 294 12;
#X obj 40 132 tgl 15 0 empty empty empty 17 7 0 10 -262144 -1 -1 0
1;
#X obj 40 200 % 8;
#X obj 40 151 metro 117;
#X obj 40 176 counter;
#X obj 40 108 inlet;
#X obj 40 224 outlet;
#X obj 157 149 sel 0;
#X obj 112 229 outlet metro;
#X connect 0 0 2 0;
#X connect 0 0 6 0;
#X connect 1 0 5 0;
#X connect 2 0 3 0;
#X connect 2 0 7 0;
#X connect 3 0 1 0;
#X connect 4 0 0 0;
#X connect 6 0 3 2;
