#N canvas 591 247 449 221 12;
#X obj 35 155 outlet secToggle;
#X obj 35 77 expr if($f1 == 0 && $f2 == 1 \, 0 \, 99);
#X floatatom 35 53 5 0 0 0 - - -;
#X floatatom 35 103 5 0 0 0 - - -;
#X obj 35 128 sel 0;
#X obj 284 50 inlet secToggleVal;
#X obj 35 29 r fullStop;
#X connect 1 0 3 0;
#X connect 2 0 1 0;
#X connect 3 0 4 0;
#X connect 4 0 0 0;
#X connect 5 0 1 1;
#X connect 6 0 2 0;
