#N canvas 947 129 915 550 12;
#X obj 77 33 tgl 15 0 empty empty empty 17 7 0 10 -262144 -1 -1 0 1
;
#X floatatom 92 71 5 0 0 0 - - -;
#X obj 92 94 expr if($f1 == 0 \, 0 \, 99);
#X floatatom 92 118 5 0 0 0 - - -;
#X obj 92 142 sel 0;
#X obj 92 166 bng 15 250 50 0 empty empty empty 17 7 0 10 -262144 -1
-1;
#X obj 70 187 tgl 15 0 empty empty empty 17 7 0 10 -262144 -1 -1 1
1;
#X obj 415 184 outlet secToggle;
#X obj 415 106 expr if($f1 == 0 && $f2 == 1 \, 0 \, 99);
#X floatatom 415 82 5 0 0 0 - - -;
#X floatatom 415 132 5 0 0 0 - - -;
#X obj 415 157 sel 0;
#X obj 664 79 inlet secToggleVal;
#X obj 168 310 expr if($f1 == 0 && $f2 == 1 \, 0 \, 99);
#X obj 168 267 tgl 15 0 empty empty empty 17 7 0 10 -262144 -1 -1 0
1;
#X floatatom 168 286 5 0 0 0 - - -;
#X obj 168 386 tgl 15 0 empty empty empty 17 7 0 10 -262144 -1 -1 0
1;
#X floatatom 168 406 5 0 0 0 - - -;
#X floatatom 168 336 5 0 0 0 - - -;
#X obj 168 361 sel 0;
#X obj 415 58 r fullStop;
#X connect 0 0 1 0;
#X connect 1 0 2 0;
#X connect 2 0 3 0;
#X connect 3 0 4 0;
#X connect 4 0 5 0;
#X connect 5 0 6 0;
#X connect 8 0 10 0;
#X connect 9 0 8 0;
#X connect 10 0 11 0;
#X connect 11 0 7 0;
#X connect 12 0 8 1;
#X connect 13 0 18 0;
#X connect 14 0 15 0;
#X connect 15 0 13 0;
#X connect 16 0 17 0;
#X connect 16 0 13 1;
#X connect 18 0 19 0;
#X connect 19 0 16 0;
#X connect 20 0 9 0;
