#N canvas 687 473 450 300 12;
#X obj 40 131 tgl 15 0 empty empty empty 17 7 0 10 -262144 -1 -1 0
1;
#X obj 40 151 metro 117;
#X obj 40 176 counter;
#X obj 40 224 outlet;
#X obj 157 149 sel 0;
#X obj 40 77 sel \$1;
#X obj 40 101 bng 15 250 50 0 empty empty empty 17 7 0 10 -262144 -1
-1;
#X obj 40 200 % \$2;
#X text 121 25 \$1 --> apres combien de temps ca commence;
#X text 120 44 \$2 --> nbr de temps pour un cycle;
#X obj 155 93 r godStop;
#X obj 40 54 inlet;
#X obj 70 103 r reset;
#X connect 0 0 1 0;
#X connect 0 0 4 0;
#X connect 1 0 2 0;
#X connect 2 0 7 0;
#X connect 4 0 2 2;
#X connect 5 0 6 0;
#X connect 6 0 0 0;
#X connect 7 0 3 0;
#X connect 10 0 0 0;
#X connect 11 0 5 0;
#X connect 12 0 0 0;
