#N canvas 502 411 666 501 12;
#X obj 173 261 noise~;
#X obj 172 329 *~;
#X obj 249 289 line~;
#X obj 252 244 hsl 128 15 0 0.5 0 0 empty empty empty -2 -8 0 10 -258113
-4032 -4032 0 1;
#X msg 249 267 \$1 50;
#X obj 183 180 vline~;
#X obj 249 198 snapshot~;
#X floatatom 249 223 5 0 0 0 - - -;
#X obj 249 156 tgl 15 0 empty empty empty 17 7 0 10 -262144 -1 -1 1
1;
#X msg 183 158 0;
#X obj 249 173 metro 10;
#X obj 249 135 loadbang;
#X text 253 68 filter up&down;
#X obj 171 378 freeverb~;
#X msg 308 317 wet 0.75;
#X msg 308 341 dry 0.25;
#X obj 308 295 loadbang;
#X msg 308 364 roomsize 1;
#X msg 183 108 0.2 935 \, 0 1872 2808;
#X obj 172 401 *~ 0.1;
#X obj 230 401 *~ 0.1;
#X obj 173 287 hip~ 15000;
#X msg 76 109 0.2 0 \, 0 1876;
#X obj 76 56 inlet count;
#X obj 173 434 outlet~ L;
#X obj 244 434 outlet~ R;
#X obj 183 135 r reset;
#X obj 76 79 sel 23 50 80;
#X msg 348 107 0.2 4680 \, 0 1872 6552;
#X text 253 52 White noise pour transitions;
#X connect 0 0 21 0;
#X connect 1 0 13 0;
#X connect 1 0 13 1;
#X connect 2 0 1 1;
#X connect 3 0 4 0;
#X connect 4 0 2 0;
#X connect 5 0 6 0;
#X connect 6 0 7 0;
#X connect 7 0 3 0;
#X connect 8 0 10 0;
#X connect 9 0 5 0;
#X connect 10 0 6 0;
#X connect 11 0 8 0;
#X connect 13 0 19 0;
#X connect 13 1 20 0;
#X connect 14 0 13 0;
#X connect 15 0 13 0;
#X connect 16 0 14 0;
#X connect 16 0 15 0;
#X connect 16 0 17 0;
#X connect 17 0 13 0;
#X connect 18 0 5 0;
#X connect 19 0 24 0;
#X connect 20 0 25 0;
#X connect 21 0 1 0;
#X connect 22 0 5 0;
#X connect 23 0 27 0;
#X connect 26 0 9 0;
#X connect 27 0 22 0;
#X connect 27 1 18 0;
#X connect 27 2 28 0;
#X connect 28 0 5 0;
