#N canvas 538 364 621 501 12;
#X obj 258 252 noise~;
#X obj 257 320 *~;
#X obj 334 280 line~;
#X obj 337 235 hsl 128 15 0 0.5 0 0 empty empty empty -2 -8 0 10 -258113
-4032 -4032 0 1;
#X msg 334 258 \$1 50;
#X obj 269 151 vline~;
#X obj 334 189 snapshot~;
#X floatatom 334 214 5 0 0 0 - - -;
#X obj 334 147 tgl 15 0 empty empty empty 17 7 0 10 -262144 -1 -1 1
1;
#X msg 269 129 0;
#X obj 334 164 metro 10;
#X obj 334 126 loadbang;
#X obj 234 81 bng 15 250 50 0 empty empty empty 17 7 0 10 -262144 -1
-1;
#X text 281 79 filter up&down;
#X obj 256 369 freeverb~;
#X msg 393 308 wet 0.75;
#X msg 393 332 dry 0.25;
#X obj 393 286 loadbang;
#X msg 393 355 roomsize 1;
#X obj 234 60 sel 50;
#X msg 234 98 0.2 935 \, 0 1872 2808;
#X obj 257 392 *~ 0.1;
#X obj 315 392 *~ 0.1;
#X obj 258 278 hip~ 15000;
#X obj 127 60 sel 23;
#X obj 127 81 bng 15 250 50 0 empty empty empty 17 7 0 10 -262144 -1
-1;
#X msg 127 99 0.2 0 \, 0 1876;
#X text 338 43 White noise qui pour transitions;
#X obj 174 26 inlet count;
#X obj 258 425 outlet~ L;
#X obj 329 425 outlet~ R;
#X connect 0 0 23 0;
#X connect 1 0 14 0;
#X connect 1 0 14 1;
#X connect 2 0 1 1;
#X connect 3 0 4 0;
#X connect 4 0 2 0;
#X connect 5 0 6 0;
#X connect 6 0 7 0;
#X connect 7 0 3 0;
#X connect 8 0 10 0;
#X connect 9 0 5 0;
#X connect 10 0 6 0;
#X connect 11 0 8 0;
#X connect 12 0 20 0;
#X connect 14 0 21 0;
#X connect 14 1 22 0;
#X connect 15 0 14 0;
#X connect 16 0 14 0;
#X connect 17 0 15 0;
#X connect 17 0 16 0;
#X connect 17 0 18 0;
#X connect 18 0 14 0;
#X connect 19 0 12 0;
#X connect 20 0 5 0;
#X connect 21 0 29 0;
#X connect 22 0 30 0;
#X connect 23 0 1 0;
#X connect 24 0 25 0;
#X connect 25 0 26 0;
#X connect 26 0 5 0;
#X connect 28 0 24 0;
#X connect 28 0 19 0;
