#N canvas 646 118 681 553 12;
#X obj 326 171 readsf~ 2;
#X msg 108 103 0;
#X text 184 101 start;
#X text 66 103 stop;
#X obj 418 495 *~;
#X obj 453 495 *~;
#X obj 475 473 line~;
#X obj 158 178 bng 15 250 50 0 empty empty empty 17 7 0 10 -262144
-1 -1;
#X msg 475 445 \$1 25;
#X obj 478 421 hsl 128 15 0 10 0 0 empty empty empty -2 -8 0 10 -262144
-1 -1 1600 1;
#X text 185 178 stop;
#X msg 330 71 open transparent.wav;
#X obj 328 39 loadbang;
#X msg 153 103 1;
#X obj 108 67 sel 0 1;
#X obj 107 42 tgl 15 0 empty empty empty 17 7 0 10 -262144 -1 -1 0
1;
#X obj 429 523 dac~;
#N canvas 800 163 586 488 fx 0;
#X obj 336 26 inlet~ filter;
#X obj 352 263 outlet~ toDac;
#X floatatom 361 93 5 0 0 0 - - -;
#X floatatom 367 116 5 0 0 0 - - -;
#X text 400 94 freq.;
#X text 407 118 Q;
#X obj 329 141 bp~ 1500 2;
#X obj 392 179 delay~ 22050 22050;
#X obj 280 229 *~;
#X obj 193 158 osc~ 1;
#X floatatom 189 128 5 0 0 0 - - -;
#X connect 0 0 6 0;
#X connect 2 0 6 1;
#X connect 3 0 6 2;
#X connect 6 0 7 0;
#X connect 6 0 8 1;
#X connect 7 0 8 1;
#X connect 8 0 1 0;
#X connect 9 0 8 0;
#X connect 10 0 9 0;
#X restore 294 288 pd fx;
#N canvas 0 22 450 278 (subpatch) 0;
#X array array1 100 float 2;
#X coords 0 1 100 -1 200 140 1;
#X restore 439 182 graph;
#X obj 123 352 tabwrite~ array1;
#X obj 82 307 metro 100;
#X connect 0 0 17 0;
#X connect 0 1 17 0;
#X connect 0 2 7 0;
#X connect 1 0 0 0;
#X connect 4 0 16 0;
#X connect 5 0 16 1;
#X connect 6 0 5 1;
#X connect 6 0 4 1;
#X connect 7 0 13 0;
#X connect 8 0 6 0;
#X connect 9 0 8 0;
#X connect 11 0 0 0;
#X connect 12 0 11 0;
#X connect 13 0 11 0;
#X connect 13 0 0 0;
#X connect 14 0 1 0;
#X connect 14 1 13 0;
#X connect 15 0 14 0;
#X connect 15 0 20 0;
#X connect 17 0 4 0;
#X connect 17 0 5 0;
#X connect 17 0 19 0;
#X connect 20 0 19 0;
