#N canvas 414 54 956 553 12;
#X obj 748 467 *~;
#X obj 783 467 *~;
#X obj 805 445 line~;
#X msg 805 417 \$1 25;
#X obj 805 387 hsl 128 15 0 10 0 0 empty empty empty -2 -8 0 10 -262144
-1 -1 0 1;
#X obj 759 495 dac~;
#N canvas 0 22 450 278 (subpatch) 0;
#X array array2 29877 float 0;
#X coords 0 1 29876 -1 200 140 1;
#X restore 735 81 graph;
#X obj 470 104 soundfiler;
#X floatatom 470 128 5 0 0 0 - - -;
#X text 652 8 on ouvre un son dans l'array;
#X obj 586 8 loadbang;
#X obj 469 15 bng 15 250 50 0 empty empty empty 17 7 0 10 -262144 -1
-1;
#X obj 469 35 openpanel;
#X msg 470 80 read -resize \$1 array2;
#X msg 589 42 symbol transparent.wav;
#X obj 470 207 samplerate~;
#X obj 470 180 t b f;
#X obj 470 231 /;
#X floatatom 470 255 5 0 0 0 - - -;
#X obj 470 278 phasor~;
#X obj 470 302 *~;
#X obj 470 330 tabread4~ array2;
#N canvas 262 133 586 488 fx 0;
#X obj 280 276 outlet~ toDac;
#X obj 280 181 delay~ 22050 22050;
#X obj 280 229 *~;
#X obj 484 197 osc~ 1;
#X obj 280 151 bp~ 1500 10;
#X obj 280 120 r~ filter;
#X obj 176 122 inlet~;
#X connect 1 0 2 0;
#X connect 2 0 0 0;
#X connect 3 0 2 1;
#X connect 4 0 1 0;
#X connect 5 0 4 0;
#X connect 6 0 0 0;
#X restore 708 285 pd fx;
#X obj 470 390 s~ filter;
#N canvas 262 133 586 488 fx 0;
#X obj 280 276 outlet~ toDac;
#X obj 280 229 *~;
#X obj 280 120 r~ filter;
#X obj 176 122 inlet~;
#X obj 484 197 osc~ 1.5;
#X obj 280 151 bp~ 3000 10;
#X obj 280 181 delay~ 20000 20000;
#X connect 1 0 0 0;
#X connect 2 0 5 0;
#X connect 3 0 0 0;
#X connect 4 0 1 1;
#X connect 5 0 6 0;
#X connect 6 0 1 0;
#X restore 709 314 pd fx;
#N canvas 262 133 586 488 fx 0;
#X obj 280 276 outlet~ toDac;
#X obj 280 229 *~;
#X obj 280 120 r~ filter;
#X obj 176 122 inlet~;
#X obj 280 151 bp~ 1000 10;
#X obj 280 181 delay~ 25000 25000;
#X obj 484 197 osc~ 2;
#X connect 1 0 0 0;
#X connect 2 0 4 0;
#X connect 3 0 0 0;
#X connect 4 0 5 0;
#X connect 5 0 1 0;
#X connect 6 0 1 1;
#X restore 710 345 pd fx;
#X connect 0 0 5 0;
#X connect 1 0 5 1;
#X connect 2 0 1 1;
#X connect 2 0 0 1;
#X connect 3 0 2 0;
#X connect 4 0 3 0;
#X connect 7 0 8 0;
#X connect 8 0 16 0;
#X connect 10 0 14 0;
#X connect 11 0 12 0;
#X connect 12 0 13 0;
#X connect 13 0 7 0;
#X connect 14 0 13 0;
#X connect 15 0 17 0;
#X connect 16 0 15 0;
#X connect 16 1 17 1;
#X connect 16 1 20 1;
#X connect 17 0 18 0;
#X connect 18 0 19 0;
#X connect 19 0 20 0;
#X connect 20 0 21 0;
#X connect 21 0 23 0;
#X connect 22 0 24 0;
#X connect 24 0 25 0;
#X connect 25 0 0 0;
