#N canvas 1 76 1067 462 10;
#X floatatom 11 -187 5 0 0 0 - - -;
#X floatatom 86 -187 5 0 0 0 - - -;
#X floatatom 162 -187 5 0 0 0 - - -;
#N canvas 377 487 310 184 modulationFrequence 0;
#X obj 101 37 *~;
#X obj 102 69 osc~;
#X obj 194 69 *~;
#X obj 102 99 *~;
#X obj 7 117 +~;
#X obj 7 139 osc~;
#X obj 7 161 outlet~;
#X text 34 71 modulante;
#X text 43 140 porteuse;
#X obj 6 7 inlet~ porteuse;
#X obj 119 7 inlet~ ratio;
#X obj 211 7 inlet~ index;
#X connect 0 0 1 0;
#X connect 0 0 2 0;
#X connect 1 0 3 0;
#X connect 2 0 3 1;
#X connect 3 0 4 1;
#X connect 4 0 5 0;
#X connect 5 0 6 0;
#X connect 9 0 0 0;
#X connect 9 0 4 0;
#X connect 10 0 0 1;
#X connect 11 0 2 1;
#X restore 12 -147 pd modulationFrequence;
#X text 12 -203 port;
#X text 84 -203 ratio;
#X text 160 -203 index;
#X obj 14 -29 dac~;
#X obj 13 -57 *~;
#X obj 56 -117 hsl 128 15 0 1 0 1 empty empty empty -2 -8 0 10 -262144
-1 -1 0 0;
#X msg 53 -97 \$1 50;
#X obj 53 -75 line~;
#X text 6 -268 Modulation de fréquence;
#X obj 11 -168 sig~ 150;
#X obj 86 -168 sig~ 0.501;
#X obj 162 -168 sig~ 8;
#N canvas 376 465 312 216 modulationFrequence 0;
#X obj 101 56 *~;
#X obj 102 92 osc~;
#X obj 194 92 *~;
#X obj 102 128 *~;
#X obj 7 146 +~;
#X obj 7 168 osc~;
#X obj 7 190 outlet~;
#X text 34 94 modulante;
#X text 43 169 porteuse;
#X obj 6 7 inlet~ porteuse;
#X obj 119 7 inlet~ ratio;
#X obj 211 7 inlet~ index;
#X connect 0 0 1 0;
#X connect 0 0 2 0;
#X connect 1 0 3 0;
#X connect 2 0 3 1;
#X connect 3 0 4 1;
#X connect 4 0 5 0;
#X connect 5 0 6 0;
#X connect 9 0 0 0;
#X connect 9 0 4 0;
#X connect 10 0 0 1;
#X connect 11 0 2 1;
#X restore 251 47 pd modulationFrequence;
#X obj 251 24 sig~ 200;
#X msg 401 -197 bang;
#X obj 401 -57 line~;
#X obj 401 -35 *~;
#X obj 401 -13 *~;
#X obj 421 78 *~;
#X obj 422 128 dac~;
#X obj 421 100 *~;
#X obj 466 41 hsl 128 15 0 1 0 1 empty empty Gain -2 -8 0 10 -262144
-1 -1 4100 0;
#X msg 463 61 \$1 50;
#X obj 463 83 line~;
#X floatatom 433 -10 5 0 0 0 - - -;
#X obj 401 26 *~ 20;
#X obj 251 -139 drunk 24 4;
#X obj 251 -16 mtof;
#X floatatom 251 6 5 0 0 0 - - -;
#X obj 251 -38 + 48;
#X text 471 -9 Index maximum;
#X floatatom 547 -198 5 0 0 0 - - -;
#X floatatom 461 -198 5 0 0 0 - - -;
#X floatatom 554 -98 5 0 0 0 - - -;
#X text 454 -213 attaque;
#X text 548 -113 relâche;
#X text 544 -213 tenue;
#X obj 401 -92 pack 1 50;
#X obj 480 -81 pack 0 2500;
#X obj 547 -157 +;
#X obj 547 -181 t b f;
#X obj 326 -84 osc~ 0.2;
#X obj 326 -29 *~ 0.01;
#X obj 326 24 +~ 1;
#X floatatom 326 -102 5 0 0 0 - - -;
#X text 324 -116 LFO freq;
#X floatatom 347 -48 5 0 0 0 - - -;
#X text 339 -63 LFO amp;
#X floatatom 351 7 5 0 0 0 - - -;
#X text 349 -8 ratio;
#X text 404 -212 GO!;
#X text 21 -222 ===== FM simple =====;
#X text 300 -239 ===== Contrôle des paramètres =====;
#X floatatom 687 -195 5 0 0 0 - - -;
#X floatatom 762 -195 5 0 0 0 - - -;
#X floatatom 839 -194 5 0 0 0 - - -;
#X floatatom 914 -195 5 0 0 0 - - -;
#X text 687 -212 port;
#X text 759 -212 ratio;
#X text 839 -211 ind 1;
#X text 910 -213 ind 2;
#X obj 687 -176 sig~ 150;
#N canvas 762 429 319 259 modulationDeFrequence_3_oscils 0;
#X obj 7 184 +~;
#X obj 7 206 osc~;
#X obj 7 228 outlet~;
#X text 42 206 porteuse;
#X obj 6 7 inlet~ porteuse;
#X obj 183 42 inlet~ index1;
#X obj 118 35 *~;
#X obj 166 64 *~;
#X obj 119 90 *~;
#X obj 136 7 inlet~ ratio;
#X obj 101 114 +~;
#X text 80 65 mod 1;
#X text 62 143 mod 2;
#X obj 169 141 *~;
#X obj 102 166 *~;
#X obj 188 118 inlet~ index2;
#X obj 102 141 osc~;
#X obj 119 64 osc~;
#X connect 0 0 1 0;
#X connect 1 0 2 0;
#X connect 4 0 0 0;
#X connect 4 0 10 0;
#X connect 4 0 6 0;
#X connect 5 0 7 1;
#X connect 6 0 7 0;
#X connect 6 0 17 0;
#X connect 7 0 8 1;
#X connect 8 0 10 1;
#X connect 9 0 6 1;
#X connect 10 0 13 0;
#X connect 10 0 16 0;
#X connect 13 0 14 1;
#X connect 14 0 0 1;
#X connect 15 0 13 1;
#X connect 16 0 14 0;
#X connect 17 0 8 0;
#X restore 687 -150 pd modulationDeFrequence_3_oscils;
#X obj 687 -23 dac~;
#X obj 686 -51 *~;
#X obj 731 -110 hsl 128 15 0 1 0 1 empty empty Gain -2 -8 0 10 -262144
-1 -1 3700 0;
#X msg 728 -90 \$1 50;
#X obj 728 -68 line~;
#X text 695 -237 ===== FM à trois oscillateur =====;
#X obj 480 -135 delay 1000;
#X obj 762 -176 sig~ 1.17;
#X obj 838 -176 sig~ 3.22;
#X obj 914 -176 sig~ 4.74;
#X connect 0 0 13 0;
#X connect 1 0 14 0;
#X connect 2 0 15 0;
#X connect 3 0 8 0;
#X connect 8 0 7 0;
#X connect 8 0 7 1;
#X connect 9 0 10 0;
#X connect 10 0 11 0;
#X connect 11 0 8 1;
#X connect 13 0 3 0;
#X connect 14 0 3 1;
#X connect 15 0 3 2;
#X connect 16 0 22 0;
#X connect 17 0 16 0;
#X connect 18 0 30 0;
#X connect 18 0 41 0;
#X connect 18 0 73 0;
#X connect 19 0 20 0;
#X connect 19 0 20 1;
#X connect 20 0 21 0;
#X connect 20 0 21 1;
#X connect 21 0 22 1;
#X connect 21 0 29 0;
#X connect 22 0 24 0;
#X connect 24 0 23 0;
#X connect 24 0 23 1;
#X connect 25 0 26 0;
#X connect 26 0 27 0;
#X connect 27 0 24 1;
#X connect 28 0 29 1;
#X connect 29 0 16 2;
#X connect 30 0 33 0;
#X connect 31 0 32 0;
#X connect 32 0 17 0;
#X connect 33 0 31 0;
#X connect 35 0 44 0;
#X connect 36 0 41 1;
#X connect 36 0 43 0;
#X connect 37 0 42 1;
#X connect 41 0 19 0;
#X connect 42 0 19 0;
#X connect 43 0 73 1;
#X connect 44 0 43 0;
#X connect 44 1 43 1;
#X connect 45 0 46 0;
#X connect 46 0 47 0;
#X connect 47 0 16 1;
#X connect 48 0 45 0;
#X connect 50 0 46 1;
#X connect 52 0 47 1;
#X connect 57 0 65 0;
#X connect 58 0 74 0;
#X connect 59 0 75 0;
#X connect 60 0 76 0;
#X connect 65 0 66 0;
#X connect 66 0 68 0;
#X connect 68 0 67 0;
#X connect 68 0 67 1;
#X connect 69 0 70 0;
#X connect 70 0 71 0;
#X connect 71 0 68 1;
#X connect 73 0 42 0;
#X connect 74 0 66 1;
#X connect 75 0 66 2;
#X connect 76 0 66 3;
