#N canvas 1 76 670 419 10;
#X obj 124 312 dac~;
#X obj 123 284 *~;
#X obj 161 226 hsl 128 15 0 1 0 1 empty empty empty -2 -8 0 10 -262144
-1 -1 0 0;
#X msg 158 246 \$1 50;
#X obj 158 268 line~;
#X floatatom 123 65 5 0 0 0 - - -;
#X floatatom 421 58 5 0 0 0 - - -;
#X obj 421 121 clip 0 1;
#X obj 421 143 * 0.25;
#X obj 123 164 fexpr~ sin(($x1 + $f2 * $y1) * 6.283185308);
#X obj 123 106 phasor~ 250;
#X text 11 9 Oscillateur récursif;
#X text 161 64 fréquence fondamentale;
#X text 130 125 incrément de la fonction sinus;
#X text 460 58 feedback;
#X text 159 186 sin( (incrément + feed * last_output) * 2pi );
#X msg 421 77 \$1 100;
#X obj 421 99 line;
#X connect 1 0 0 0;
#X connect 1 0 0 1;
#X connect 2 0 3 0;
#X connect 3 0 4 0;
#X connect 4 0 1 1;
#X connect 5 0 10 0;
#X connect 6 0 16 0;
#X connect 7 0 8 0;
#X connect 8 0 9 1;
#X connect 9 0 1 0;
#X connect 10 0 9 0;
#X connect 16 0 17 0;
#X connect 17 0 7 0;
