#N canvas 605 21 914 905 12;
#N canvas 0 0 450 300 gemwin 0;
#X obj 132 136 gemwin;
#X obj 67 89 outlet;
#X obj 67 10 inlet;
#X obj 67 41 route create;
#X msg 67 70 set destroy;
#X msg 142 68 set create;
#X msg 198 112 destroy;
#X msg 132 112 create \, 1;
#X connect 2 0 3 0;
#X connect 3 0 4 0;
#X connect 3 0 7 0;
#X connect 3 1 5 0;
#X connect 3 1 6 0;
#X connect 4 0 1 0;
#X connect 5 0 1 0;
#X connect 6 0 0 0;
#X connect 7 0 0 0;
#X restore 522 99 pd gemwin;
#X msg 522 80 create;
#X obj 76 149 tgl 15 0 empty empty start 17 7 0 10 -262144 -1 -1 0
1;
#N canvas 460 253 737 681 spiraleCarre 0;
#X obj 217 119 gemhead;
#X obj 217 143 t a a;
#X obj 217 167 route gem_state;
#X obj 217 191 route float;
#X msg 205 237 30;
#X obj 205 261 until;
#X obj 205 285 gemlist;
#X obj 205 398 cube 0.25;
#X floatatom 273 373 5 0 0 0 - - -;
#X msg 53 295 draw line;
#X obj 51 268 loadbang;
#X obj 273 351 inlet size;
#X obj 341 427 inlet rotation;
#X obj 205 426 translateXYZ 0 0 0;
#X text 264 284 <-- on utilise cet objet pour enregistrer un objet
;
#X text 292 296 qui est réenvoyer par un bang par la suite;
#X obj 205 499 scaleXYZ;
#X msg 64 404 0.9;
#X floatatom 64 428 5 0 0 0 - - -;
#X obj 205 448 rotateXYZ 0 0 0;
#X obj 205 317 colorRGB 1 0 1 0.1;
#X obj 205 341 alpha;
#X text 274 119 pris d'un exemple dans la librairie et modifié;
#X connect 0 0 1 0;
#X connect 1 0 2 0;
#X connect 1 1 6 1;
#X connect 2 0 3 0;
#X connect 3 1 4 0;
#X connect 4 0 5 0;
#X connect 5 0 6 0;
#X connect 6 0 20 0;
#X connect 7 0 13 0;
#X connect 8 0 7 1;
#X connect 9 0 7 0;
#X connect 10 0 9 0;
#X connect 10 0 17 0;
#X connect 11 0 8 0;
#X connect 12 0 19 3;
#X connect 13 0 19 0;
#X connect 17 0 18 0;
#X connect 18 0 16 3;
#X connect 18 0 16 1;
#X connect 18 0 16 2;
#X connect 19 0 16 0;
#X connect 20 0 21 0;
#X connect 21 0 7 0;
#X restore 106 295 pd spiraleCarre;
#N canvas 516 148 1086 745 meshdot 0;
#X obj 108 386 mesh_square;
#X floatatom 184 364 5 0 0 0 - - -;
#X obj 56 47 loadbang;
#X msg 7 278 draw point;
#X msg 100 165 gridX \$1;
#X floatatom 80 133 5 0 0 0 - - -;
#X msg 32 165 gridY \$1;
#X obj 123 255 rotateXYZ;
#X obj 202 201 inlet rotate;
#X obj 183 317 inlet size;
#X obj 183 341 * 2;
#X msg 78 110 145;
#X obj 197 228 * -1;
#X obj 122 306 alpha;
#X obj 122 201 gemhead 10;
#X obj 123 282 colorRGB 1 1 1 0;
#X obj 235 231 loadbang;
#X msg 235 258 0.2;
#N canvas 15 55 274 782 fill 0;
#X obj 165 117 soundfiler;
#X floatatom 165 141 5 0 0 0 - - -;
#X obj 165 44 loadbang;
#X obj 396 137 soundfiler;
#X floatatom 394 169 5 0 0 0 - - -;
#X obj 114 461 *~;
#X obj 146 461 *~;
#X obj 178 489 line~;
#X msg 178 461 \$1 25;
#X obj 125 489 dac~;
#X obj 178 434 r volume;
#X obj 118 320 bng 15 250 50 0 empty empty empty 17 7 0 10 -262144
-1 -1;
#X obj 216 326 bng 15 250 50 0 empty empty empty 17 7 0 10 -262144
-1 -1;
#X obj 119 222 r start;
#X obj 119 245 metro 117;
#N canvas 0 50 450 250 (subpatch) 0;
#X array arrA 384000 float 2;
#X coords 0 1 384000 -1 200 140 1 0 0;
#X restore 573 141 graph;
#N canvas 0 50 450 250 (subpatch) 0;
#X array arrB 240000 float 2;
#X coords 0 1 240000 -1 200 140 1 0 0;
#X restore 573 306 graph;
#X msg 165 69 symbol LAZER_LongVerb_01_F.wav;
#X obj 274 154 print;
#X obj 216 345 tabplay~ arrB;
#X msg 394 92 read -resize \$1 arrB;
#X msg 394 67 symbol LAZER_LongVerb_02_G.wav;
#X msg 165 93 read -resize \$1 arrA;
#X obj 119 344 tabplay~ arrA;
#X obj 119 270 counter 63;
#X obj 119 294 sel 0 31;
#X obj 79 512 fiddle~;
#X floatatom 95 540 5 0 0 0 - - -;
#X obj 17 512 fiddle~;
#X floatatom 27 536 5 0 0 0 - - -;
#X obj 46 456 *~;
#X obj 76 458 *~;
#X obj 18 585 outlet one;
#X obj 95 586 outlet two;
#X connect 0 0 1 0;
#X connect 0 0 18 0;
#X connect 2 0 17 0;
#X connect 2 0 21 0;
#X connect 3 0 18 0;
#X connect 3 0 4 0;
#X connect 5 0 9 0;
#X connect 6 0 9 1;
#X connect 7 0 6 1;
#X connect 7 0 5 1;
#X connect 8 0 7 0;
#X connect 10 0 8 0;
#X connect 11 0 23 0;
#X connect 12 0 19 0;
#X connect 13 0 14 0;
#X connect 14 0 24 0;
#X connect 17 0 22 0;
#X connect 19 0 5 0;
#X connect 19 0 6 0;
#X connect 19 0 31 0;
#X connect 19 0 31 1;
#X connect 20 0 3 0;
#X connect 21 0 20 0;
#X connect 22 0 0 0;
#X connect 23 0 5 0;
#X connect 23 0 6 0;
#X connect 23 0 30 0;
#X connect 23 0 30 1;
#X connect 24 0 25 0;
#X connect 25 0 11 0;
#X connect 25 1 12 0;
#X connect 26 3 27 0;
#X connect 27 0 33 0;
#X connect 28 3 29 0;
#X connect 29 0 32 0;
#X connect 30 0 28 0;
#X connect 31 0 26 0;
#X restore 667 138 pd fill;
#X obj 669 163 expr if($f1 == 0 \, 1 \, $f1);
#X floatatom 669 187 5 0 0 0 - - -;
#X msg 311 456 draw line;
#X obj 309 430 loadbang;
#X msg 467 350 gridX \$1;
#X msg 399 350 gridY \$1;
#X floatatom 399 325 5 0 0 0 - - -;
#X floatatom 467 326 5 0 0 0 - - -;
#X floatatom 672 292 5 0 9 0 - - -;
#X obj 669 210 + 144;
#X obj 669 234 / 16;
#X obj 669 258 - 9;
#X floatatom 677 344 5 0 0 0 - - -;
#X obj 677 321 expr if($f1 < 0.063 \, 0 \, $f1);
#X obj 461 466 scaleXYZ 0 0 1;
#X obj 677 369 expr if($f1 == 0 \, 0 \, 3);
#X text 730 211 les lignes sont visibles uniquement;
#X text 732 247 le scale évolut en fonction de;
#X text 731 226 quand un son est joué.;
#X text 734 263 l'intensité du son.;
#X obj 521 261 loadbang;
#X msg 467 301 -8;
#X obj 461 602 mesh_square;
#X msg 583 550 1;
#X obj 461 514 alpha;
#X obj 667 518 scaleXYZ 0 0 1;
#X obj 667 566 alpha;
#X msg 604 351 gridX \$1;
#X msg 536 351 gridY \$1;
#X floatatom 536 329 5 0 0 0 - - -;
#X floatatom 604 328 5 0 0 0 - - -;
#X obj 546 601 mesh_square;
#X msg 604 305 -10;
#X obj 667 465 gemhead 2;
#X obj 461 413 gemhead 2;
#X msg 536 306 50;
#X msg 399 302 25;
#X obj 667 488 rotateXYZ 0 25 90;
#X obj 461 437 rotateXYZ 0 -25 90;
#X obj 667 543 colorRGB 1 1 0 0.15;
#X obj 461 490 colorRGB 0 1 1 0.15;
#X text 420 626 obj. avec des points/vertex à l'interieur;
#X text 840 557 mettre un obj alpha apres colorRGB.;
#X text 817 542 <--pour utiliser le alpha \, il faut;
#X text 844 573 opacity 0.15/1;
#X text 256 349 grid resolution -->;
#X connect 1 0 0 1;
#X connect 2 0 3 0;
#X connect 2 0 11 0;
#X connect 3 0 0 0;
#X connect 4 0 0 0;
#X connect 5 0 4 0;
#X connect 5 0 6 0;
#X connect 6 0 0 0;
#X connect 7 0 15 0;
#X connect 8 0 12 0;
#X connect 9 0 10 0;
#X connect 10 0 1 0;
#X connect 11 0 5 0;
#X connect 12 0 7 3;
#X connect 13 0 0 0;
#X connect 14 0 7 0;
#X connect 15 0 13 0;
#X connect 16 0 17 0;
#X connect 17 0 15 4;
#X connect 18 0 19 0;
#X connect 19 0 20 0;
#X connect 20 0 28 0;
#X connect 21 0 41 0;
#X connect 21 0 50 0;
#X connect 22 0 21 0;
#X connect 23 0 41 0;
#X connect 24 0 41 0;
#X connect 25 0 24 0;
#X connect 26 0 23 0;
#X connect 27 0 32 0;
#X connect 28 0 29 0;
#X connect 29 0 30 0;
#X connect 30 0 27 0;
#X connect 31 0 33 2;
#X connect 31 0 34 0;
#X connect 31 0 44 2;
#X connect 32 0 31 0;
#X connect 33 0 59 0;
#X connect 34 0 33 1;
#X connect 34 0 44 1;
#X connect 39 0 55 0;
#X connect 39 0 40 0;
#X connect 39 0 42 0;
#X connect 39 0 54 0;
#X connect 39 0 51 0;
#X connect 40 0 26 0;
#X connect 42 0 41 1;
#X connect 42 0 50 1;
#X connect 43 0 41 0;
#X connect 44 0 58 0;
#X connect 45 0 50 0;
#X connect 46 0 50 0;
#X connect 47 0 50 0;
#X connect 48 0 47 0;
#X connect 49 0 46 0;
#X connect 51 0 49 0;
#X connect 52 0 56 0;
#X connect 53 0 57 0;
#X connect 54 0 48 0;
#X connect 55 0 25 0;
#X connect 56 0 44 0;
#X connect 57 0 33 0;
#X connect 58 0 45 0;
#X connect 59 0 43 0;
#X restore 30 295 pd meshdot;
#N canvas 532 141 759 587 sphere 0;
#X obj 13 324 sphere;
#X obj 200 385 sphere;
#X obj 13 112 t f f;
#X obj 13 137 tgl 15 0 empty empty empty 17 7 0 10 -262144 -1 -1 0
1;
#X obj 200 208 == 0;
#X obj 200 232 tgl 15 0 empty empty empty 17 7 0 10 -262144 -1 -1 1
1;
#X obj 13 94 tgl 15 0 empty empty empty 17 7 0 10 -262144 -1 -1 0 1
;
#X msg 118 313 draw line;
#X obj 118 219 loadbang;
#X obj 13 252 rotateXYZ;
#X obj 200 280 rotateXYZ;
#X floatatom 99 180 5 0 0 0 - - -;
#X obj 99 53 metro 150;
#X obj 99 150 counter;
#X obj 106 78 random 9;
#X floatatom 106 102 5 0 0 0 - - -;
#X obj 106 125 sel 1;
#X obj 99 29 r start;
#X msg 33 227 226;
#X msg 239 363 6;
#X obj 200 342 ambientRGB 1 0 1;
#X obj 13 300 ambientRGB 1 0 0;
#X text 344 363 affecté par l'obj light;
#N canvas 1297 236 574 513 kickHH 0;
#X obj 34 445 outlet;
#X obj 26 127 soundfiler;
#X floatatom 26 151 5 0 0 0 - - -;
#X obj 26 54 loadbang;
#X msg 26 79 symbol kick.wav;
#X msg 26 103 read -resize \$1 kick;
#N canvas 0 50 450 250 (subpatch) 0;
#X array kick 22858 float 2;
#X coords 0 1 22858 -1 200 140 1;
#X restore 358 51 graph;
#N canvas 0 50 450 250 (subpatch) 0;
#X array hh 22858 float 2;
#X coords 0 1 22858 -1 200 140 1;
#X restore 361 214 graph;
#X obj 183 127 soundfiler;
#X floatatom 183 151 5 0 0 0 - - -;
#X msg 183 103 read -resize \$1 hh;
#X msg 183 79 symbol hh.wav;
#X obj 206 463 *~;
#X obj 241 463 *~;
#X obj 286 430 line~;
#X msg 286 402 \$1 25;
#X obj 217 491 dac~;
#X obj 286 375 r volume;
#X obj 85 335 tabplay~ kick;
#X obj 182 336 tabplay~ hh;
#X obj 85 315 bng 15 250 50 0 empty empty empty 17 7 0 10 -262144 -1
-1;
#X obj 182 317 bng 15 250 50 0 empty empty empty 17 7 0 10 -262144
-1 -1;
#X obj 85 213 r start;
#X obj 85 261 counter 3;
#X obj 85 285 sel 0;
#X obj 85 236 metro 117;
#X msg 29 380 1.2;
#X msg 68 378 1;
#X connect 1 0 2 0;
#X connect 3 0 4 0;
#X connect 3 0 11 0;
#X connect 4 0 5 0;
#X connect 5 0 1 0;
#X connect 8 0 9 0;
#X connect 10 0 8 0;
#X connect 11 0 10 0;
#X connect 12 0 16 0;
#X connect 13 0 16 1;
#X connect 14 0 13 1;
#X connect 14 0 12 1;
#X connect 15 0 14 0;
#X connect 17 0 15 0;
#X connect 18 0 12 0;
#X connect 18 0 13 0;
#X connect 19 0 12 0;
#X connect 19 0 13 0;
#X connect 20 0 18 0;
#X connect 20 0 26 0;
#X connect 21 0 19 0;
#X connect 21 0 27 0;
#X connect 22 0 25 0;
#X connect 23 0 24 0;
#X connect 24 0 20 0;
#X connect 24 1 21 0;
#X connect 25 0 23 0;
#X connect 26 0 0 0;
#X connect 27 0 0 0;
#X restore 247 160 pd kickHH;
#X obj 200 304 scaleXYZ;
#X obj 13 277 scaleXYZ;
#X text 246 70 deux spheres de deux résolutions différentes;
#X text 249 87 s'alternent aléatoirement.;
#X text 321 160 un kick et highhat controle le scale;
#X obj 200 252 gemhead;
#X obj 13 202 gemhead;
#X text 343 382 ici on n'utilise pas l'alpha. opacity 100%;
#X text 323 345 <- permet de chagner la couleur de l'obj;
#X connect 2 0 3 0;
#X connect 2 1 4 0;
#X connect 3 0 30 0;
#X connect 4 0 5 0;
#X connect 5 0 29 0;
#X connect 6 0 2 0;
#X connect 7 0 0 0;
#X connect 7 0 1 0;
#X connect 8 0 7 0;
#X connect 8 0 18 0;
#X connect 8 0 19 0;
#X connect 9 0 25 0;
#X connect 10 0 24 0;
#X connect 11 0 9 2;
#X connect 11 0 10 2;
#X connect 12 0 13 0;
#X connect 12 0 14 0;
#X connect 13 0 11 0;
#X connect 14 0 15 0;
#X connect 15 0 16 0;
#X connect 16 0 6 0;
#X connect 17 0 12 0;
#X connect 18 0 10 1;
#X connect 18 0 9 1;
#X connect 19 0 1 2;
#X connect 20 0 1 0;
#X connect 21 0 0 0;
#X connect 23 0 24 3;
#X connect 23 0 25 3;
#X connect 23 0 24 2;
#X connect 23 0 24 1;
#X connect 23 0 25 1;
#X connect 23 0 25 2;
#X connect 24 0 20 0;
#X connect 25 0 21 0;
#X connect 29 0 10 0;
#X connect 30 0 9 0;
#X restore 78 226 pd sphere;
#X obj 77 172 s start;
#N canvas 1143 172 652 507 LFOs 0;
#X obj 424 301 snapshot~;
#X obj 424 176 osc~ 1;
#X obj 424 200 *~ 0.5;
#X obj 424 224 +~ 0.5;
#X obj 424 248 *~ 1;
#X obj 424 272 +~ 0;
#X floatatom 424 150 5 0 0 0 - - -;
#X floatatom 494 150 5 0 0 0 - - -;
#X obj 494 173 t b f;
#X obj 494 197 -;
#X floatatom 558 150 5 0 0 0 - - -;
#X obj 45 92 metro 1;
#X obj 427 325 hsl 128 15 -300 300 0 0 empty empty empty -2 -8 0 10
-262144 -1 -1 10608 1;
#X obj 232 303 snapshot~;
#X obj 232 178 osc~ 1;
#X obj 232 202 *~ 0.5;
#X obj 232 226 +~ 0.5;
#X obj 232 250 *~ 1;
#X obj 232 274 +~ 0;
#X floatatom 232 152 5 0 0 0 - - -;
#X floatatom 302 152 5 0 0 0 - - -;
#X obj 302 175 t b f;
#X obj 302 199 -;
#X floatatom 366 152 5 0 0 0 - - -;
#X obj 198 335 hsl 128 15 0 30 0 0 empty empty empty -2 -8 0 10 -262144
-1 -1 10332 1;
#X msg 369 123 30;
#X msg 423 125 0.1;
#X msg 232 127 0.1;
#X msg 308 120 15;
#X msg 557 122 300;
#X obj 45 68 r start;
#X obj 421 415 outlet one;
#X obj 194 411 outlet two;
#X obj 364 88 loadbang;
#X floatatom 195 355 5 0 0 0 - - -;
#X floatatom 424 345 5 0 0 0 - - -;
#X msg 500 118 35;
#X connect 0 0 12 0;
#X connect 1 0 2 0;
#X connect 2 0 3 0;
#X connect 3 0 4 0;
#X connect 4 0 5 0;
#X connect 5 0 0 0;
#X connect 6 0 1 0;
#X connect 7 0 8 0;
#X connect 7 0 5 1;
#X connect 8 0 9 0;
#X connect 8 1 9 1;
#X connect 9 0 4 1;
#X connect 10 0 9 0;
#X connect 11 0 0 0;
#X connect 11 0 13 0;
#X connect 12 0 31 0;
#X connect 12 0 35 0;
#X connect 13 0 24 0;
#X connect 14 0 15 0;
#X connect 15 0 16 0;
#X connect 16 0 17 0;
#X connect 17 0 18 0;
#X connect 18 0 13 0;
#X connect 19 0 14 0;
#X connect 20 0 21 0;
#X connect 20 0 18 1;
#X connect 21 0 22 0;
#X connect 21 1 22 1;
#X connect 22 0 17 1;
#X connect 23 0 22 0;
#X connect 24 0 32 0;
#X connect 24 0 34 0;
#X connect 25 0 23 0;
#X connect 26 0 6 0;
#X connect 27 0 19 0;
#X connect 28 0 20 0;
#X connect 29 0 10 0;
#X connect 30 0 11 0;
#X connect 33 0 25 0;
#X connect 33 0 29 0;
#X connect 33 0 36 0;
#X connect 33 0 28 0;
#X connect 33 0 27 0;
#X connect 33 0 26 0;
#X connect 36 0 7 0;
#X restore 78 249 pd LFOs;
#X text 518 17 on utilise ce message/objPd;
#X text 518 30 pour creer la fenetre de rendu.;
#X text 522 130 Tout projet pd utilisant cette librairie;
#X text 523 146 seront affecté par la commande du message.;
#X obj 66 409 gemhead;
#X text 68 31 GEM;
#X text 67 58 librairie graphique permettant;
#X text 66 94 types de formes et médias (image \, video \, vector
\, obj 3d);
#X text 26 320 Il y a une meilleures performance;
#X text 25 335 de la patch si elle est divisée en sous patch;
#X obj 193 440 tgl 15 0 empty empty empty 17 7 0 10 -262144 -1 -1 0
1;
#X obj 212 440 tgl 15 0 empty empty empty 17 7 0 10 -262144 -1 -1 0
1;
#X msg 212 460 debug \$1;
#X text 65 378 lumiere de la scene;
#X obj 193 414 r start;
#X obj 43 534 world_light;
#X obj 43 511 rotate 180 1 0 0;
#X obj 66 482 light 1 1 1;
#X obj 68 437 scaleXYZ 0 0 0;
#X text 58 569 on utilise l'objet Ambient ou AmbientRGB;
#X text 57 584 sur les différents obj (cube \, sphère...) pour;
#X text 59 601 utiliser la lumière.;
#X text 67 76 de générer des animations dynamiques de différents
;
#X obj 530 231 gemhead;
#X obj 533 315 cube;
#X obj 532 336 sphere;
#X obj 532 359 circle;
#X obj 532 380 triangle;
#X msg 533 434 draw line;
#X text 623 462 paramettre le plus interessant esthetiquement;
#X obj 534 570 rotateXYZ;
#X obj 534 593 translateXYZ;
#X obj 534 616 scaleXYZ;
#X text 590 230 <-- permet de faire faire un rendu des obj;
#X text 623 432 <-- permet de chager l'apparence des obj plus hauts
;
#X text 624 479 selon moi.;
#X text 650 447 en affichant que leur wireframe.;
#X text 620 346 <-- obj possibles générés.;
#X text 617 246 de la librairie.;
#X text 520 53 ceci est fait de base dans la librairie.;
#X text 638 589 <-- obj de manipulaiton.;
#X obj 144 153 hsl 128 15 0 5 0 0 empty empty volume -2 -8 0 10 -4032
-258113 -258113 3400 1;
#X obj 141 173 s volume;
#X text 619 263 En ajoutant un chiffre à droite \, on indique;
#X text 621 278 un ordre de rendu.;
#X obj 76 196 sel 1;
#X obj 130 198 bng 15 250 50 0 empty empty empty 17 7 0 10 -262144
-1 -1;
#X text 58 622 On doit avoir un obj. ligh pour utiliser Ambient.;
#X connect 0 0 1 0;
#X connect 1 0 0 0;
#X connect 2 0 6 0;
#X connect 2 0 53 0;
#X connect 7 0 4 0;
#X connect 7 0 3 1;
#X connect 7 1 4 1;
#X connect 7 1 3 0;
#X connect 12 0 24 0;
#X connect 12 0 26 0;
#X connect 18 0 25 0;
#X connect 19 0 20 0;
#X connect 20 0 25 0;
#X connect 22 0 18 0;
#X connect 22 0 19 0;
#X connect 24 0 23 0;
#X connect 26 0 25 0;
#X connect 32 0 33 0;
#X connect 33 0 34 0;
#X connect 34 0 35 0;
#X connect 38 0 39 0;
#X connect 39 0 40 0;
#X connect 49 0 50 0;
#X connect 53 0 54 0;
#X connect 53 1 54 0;
#X connect 54 0 1 0;
