#N canvas 0 22 407 435 10;
#X floatatom 66 398 5 0 0 0 varA - -;
#X floatatom 136 398 5 0 0 0 varB - -;
#X floatatom 206 398 5 0 0 0 varC - -;
#X msg 69 283 2;
#X obj 70 113 *;
#X obj 130 161 == 1;
#X obj 70 139 == 0;
#X msg 115 283 1;
#X obj 160 283 f;
#X obj 197 282 f;
#X obj 235 281 f;
#X obj 160 240 trigger b b b;
#X obj 238 138 unpack f f f;
#X obj 238 160 s A;
#X obj 272 160 s B;
#X obj 307 160 s C;
#X obj 175 261 r A;
#X obj 212 260 r B;
#X obj 250 259 r C;
#X obj 256 81 t b f;
#X obj 305 81 t b f;
#X obj 238 108 pack f f f;
#X floatatom 208 37 5 0 0 0 A - -;
#X floatatom 256 37 5 0 0 0 B - -;
#X floatatom 305 35 5 0 0 0 C - -;
#X obj 70 62 r A;
#X obj 85 88 r B;
#X obj 130 136 r C;
#X obj 115 190 *;
#X obj 70 162 select 0;
#X obj 115 212 select 0;
#X connect 3 0 2 0;
#X connect 3 0 1 0;
#X connect 3 0 0 0;
#X connect 4 0 6 0;
#X connect 5 0 28 1;
#X connect 6 0 29 0;
#X connect 7 0 2 0;
#X connect 7 0 1 0;
#X connect 7 0 0 0;
#X connect 8 0 0 0;
#X connect 9 0 1 0;
#X connect 10 0 2 0;
#X connect 11 0 8 0;
#X connect 11 1 9 0;
#X connect 11 2 10 0;
#X connect 12 0 13 0;
#X connect 12 1 14 0;
#X connect 12 2 15 0;
#X connect 16 0 8 1;
#X connect 17 0 9 1;
#X connect 18 0 10 1;
#X connect 19 0 21 0;
#X connect 19 1 21 1;
#X connect 20 0 21 0;
#X connect 20 1 21 2;
#X connect 21 0 12 0;
#X connect 22 0 21 0;
#X connect 23 0 19 0;
#X connect 24 0 20 0;
#X connect 25 0 4 0;
#X connect 26 0 4 1;
#X connect 27 0 5 0;
#X connect 28 0 30 0;
#X connect 29 0 3 0;
#X connect 29 1 28 0;
#X connect 30 0 7 0;
#X connect 30 1 11 0;
