#N canvas 691 59 743 511 12;
#X obj 106 43 tgl 45 0 empty empty empty 17 7 0 10 -4034 -258113 -258113
0 1;
#X text 444 157 gamme maj.;
#X msg 432 180 0 60 \, 1 62 \, 2 64 \, 3 65 \, 4 67 \, 5 69 \, 6 71
;
#X obj 432 125 loadbang;
#X msg 434 227 0 70 \, 1 72 \, 2 73 \, 3 75 \, 4 77 \, 5 78 \, 6 80
;
#N canvas 350 75 797 626 voices 0;
#X obj 278 45 inlet tgl;
#X obj 593 257 inlet scales;
#X obj 443 589 noteout;
#X obj 442 477 funbuff;
#C restore;
#X floatatom 443 536 5 0 0 0 - - -;
#X obj 443 562 makenote 120 125;
#X obj 286 151 t f f;
#X floatatom 212 127 5 0 0 0 - - -;
#X obj 318 179 sel 0 1;
#X obj 318 203 counter 0 4;
#X floatatom 318 227 5 0 0 0 - - -;
#X obj 286 127 counter 0 4;
#X text 373 121 ca jou 5 notes;
#X text 406 203 cycle de 4x;
#X obj 318 250 sel 4;
#X text 360 251 apres 4x on fait de quoi;
#X obj 318 367 bng 15 250 50 0 empty empty empty 17 7 0 10 -262144
-1 -1;
#X obj 318 317 counter 4;
#X floatatom 277 316 5 0 0 0 - - -;
#X obj 318 341 t b b b b;
#X obj 318 293 bng 15 250 50 0 empty empty empty 17 7 0 10 -262144
-1 -1;
#X obj 436 369 bng 15 250 50 0 empty empty empty 17 7 0 10 -262144
-1 -1;
#X obj 436 389 t b b;
#X obj 382 422 counter 0 4;
#X obj 498 423 random 7;
#X obj 498 447 funbuff;
#C restore;
#X floatatom 511 471 5 0 0 0 - - -;
#X text 66 318 envoie 4 bng dans le funbuff;
#X obj 286 90 metro 300;
#X obj 182 417 inlet bang;
#X connect 0 0 28 0;
#X connect 1 0 25 0;
#X connect 3 0 4 0;
#X connect 4 0 5 0;
#X connect 5 0 2 0;
#X connect 5 1 2 1;
#X connect 6 0 7 0;
#X connect 6 1 8 0;
#X connect 8 0 9 0;
#X connect 9 0 10 0;
#X connect 10 0 14 0;
#X connect 11 0 6 0;
#X connect 11 0 3 0;
#X connect 14 0 20 0;
#X connect 16 0 22 0;
#X connect 17 0 19 0;
#X connect 17 0 18 0;
#X connect 19 0 16 0;
#X connect 19 1 16 0;
#X connect 19 2 16 0;
#X connect 19 3 16 0;
#X connect 20 0 17 0;
#X connect 21 0 22 0;
#X connect 22 0 23 0;
#X connect 22 1 24 0;
#X connect 23 0 3 0;
#X connect 24 0 25 0;
#X connect 25 0 3 1;
#X connect 25 0 26 0;
#X connect 28 0 11 0;
#X connect 29 0 19 0;
#X restore 199 106 pd voices;
#N canvas 197 324 450 300 30sDelay 1;
#X obj 92 167 sel 0 1;
#X floatatom 172 73 5 0 0 0 - - -;
#X obj 84 135 tgl 15 0 empty empty empty 17 7 0 10 -262144 -1 -1 0
1;
#X obj 68 100 bng 15 250 50 0 empty empty empty 17 7 0 10 -262144 -1
-1;
#X obj 197 225 outlet min;
#X obj 94 222 outlet maj;
#X obj 92 97 delay 30000;
#X obj 92 51 inlet bng;
#X obj 92 75 bng 15 250 50 0 empty empty empty 17 7 0 10 -262144 -1
-1;
#X obj 230 126 print delay;
#X connect 0 0 5 0;
#X connect 0 1 4 0;
#X connect 1 0 6 1;
#X connect 2 0 0 0;
#X connect 3 0 6 0;
#X connect 6 0 2 0;
#X connect 6 0 3 0;
#X connect 6 0 9 0;
#X connect 7 0 8 0;
#X connect 8 0 6 0;
#X restore 301 50 pd 30sDelay;
#N canvas 276 120 797 626 voices 0;
#X obj 278 45 inlet tgl;
#X obj 593 257 inlet scales;
#X obj 443 589 noteout;
#X obj 443 481 funbuff;
#C restore;
#X floatatom 443 536 5 0 0 0 - - -;
#X obj 443 562 makenote 120 125;
#X obj 286 151 t f f;
#X floatatom 212 127 5 0 0 0 - - -;
#X obj 318 179 sel 0 1;
#X obj 318 203 counter 0 4;
#X floatatom 318 227 5 0 0 0 - - -;
#X obj 286 127 counter 0 4;
#X text 373 121 ca jou 5 notes;
#X text 406 203 cycle de 4x;
#X obj 318 250 sel 4;
#X text 360 251 apres 4x on fait de quoi;
#X obj 318 367 bng 15 250 50 0 empty empty empty 17 7 0 10 -262144
-1 -1;
#X obj 318 317 counter 4;
#X floatatom 277 316 5 0 0 0 - - -;
#X obj 318 341 t b b b b;
#X obj 318 293 bng 15 250 50 0 empty empty empty 17 7 0 10 -262144
-1 -1;
#X obj 436 369 bng 15 250 50 0 empty empty empty 17 7 0 10 -262144
-1 -1;
#X obj 436 389 t b b;
#X obj 382 422 counter 0 4;
#X obj 498 423 random 7;
#X obj 498 447 funbuff;
#C restore;
#X floatatom 511 471 5 0 0 0 - - -;
#X text 66 318 envoie 4 bng dans le funbuff;
#X obj 443 505 + 12;
#X obj 286 90 metro 175;
#X obj 182 417 inlet bang;
#X connect 0 0 29 0;
#X connect 1 0 25 0;
#X connect 3 0 28 0;
#X connect 4 0 5 0;
#X connect 5 0 2 0;
#X connect 5 1 2 1;
#X connect 6 0 7 0;
#X connect 6 1 8 0;
#X connect 8 0 9 0;
#X connect 9 0 10 0;
#X connect 10 0 14 0;
#X connect 11 0 6 0;
#X connect 11 0 3 0;
#X connect 14 0 20 0;
#X connect 16 0 22 0;
#X connect 17 0 19 0;
#X connect 17 0 18 0;
#X connect 19 0 16 0;
#X connect 19 1 16 0;
#X connect 19 2 16 0;
#X connect 19 3 16 0;
#X connect 20 0 17 0;
#X connect 21 0 22 0;
#X connect 22 0 23 0;
#X connect 22 1 24 0;
#X connect 23 0 3 0;
#X connect 24 0 25 0;
#X connect 25 0 3 1;
#X connect 25 0 26 0;
#X connect 28 0 4 0;
#X connect 29 0 11 0;
#X connect 30 0 19 0;
#X restore 198 141 pd voices;
#N canvas 234 209 796 626 voices 0;
#X obj 278 45 inlet tgl;
#X obj 593 257 inlet scales;
#X obj 443 589 noteout;
#X obj 443 486 funbuff;
#C restore;
#X obj 443 562 makenote 120 125;
#X obj 286 151 t f f;
#X floatatom 212 127 5 0 0 0 - - -;
#X obj 318 179 sel 0 1;
#X obj 318 203 counter 0 4;
#X floatatom 318 227 5 0 0 0 - - -;
#X obj 286 127 counter 0 4;
#X text 373 121 ca jou 5 notes;
#X text 406 203 cycle de 4x;
#X obj 318 250 sel 4;
#X text 360 251 apres 4x on fait de quoi;
#X obj 318 367 bng 15 250 50 0 empty empty empty 17 7 0 10 -262144
-1 -1;
#X obj 318 317 counter 4;
#X floatatom 277 316 5 0 0 0 - - -;
#X obj 318 341 t b b b b;
#X obj 318 293 bng 15 250 50 0 empty empty empty 17 7 0 10 -262144
-1 -1;
#X obj 436 369 bng 15 250 50 0 empty empty empty 17 7 0 10 -262144
-1 -1;
#X obj 436 389 t b b;
#X obj 382 422 counter 0 4;
#X obj 498 423 random 7;
#X obj 498 447 funbuff;
#C restore;
#X floatatom 511 471 5 0 0 0 - - -;
#X text 66 318 envoie 4 bng dans le funbuff;
#X obj 286 90 metro 400;
#X obj 443 510 + 24;
#X obj 182 417 inlet bang;
#X connect 0 0 27 0;
#X connect 1 0 24 0;
#X connect 3 0 28 0;
#X connect 4 0 2 0;
#X connect 4 1 2 1;
#X connect 5 0 6 0;
#X connect 5 1 7 0;
#X connect 7 0 8 0;
#X connect 8 0 9 0;
#X connect 9 0 13 0;
#X connect 10 0 5 0;
#X connect 10 0 3 0;
#X connect 13 0 19 0;
#X connect 15 0 21 0;
#X connect 16 0 18 0;
#X connect 16 0 17 0;
#X connect 18 0 15 0;
#X connect 18 1 15 0;
#X connect 18 2 15 0;
#X connect 18 3 15 0;
#X connect 19 0 16 0;
#X connect 20 0 21 0;
#X connect 21 0 22 0;
#X connect 21 1 23 0;
#X connect 22 0 3 0;
#X connect 23 0 24 0;
#X connect 24 0 3 1;
#X connect 24 0 25 0;
#X connect 27 0 10 0;
#X connect 28 0 4 0;
#X connect 29 0 18 0;
#X restore 198 175 pd voices;
#N canvas 613 65 797 626 voices 0;
#X obj 278 45 inlet tgl;
#X obj 593 257 inlet scales;
#X obj 443 589 noteout;
#X obj 443 480 funbuff;
#C restore;
#X floatatom 443 538 5 0 0 0 - - -;
#X obj 443 562 makenote 120 125;
#X obj 286 151 t f f;
#X floatatom 212 127 5 0 0 0 - - -;
#X obj 318 179 sel 0 1;
#X obj 318 203 counter 0 4;
#X floatatom 318 227 5 0 0 0 - - -;
#X obj 286 127 counter 0 4;
#X text 373 121 ca jou 5 notes;
#X text 406 203 cycle de 4x;
#X obj 318 250 sel 4;
#X text 360 251 apres 4x on fait de quoi;
#X obj 318 367 bng 15 250 50 0 empty empty empty 17 7 0 10 -262144
-1 -1;
#X obj 318 317 counter 4;
#X floatatom 277 316 5 0 0 0 - - -;
#X obj 318 341 t b b b b;
#X obj 318 293 bng 15 250 50 0 empty empty empty 17 7 0 10 -262144
-1 -1;
#X obj 436 369 bng 15 250 50 0 empty empty empty 17 7 0 10 -262144
-1 -1;
#X obj 436 389 t b b;
#X obj 382 422 counter 0 4;
#X obj 498 423 random 7;
#X obj 498 447 funbuff;
#C restore;
#X floatatom 511 471 5 0 0 0 - - -;
#X text 66 318 envoie 4 bng dans le funbuff;
#X obj 286 90 metro 500;
#X obj 443 504 + 48;
#X obj 182 417 inlet bang;
#X connect 0 0 28 0;
#X connect 1 0 25 0;
#X connect 3 0 29 0;
#X connect 4 0 5 0;
#X connect 5 0 2 0;
#X connect 5 1 2 1;
#X connect 6 0 7 0;
#X connect 6 1 8 0;
#X connect 8 0 9 0;
#X connect 9 0 10 0;
#X connect 10 0 14 0;
#X connect 11 0 6 0;
#X connect 11 0 3 0;
#X connect 14 0 20 0;
#X connect 16 0 22 0;
#X connect 17 0 19 0;
#X connect 17 0 18 0;
#X connect 19 0 16 0;
#X connect 19 1 16 0;
#X connect 19 2 16 0;
#X connect 19 3 16 0;
#X connect 20 0 17 0;
#X connect 21 0 22 0;
#X connect 22 0 23 0;
#X connect 22 1 24 0;
#X connect 23 0 3 0;
#X connect 24 0 25 0;
#X connect 25 0 3 1;
#X connect 25 0 26 0;
#X connect 28 0 11 0;
#X connect 29 0 4 0;
#X connect 30 0 19 0;
#X restore 197 211 pd voices;
#X obj 26 149 metro 1000;
#X floatatom 26 197 5 0 0 0 - - -;
#X obj 26 244 bng 15 250 50 0 empty empty empty 17 7 0 10 -262144 -1
-1;
#X obj 26 173 counter 120;
#X obj 26 220 sel 120;
#X obj 135 192 bng 15 250 50 0 empty empty empty 17 7 0 10 -262144
-1 -1;
#X text 25 264 2 min;
#X text 297 28 30 sec delay;
#X text 226 87 voix;
#X text 547 107 gammes;
#X text 109 23 start;
#X connect 0 0 5 1;
#X connect 0 0 6 0;
#X connect 0 0 7 1;
#X connect 0 0 8 1;
#X connect 0 0 9 1;
#X connect 0 0 10 0;
#X connect 0 0 15 0;
#X connect 2 0 5 2;
#X connect 2 0 7 2;
#X connect 2 0 8 2;
#X connect 2 0 9 2;
#X connect 3 0 2 0;
#X connect 4 0 5 2;
#X connect 4 0 7 2;
#X connect 4 0 8 2;
#X connect 4 0 9 2;
#X connect 6 0 2 0;
#X connect 6 1 4 0;
#X connect 10 0 13 0;
#X connect 11 0 14 0;
#X connect 12 0 0 0;
#X connect 13 0 11 0;
#X connect 14 0 12 0;
#X connect 15 0 5 0;
#X connect 15 0 7 0;
#X connect 15 0 8 0;
#X connect 15 0 9 0;
