#N canvas 817 131 590 450 12;
#X obj 125 65 metro 150;
#X obj 126 117 counter 0 6;
#X floatatom 126 151 5 0 0 0 - - -;
#X obj 124 26 bng 15 250 50 0 empty empty empty 17 7 0 10 -262144 -1
-1;
#X floatatom 144 90 5 0 0 0 - - -;
#X floatatom 200 89 5 0 0 0 - - -;
#X obj 126 206 funbuff;
#C restore;
#X text 293 131 gamme Cmaj;
#X floatatom 126 230 5 0 0 0 - - -;
#X obj 112 299 makenote 120 125;
#X floatatom 61 170 5 0 0 0 - - -;
#X obj 119 346 noteout;
#X msg 295 151 0 48 \, 1 52 \, 2 50 \, 3 60 \, 4 50 \, 5 65 \, 6 64
;
#X obj 113 265 + 48;
#X connect 0 0 1 0;
#X connect 1 0 2 0;
#X connect 2 0 6 0;
#X connect 3 0 0 0;
#X connect 4 0 1 1;
#X connect 5 0 1 4;
#X connect 6 0 8 0;
#X connect 8 0 13 0;
#X connect 9 0 11 0;
#X connect 9 1 11 1;
#X connect 10 0 6 0;
#X connect 12 0 6 0;
#X connect 13 0 9 0;
