#N canvas 858 181 450 442 12;
#X obj 23 24 tgl 15 0 empty empty empty 17 7 0 10 -262144 -1 -1 0 1
;
#X obj 21 131 metro 250;
#X obj 21 161 random 24;
#X obj 21 193 + 48;
#X floatatom 21 222 5 0 0 0 - - -;
#X obj 18 310 makenote 100 500;
#X obj 18 341 noteout;
#X floatatom 73 222 5 0 0 0 - - -;
#X obj 42 264 - 12;
#X obj 105 14 metro 5000;
#X floatatom 120 125 5 0 0 0 - - -;
#X floatatom 167 261 5 0 0 0 - - -;
#X obj 108 42 random 4;
#X obj 113 67 + 1;
#X obj 177 90 * 125;
#X connect 0 0 1 0;
#X connect 0 0 9 0;
#X connect 1 0 2 0;
#X connect 2 0 3 0;
#X connect 3 0 4 0;
#X connect 4 0 5 0;
#X connect 4 0 8 0;
#X connect 5 0 6 0;
#X connect 5 1 6 1;
#X connect 7 0 8 1;
#X connect 8 0 5 0;
#X connect 9 0 12 0;
#X connect 10 0 1 1;
#X connect 11 0 5 2;
#X connect 12 0 13 0;
#X connect 13 0 14 0;
#X connect 14 0 10 0;
