#N canvas 4 23 598 403 12;
#X text 112 99 generateur aléatoire;
#X floatatom 31 124 5 0 0 0 - - -;
#X obj 187 31 tgl 15 0 empty empty empty 17 7 0 10 -262144 -1 -1 0
1;
#X obj 187 51 metro 100;
#X obj 129 206 tabwrite array1;
#X obj 216 139 counter 0 99;
#X obj 187 75 t b b;
#X floatatom 114 71 5 0 0 0 - - -;
#X obj 31 100 drunk 100 5;
#N canvas 0 22 450 278 (subpatch) 0;
#X array array1 100 float 2;
#X coords 0 100 100 0 200 140 1 0 0;
#X restore 260 183 graph;
#X connect 1 0 4 0;
#X connect 2 0 3 0;
#X connect 3 0 6 0;
#X connect 5 0 4 1;
#X connect 6 0 8 0;
#X connect 6 1 5 0;
#X connect 7 0 8 2;
#X connect 8 0 1 0;
