#N canvas 604 154 946 549 12;
#X text 342 212 x;
#X text 344 307 y;
#X obj 357 211 expr -(pow($f1 \, 2)) - (pow($f2 \, 2)) + ($f1*$f2)
- ($f3*$f2) - $f1, f 70;
#X obj 357 307 expr -(pow($f1 \, 2)) - (pow($f2 \, 2)) + ($f1*$f2)
- $f1 - $f3, f 60;
#X obj 37 396 gemhead 51;
#X obj 37 428 depth;
#X floatatom 150 460 5 0 0 0 - - -;
#X obj 37 487 cube;
#N canvas 839 415 450 300 gemwin 0;
#X obj 132 136 gemwin;
#X obj 67 89 outlet;
#X obj 67 10 inlet;
#X obj 67 41 route create;
#X msg 67 70 set destroy;
#X msg 142 68 set create;
#X msg 268 112 destroy;
#X msg 132 112 create \, 1;
#X obj 264 174 gemhead;
#X obj 264 200 world_light;
#X obj 238 68 r \$0-gemwin;
#X connect 2 0 3 0;
#X connect 3 0 4 0;
#X connect 3 0 7 0;
#X connect 3 1 5 0;
#X connect 3 1 6 0;
#X connect 4 0 1 0;
#X connect 5 0 1 0;
#X connect 6 0 0 0;
#X connect 7 0 0 0;
#X connect 8 0 9 0;
#X connect 10 0 0 0;
#X restore 845 493 pd gemwin;
#X msg 843 470 destroy;
#X obj 111 86 tgl 15 0 empty empty empty 17 7 0 10 -262144 -1 -1 0
1;
#X obj 111 108 metro 600;
#X obj 111 184 until;
#X obj 134 212 f;
#X floatatom 134 238 5 0 0 0 - - -;
#X obj 82 211 f;
#X floatatom 82 237 5 0 0 0 - - -;
#X obj 430 22 loadbang;
#X msg 389 58 0.93;
#X msg 440 58 -0.223;
#X msg 512 57 1.58;
#X obj 357 183 r x;
#X msg 111 156 1;
#X obj 357 272 r x;
#X obj 389 84 s x;
#X obj 600 184 r t;
#X obj 565 281 r t;
#X obj 440 84 s t;
#X obj 512 83 s y;
#X obj 811 178 r y;
#X obj 743 278 r y;
#X obj 357 238 s resultX;
#X obj 126 404 r resultX;
#X obj 388 272 r resultX;
#X obj 157 184 r resultX;
#X obj 357 333 s resultY;
#X obj 127 427 r resultY;
#X obj 38 184 r resultY;
#X obj 844 179 r resultY;
#X obj 82 262 s newY;
#X obj 134 263 s newX;
#X obj 391 182 r newX;
#X obj 774 278 r newY;
#X obj 37 461 translateXYZ;
#X connect 2 0 31 0;
#X connect 3 0 35 0;
#X connect 4 0 5 0;
#X connect 5 0 43 0;
#X connect 6 0 43 3;
#X connect 8 0 9 0;
#X connect 9 0 8 0;
#X connect 10 0 11 0;
#X connect 11 0 22 0;
#X connect 12 0 13 0;
#X connect 12 0 15 0;
#X connect 13 0 14 0;
#X connect 14 0 40 0;
#X connect 15 0 16 0;
#X connect 16 0 39 0;
#X connect 17 0 18 0;
#X connect 17 0 19 0;
#X connect 17 0 20 0;
#X connect 18 0 24 0;
#X connect 19 0 27 0;
#X connect 20 0 28 0;
#X connect 21 0 2 0;
#X connect 22 0 12 0;
#X connect 23 0 3 0;
#X connect 25 0 2 1;
#X connect 26 0 3 1;
#X connect 29 0 2 2;
#X connect 30 0 3 2;
#X connect 32 0 43 1;
#X connect 33 0 3 0;
#X connect 34 0 13 1;
#X connect 36 0 43 2;
#X connect 37 0 15 1;
#X connect 38 0 2 2;
#X connect 41 0 2 0;
#X connect 42 0 3 2;
#X connect 43 0 7 0;
