#N canvas 607 53 1338 863 12;
#X text 482 501 x;
#X text 484 596 y;
#X obj 497 500 expr -(pow($f1 \, 2)) - (pow($f2 \, 2)) + ($f1*$f2)
- ($f3*$f2) - $f1, f 70;
#X obj 497 596 expr -(pow($f1 \, 2)) - (pow($f2 \, 2)) + ($f1*$f2)
- $f1 - $f3, f 60;
#X obj 166 565 depth;
#X floatatom 382 607 5 0 0 0 - - -;
#N canvas 839 415 450 300 gemwin 0;
#X obj 132 136 gemwin;
#X obj 67 89 outlet;
#X obj 67 10 inlet;
#X obj 67 41 route create;
#X msg 67 70 set destroy;
#X msg 142 68 set create;
#X msg 268 112 destroy;
#X msg 132 112 create \, 1;
#X obj 264 174 gemhead;
#X obj 264 200 world_light;
#X obj 238 68 r \$0-gemwin;
#X connect 2 0 3 0;
#X connect 3 0 4 0;
#X connect 3 0 7 0;
#X connect 3 1 5 0;
#X connect 3 1 6 0;
#X connect 4 0 1 0;
#X connect 5 0 1 0;
#X connect 6 0 0 0;
#X connect 7 0 0 0;
#X connect 8 0 9 0;
#X connect 10 0 0 0;
#X restore 79 1047 pd gemwin;
#X msg 77 1024 destroy;
#X obj 111 86 tgl 15 0 empty empty empty 17 7 0 10 -262144 -1 -1 0
1;
#X obj 111 184 until;
#X obj 134 212 f;
#X floatatom 134 238 5 0 0 0 - - -;
#X obj 82 211 f;
#X floatatom 82 237 5 0 0 0 - - -;
#X obj 341 10 loadbang;
#X msg 300 46 0.93;
#X msg 351 46 -0.223;
#X msg 423 45 1.58;
#X obj 497 472 r x;
#X msg 111 156 1;
#X obj 497 561 r x;
#X obj 300 72 s x;
#X obj 765 470 r t;
#X obj 705 570 r t;
#X obj 351 72 s t;
#X obj 423 71 s y;
#X obj 951 467 r y;
#X obj 883 567 r y;
#X obj 497 527 s resultX;
#X obj 317 551 r resultX;
#X obj 528 561 r resultX;
#X obj 157 184 r resultX;
#X obj 497 622 s resultY;
#X obj 334 580 r resultY;
#X obj 38 184 r resultY;
#X obj 984 468 r resultY;
#X obj 55 420 s newY;
#X obj 137 417 s newX;
#X obj 551 462 r newX;
#X obj 914 568 r newY;
#X obj 284 645 translateXYZ;
#X obj 741 412 hsl 128 15 -0.001 0.1 0 0 empty empty empty -2 -8 0
10 -262144 -1 -1 12239 1;
#X floatatom 740 438 5 0 0 0 - - -;
#X obj 56 130 bng 15 250 50 0 empty empty empty 17 7 0 10 -262144 -1
-1;
#X obj 738 343 loadbang;
#X msg 738 369 -0.001;
#X obj 244 550 tgl 15 0 empty empty empty 17 7 0 10 -262144 -1 -1 0
1;
#X obj 443 708 hsl 128 15 -0.02 1 0 0 empty empty empty -2 -8 0 10
-262144 -1 -1 1000 1;
#X floatatom 441 731 5 0 0 0 - - -;
#X obj 43 898 loadbang;
#X obj 194 418 print X;
#X obj -4 418 print Y;
#X msg 43 923 draw point;
#X obj 92 703 color 1 0 0;
#X obj 441 758 * 1.5;
#X obj 215 802 color 0 0 1;
#X obj 166 533 gemhead 51;
#X obj 113 108 metro 600;
#X floatatom 551 243 5 0 0 0 - - -;
#X floatatom 592 241 5 0 0 0 - - -;
#X floatatom 657 241 5 0 0 0 - - -;
#N canvas 9 235 565 463 lfo~ 0;
#X obj 137 209 osc~ 1;
#X floatatom 137 185 5 0 0 0 - - -;
#X obj 140 235 *~ 0.5;
#X obj 141 261 +~ 0.5;
#X floatatom 251 192 5 0 0 0 - - -;
#X text 257 172 min;
#X floatatom 329 195 5 0 0 0 - - -;
#X text 340 174 max;
#X obj 257 278 -;
#X obj 251 227 t b f;
#X text 132 161 freq;
#X obj 96 137 inlet freq;
#X obj 247 135 inlet min;
#X obj 352 132 inlet max;
#X obj 146 348 outlet~;
#X obj 221 346 outlet;
#X obj 341 314 snapshot~;
#X obj 146 292 *~ 1;
#X obj 146 324 +~ 0;
#X obj 50 11 loadbang;
#X obj 124 52 f \$1;
#X obj 170 56 f \$2;
#X obj 218 56 f \$3;
#X obj 442 246 inlet vitesse;
#X obj 341 287 metro;
#X floatatom 442 270 5 0 0 0 - - -;
#X obj 349 396 bng 15 250 50 0 empty empty empty 17 7 0 10 -262144
-1 -1;
#X connect 0 0 2 0;
#X connect 1 0 0 0;
#X connect 2 0 3 0;
#X connect 3 0 17 0;
#X connect 4 0 9 0;
#X connect 4 0 18 1;
#X connect 6 0 8 0;
#X connect 8 0 17 1;
#X connect 9 0 8 0;
#X connect 9 1 8 1;
#X connect 11 0 1 0;
#X connect 12 0 4 0;
#X connect 13 0 6 0;
#X connect 16 0 15 0;
#X connect 17 0 18 0;
#X connect 18 0 14 0;
#X connect 18 0 16 0;
#X connect 19 0 20 0;
#X connect 19 0 21 0;
#X connect 19 0 22 0;
#X connect 19 0 24 0;
#X connect 20 0 1 0;
#X connect 21 0 4 0;
#X connect 22 0 6 0;
#X connect 23 0 24 1;
#X connect 23 0 25 0;
#X connect 24 0 16 0;
#X connect 24 0 26 0;
#X restore 652 280 pd lfo~;
#X floatatom 719 244 5 0 0 0 - - -;
#X msg 599 206 -0.001;
#X msg 551 204 0.01;
#X msg 664 208 0.1;
#X msg 726 205 100;
#X obj -48 329 expr if($f1 < -100 \, 0 \, $f1) \;;
#X obj 215 830 circle;
#X obj 89 727 circle;
#X floatatom 172 75 5 0 0 0 - - -;
#X floatatom 411 897 5 0 0 0 - - -;
#X obj 346 841 r resultX;
#X obj 363 870 r resultY;
#X obj 313 935 translateXYZ;
#X obj 495 758 * 3;
#X obj 485 810 circle;
#X floatatom 631 858 5 0 0 0 - - -;
#X obj 566 802 r resultX;
#X obj 583 831 r resultY;
#X obj 533 896 translateXYZ;
#X obj 378 802 color 0 1 0;
#X obj 146 305 expr if($f1 > 100 \, 1 \, $f1) \;;
#X obj 146 328 expr if($f1 < -100 \, 1 \, $f1) \;;
#X obj -48 306 expr if($f1 > 100 \, 1 \, $f1) \;;
#X connect 2 0 28 0;
#X connect 3 0 32 0;
#X connect 4 0 40 0;
#X connect 4 0 74 0;
#X connect 4 0 81 0;
#X connect 4 0 80 0;
#X connect 5 0 40 3;
#X connect 6 0 7 0;
#X connect 7 0 6 0;
#X connect 8 0 57 0;
#X connect 9 0 10 0;
#X connect 9 0 12 0;
#X connect 10 0 11 0;
#X connect 11 0 82 0;
#X connect 12 0 13 0;
#X connect 13 0 84 0;
#X connect 14 0 15 0;
#X connect 14 0 16 0;
#X connect 14 0 17 0;
#X connect 14 0 64 0;
#X connect 14 0 63 0;
#X connect 14 0 65 0;
#X connect 14 0 66 0;
#X connect 15 0 21 0;
#X connect 16 0 24 0;
#X connect 17 0 25 0;
#X connect 18 0 2 0;
#X connect 19 0 9 0;
#X connect 20 0 3 0;
#X connect 22 0 2 1;
#X connect 23 0 3 1;
#X connect 26 0 2 2;
#X connect 27 0 3 2;
#X connect 29 0 40 1;
#X connect 30 0 3 0;
#X connect 31 0 10 1;
#X connect 33 0 40 2;
#X connect 34 0 12 1;
#X connect 35 0 2 2;
#X connect 38 0 2 0;
#X connect 39 0 3 2;
#X connect 40 0 69 0;
#X connect 41 0 42 0;
#X connect 42 0 2 1;
#X connect 44 0 45 0;
#X connect 45 0 41 0;
#X connect 46 0 4 0;
#X connect 47 0 48 0;
#X connect 47 0 69 1;
#X connect 48 0 54 0;
#X connect 48 0 75 0;
#X connect 49 0 52 0;
#X connect 52 0 68 0;
#X connect 52 0 69 0;
#X connect 53 0 69 0;
#X connect 54 0 68 1;
#X connect 55 0 68 0;
#X connect 56 0 4 0;
#X connect 56 0 53 0;
#X connect 56 0 55 0;
#X connect 57 0 19 0;
#X connect 57 0 42 0;
#X connect 57 0 43 0;
#X connect 57 0 2 0;
#X connect 58 0 61 0;
#X connect 59 0 61 1;
#X connect 60 0 61 2;
#X connect 61 1 41 0;
#X connect 62 0 61 3;
#X connect 63 0 59 0;
#X connect 64 0 58 0;
#X connect 65 0 60 0;
#X connect 66 0 62 0;
#X connect 67 0 51 0;
#X connect 67 0 36 0;
#X connect 70 0 57 1;
#X connect 71 0 74 3;
#X connect 72 0 74 1;
#X connect 73 0 74 2;
#X connect 74 0 68 0;
#X connect 75 0 76 1;
#X connect 77 0 80 3;
#X connect 78 0 80 1;
#X connect 79 0 80 2;
#X connect 80 0 76 0;
#X connect 81 0 76 0;
#X connect 82 0 83 0;
#X connect 83 0 37 0;
#X connect 83 0 50 0;
#X connect 84 0 67 0;
