#N canvas 739 55 1114 794 12;
#X floatatom 220 357 5 0 0 0 - - -;
#X floatatom 283 359 5 0 0 0 - - -;
#X msg 421 178 search;
#X msg 395 148 reset;
#X obj 264 27 tgl 15 0 empty empty empty 17 7 0 10 -262144 -1 -1 0
1;
#X obj 264 47 metro 150;
#X floatatom 326 18 5 0 0 0 - - -;
#X obj 87 387 tabwrite array1;
#X obj 165 433 tabwrite array2;
#N canvas 0 50 450 250 (subpatch) 0;
#X array array1 1000 float 4;
#X coords 0 5 999 -5 200 140 1 0 0;
#X restore 593 355 graph;
#N canvas 0 50 450 250 (subpatch) 0;
#X array array2 1000 float 4;
#X coords 0 5 999 -5 200 140 1 0 0;
#X restore 807 352 graph;
#X floatatom 11 205 5 0 0 0 - - -;
#X obj 414 90 bng 15 250 50 0 empty empty empty 17 7 0 10 -262144 -1
-1;
#X obj 211 249 latoomutalpha;
#X obj 11 179 counter 1000;
#X obj 407 677 *~;
#X obj 442 677 *~;
#X obj 492 742 line~;
#X msg 492 714 \$1 25;
#X obj 492 684 hsl 128 15 0 10 0 0 empty empty empty -2 -8 0 10 -4032
-1 -1 0 1;
#X obj 418 705 dac~;
#X obj 296 436 * 200;
#X obj 451 295 search-tools;
#X obj 471 244 henon;
#X obj 294 409 + 1;
#X obj 342 408 + 1;
#X obj 342 437 * 200;
#X obj 739 286 noteout;
#X floatatom 641 250 5 0 0 0 - - -;
#X obj 737 239 makenote 120 127;
#X obj 641 278 + 60;
#X floatatom 681 250 5 0 0 0 - - -;
#X obj 681 278 + 60;
#X obj 251 481 * -1;
#X obj 151 513 phasor~;
#X obj 151 539 *~ 2;
#X obj 151 565 -~ 1;
#X obj 151 591 clip~ 0 1;
#X obj 228 513 phasor~;
#X obj 228 539 *~ 2;
#X obj 228 565 -~ 1;
#X obj 228 591 clip~ 0 1;
#X obj 184 642 +~;
#X obj 184 668 *~ 0.7;
#X msg 293 476 0;
#X obj 439 459 * -1;
#X obj 362 489 phasor~;
#X obj 362 515 *~ 2;
#X obj 362 541 -~ 1;
#X obj 362 567 clip~ 0 1;
#X obj 439 489 phasor~;
#X obj 439 515 *~ 2;
#X obj 439 541 -~ 1;
#X obj 439 567 clip~ 0 1;
#X obj 395 618 +~;
#X obj 447 640 *~ 0.7;
#X msg 504 452 0;
#X obj 245 311 print 1-;
#X obj 318 312 print 2-;
#X obj 383 313 print 3-;
#X msg 587 95 param -0.966918 2.87988 0.756145 0.744728;
#X connect 0 0 7 0;
#X connect 0 0 24 0;
#X connect 1 0 8 0;
#X connect 1 0 25 0;
#X connect 2 0 23 0;
#X connect 2 0 13 0;
#X connect 3 0 13 0;
#X connect 3 0 23 0;
#X connect 4 0 5 0;
#X connect 5 0 14 0;
#X connect 5 0 13 0;
#X connect 6 0 5 1;
#X connect 11 0 7 1;
#X connect 11 0 8 1;
#X connect 12 0 3 0;
#X connect 12 0 14 2;
#X connect 13 0 0 0;
#X connect 13 1 1 0;
#X connect 13 2 22 0;
#X connect 13 2 57 0;
#X connect 13 3 22 1;
#X connect 13 3 58 0;
#X connect 13 4 22 2;
#X connect 13 4 59 0;
#X connect 14 0 11 0;
#X connect 15 0 20 0;
#X connect 16 0 20 1;
#X connect 17 0 16 1;
#X connect 17 0 15 1;
#X connect 18 0 17 0;
#X connect 19 0 18 0;
#X connect 21 0 34 0;
#X connect 21 0 33 0;
#X connect 22 0 23 0;
#X connect 22 0 13 0;
#X connect 23 0 0 0;
#X connect 23 1 1 0;
#X connect 23 2 22 0;
#X connect 23 3 22 1;
#X connect 23 4 22 2;
#X connect 24 0 21 0;
#X connect 24 0 31 0;
#X connect 25 0 26 0;
#X connect 25 0 28 0;
#X connect 26 0 46 0;
#X connect 26 0 45 0;
#X connect 28 0 30 0;
#X connect 29 0 27 0;
#X connect 29 1 27 1;
#X connect 31 0 32 0;
#X connect 33 0 38 0;
#X connect 34 0 35 0;
#X connect 35 0 36 0;
#X connect 36 0 37 0;
#X connect 37 0 42 0;
#X connect 38 0 39 0;
#X connect 39 0 40 0;
#X connect 40 0 41 0;
#X connect 41 0 42 1;
#X connect 42 0 43 0;
#X connect 43 0 15 0;
#X connect 43 0 16 0;
#X connect 44 0 38 1;
#X connect 44 0 34 1;
#X connect 45 0 50 0;
#X connect 46 0 47 0;
#X connect 47 0 48 0;
#X connect 48 0 49 0;
#X connect 49 0 54 0;
#X connect 50 0 51 0;
#X connect 51 0 52 0;
#X connect 52 0 53 0;
#X connect 53 0 54 1;
#X connect 54 0 55 0;
#X connect 55 0 16 0;
#X connect 55 0 15 0;
#X connect 56 0 50 1;
#X connect 56 0 46 1;
#X connect 60 0 13 0;
