#N canvas 352 98 360 376 10;
#X obj 87 47 v A;
#X floatatom 87 23 5 0 0 0 - - -;
#X floatatom 127 23 5 0 0 0 - - -;
#X floatatom 167 23 5 0 0 0 - - -;
#X obj 127 47 v B;
#X obj 167 47 v C;
#X obj 87 96 bng 15 250 50 0 empty empty empty 17 7 0 10 -262144 -1
-1;
#X obj 114 140 expr if(A*B==0 \, 1 \, 0);
#X obj 114 162 moses 1;
#X obj 153 189 expr if(C==1 \, 0 \, 1);
#X obj 153 211 moses 1;
#X obj 114 282 v A;
#X obj 154 282 v B;
#X obj 194 282 v C;
#X msg 114 211 2;
#X obj 114 249 t a;
#X floatatom 114 304 5 0 0 0 - - -;
#X floatatom 154 304 5 0 0 0 - - -;
#X floatatom 194 304 5 0 0 0 - - -;
#X obj 87 116 t b b;
#X text 211 21 set;
#X text 115 94 test;
#X connect 1 0 0 0;
#X connect 2 0 4 0;
#X connect 3 0 5 0;
#X connect 6 0 19 0;
#X connect 7 0 8 0;
#X connect 8 0 14 0;
#X connect 8 1 9 0;
#X connect 9 0 10 0;
#X connect 10 1 15 0;
#X connect 11 0 16 0;
#X connect 12 0 17 0;
#X connect 13 0 18 0;
#X connect 14 0 15 0;
#X connect 15 0 13 0;
#X connect 15 0 12 0;
#X connect 15 0 11 0;
#X connect 19 0 15 0;
#X connect 19 1 7 0;
