#N canvas 704 71 736 656 12;
#X text 155 68 start;
#X msg 167 140 0 1 \, 1 2 \, 2 3 \, 3 4 \, 4 5 \, 5 6 \, 6 7 \, 7 11
;
#X msg 168 165 0 2 \, 1 3 \, 2 5 \, 3 4 \, 4 5 \, 5 2 \, 6 1 \, 7 9
;
#X msg 169 214 0 1 \, 1 2 \, 2 3 \, 3 4 \, 4 5 \, 5 6 \, 6 7 \, 7 10
;
#X obj 130 238 funbuff;
#C restore;
#X floatatom 130 264 5 0 0 0 - - -;
#X obj 91 95 sel 0 1 2 3;
#X obj 30 66 bng 15 250 50 0 empty empty empty 17 7 0 10 -262144 -1
-1;
#X floatatom 92 70 5 0 0 0 - - -;
#X msg 169 189 0 1 \, 1 2 \, 2 3 \, 3 4 \, 4 5 \, 5 6 \, 6 7 \, 7 8
;
#X obj 55 38 counter 0 3;
#X obj 26 201 counter 0 7;
#X floatatom 27 249 5 0 0 0 - - -;
#X obj 130 317 noteout;
#X obj 130 288 makenote 100 50;
#X obj 25 167 metro 500;
#X obj 5 33 tgl 15 0 empty empty empty 17 7 0 10 -262144 -1 -1 0 1
;
#X msg 429 406 0 1 \, 1 2 \, 2 3 \, 3 4 \, 4 5 \, 5 6 \, 6 7 \, 7 11
;
#X msg 449 431 0 2 \, 1 3 \, 2 5 \, 3 4 \, 4 5 \, 5 2 \, 6 1 \, 7 9
;
#X msg 459 491 0 1 \, 1 2 \, 2 3 \, 3 4 \, 4 5 \, 5 6 \, 6 7 \, 7 10
;
#X msg 455 458 0 1 \, 1 2 \, 2 3 \, 3 4 \, 4 5 \, 5 6 \, 6 7 \, 7 8
;
#X obj 432 365 loadbang;
#X obj 220 507 funbuff;
#C restore;
#X obj 217 347 metro 500;
#X obj 217 375 counter 0 7;
#X obj 217 324 tgl 15 0 empty empty empty 17 7 0 10 -262144 -1 -1 1
1;
#X floatatom 221 532 5 0 0 0 - - -;
#X obj 220 563 makenote 100 200;
#X obj 222 601 noteout;
#X obj 216 404 t f f;
#X obj 280 403 sel 0;
#X obj 280 428 counter 0 7;
#X obj 342 537 sel 0 2 4 6;
#X floatatom 216 457 5 0 0 0 - - -;
#X floatatom 282 459 5 0 0 0 - - -;
#X obj 95 438 t f f;
#X obj 96 473 sel 0 4;
#X msg 94 504 127;
#X msg 134 504 60;
#X connect 1 0 4 0;
#X connect 2 0 4 0;
#X connect 3 0 4 0;
#X connect 4 0 5 0;
#X connect 5 0 14 0;
#X connect 6 0 1 0;
#X connect 6 1 2 0;
#X connect 6 2 9 0;
#X connect 6 3 3 0;
#X connect 7 0 10 0;
#X connect 8 0 6 0;
#X connect 9 0 4 0;
#X connect 10 0 8 0;
#X connect 11 0 12 0;
#X connect 12 0 4 0;
#X connect 15 0 11 0;
#X connect 16 0 15 0;
#X connect 17 0 22 0;
#X connect 18 0 22 0;
#X connect 19 0 22 0;
#X connect 20 0 22 0;
#X connect 21 0 17 0;
#X connect 22 0 26 0;
#X connect 23 0 24 0;
#X connect 24 0 29 0;
#X connect 25 0 23 0;
#X connect 26 0 27 0;
#X connect 27 0 28 0;
#X connect 27 1 28 1;
#X connect 29 0 33 0;
#X connect 29 0 35 0;
#X connect 29 1 30 0;
#X connect 30 0 31 0;
#X connect 31 0 34 0;
#X connect 32 0 17 0;
#X connect 32 1 18 0;
#X connect 32 2 20 0;
#X connect 32 3 19 0;
#X connect 34 0 32 0;
#X connect 35 0 22 0;
#X connect 35 1 36 0;
#X connect 36 0 37 0;
#X connect 36 1 37 0;
#X connect 36 2 38 0;
#X connect 37 0 27 1;
#X connect 38 0 27 1;
