#N canvas 701 43 736 627 12;
#X obj 208 100 noise~;
#X obj 22 346 spectre~;
#X floatatom 451 72 5 0 0 0 - - -;
#X floatatom 463 51 5 0 0 0 - - -;
#X floatatom 423 50 5 0 0 0 - - -;
#X floatatom 383 50 5 0 0 0 - - -;
#X obj 339 183 bob~;
#X floatatom 489 176 5 0 0 0 - - -;
#X obj 429 145 lfo~ 0.2 0 3;
#X obj 413 71 lfo~;
#X obj 329 120 randi~;
#X floatatom 288 84 5 0 0 0 - - -;
#X floatatom 331 85 5 0 0 0 - - -;
#X floatatom 374 87 5 0 0 0 - - -;
#X connect 0 0 6 0;
#X connect 3 0 9 2;
#X connect 4 0 9 1;
#X connect 5 0 9 0;
#X connect 6 0 1 0;
#X connect 8 0 6 2;
#X connect 8 1 7 0;
#X connect 9 1 2 0;
#X connect 10 0 6 1;
#X connect 11 0 10 0;
#X connect 12 0 10 1;
#X connect 13 0 10 2;
