#N canvas 607 168 759 586 12;
#X obj 378 267 osc~ 1;
#X floatatom 378 243 5 0 0 0 - - -;
#X obj 381 293 *~ 0.5;
#X obj 382 319 +~ 0.5;
#X floatatom 492 250 5 0 0 0 - - -;
#X text 498 230 min;
#X floatatom 570 253 5 0 0 0 - - -;
#X text 581 232 max;
#X obj 498 336 -;
#X obj 492 285 t b f;
#X text 373 219 freq;
#X obj 337 195 inlet freq;
#X obj 488 193 inlet min;
#X obj 593 190 inlet max;
#X obj 387 406 outlet~;
#X obj 462 404 outlet;
#X obj 582 372 snapshot~;
#X obj 582 345 metro 10;
#X obj 582 316 loadbang;
#X obj 387 350 *~ 1;
#X obj 387 382 +~ 0;
#X obj 291 69 loadbang;
#X obj 365 110 f \$1;
#X obj 411 108 f \$2;
#X obj 459 104 f \$3;
#X connect 0 0 2 0;
#X connect 1 0 0 0;
#X connect 2 0 3 0;
#X connect 3 0 19 0;
#X connect 4 0 9 0;
#X connect 4 0 20 1;
#X connect 6 0 8 0;
#X connect 8 0 19 1;
#X connect 9 0 8 0;
#X connect 9 1 8 1;
#X connect 11 0 1 0;
#X connect 12 0 4 0;
#X connect 13 0 6 0;
#X connect 16 0 15 0;
#X connect 17 0 16 0;
#X connect 18 0 17 0;
#X connect 19 0 20 0;
#X connect 20 0 14 0;
#X connect 20 0 16 0;
#X connect 21 0 22 0;
#X connect 21 0 23 0;
#X connect 21 0 24 0;
#X connect 22 0 1 0;
#X connect 23 0 4 0;
#X connect 24 0 6 0;
