#N canvas 531 149 822 574 12;
#X obj 195 146 inlet speed;
#X obj 293 146 inlet min;
#X obj 449 146 inlet max;
#X obj 98 66 loadbang;
#X obj 112 214 metro 1000;
#X obj 144 175 bng 15 250 50 0 empty empty empty 17 7 0 10 -262144
-1 -1;
#X obj 112 246 random 100;
#X obj 112 302 * 0.01;
#X floatatom 112 329 5 0 0 0 - - -;
#X obj 299 255 -;
#X obj 293 173 * 100;
#X obj 450 176 * 100;
#X obj 293 199 t b f;
#X floatatom 408 148 5 0 0 0 - - -;
#X floatatom 345 175 5 0 0 0 - - -;
#X floatatom 299 279 5 0 0 0 - - -;
#X obj 112 276 +;
#X obj 112 362 pack f 1000;
#X obj 112 386 line~;
#X obj 112 410 outlet~;
#X connect 0 0 4 1;
#X connect 0 0 17 1;
#X connect 1 0 10 0;
#X connect 2 0 11 0;
#X connect 3 0 4 0;
#X connect 4 0 6 0;
#X connect 5 0 4 0;
#X connect 6 0 16 0;
#X connect 7 0 8 0;
#X connect 8 0 17 0;
#X connect 9 0 15 0;
#X connect 10 0 12 0;
#X connect 10 0 16 1;
#X connect 11 0 9 0;
#X connect 12 0 9 0;
#X connect 12 1 9 1;
#X connect 13 0 11 0;
#X connect 14 0 10 0;
#X connect 15 0 6 1;
#X connect 16 0 7 0;
#X connect 17 0 18 0;
#X connect 18 0 19 0;
