#N canvas 170 36 934 709 12;
#X obj 219 85 noise~;
#X obj 283 50 pink~;
#X obj 39 377 *~;
#X obj 30 458 dac~;
#X obj 80 406 line~;
#X msg 82 374 \$1 20;
#X obj 142 359 vsl 15 128 0 127 0 0 empty empty empty 0 -9 0 10 -262144
-1 -1 0 1;
#X obj 661 169 spectre~;
#X obj 229 188 *~ 0.5;
#X obj 407 78 lop~ 1000;
#X obj 408 101 lop~ 1000;
#X obj 407 128 lop~ 1000;
#X floatatom 499 48 5 0 0 0 - - -;
#X obj 238 355 *~;
#X obj 279 384 line~;
#X msg 281 352 \$1 20;
#X obj 342 335 vsl 15 128 0 10 0 0 empty empty empty 0 -9 0 10 -262144
-1 -1 600 1;
#X floatatom 337 91 5 0 0 0 - - -;
#X obj 250 114 delay~ 1 1;
#X obj 595 381 noise~;
#X obj 598 425 hip~ 1000;
#X floatatom 680 394 5 0 0 0 - - -;
#X obj 596 486 bp~ 1000 10;
#X floatatom 707 448 5 0 0 0 - - -;
#X floatatom 632 457 5 0 0 0 - - -;
#X obj 720 105 vcf~ 10;
#X obj 748 16 hsl 128 15 100 5000 1 0 empty empty empty -2 -8 0 10
-262144 -1 -1 300 1;
#X msg 747 43 \$1 50;
#X obj 747 67 line~;
#X obj 479 298 bob~;
#X floatatom 530 178 5 0 0 0 - - -;
#X obj 530 201 clip 0 8;
#X msg 530 225 \$1 50;
#X obj 530 249 line~;
#X connect 0 0 9 0;
#X connect 0 0 2 0;
#X connect 0 0 18 0;
#X connect 0 0 8 0;
#X connect 0 0 25 0;
#X connect 0 0 29 0;
#X connect 2 0 3 0;
#X connect 2 0 3 1;
#X connect 4 0 2 1;
#X connect 5 0 4 0;
#X connect 6 0 5 0;
#X connect 9 0 10 0;
#X connect 10 0 11 0;
#X connect 12 0 9 1;
#X connect 12 0 10 1;
#X connect 12 0 11 1;
#X connect 13 0 3 1;
#X connect 13 0 3 0;
#X connect 14 0 13 1;
#X connect 15 0 14 0;
#X connect 16 0 15 0;
#X connect 17 0 18 1;
#X connect 18 0 8 0;
#X connect 19 0 20 0;
#X connect 19 0 22 0;
#X connect 21 0 20 1;
#X connect 23 0 22 2;
#X connect 24 0 22 1;
#X connect 26 0 27 0;
#X connect 27 0 28 0;
#X connect 28 0 25 1;
#X connect 28 0 29 1;
#X connect 30 0 31 0;
#X connect 31 0 32 0;
#X connect 32 0 33 0;
#X connect 33 0 29 2;
