#N canvas 899 0 1073 998 12;
#N canvas 0 0 450 300 gemwin 0;
#X obj 132 136 gemwin;
#X obj 67 89 outlet;
#X obj 67 10 inlet;
#X obj 67 41 route create;
#X msg 67 70 set destroy;
#X msg 142 68 set create;
#X msg 198 112 destroy;
#X msg 132 112 create \, 1;
#X connect 2 0 3 0;
#X connect 3 0 4 0;
#X connect 3 0 7 0;
#X connect 3 1 5 0;
#X connect 3 1 6 0;
#X connect 4 0 1 0;
#X connect 5 0 1 0;
#X connect 6 0 0 0;
#X connect 7 0 0 0;
#X restore 576 99 pd gemwin;
#X msg 576 80 create;
#X obj 702 458 gemhead;
#X obj 746 712 cube;
#X msg 760 673 draw line;
#X obj 752 525 rotateXYZ 90 0 0;
#X floatatom 835 486 5 0 0 0 - - -;
#X floatatom 883 491 5 0 0 0 - - -;
#X floatatom 940 493 5 0 0 0 - - -;
#X obj 799 712 cube;
#X obj 839 713 cube;
#X obj 794 577 rotateXYZ 90 0 0;
#X obj 826 613 rotateXYZ 90 0 0;
#X floatatom 904 660 5 0 0 0 - - -;
#X obj 75 128 tgl 15 0 empty empty empty 17 7 0 10 -262144 -1 -1 0
1;
#X obj 907 328 metro 30;
#X obj 815 351 delay 1;
#X obj 813 412 +;
#X obj 894 382 counter;
#X obj 831 382 counter;
#X obj 651 356 expr random(-1 \, 1);
#N canvas 644 265 725 533 spiraleCarre 0;
#X obj 217 119 gemhead;
#X obj 217 143 t a a;
#X obj 217 167 route gem_state;
#X obj 217 191 route float;
#X msg 205 237 30;
#X obj 205 261 until;
#X obj 205 285 gemlist;
#X obj 205 309 cube 0.25;
#X obj 205 382 scaleXYZ 0.9 0.9 0.9;
#X floatatom 273 284 5 0 0 0 - - -;
#X obj 205 359 rotateXYZ 0 0 30;
#X msg 113 284 draw line;
#X obj 111 257 loadbang;
#X obj 304 240 inlet size;
#X obj 375 296 inlet rotation;
#X obj 205 337 translateXYZ 0 0 0;
#X connect 0 0 1 0;
#X connect 1 0 2 0;
#X connect 1 1 6 1;
#X connect 2 0 3 0;
#X connect 3 1 4 0;
#X connect 4 0 5 0;
#X connect 5 0 6 0;
#X connect 6 0 7 0;
#X connect 7 0 15 0;
#X connect 9 0 7 1;
#X connect 10 0 8 0;
#X connect 11 0 7 0;
#X connect 12 0 11 0;
#X connect 13 0 9 0;
#X connect 14 0 10 3;
#X connect 15 0 10 0;
#X restore 108 294 pd spiraleCarre;
#N canvas 948 313 666 533 meshdot 0;
#X obj 188 203 gemhead;
#X obj 192 426 mesh_square;
#X floatatom 267 405 5 0 0 0 - - -;
#X obj 56 47 loadbang;
#X msg 73 280 draw point;
#X msg 166 167 gridX \$1;
#X floatatom 146 135 5 0 0 0 - - -;
#X msg 98 167 gridY \$1;
#X obj 189 257 rotateXYZ;
#X obj 261 205 inlet rotate;
#X obj 267 357 inlet size;
#X obj 267 381 * 2;
#X msg 144 112 145;
#X obj 263 230 * -1;
#X connect 0 0 8 0;
#X connect 2 0 1 1;
#X connect 3 0 4 0;
#X connect 3 0 12 0;
#X connect 4 0 1 0;
#X connect 5 0 1 0;
#X connect 6 0 5 0;
#X connect 6 0 7 0;
#X connect 7 0 1 0;
#X connect 8 0 1 0;
#X connect 9 0 13 0;
#X connect 10 0 11 0;
#X connect 11 0 2 0;
#X connect 12 0 6 0;
#X connect 13 0 8 3;
#X restore 32 294 pd meshdot;
#N canvas 1089 268 641 538 sphere 1;
#X obj 129 194 gemhead;
#X obj 129 305 sphere;
#X obj 318 244 gemhead;
#X obj 312 364 sphere;
#X obj 167 57 t f f;
#X obj 129 129 tgl 15 0 empty empty empty 17 7 0 10 -262144 -1 -1 1
1;
#X obj 316 200 == 0;
#X obj 316 224 tgl 15 0 empty empty empty 17 7 0 10 -262144 -1 -1 0
1;
#X obj 166 9 tgl 15 0 empty empty empty 17 7 0 10 -262144 -1 -1 1 1
;
#X msg 206 363 draw line;
#X obj 234 211 loadbang;
#X obj 129 218 rotateXYZ;
#X obj 309 299 rotateXYZ;
#X floatatom 215 182 5 0 0 0 - - -;
#X obj 215 128 metro 150;
#X obj 215 152 counter;
#X obj 415 93 random 9;
#X floatatom 415 117 5 0 0 0 - - -;
#X obj 414 147 sel 1;
#X obj 215 104 r start;
#X msg 203 255 226;
#X msg 351 341 6;
#X connect 0 0 11 0;
#X connect 2 0 12 0;
#X connect 4 0 5 0;
#X connect 4 1 6 0;
#X connect 5 0 0 0;
#X connect 6 0 7 0;
#X connect 7 0 2 0;
#X connect 8 0 4 0;
#X connect 9 0 1 0;
#X connect 9 0 3 0;
#X connect 10 0 9 0;
#X connect 10 0 20 0;
#X connect 10 0 21 0;
#X connect 11 0 1 0;
#X connect 12 0 3 0;
#X connect 13 0 11 2;
#X connect 13 0 12 2;
#X connect 14 0 15 0;
#X connect 14 0 16 0;
#X connect 15 0 13 0;
#X connect 16 0 17 0;
#X connect 17 0 18 0;
#X connect 18 0 8 0;
#X connect 19 0 14 0;
#X connect 20 0 12 1;
#X connect 20 0 11 1;
#X connect 21 0 3 2;
#X restore 76 210 pd sphere;
#N canvas 1107 202 450 657 tube 0;
#X obj 25 17 gemhead;
#X obj 129 129 rotateXYZ;
#X floatatom 149 54 5 0 0 0 - - -;
#X floatatom 169 74 5 0 0 0 - - -;
#X floatatom 189 95 5 0 0 0 - - -;
#X msg 150 262 numslices \$1;
#X obj 104 400 tube 0 0 0 0;
#X floatatom 150 239 5 0 0 0 - - -;
#X floatatom 152 286 5 0 0 0 - - -;
#X msg 30 128 draw line;
#X floatatom 152 308 5 0 0 0 - - -;
#X floatatom 154 331 5 0 0 0 - - -;
#X text 206 306 ctr ouvert. haut;
#X text 203 287 ctr ouvert. bas;
#X text 205 334 ctr hauteur;
#X obj 192 210 counter 99;
#X obj 193 187 metro 750;
#X obj 193 164 r start;
#X msg 150 28 180;
#X connect 0 0 1 0;
#X connect 1 0 6 0;
#X connect 2 0 1 1;
#X connect 3 0 1 2;
#X connect 4 0 1 3;
#X connect 5 0 6 0;
#X connect 7 0 5 0;
#X connect 8 0 6 1;
#X connect 9 0 6 0;
#X connect 10 0 6 2;
#X connect 11 0 6 3;
#X connect 15 0 7 0;
#X connect 16 0 15 0;
#X connect 17 0 16 0;
#X connect 18 0 2 0;
#X restore 76 187 pd tube;
#X obj 75 151 s start;
#N canvas 1216 37 652 507 LFOs 1;
#X obj 424 301 snapshot~;
#X obj 424 176 osc~ 1;
#X obj 424 200 *~ 0.5;
#X obj 424 224 +~ 0.5;
#X obj 424 248 *~ 1;
#X obj 424 272 +~ 0;
#X floatatom 424 150 5 0 0 0 - - -;
#X floatatom 494 150 5 0 0 0 - - -;
#X obj 494 173 t b f;
#X obj 494 197 -;
#X floatatom 558 150 5 0 0 0 - - -;
#X obj 45 92 metro 1;
#X obj 427 325 hsl 128 15 -300 300 0 0 empty empty empty -2 -8 0 10
-262144 -1 -1 12140 1;
#X obj 232 303 snapshot~;
#X obj 232 178 osc~ 1;
#X obj 232 202 *~ 0.5;
#X obj 232 226 +~ 0.5;
#X obj 232 250 *~ 1;
#X obj 232 274 +~ 0;
#X floatatom 232 152 5 0 0 0 - - -;
#X floatatom 302 152 5 0 0 0 - - -;
#X obj 302 175 t b f;
#X obj 302 199 -;
#X floatatom 366 152 5 0 0 0 - - -;
#X obj 198 335 hsl 128 15 0 30 0 0 empty empty empty -2 -8 0 10 -262144
-1 -1 12140 1;
#X msg 369 123 30;
#X msg 423 125 0.1;
#X msg 232 127 0.1;
#X msg 308 120 15;
#X msg 500 118 0;
#X msg 557 122 300;
#X obj 45 68 r start;
#X obj 421 415 outlet one;
#X obj 195 355 outlet two;
#X obj 364 88 loadbang;
#X connect 0 0 12 0;
#X connect 1 0 2 0;
#X connect 2 0 3 0;
#X connect 3 0 4 0;
#X connect 4 0 5 0;
#X connect 5 0 0 0;
#X connect 6 0 1 0;
#X connect 7 0 8 0;
#X connect 7 0 5 1;
#X connect 8 0 9 0;
#X connect 8 1 9 1;
#X connect 9 0 4 1;
#X connect 10 0 9 0;
#X connect 11 0 0 0;
#X connect 11 0 13 0;
#X connect 12 0 32 0;
#X connect 13 0 24 0;
#X connect 14 0 15 0;
#X connect 15 0 16 0;
#X connect 16 0 17 0;
#X connect 17 0 18 0;
#X connect 18 0 13 0;
#X connect 19 0 14 0;
#X connect 20 0 21 0;
#X connect 20 0 18 1;
#X connect 21 0 22 0;
#X connect 21 1 22 1;
#X connect 22 0 17 1;
#X connect 23 0 22 0;
#X connect 24 0 33 0;
#X connect 25 0 23 0;
#X connect 26 0 6 0;
#X connect 27 0 19 0;
#X connect 28 0 20 0;
#X connect 29 0 7 0;
#X connect 30 0 10 0;
#X connect 31 0 11 0;
#X connect 34 0 25 0;
#X connect 34 0 30 0;
#X connect 34 0 29 0;
#X connect 34 0 28 0;
#X connect 34 0 27 0;
#X connect 34 0 26 0;
#X restore 80 248 pd LFOs;
#X text 572 17 on utilise ce message/objPd;
#X text 572 30 pour creer la fenetre de rendu.;
#X text 574 53 ceci est fait de base dans la librairie;
#X text 576 130 Tout projet pd utilisant cette librairie;
#X text 577 146 seront affecté par la commande du message.;
#X obj 583 221 gemhead;
#X text 68 31 GEM;
#X text 67 58 librairie graphique permettant;
#X text 69 75 de générer des animations de différents;
#X text 72 93 types de formes et médias (image \, video \, vector
\, obj 3d);
#X text 161 190 il semble impossible d'avoir une;
#X text 161 207 surface lise pour les formes arondites;
#X text 162 224 car elles sont faites à l'aide de polygones;
#X text 81 342 Il y a une meilleures performance;
#X text 80 357 de la patch si elle est divisée en sous patch;
#X connect 0 0 1 0;
#X connect 1 0 0 0;
#X connect 4 0 3 0;
#X connect 4 0 9 0;
#X connect 4 0 10 0;
#X connect 5 0 3 0;
#X connect 5 0 11 0;
#X connect 6 0 5 1;
#X connect 6 0 11 1;
#X connect 6 0 12 1;
#X connect 7 0 5 2;
#X connect 7 0 11 2;
#X connect 7 0 12 2;
#X connect 8 0 5 3;
#X connect 8 0 11 3;
#X connect 8 0 12 3;
#X connect 11 0 9 0;
#X connect 11 0 12 0;
#X connect 12 0 10 0;
#X connect 13 0 10 1;
#X connect 13 0 9 1;
#X connect 13 0 3 1;
#X connect 14 0 25 0;
#X connect 15 0 16 0;
#X connect 15 0 18 0;
#X connect 15 0 20 0;
#X connect 16 0 19 0;
#X connect 17 0 7 0;
#X connect 18 0 8 0;
#X connect 19 0 17 1;
#X connect 20 0 17 0;
#X connect 26 0 22 1;
#X connect 26 0 21 1;
#X connect 26 1 22 0;
#X connect 26 1 21 0;
