#N canvas 54 167 1015 653 12;
#X obj 329 324 makenote 500;
#X obj 330 357 noteout;
#X obj 68 53 metro 100;
#X obj 303 41 notein;
#X obj 68 77 s bang_global;
#X obj 70 17 loadbang;
#X text 390 87 si on met 1 comme 3e arg. la 6e note va prendre la place
de la 1er;
#X obj 302 92 poly 5;
#X text 391 128 si on met rien comme 3e arg. la 6e note va etre ignorée
;
#X obj 296 200 route 1 2 3 4 5;
#X obj 293 150 pack f f f;
#X obj 517 261 voix;
#X obj 384 251 voix;
#X obj 303 253 voix;
#X obj 213 253 voix;
#X obj 103 253 voix;
#X floatatom 160 253 5 0 0 0 - - -;
#X floatatom 258 254 5 0 0 0 - - -;
#X floatatom 344 252 5 0 0 0 - - -;
#X floatatom 437 256 5 0 0 0 - - -;
#X floatatom 567 260 5 0 0 0 - - -;
#X floatatom 604 206 5 0 0 0 - - -;
#X text 643 206 transpo;
#X obj 862 149 ctlin 0;
#X floatatom 852 291 5 0 0 0 - - -;
#X obj 852 236 int;
#X obj 858 179 * 0.38;
#X obj 852 260 - 24;
#X obj 828 60 ctlin;
#X floatatom 820 90 5 0 0 0 - - -;
#X floatatom 863 91 5 0 0 0 - - -;
#X obj 618 358 s transpo_range;
#X floatatom 618 330 5 0 0 0 - - -;
#X connect 0 0 1 0;
#X connect 0 1 1 1;
#X connect 2 0 4 0;
#X connect 3 0 7 0;
#X connect 3 1 7 1;
#X connect 5 0 2 0;
#X connect 7 0 10 0;
#X connect 7 1 10 1;
#X connect 9 0 15 0;
#X connect 9 1 14 0;
#X connect 9 2 13 0;
#X connect 9 3 12 0;
#X connect 9 4 11 0;
#X connect 10 0 9 0;
#X connect 11 0 0 0;
#X connect 12 0 0 0;
#X connect 13 0 0 0;
#X connect 14 0 0 0;
#X connect 15 0 0 0;
#X connect 16 0 15 1;
#X connect 17 0 14 0;
#X connect 18 0 13 1;
#X connect 19 0 12 1;
#X connect 20 0 11 1;
#X connect 21 0 20 0;
#X connect 21 0 19 0;
#X connect 21 0 18 0;
#X connect 21 0 17 0;
#X connect 21 0 16 0;
#X connect 23 0 26 0;
#X connect 24 0 21 0;
#X connect 25 0 27 0;
#X connect 26 0 25 0;
#X connect 27 0 24 0;
#X connect 28 0 29 0;
#X connect 28 1 30 0;
#X connect 32 0 31 0;
