#N canvas 698 133 697 578 12;
#X obj 61 381 int;
#X obj 131 230 counter 1 4;
#X obj 131 254 sel 1;
#X text 217 238 on reduit la vitesse au 1/4;
#N canvas 257 344 747 399 velocity 0;
#X floatatom 32 141 5 0 0 0 - - -;
#X text 75 141 velocity;
#X obj 32 164 sel 0;
#X floatatom 61 190 5 0 0 0 - - -;
#X obj 150 160 bng 15 250 50 0 empty empty empty 17 7 0 10 -262144
-1 -1;
#X msg 149 178 8;
#X obj 222 137 moses 55;
#X obj 150 137 moses 35;
#X msg 222 158 6;
#X obj 296 137 moses 75;
#X msg 296 159 4;
#X obj 367 137 moses 95;
#X msg 366 159 2;
#X msg 420 158 1;
#X obj 66 61 inlet;
#X obj 198 272 outlet;
#X text 150 93 les velocités plus petite que 35 vont a gauche et celles
plus grande a droite;
#X connect 0 0 2 0;
#X connect 2 1 3 0;
#X connect 3 0 7 0;
#X connect 4 0 5 0;
#X connect 5 0 15 0;
#X connect 6 0 8 0;
#X connect 6 1 9 0;
#X connect 7 0 4 0;
#X connect 7 1 6 0;
#X connect 8 0 15 0;
#X connect 9 0 10 0;
#X connect 10 0 15 0;
#X connect 11 0 12 0;
#X connect 11 1 13 0;
#X connect 12 0 15 0;
#X connect 13 0 15 0;
#X connect 14 0 0 0;
#X restore 201 144 pd velocity choise;
#X obj 131 202 r bang global;
#X obj 54 512 outlet;
#X obj 73 46 inlet;
#X obj 73 74 unpack f f;
#X obj 31 339 spigot;
#X text 85 340 laisse passer les notes quand la valeur est autre que
0;
#X obj 57 490 + 0;
#X obj 85 464 inlet transpo;
#X obj 501 252 drunk 24 5;
#X obj 537 138 r transpo_range;
#X obj 501 297 -;
#X obj 587 247 div 2;
#X obj 631 246 div 4;
#X floatatom 640 190 5 0 0 0 - - -;
#X obj 634 274 clip 2 12;
#X obj 56 404 t f b;
#X obj 57 441 +;
#X connect 0 0 20 0;
#X connect 1 0 2 0;
#X connect 2 0 9 0;
#X connect 4 0 1 4;
#X connect 5 0 1 0;
#X connect 7 0 8 0;
#X connect 8 0 0 1;
#X connect 8 1 4 0;
#X connect 8 1 9 1;
#X connect 9 0 0 0;
#X connect 11 0 6 0;
#X connect 12 0 11 1;
#X connect 13 0 15 0;
#X connect 14 0 13 1;
#X connect 14 0 16 0;
#X connect 14 0 17 0;
#X connect 15 0 21 1;
#X connect 16 0 15 1;
#X connect 17 0 19 0;
#X connect 18 0 17 0;
#X connect 19 0 13 2;
#X connect 20 0 21 0;
#X connect 20 1 13 0;
#X connect 21 0 11 0;
