#N canvas 1 75 450 300 10;
#X obj 173 219 *~;
#X obj 192 171 *~ 0.5;
#X obj 192 193 +~ 0.5;
#X obj 144 249 outlet~;
#X obj 173 27 r~ source;
#X obj 81 42 inlet~;
#X obj 174 59 bp~ \$1 \$2;
#X obj 174 82 bp~ \$1 \$2;
#X obj 174 106 delay~ \$3 \$3;
#X obj 192 149 osc~ \$4;
#X connect 0 0 3 0;
#X connect 1 0 2 0;
#X connect 2 0 0 1;
#X connect 4 0 6 0;
#X connect 5 0 3 0;
#X connect 6 0 7 0;
#X connect 7 0 8 0;
#X connect 8 0 0 0;
#X connect 9 0 1 0;
