#N canvas 543 139 523 457 10;
#N canvas 0 50 450 250 (subpatch) 0;
#X array snd 29877 float 2;
#X coords 0 1 29877 -1 200 140 1;
#X restore 18 37 graph;
#X obj 229 60 openpanel;
#X obj 229 104 soundfiler;
#X msg 229 82 read -resize \$1 snd;
#X obj 229 39 bng 15 250 50 0 empty empty empty 17 7 0 10 -262144 -1
-1;
#X floatatom 229 126 8 0 0 0 - - -, f 8;
#X obj 229 145 s sndsize;
#X obj 18 193 r sndsize;
#X obj 18 215 t b f;
#X obj 18 261 /;
#X obj 18 238 samplerate~;
#X floatatom 18 283 5 0 0 0 - - -, f 5;
#X obj 247 396 dac~;
#X obj 246 366 *~;
#X obj 294 344 hsl 128 15 0 1 0 0 empty empty empty -2 -8 0 10 -262144
-1 -1 0 1;
#X obj 18 304 phasor~;
#X obj 17 354 tabread4~ snd;
#X obj 18 329 *~;
#X obj 17 376 s~ source;
#X obj 247 186 bpdel 500 10 10000 0.5;
#X obj 273 261 bpdel 1000 10 20000 0.75;
#X obj 247 208 bpdel 1500 10 30000 1.25;
#X obj 273 283 bpdel 2000 10 5000 1.5;
#X obj 247 230 bpdel 2500 10 35000 2;
#X obj 273 305 bpdel 3000 10 25000 1.75;
#X obj 273 367 *~;
#X obj 261 14 loadbang;
#X msg 261 36 symbol transparent.wav;
#X obj 126 408 writesf~ 2;
#X msg 137 324 open example.wav;
#X msg 154 353 start;
#X msg 169 375 stop;
#X connect 1 0 3 0;
#X connect 2 0 5 0;
#X connect 3 0 2 0;
#X connect 4 0 1 0;
#X connect 5 0 6 0;
#X connect 7 0 8 0;
#X connect 8 0 10 0;
#X connect 8 1 9 1;
#X connect 8 1 17 1;
#X connect 9 0 11 0;
#X connect 10 0 9 0;
#X connect 11 0 15 0;
#X connect 13 0 12 0;
#X connect 13 0 28 0;
#X connect 14 0 13 1;
#X connect 14 0 25 1;
#X connect 15 0 17 0;
#X connect 16 0 18 0;
#X connect 17 0 16 0;
#X connect 19 0 21 0;
#X connect 20 0 22 0;
#X connect 21 0 23 0;
#X connect 22 0 24 0;
#X connect 23 0 13 0;
#X connect 24 0 25 0;
#X connect 25 0 12 1;
#X connect 25 0 28 1;
#X connect 26 0 27 0;
#X connect 27 0 3 0;
#X connect 29 0 28 0;
#X connect 30 0 28 0;
#X connect 31 0 28 0;
