#N canvas 567 139 771 775 10;
#N canvas 0 50 450 250 (subpatch) 0;
#X array snd 29877 float 2;
#X coords 0 1 29877 -1 200 140 1;
#X restore 18 37 graph;
#X obj 229 60 openpanel;
#X obj 229 104 soundfiler;
#X msg 229 82 read -resize \$1 snd;
#X obj 229 39 bng 15 250 50 0 empty empty empty 17 7 0 10 -262144 -1
-1;
#X floatatom 229 126 8 0 0 0 - - -;
#X obj 229 145 s sndsize;
#X obj 573 28 r sndsize;
#X obj 573 50 t b f;
#X obj 573 96 /;
#X obj 573 73 samplerate~;
#X floatatom 573 118 5 0 0 0 - - -;
#X obj 86 388 dac~;
#X obj 85 358 *~;
#X obj 133 336 hsl 128 15 0 1 0 0 empty empty empty -2 -8 0 10 -262144
-1 -1 700 1;
#X obj 573 198 phasor~;
#X obj 572 248 tabread4~ snd;
#X obj 573 223 *~;
#X obj 572 452 s~ source;
#X obj 112 359 *~;
#X obj 261 14 loadbang;
#X msg 261 36 symbol transparent.wav;
#X obj 573 137 sig~;
#X obj 573 169 +~;
#X obj 102 282 r~ source;
#X obj 705 99 osc~;
#X floatatom 705 75 5 0 0 0 - - -;
#X obj 705 151 *~;
#X floatatom 723 128 5 0 0 0 - - -;
#X floatatom 702 271 5 0 0 0 - - -;
#X obj 531 415 *~;
#X obj 451 285 sel 0;
#X msg 451 307 1;
#X msg 483 307 0;
#X obj 702 294 osc~;
#X obj 702 315 *~ 0.5;
#X obj 702 337 +~ 0.5;
#X obj 572 355 *~;
#X obj 571 415 *~;
#X msg 451 350 1 \$1;
#X obj 451 372 -;
#X obj 702 222 loadbang;
#X obj 187 518 spectre~;
#X obj 474 519 spectre~;
#X connect 1 0 3 0;
#X connect 2 0 5 0;
#X connect 3 0 2 0;
#X connect 4 0 1 0;
#X connect 5 0 6 0;
#X connect 7 0 8 0;
#X connect 8 0 10 0;
#X connect 8 1 9 1;
#X connect 8 1 17 1;
#X connect 9 0 11 0;
#X connect 10 0 9 0;
#X connect 11 0 22 0;
#X connect 13 0 12 0;
#X connect 14 0 13 1;
#X connect 14 0 19 1;
#X connect 15 0 17 0;
#X connect 16 0 30 0;
#X connect 16 0 37 0;
#X connect 17 0 16 0;
#X connect 19 0 12 1;
#X connect 20 0 21 0;
#X connect 21 0 3 0;
#X connect 22 0 23 0;
#X connect 23 0 15 0;
#X connect 24 0 13 0;
#X connect 24 0 19 0;
#X connect 25 0 27 0;
#X connect 26 0 25 0;
#X connect 27 0 23 1;
#X connect 28 0 27 1;
#X connect 29 0 31 0;
#X connect 29 0 34 0;
#X connect 30 0 18 0;
#X connect 30 0 42 0;
#X connect 31 0 32 0;
#X connect 31 1 33 0;
#X connect 32 0 30 1;
#X connect 32 0 39 0;
#X connect 33 0 30 1;
#X connect 33 0 39 0;
#X connect 34 0 35 0;
#X connect 35 0 36 0;
#X connect 36 0 37 1;
#X connect 37 0 38 0;
#X connect 38 0 18 0;
#X connect 38 0 43 0;
#X connect 39 0 40 0;
#X connect 40 0 38 1;
#X connect 41 0 29 0;
