#N canvas 52 82 810 418 10;
#X obj 151 72 hsl 128 15 0.125 4 0 1 empty empty Speed -2 -8 0 10 -262144
-1 -1 2868 0;
#X floatatom 281 72 5 0 0 0 - - -;
#X obj 150 112 hsl 128 15 -24 24 0 1 empty empty Transposition -2 -8
0 10 -262144 -1 -1 6350 0;
#X floatatom 281 112 5 0 0 0 - - -;
#X obj 147 130 int;
#X obj 73 59 vradio 15 1 0 3 empty empty empty 0 -8 0 10 -262144 -1
-1 0;
#X text 91 73 record;
#X text 91 58 stop;
#X text 92 87 play;
#X obj 73 112 tgl 15 0 empty empty empty 17 7 0 10 -262144 -1 -1 1
1;
#X text 90 112 loop;
#X obj 281 89 s \$0-speed;
#X obj 281 129 s \$0-transpo;
#X obj 391 120 tgl 15 0 empty empty empty 17 7 0 10 -262144 -1 -1 0
1;
#X obj 391 140 t f f;
#X obj 487 166 sel 1;
#X obj 391 165 metro 4;
#X obj 391 202 counter;
#X obj 391 232 * 4;
#X floatatom 391 256 5 0 0 0 - - -;
#X obj 235 158 notein;
#X obj 235 180 pack;
#X obj 269 210 thresh 4;
#X obj 345 307 prepend;
#X msg 487 306 clear;
#X obj 554 178 tgl 15 0 empty empty empty 17 7 0 10 -262144 -1 -1 0
1;
#X obj 554 198 metro 4;
#X obj 554 220 counter 0 100;
#X obj 554 242 * 4;
#X obj 554 282 zl iter 2;
#X obj 554 302 unpack;
#X obj 554 347 noteout;
#X obj 235 248 noteout;
#X obj 345 278 gate;
#X obj 391 278 prepend store;
#N canvas 561 133 452 367 transpositeur 0;
#X obj 99 77 inlet pitch;
#X obj 192 77 inlet velocity;
#X obj 237 116 inlet transpo;
#X obj 99 187 funbuff;
#C restore;
#X obj 130 115 gate;
#X obj 162 159 + 0;
#X obj 99 217 outlet pitch;
#X obj 192 217 outlet velocity;
#X obj 130 137 t f f;
#X connect 0 0 4 1;
#X connect 0 0 3 0;
#X connect 1 0 7 0;
#X connect 1 0 4 0;
#X connect 2 0 5 1;
#X connect 3 0 6 0;
#X connect 4 0 8 0;
#X connect 5 0 3 1;
#X connect 8 0 3 0;
#X connect 8 1 5 0;
#X restore 554 323 pd transpositeur;
#X text 284 8 ===== Section enregistrement =====;
#X text 540 8 ===== Section lecture =====;
#X msg 380 90 0;
#X msg 416 90 1;
#X msg 532 142 0;
#X msg 568 142 1;
#X obj 708 255 sel;
#X obj 683 110 gate;
#X obj 532 48 sel 0 1 2;
#X obj 380 48 sel 0 1 2;
#X obj 683 86 expr 1 - $f1;
#X obj 380 26 r \$0-controls;
#X obj 532 26 r \$0-controls;
#X obj 683 64 r \$0-loop;
#X obj 600 154 r \$0-speed;
#X obj 663 302 r \$0-transpo;
#X obj 642 198 r \$0-maxi;
#X obj 420 232 s \$0-maxi;
#X obj 345 346 coll \$0-seq;
#C restore;
#X obj 554 262 coll \$0-seq;
#C restore;
#X obj 40 157 s \$0-controls;
#X obj 73 133 s \$0-loop;
#X obj 600 176 * 4;
#X msg 73 32 0;
#X obj 38 10 loadbang;
#X msg 38 32 1;
#X connect 0 0 1 0;
#X connect 1 0 11 0;
#X connect 2 0 4 0;
#X connect 3 0 12 0;
#X connect 4 0 3 0;
#X connect 5 0 56 0;
#X connect 9 0 57 0;
#X connect 13 0 14 0;
#X connect 13 0 33 0;
#X connect 14 0 16 0;
#X connect 14 1 15 0;
#X connect 15 0 17 2;
#X connect 15 0 24 0;
#X connect 16 0 17 0;
#X connect 17 0 18 0;
#X connect 17 0 53 0;
#X connect 18 0 19 0;
#X connect 19 0 34 0;
#X connect 20 0 21 0;
#X connect 20 1 21 1;
#X connect 21 0 22 0;
#X connect 21 0 32 0;
#X connect 22 0 33 1;
#X connect 23 0 54 0;
#X connect 24 0 54 0;
#X connect 25 0 26 0;
#X connect 26 0 27 0;
#X connect 27 0 28 0;
#X connect 27 0 42 0;
#X connect 28 0 55 0;
#X connect 29 0 30 0;
#X connect 30 0 35 0;
#X connect 30 1 35 1;
#X connect 33 0 23 0;
#X connect 34 0 23 1;
#X connect 35 0 31 0;
#X connect 35 1 31 1;
#X connect 38 0 13 0;
#X connect 39 0 13 0;
#X connect 40 0 25 0;
#X connect 41 0 25 0;
#X connect 42 0 43 1;
#X connect 43 0 40 0;
#X connect 44 0 40 0;
#X connect 44 1 40 0;
#X connect 44 2 41 0;
#X connect 45 0 38 0;
#X connect 45 1 39 0;
#X connect 45 2 38 0;
#X connect 46 0 43 0;
#X connect 47 0 45 0;
#X connect 48 0 44 0;
#X connect 49 0 46 0;
#X connect 50 0 58 0;
#X connect 51 0 35 2;
#X connect 52 0 27 4;
#X connect 52 0 42 1;
#X connect 55 0 29 0;
#X connect 58 0 26 1;
#X connect 59 0 5 0;
#X connect 60 0 61 0;
#X connect 60 0 59 0;
#X connect 61 0 9 0;
#X coords 0 -1 1 1 249 72 2 71 57;
