#N canvas 204 98 991 879 12;
#X obj 357 642 dac~;
#X obj 351 616 *~;
#X obj 383 616 *~;
#X obj 428 593 line~;
#X obj 431 548 hsl 128 15 0 1 0 0 empty empty empty -2 -8 0 10 -258113
-4032 -4032 0 1;
#X msg 428 571 \$1 50;
#X msg 351 307 read -resize \$1 array1;
#X obj 351 330 soundfiler;
#X obj 351 279 openpanel;
#X obj 351 261 bng 15 250 50 0 empty empty empty 17 7 0 10 -262144
-1 -1;
#N canvas 0 50 450 250 (subpatch) 0;
#X array array1 29877 float 2;
#X coords 0 1 29877 -1 200 140 1;
#X restore 383 38 graph;
#X msg 421 279 open transparent.wav;
#X obj 421 257 loadbang;
#X obj 351 381 samplerate~;
#X obj 351 354 t b f;
#X obj 351 405 /;
#X floatatom 351 429 5 0 0 0 - - -;
#X obj 351 452 phasor~;
#X obj 351 476 *~;
#X obj 351 503 tabread4~ array1;
#X text 544 258 load sons;
#X text 406 356 <-- loop audio;
#X obj 68 643 osc~;
#X floatatom 68 622 5 0 18000 0 - - -;
#X obj 68 667 *~;
#X obj 71 603 hsl 128 15 0 18000 0 0 empty empty empty -2 -8 0 10 -258113
-4032 -4032 0 1;
#X obj 111 354 osc~;
#X obj 111 378 *~;
#X obj 112 327 *~;
#X obj 165 355 *~;
#X obj 58 404 +~;
#X floatatom 57 270 5 0 0 2 porteuse - -;
#X obj 57 292 sig~;
#X floatatom 131 270 5 0 2 2 ratio - -;
#X obj 131 292 sig~;
#X floatatom 190 270 5 0 4 2 index - -;
#X obj 190 292 sig~;
#X text 68 574 mod. amp;
#X text 57 229 mod. frq;
#X obj 705 246 spectre~;
#X obj 350 528 s~ tabSp;
#X obj 705 196 r~ tabSp;
#X text 780 200 normal;
#X obj 709 456 spectre~;
#X obj 709 406 r~ AmpSp;
#X text 784 410 amp;
#X obj 68 702 s~ AmpSp;
#X obj 692 665 spectre~;
#X text 767 619 freq;
#X obj 692 615 r~ FrqSp;
#X obj 58 459 s~ FrqSp;
#X obj 57 432 tabread4~ array1;
#X connect 1 0 0 0;
#X connect 2 0 0 1;
#X connect 3 0 1 1;
#X connect 3 0 2 1;
#X connect 4 0 5 0;
#X connect 5 0 3 0;
#X connect 6 0 7 0;
#X connect 7 0 14 0;
#X connect 8 0 6 0;
#X connect 9 0 8 0;
#X connect 11 0 6 0;
#X connect 12 0 11 0;
#X connect 13 0 15 0;
#X connect 14 0 13 0;
#X connect 14 1 15 1;
#X connect 14 1 18 1;
#X connect 15 0 16 0;
#X connect 16 0 17 0;
#X connect 17 0 18 0;
#X connect 18 0 19 0;
#X connect 18 0 51 0;
#X connect 19 0 24 1;
#X connect 19 0 40 0;
#X connect 22 0 24 0;
#X connect 23 0 22 0;
#X connect 24 0 46 0;
#X connect 24 0 1 0;
#X connect 24 0 2 0;
#X connect 25 0 23 0;
#X connect 26 0 27 0;
#X connect 27 0 30 1;
#X connect 28 0 26 0;
#X connect 28 0 29 0;
#X connect 29 0 27 1;
#X connect 30 0 51 0;
#X connect 31 0 32 0;
#X connect 32 0 28 0;
#X connect 32 0 30 0;
#X connect 33 0 34 0;
#X connect 34 0 28 1;
#X connect 35 0 36 0;
#X connect 36 0 29 1;
#X connect 41 0 39 0;
#X connect 44 0 43 0;
#X connect 49 0 47 0;
#X connect 51 0 50 0;
#X connect 51 0 1 0;
#X connect 51 0 2 0;
