#N canvas 522 98 738 399 10;
#X obj 478 141 adc~;
#X obj 478 183 *~;
#X obj 526 115 hsl 128 15 0 1 0 0 empty empty Gain -2 -8 0 10 -262144
-1 -1 0 1;
#X msg 523 135 \$1 25;
#X obj 523 157 line~;
#X obj 504 183 *~;
#X obj 130 284 writesf~ 2;
#X msg 130 75 open ../snds/test.wav;
#X obj 42 30 bng 15 250 50 0 empty empty empty 17 7 0 10 -262144 -1
-1;
#X obj 42 190 delay 2000;
#X obj 479 248 env~;
#X obj 521 248 env~;
#X floatatom 479 270 5 0 0 0 - - -;
#X floatatom 521 270 5 0 0 0 - - -;
#X obj 42 50 t b b b;
#X msg 158 191 start;
#X msg 158 227 stop;
#X msg 143 113 open -bytes 3 ../snds/test.wav;
#X msg 155 153 open -bytes 4 ../snds/test.wav;
#X text 158 59 fichier son 16-bit;
#X text 234 98 fichier son 24-bit;
#X text 205 138 fichier son 32-bit float;
#X text 60 29 enregistre pour 2 secondes;
#X text 4 -21 Écriture de fichier son sur le disque dur;
#X text 464 81 Signal source = entrée micro;
#X connect 0 0 1 0;
#X connect 0 1 5 0;
#X connect 1 0 6 0;
#X connect 1 0 10 0;
#X connect 2 0 3 0;
#X connect 3 0 4 0;
#X connect 4 0 1 1;
#X connect 4 0 5 1;
#X connect 5 0 6 1;
#X connect 5 0 11 0;
#X connect 7 0 6 0;
#X connect 8 0 14 0;
#X connect 9 0 16 0;
#X connect 10 0 12 0;
#X connect 11 0 13 0;
#X connect 14 0 9 0;
#X connect 14 1 15 0;
#X connect 14 2 7 0;
#X connect 15 0 6 0;
#X connect 16 0 6 0;
#X connect 17 0 6 0;
#X connect 18 0 6 0;
