#N canvas 134 118 971 388 10;
#X obj 379 153 adc~;
#X obj 380 178 *~;
#X obj 428 110 hsl 128 15 0 1 0 0 empty empty Gain -2 -8 0 10 -262144
-1 -1 6400 1;
#X msg 425 130 \$1 25;
#X obj 425 152 line~;
#X obj 130 268 writesf~ 2;
#X obj 42 30 bng 15 250 50 0 empty empty empty 17 7 0 10 -262144 -1
-1;
#X obj 379 221 env~;
#X obj 421 221 env~;
#X floatatom 379 243 5 0 0 0 - - -;
#X floatatom 421 243 5 0 0 0 - - -;
#X obj 42 50 t b b b;
#X msg 140 174 start;
#X msg 150 203 stop;
#X text 381 76 Signal source = entrée micro;
#X floatatom 130 90 5 0 0 0 - - -;
#X obj 130 109 makefilename ../snds/snd-%03d.wav;
#X obj 130 67 counter 0 100;
#X obj 174 49 bng 15 250 50 0 empty empty empty 17 7 0 10 -262144 -1
-1;
#X text 191 48 reset;
#X text 59 26 enregistre pour 1 secondes;
#X obj 42 173 delay 1000;
#X msg 130 132 open \$1;
#X obj 731 298 print;
#X symbolatom 731 64 10 0 0 0 - - -;
#X floatatom 801 205 5 0 0 0 - - -;
#X obj 801 182 counter 0 100;
#X obj 845 162 bng 15 250 50 0 empty empty empty 17 7 0 10 -262144
-1 -1;
#X text 862 161 reset;
#X obj 801 161 bng 15 250 50 0 empty empty empty 17 7 0 10 -262144
-1 -1;
#X msg 731 108 set \$1;
#X obj 731 86 makefilename %s-%%03d.wav;
#X obj 731 249 makefilename temp-symbol;
#X msg 731 273 open \$1;
#X text 746 161 nouveau;
#X text 726 8 Boite à symbole.;
#X text 726 26 Entrer un nom générique pour;
#X text 726 42 une série de fichiers sons.;
#X text 3 -17 Construction dynamique de noms de fichiers avec makefilename
;
#X obj 406 178 *~;
#X connect 0 0 1 0;
#X connect 0 1 39 0;
#X connect 1 0 5 0;
#X connect 1 0 7 0;
#X connect 2 0 3 0;
#X connect 3 0 4 0;
#X connect 4 0 1 1;
#X connect 4 0 39 1;
#X connect 6 0 11 0;
#X connect 7 0 9 0;
#X connect 8 0 10 0;
#X connect 11 0 21 0;
#X connect 11 1 12 0;
#X connect 11 2 17 0;
#X connect 12 0 5 0;
#X connect 13 0 5 0;
#X connect 15 0 16 0;
#X connect 16 0 22 0;
#X connect 17 0 15 0;
#X connect 18 0 17 2;
#X connect 21 0 13 0;
#X connect 22 0 5 0;
#X connect 24 0 27 0;
#X connect 24 0 31 0;
#X connect 25 0 32 0;
#X connect 26 0 25 0;
#X connect 27 0 26 2;
#X connect 29 0 26 0;
#X connect 30 0 32 0;
#X connect 31 0 30 0;
#X connect 32 0 33 0;
#X connect 33 0 23 0;
#X connect 39 0 5 1;
#X connect 39 0 8 0;
