#N canvas 264 114 828 527 10;
#N canvas 0 0 450 300 (subpatch) 0;
#X array snd1 353415 float 2;
#X coords 0 1 353415 -1 300 80 1 0 0;
#X restore 436 202 graph;
#N canvas 0 0 450 300 (subpatch) 0;
#X array snd2 353415 float 2;
#X coords 0 1 353415 -1 300 80 1 0 0;
#X restore 435 299 graph;
#X obj 421 119 soundfiler;
#X floatatom 421 147 10 0 0 0 - - -;
#X text 499 147 Nombre d'échantillons par canal;
#X obj 194 53 openpanel;
#X obj 194 32 bng 15 250 50 0 empty empty empty 17 7 0 10 -262144 -1
-1;
#X msg 194 76 read -resize \$1 snd1 snd2;
#X obj 37 290 bng 15 250 50 0 empty empty empty 17 7 0 10 -262144 -1
-1;
#X text 4 7 Lecture de fichier son en RAM;
#X text 211 32 Ouvrir un dialogue standard;
#N canvas 344 85 565 502 lecture_simple 0;
#X obj 11 350 tabread4~ snd1;
#X obj 123 350 tabread4~ snd2;
#X obj 57 448 dac~;
#X obj 118 116 samplerate~;
#X obj 95 138 /;
#X obj 72 95 t f f b;
#X obj 72 265 pack;
#X msg 72 287 0 \, \$1 \$2;
#X obj 95 160 * 1000;
#X obj 72 35 inlet go;
#X text 197 155 samples / sr * 1000;
#X text 139 288 \$1 et \$2 remplacés par les éléments d'une liste
en entrée;
#X text 117 309 valeur seule -> saut direct à la valeur;
#X text 145 139 Conversion de la durée en millisecondes;
#X obj 260 350 inlet gain;
#X msg 260 372 \$1 25;
#X obj 260 394 line~;
#X obj 11 424 *~;
#X obj 123 424 *~;
#X obj 115 190 inlet transposition;
#X floatatom 115 223 5 0 0 0 - - -;
#X obj 72 314 line~;
#X text 117 325 Liste "X Y" -> se rend à la valeur X en Y millisecondes
;
#X obj 97 242 /;
#X text 161 213 Altération de la hauteur en divisant la durée;
#X text 161 227 de lecture par un facteur de transposition.;
#X obj 72 75 int;
#X text 107 265 Construit une liste de 2 valeurs;
#X obj 90 55 receive size;
#X connect 0 0 17 0;
#X connect 1 0 18 0;
#X connect 3 0 4 1;
#X connect 4 0 8 0;
#X connect 5 0 6 0;
#X connect 5 1 4 0;
#X connect 5 2 3 0;
#X connect 6 0 7 0;
#X connect 7 0 21 0;
#X connect 8 0 23 0;
#X connect 9 0 26 0;
#X connect 14 0 15 0;
#X connect 15 0 16 0;
#X connect 16 0 17 1;
#X connect 16 0 18 1;
#X connect 17 0 2 0;
#X connect 18 0 2 1;
#X connect 19 0 20 0;
#X connect 20 0 23 1;
#X connect 21 0 0 0;
#X connect 21 0 1 0;
#X connect 23 0 6 1;
#X connect 26 0 5 0;
#X connect 28 0 26 1;
#X restore 37 328 pd lecture_simple;
#X obj 153 197 vsl 15 100 0 1 0 0 empty empty Gain 0 -9 0 10 -262144
-1 -1 2400 1;
#N canvas 174 121 733 385 lecture_boucle 0;
#X obj 182 178 phasor~;
#X obj 251 183 - 3;
#X obj 182 222 +~ 1;
#X obj 182 200 *~;
#X obj 134 255 tabread4~ snd1;
#X obj 246 255 tabread4~ snd2;
#X obj 182 77 samplerate~;
#X obj 182 99 /;
#X obj 182 55 t b f;
#X floatatom 182 121 5 0 0 0 - - -;
#X obj 176 317 dac~;
#X obj 363 219 inlet gain;
#X msg 363 241 \$1 25;
#X obj 363 263 line~;
#X obj 133 291 *~;
#X obj 245 291 *~;
#X text 277 78 Conversion en fréquence en Hz;
#X text 330 95 sr / samples;
#X text 148 119 freq;
#X text 77 179 rampe de 0 à 1;
#X obj 182 157 * 1;
#X obj 74 103 t b f;
#X obj 74 77 inlet transpo;
#X text 287 137 tabread4~ applique une interpolation cubique à la
lecture. Pour en profiter pleinement \, il faut lire de l'échantillon
1 à la longueur de la table - 2 Cela assure qu'il y a toujours un
échantillon avant et deux après l'échantillon courant.;
#X obj 182 33 receive size;
#X connect 0 0 3 0;
#X connect 1 0 3 1;
#X connect 2 0 4 0;
#X connect 2 0 5 0;
#X connect 3 0 2 0;
#X connect 4 0 14 0;
#X connect 5 0 15 0;
#X connect 6 0 7 0;
#X connect 7 0 9 0;
#X connect 8 0 6 0;
#X connect 8 1 7 1;
#X connect 8 1 1 0;
#X connect 9 0 20 0;
#X connect 11 0 12 0;
#X connect 12 0 13 0;
#X connect 13 0 14 1;
#X connect 13 0 15 1;
#X connect 14 0 10 0;
#X connect 15 0 10 1;
#X connect 20 0 0 0;
#X connect 21 0 20 0;
#X connect 21 1 20 1;
#X connect 22 0 21 0;
#X connect 24 0 8 0;
#X restore 248 329 pd lecture_boucle;
#X obj 364 199 vsl 15 100 0 1 0 0 empty empty Gain 0 -9 0 10 -262144
-1 -1 1400 1;
#X obj 95 197 vsl 15 100 0.25 4 0 0 empty empty Transpo 0 -9 0 10 -262144
-1 -1 680 1;
#X floatatom 95 306 5 0 0 0 - - -;
#X obj 95 102 loadbang;
#X msg 95 124 1;
#X obj 248 198 vsl 15 100 0.25 4 0 0 empty empty Transpo 0 -9 0 10
-262144 -1 -1 4580 1;
#X floatatom 248 307 5 0 0 0 - - -;
#X floatatom 153 306 5 0 0 0 - - -;
#X floatatom 364 308 5 0 0 0 - - -;
#X text 35 271 go;
#X obj 248 456 pow;
#X floatatom 248 391 5 0 0 0 - - -;
#X obj 248 410 t b f;
#X msg 248 432 2;
#X obj 280 432 / 12;
#X floatatom 248 478 5 0 0 0 - - -;
#X text 101 390 Transpo en demi-tons;
#X text 74 477 Facteur de transposition;
#X msg 451 88 write -wave -bytes 4 ../snds/myfile snd1 snd2;
#X msg 421 50 read -resize ../snds/cacanne4.aif snd1 snd2;
#X text 419 32 Lecture d'un fichier son stereo;
#X text 448 70 Écriture d'un fichier son stereo;
#X obj 421 166 send size;
#X text 499 114 Communication en lecture et en écriture avec les arrays
;
#X connect 2 0 3 0;
#X connect 3 0 36 0;
#X connect 5 0 7 0;
#X connect 6 0 5 0;
#X connect 7 0 2 0;
#X connect 8 0 11 0;
#X connect 12 0 21 0;
#X connect 14 0 22 0;
#X connect 15 0 16 0;
#X connect 16 0 11 1;
#X connect 17 0 18 0;
#X connect 18 0 15 0;
#X connect 18 0 19 0;
#X connect 19 0 20 0;
#X connect 20 0 13 0;
#X connect 21 0 11 2;
#X connect 22 0 13 1;
#X connect 24 0 29 0;
#X connect 25 0 26 0;
#X connect 26 0 27 0;
#X connect 26 1 28 0;
#X connect 27 0 24 0;
#X connect 28 0 24 1;
#X connect 32 0 2 0;
#X connect 33 0 2 0;
