#N canvas 1 67 420 233 10;
#N canvas 307 174 575 358 etape_1 0;
#N canvas 0 0 450 300 (subpatch) 0;
#X array step1 29881 float 2;
#X coords 0 1 29881 -1 300 100 1 0 0;
#X restore 218 162 graph;
#X obj 217 96 soundfiler;
#X floatatom 217 119 10 0 0 0 - - -;
#X obj 217 50 loadbang;
#X msg 217 73 read -resize ../snds/transparent.aif step1;
#X connect 1 0 2 0;
#X connect 3 0 4 0;
#X connect 4 0 1 0;
#X restore 10 45 pd etape_1;
#X text 6 7 Lecture d'un fichier son par segmentation aléatoire;
#N canvas 303 164 575 358 etape_2 0;
#N canvas 0 0 450 300 (subpatch) 0;
#X array step2 29881 float 2;
#X coords 0 1 29881 -1 300 100 1 0 0;
#X restore 218 162 graph;
#X obj 217 96 soundfiler;
#X floatatom 217 119 10 0 0 0 - - -;
#X obj 217 50 loadbang;
#X obj 90 33 tgl 15 0 empty empty empty 17 7 0 10 -262144 -1 -1 0 1
;
#X obj 90 138 random;
#X floatatom 90 161 10 0 0 0 - - -;
#X obj 90 53 metro 250;
#X msg 217 73 read -resize ../snds/transparent.aif step2;
#X connect 1 0 2 0;
#X connect 2 0 5 1;
#X connect 3 0 8 0;
#X connect 4 0 7 0;
#X connect 5 0 6 0;
#X connect 7 0 5 0;
#X connect 8 0 1 0;
#X restore 10 71 pd etape_2;
#N canvas 301 159 566 438 etape_3 0;
#N canvas 0 0 450 300 (subpatch) 0;
#X array step3 29881 float 2;
#X coords 0 1 29881 -1 300 100 1 0 0;
#X restore 218 162 graph;
#X obj 217 96 soundfiler;
#X floatatom 217 119 10 0 0 0 - - -;
#X obj 217 50 loadbang;
#X obj 90 33 tgl 15 0 empty empty empty 17 7 0 10 -262144 -1 -1 0 1
;
#X obj 90 138 random;
#X floatatom 90 161 10 0 0 0 - - -;
#X obj 90 53 metro 250;
#X msg 90 193 \$1 250;
#X obj 90 215 line~;
#X msg 217 73 read -resize ../snds/transparent.aif step3;
#X connect 1 0 2 0;
#X connect 2 0 5 1;
#X connect 3 0 10 0;
#X connect 4 0 7 0;
#X connect 5 0 6 0;
#X connect 6 0 8 0;
#X connect 7 0 5 0;
#X connect 8 0 9 0;
#X connect 10 0 1 0;
#X restore 11 97 pd etape_3;
#N canvas 297 149 566 438 etape_4 0;
#N canvas 0 0 450 300 (subpatch) 0;
#X array step4 29881 float 2;
#X coords 0 1 29881 -1 300 100 1 0 0;
#X restore 218 162 graph;
#X obj 217 96 soundfiler;
#X floatatom 217 119 10 0 0 0 - - -;
#X obj 217 50 loadbang;
#X obj 90 33 tgl 15 0 empty empty empty 17 7 0 10 -262144 -1 -1 0 1
;
#X obj 90 138 random;
#X floatatom 90 161 10 0 0 0 - - -;
#X obj 90 53 metro 250;
#X msg 90 193 \$1 250;
#X obj 90 215 line~;
#X obj 90 323 dac~;
#X obj 89 279 tabread4~ step4;
#X msg 217 73 read -resize ../snds/transparent.aif step4;
#X connect 1 0 2 0;
#X connect 2 0 5 1;
#X connect 3 0 12 0;
#X connect 4 0 7 0;
#X connect 5 0 6 0;
#X connect 6 0 8 0;
#X connect 7 0 5 0;
#X connect 8 0 9 0;
#X connect 9 0 11 0;
#X connect 11 0 10 0;
#X connect 11 0 10 1;
#X connect 12 0 1 0;
#X restore 11 123 pd etape_4;
#N canvas 295 144 566 438 etape_5 0;
#N canvas 0 0 450 300 (subpatch) 0;
#X array step5 29881 float 2;
#X coords 0 1 29881 -1 300 100 1 0 0;
#X restore 218 162 graph;
#X obj 217 96 soundfiler;
#X floatatom 217 119 10 0 0 0 - - -;
#X obj 217 50 loadbang;
#X obj 90 33 tgl 15 0 empty empty empty 17 7 0 10 -262144 -1 -1 0 1
;
#X obj 90 138 random;
#X floatatom 90 161 10 0 0 0 - - -;
#X obj 90 53 metro 250;
#X msg 90 193 \$1 250;
#X obj 90 215 line~;
#X obj 69 395 dac~;
#X obj 89 279 tabread4~ step4;
#X obj 36 170 vsl 15 100 0 1 0 0 empty empty Gain 0 -9 0 10 -262144
-1 -1 2800 1;
#X floatatom 36 279 5 0 0 0 - - -;
#X msg 36 300 \$1 25;
#X obj 36 322 line~;
#X obj 72 354 *~;
#X msg 217 73 read -resize ../snds/transparent.aif step5;
#X connect 1 0 2 0;
#X connect 2 0 5 1;
#X connect 3 0 17 0;
#X connect 4 0 7 0;
#X connect 5 0 6 0;
#X connect 6 0 8 0;
#X connect 7 0 5 0;
#X connect 8 0 9 0;
#X connect 9 0 11 0;
#X connect 11 0 16 1;
#X connect 12 0 13 0;
#X connect 13 0 14 0;
#X connect 14 0 15 0;
#X connect 15 0 16 0;
#X connect 16 0 10 0;
#X connect 16 0 10 1;
#X connect 17 0 1 0;
#X restore 11 148 pd etape_5;
