#N canvas 41 393 450 300 12;
#X obj 92 167 sel 0 1;
#X floatatom 172 73 5 0 0 0 - - -;
#X obj 84 135 tgl 15 0 empty empty empty 17 7 0 10 -262144 -1 -1 1
1;
#X obj 68 100 bng 15 250 50 0 empty empty empty 17 7 0 10 -262144 -1
-1;
#X obj 197 225 outlet min;
#X obj 94 222 outlet maj;
#X obj 92 97 delay 30000;
#X obj 92 51 inlet bng;
#X obj 92 75 bng 15 250 50 0 empty empty empty 17 7 0 10 -262144 -1
-1;
#X connect 0 0 5 0;
#X connect 0 1 4 0;
#X connect 1 0 6 1;
#X connect 2 0 0 0;
#X connect 3 0 6 0;
#X connect 6 0 2 0;
#X connect 6 0 3 0;
#X connect 7 0 8 0;
#X connect 8 0 6 0;
