#N canvas 224 23 1216 855 12;
#X obj 197 395 noteout;
#X floatatom 273 102 5 0 0 0 - - -;
#X obj 197 318 funbuff;
#C restore;
#X floatatom 197 342 5 0 0 0 - - -;
#X obj 197 368 makenote 120 125;
#X obj 273 42 metro 250;
#X text 573 69 gamme maj.;
#X obj 273 13 tgl 15 0 empty empty empty 17 7 0 10 -262144 -1 -1 0
1;
#X text 572 121 gamme min.;
#X obj 489 34 30sDelay~;
#X obj 288 159 t f f;
#X floatatom 289 185 5 0 0 0 - - -;
#X obj 196 160 t f f;
#X obj 228 204 sel 0 4;
#X msg 228 231 127;
#X msg 274 230 60;
#X obj 273 74 counter 0 6;
#X text 486 16 changeur de gamme;
#X obj 420 356 tgl 15 0 empty empty empty 17 7 0 10 -262144 -1 -1 0
1;
#X obj 489 255 metro 500;
#X obj 489 303 t f f;
#X floatatom 489 330 5 0 0 0 - - -;
#X obj 570 313 sel 0 1;
#X obj 570 337 counter 0 4;
#X floatatom 570 361 5 0 0 0 - - -;
#X obj 489 279 counter 0 4;
#X text 576 273 ca jou 5 notes;
#X text 658 337 cycle de 4x;
#X obj 570 384 sel 4;
#X obj 570 408 print;
#X text 612 385 apres 4x on fait de quoi;
#X text 611 410 bang;
#X obj 423 460 random 6;
#X obj 486 460 random 6;
#X obj 549 460 random 6;
#X obj 612 460 random 6;
#X obj 695 565 list;
#X obj 527 417 bng 15 250 50 0 empty empty empty 17 7 0 10 -262144
-1 -1;
#X obj 681 460 random 6;
#X obj 695 524 pack f f f f f;
#X text 807 528 5 notes random;
#X obj 305 530 metro 500;
#X obj 305 604 counter 0 4;
#X floatatom 305 652 5 0 0 0 - - -;
#X obj 695 591 unpack f f f f f;
#X floatatom 665 645 5 0 0 0 - - -;
#X floatatom 710 648 5 0 0 0 - - -;
#X floatatom 752 650 5 0 0 0 - - -;
#X floatatom 798 648 5 0 0 0 - - -;
#X floatatom 849 649 5 0 0 0 - - -;
#X obj 522 678 list prepend;
#X obj 388 693 list prepend;
#X floatatom 392 728 5 0 0 0 - - -;
#X obj 465 730 print allo;
#X obj 305 629 t f b;
#X msg 573 92 0 60 \, 1 62 \, 2 64 \, 3 65 \, 4 67 \, 5 69 \, 6 71
;
#X msg 573 148 0 60 \, 1 62 \, 2 63 \, 3 65 \, 4 67 \, 5 68 \, 6 70
;
#X connect 1 0 12 0;
#X connect 2 0 3 0;
#X connect 3 0 4 0;
#X connect 4 0 0 0;
#X connect 4 1 0 1;
#X connect 5 0 16 0;
#X connect 7 0 5 0;
#X connect 9 0 55 0;
#X connect 9 1 56 0;
#X connect 10 0 11 0;
#X connect 10 0 12 0;
#X connect 12 0 2 0;
#X connect 12 1 13 0;
#X connect 13 0 14 0;
#X connect 13 1 14 0;
#X connect 13 2 15 0;
#X connect 14 0 4 1;
#X connect 15 0 4 1;
#X connect 16 0 1 0;
#X connect 18 0 19 0;
#X connect 18 0 41 0;
#X connect 19 0 25 0;
#X connect 20 0 21 0;
#X connect 20 1 22 0;
#X connect 22 0 23 0;
#X connect 23 0 24 0;
#X connect 24 0 28 0;
#X connect 25 0 20 0;
#X connect 28 0 29 0;
#X connect 28 0 37 0;
#X connect 32 0 39 0;
#X connect 32 0 50 0;
#X connect 32 0 51 1;
#X connect 33 0 39 1;
#X connect 33 0 50 0;
#X connect 33 0 51 1;
#X connect 34 0 39 2;
#X connect 34 0 50 0;
#X connect 34 0 51 1;
#X connect 35 0 39 3;
#X connect 35 0 50 0;
#X connect 35 0 51 1;
#X connect 36 0 44 0;
#X connect 37 0 32 0;
#X connect 37 0 33 0;
#X connect 37 0 34 0;
#X connect 37 0 35 0;
#X connect 37 0 38 0;
#X connect 38 0 39 4;
#X connect 38 0 50 0;
#X connect 38 0 51 1;
#X connect 39 0 36 0;
#X connect 41 0 42 0;
#X connect 42 0 54 0;
#X connect 44 0 45 0;
#X connect 44 1 46 0;
#X connect 44 2 47 0;
#X connect 44 3 48 0;
#X connect 44 4 49 0;
#X connect 50 0 53 0;
#X connect 51 0 52 0;
#X connect 54 0 43 0;
#X connect 54 1 50 1;
#X connect 55 0 2 0;
#X connect 56 0 2 0;
