#N canvas 311 164 798 683 12;
#X obj 53 626 noteout;
#X floatatom 52 399 5 0 0 0 - - -;
#X obj 53 549 funbuff;
#C restore;
#X floatatom 53 573 5 0 0 0 - - -;
#X obj 53 599 makenote 120 125;
#X text 573 69 gamme maj.;
#X text 572 121 gamme min.;
#X obj 425 36 30sDelay~;
#X obj 52 427 t f f;
#X obj 84 471 sel 0 4;
#X msg 84 498 127;
#X msg 130 497 60;
#X text 422 18 changeur de gamme;
#X obj 50 369 random 6;
#X obj 66 245 t b b;
#X obj 46 293 gate;
#X obj 104 288 random 100;
#X obj 114 335 < 100;
#X obj 61 175 tgl 15 0 empty empty empty 17 7 0 10 -262144 -1 -1 0
1;
#X obj 43 327 bng 15 250 50 0 empty empty empty 17 7 0 10 -262144 -1
-1;
#X obj 66 219 metro 150;
#X msg 573 149 0 60 \, 1 62 \, 2 63 \, 3 65 \, 4 67 \, 5 68 \, 6 70
;
#X msg 573 91 0 60 \, 1 62 \, 2 64 \, 3 65 \, 4 67 \, 5 69 \, 6 71
;
#X obj 203 437 list split;
#X obj 237 477 list split 1;
#X msg 232 35 list 60 62 64 65 67 69 71;
#X obj 194 378 t a a;
#X obj 317 413 random;
#X obj 317 389 t b a;
#X obj 317 365 list length;
#X text 326 622 https://grrrr.org/2010/11/04/list-permutation-pure_data/
;
#X obj 249 563 makenote 120 125;
#X obj 249 587 noteout;
#X floatatom 236 520 5 0 0 0 - - -;
#X msg 315 340 list 60 62 63 65 67 68 70;
#X obj 190 238 drunk 200 10;
#X obj 577 478 bng 15 250 50 0 empty empty empty 17 7 0 10 -262144
-1 -1;
#X msg 432 436 60 62 63 65 67 68 70;
#X floatatom 630 548 5 0 0 0 - - -;
#X obj 681 396 tgl 15 0 empty empty empty 17 7 0 10 -262144 -1 -1 0
1;
#X obj 681 438 random 7;
#X floatatom 681 462 5 0 0 0 - - -;
#X obj 577 524 zl slice;
#X obj 442 395 30sDelay~;
#X msg 419 486 70 72 73 75 77 78 79;
#X obj 681 414 metro 250;
#X obj 620 579 makenote 120 125;
#X floatatom 577 548 5 0 0 0 - - -;
#X obj 173 42 bng 15 250 50 0 empty empty empty 17 7 0 10 -262144 -1
-1;
#X obj 113 94 bng 15 250 50 0 empty empty empty 17 7 0 10 -262144 -1
-1;
#X obj 149 94 bng 15 250 50 0 empty empty empty 17 7 0 10 -262144 -1
-1;
#X obj 188 96 bng 15 250 50 0 empty empty empty 17 7 0 10 -262144 -1
-1;
#X obj 224 98 bng 15 250 50 0 empty empty empty 17 7 0 10 -262144 -1
-1;
#X floatatom 573 173 5 0 0 0 - - -;
#X obj 361 271 bng 15 250 50 0 empty empty empty 17 7 0 10 -262144
-1 -1;
#X obj 372 297 print;
#X obj 360 169 counter 4;
#X floatatom 303 167 5 0 0 0 - - -;
#X obj 360 193 t b b b b;
#X obj 357 145 bng 15 250 50 0 empty empty empty 17 7 0 10 -262144
-1 -1;
#X connect 1 0 8 0;
#X connect 2 0 3 0;
#X connect 3 0 4 0;
#X connect 4 0 0 0;
#X connect 4 1 0 1;
#X connect 7 0 22 0;
#X connect 7 1 21 0;
#X connect 8 0 2 0;
#X connect 8 1 9 0;
#X connect 9 0 10 0;
#X connect 9 1 10 0;
#X connect 9 2 11 0;
#X connect 10 0 4 1;
#X connect 11 0 4 1;
#X connect 13 0 1 0;
#X connect 14 0 15 1;
#X connect 14 1 16 0;
#X connect 15 0 19 0;
#X connect 16 0 17 0;
#X connect 17 0 15 0;
#X connect 18 0 20 0;
#X connect 19 0 13 0;
#X connect 20 0 14 0;
#X connect 21 0 53 0;
#X connect 23 1 24 0;
#X connect 24 0 33 0;
#X connect 26 0 23 0;
#X connect 26 1 29 0;
#X connect 27 0 23 1;
#X connect 28 0 27 0;
#X connect 28 1 27 1;
#X connect 29 0 28 0;
#X connect 31 0 32 0;
#X connect 31 1 32 1;
#X connect 33 0 31 0;
#X connect 34 0 26 0;
#X connect 35 0 16 1;
#X connect 36 0 42 0;
#X connect 37 0 42 0;
#X connect 38 0 46 0;
#X connect 39 0 45 0;
#X connect 40 0 41 0;
#X connect 40 0 36 0;
#X connect 40 0 42 1;
#X connect 42 0 47 0;
#X connect 42 1 38 0;
#X connect 43 0 44 0;
#X connect 43 1 37 0;
#X connect 44 0 42 0;
#X connect 45 0 40 0;
#X connect 48 0 49 0;
#X connect 48 0 50 0;
#X connect 48 0 51 0;
#X connect 48 0 52 0;
#X connect 54 0 55 0;
#X connect 56 0 58 0;
#X connect 56 0 57 0;
#X connect 58 0 54 0;
#X connect 58 1 54 0;
#X connect 58 2 54 0;
#X connect 58 3 54 0;
#X connect 59 0 56 0;
