#N canvas 1 67 1235 505 10;
#X obj 23 172 noise~;
#X obj 585 169 phasor~;
#X obj 864 171 train~;
#X obj 865 290 spectre~;
#X floatatom 864 27 5 0 0 0 - - -;
#X obj 864 69 /;
#X obj 864 46 swap 1;
#X floatatom 864 91 5 0 0 0 - - -;
#X obj 864 110 * 1000;
#X floatatom 864 132 5 0 0 0 - - -;
#X floatatom 883 152 5 0 0 0 - - -;
#X obj 359 74 dac~;
#X obj 908 226 *~;
#X obj 926 188 tgl 15 0 empty empty empty 17 7 0 10 -262144 -1 -1 0
1;
#X obj 926 206 * 0.1;
#X obj 908 246 throw~ signal;
#X obj 370 45 catch~ signal;
#X text 903 27 fréquence en Hz;
#X text 903 90 période en seconde;
#X text 903 130 période en milliseconde;
#X text 921 152 largeur de l'impulsion (0.01 ->0.99);
#X obj 584 290 spectre~;
#X obj 630 230 *~;
#X obj 648 192 tgl 15 0 empty empty empty 17 7 0 10 -262144 -1 -1 0
1;
#X obj 648 210 * 0.1;
#X obj 630 250 throw~ signal;
#X floatatom 585 150 5 0 0 0 - - -;
#X text 624 150 fréquence en Hz;
#X obj 22 290 spectre~;
#X obj 68 230 *~;
#X obj 86 192 tgl 15 0 empty empty empty 17 7 0 10 -262144 -1 -1 0
1;
#X obj 86 210 * 0.1;
#X obj 68 250 throw~ signal;
#X obj 303 290 spectre~;
#X obj 349 230 *~;
#X obj 367 192 tgl 15 0 empty empty empty 17 7 0 10 -262144 -1 -1 0
1;
#X obj 367 210 * 0.1;
#X obj 349 250 throw~ signal;
#X obj 304 172 pink~;
#X text 14 8 Signaux de synthèse à spectre riche.;
#X text 21 422 Bruit blanc;
#X text 303 423 Bruit rose;
#X text 584 424 Onde en dent de scie;
#X text 864 423 Train d'impulsions;
#X obj 585 15 loadbang;
#X msg 585 37 500;
#X msg 618 37 0.05;
#X text 384 190 go!;
#X text 665 190 go!;
#X text 943 186 go!;
#X text 103 190 go!;
#X connect 0 0 28 0;
#X connect 0 0 29 0;
#X connect 1 0 22 0;
#X connect 1 0 21 0;
#X connect 2 0 12 0;
#X connect 2 0 3 0;
#X connect 4 0 6 0;
#X connect 5 0 7 0;
#X connect 6 0 5 0;
#X connect 6 1 5 1;
#X connect 7 0 8 0;
#X connect 8 0 9 0;
#X connect 9 0 2 0;
#X connect 10 0 2 1;
#X connect 12 0 15 0;
#X connect 13 0 14 0;
#X connect 14 0 12 1;
#X connect 16 0 11 0;
#X connect 16 0 11 1;
#X connect 22 0 25 0;
#X connect 23 0 24 0;
#X connect 24 0 22 1;
#X connect 26 0 1 0;
#X connect 29 0 32 0;
#X connect 30 0 31 0;
#X connect 31 0 29 1;
#X connect 34 0 37 0;
#X connect 35 0 36 0;
#X connect 36 0 34 1;
#X connect 38 0 33 0;
#X connect 38 0 34 0;
#X connect 44 0 45 0;
#X connect 44 0 46 0;
#X connect 45 0 26 0;
#X connect 45 0 4 0;
#X connect 46 0 10 0;
