#N canvas 24 206 516 204 10;
#N canvas 1 67 610 306 FIR_lowpass 0;
#X obj 295 20 noise~;
#X obj 297 95 *~ 0.5;
#X obj 298 135 spectre~;
#X obj 315 49 delay~ 1 1;
#X obj 296 73 +~;
#X obj 18 135 spectre~;
#X connect 0 0 3 0;
#X connect 0 0 4 0;
#X connect 0 0 5 0;
#X connect 1 0 2 0;
#X connect 3 0 4 1;
#X connect 4 0 1 0;
#X restore 7 33 pd FIR_lowpass;
#N canvas 42 133 610 306 FIR_highpass 0;
#X obj 298 20 noise~;
#X obj 297 73 *~ 0.5;
#X obj 298 135 spectre~;
#X obj 353 49 delay~ 1 1;
#X obj 18 135 spectre~;
#X obj 353 73 *~ 0.5;
#X obj 297 98 -~;
#X connect 0 0 3 0;
#X connect 0 0 4 0;
#X connect 0 0 1 0;
#X connect 1 0 6 0;
#X connect 3 0 5 0;
#X connect 5 0 6 1;
#X connect 6 0 2 0;
#X restore 7 54 pd FIR_highpass;
#N canvas 306 164 610 306 FIR_bandpass 0;
#X obj 298 20 noise~;
#X obj 297 73 *~ 0.5;
#X obj 298 135 spectre~;
#X obj 18 135 spectre~;
#X obj 353 73 *~ 0.5;
#X obj 297 98 -~;
#X obj 353 49 delay~ 2 2;
#X connect 0 0 3 0;
#X connect 0 0 1 0;
#X connect 0 0 6 0;
#X connect 1 0 5 0;
#X connect 4 0 5 1;
#X connect 5 0 2 0;
#X connect 6 0 4 0;
#X restore 7 75 pd FIR_bandpass;
#N canvas 500 223 610 306 FIR_bandstop 0;
#X obj 295 20 noise~;
#X obj 297 95 *~ 0.5;
#X obj 298 135 spectre~;
#X obj 296 73 +~;
#X obj 18 135 spectre~;
#X obj 315 49 delay~ 2 2;
#X connect 0 0 3 0;
#X connect 0 0 4 0;
#X connect 0 0 5 0;
#X connect 1 0 2 0;
#X connect 3 0 1 0;
#X connect 5 0 3 1;
#X restore 7 96 pd FIR_bandstop;
#X text 6 5 Filtre FIR simples construits avec l'objet delay~;
