#N canvas 495 137 516 204 10;
#X text 6 5 Filtre FIR simples construits avec l'objet delay~;
#N canvas 344 136 635 422 IIR_lowpass 0;
#X obj 293 238 spectre~;
#X obj 13 238 spectre~;
#X obj 294 156 lop~ 1000;
#X floatatom 354 137 5 0 0 0 - - -;
#X obj 400 193 *~;
#X obj 418 155 tgl 15 0 empty empty empty 17 7 0 10 -262144 -1 -1 0
1;
#X obj 418 173 * 0.1;
#X obj 400 213 throw~ signal;
#X text 435 153 go!;
#X obj 397 77 *~;
#X obj 415 39 tgl 15 0 empty empty empty 17 7 0 10 -262144 -1 -1 0
1;
#X obj 415 57 * 0.1;
#X obj 397 97 throw~ signal;
#X text 432 37 go!;
#X obj 294 7 phasor~ 250;
#X connect 2 0 0 0;
#X connect 2 0 4 0;
#X connect 3 0 2 1;
#X connect 4 0 7 0;
#X connect 5 0 6 0;
#X connect 6 0 4 1;
#X connect 9 0 12 0;
#X connect 10 0 11 0;
#X connect 11 0 9 1;
#X connect 14 0 1 0;
#X connect 14 0 2 0;
#X connect 14 0 9 0;
#X restore 7 33 pd IIR_lowpass;
#X obj 275 141 dac~;
#X obj 285 115 catch~ signal;
#N canvas 38 123 671 483 IIR_highpass 0;
#X obj 295 309 spectre~;
#X obj 15 309 spectre~;
#X floatatom 354 136 5 0 0 0 - - -;
#X obj 390 223 *~;
#X obj 408 185 tgl 15 0 empty empty empty 17 7 0 10 -262144 -1 -1 0
1;
#X obj 408 203 * 0.1;
#X obj 390 243 throw~ signal;
#X text 425 183 go!;
#X obj 390 77 *~;
#X obj 408 39 tgl 15 0 empty empty empty 17 7 0 10 -262144 -1 -1 0
1;
#X obj 408 57 * 0.1;
#X obj 390 97 throw~ signal;
#X text 425 37 go!;
#X obj 295 11 noise~;
#X obj 294 156 hip~ 5000;
#X connect 2 0 14 1;
#X connect 3 0 6 0;
#X connect 4 0 5 0;
#X connect 5 0 3 1;
#X connect 8 0 11 0;
#X connect 9 0 10 0;
#X connect 10 0 8 1;
#X connect 13 0 1 0;
#X connect 13 0 14 0;
#X connect 13 0 8 0;
#X connect 14 0 0 0;
#X connect 14 0 3 0;
#X restore 7 54 pd IIR_highpass;
#N canvas 302 154 632 482 IIR_bandpass 0;
#X obj 295 314 spectre~;
#X obj 15 314 spectre~;
#X floatatom 331 124 5 0 0 0 - - -;
#X obj 394 232 *~;
#X obj 412 194 tgl 15 0 empty empty empty 17 7 0 10 -262144 -1 -1 0
1;
#X obj 412 212 * 0.1;
#X obj 394 252 throw~ signal;
#X text 429 192 go!;
#X obj 398 63 *~;
#X obj 416 25 tgl 15 0 empty empty empty 17 7 0 10 -262144 -1 -1 0
1;
#X obj 416 43 * 0.1;
#X obj 398 83 throw~ signal;
#X text 433 23 go!;
#X text 371 124 fréquence centrale;
#X floatatom 368 145 5 0 0 0 - - -;
#X text 408 144 Q;
#X obj 294 164 bp~ 2500 10;
#X obj 294 12 phasor~ 200;
#X connect 2 0 16 1;
#X connect 3 0 6 0;
#X connect 4 0 5 0;
#X connect 5 0 3 1;
#X connect 8 0 11 0;
#X connect 9 0 10 0;
#X connect 10 0 8 1;
#X connect 14 0 16 2;
#X connect 16 0 0 0;
#X connect 16 0 3 0;
#X connect 17 0 1 0;
#X connect 17 0 16 0;
#X connect 17 0 8 0;
#X restore 7 75 pd IIR_bandpass;
#N canvas 298 144 652 511 IIR_bandpass_audio_control 0;
#X obj 295 339 spectre~;
#X obj 15 339 spectre~;
#X floatatom 317 142 5 0 0 0 - - -;
#X obj 394 290 *~;
#X obj 412 252 tgl 15 0 empty empty empty 17 7 0 10 -262144 -1 -1 0
1;
#X obj 412 270 * 0.1;
#X obj 394 310 throw~ signal;
#X text 429 250 go!;
#X obj 398 88 *~;
#X obj 416 50 tgl 15 0 empty empty empty 17 7 0 10 -262144 -1 -1 0
1;
#X obj 416 68 * 0.1;
#X obj 398 108 throw~ signal;
#X text 433 48 go!;
#X text 357 142 fréquence centrale;
#X floatatom 340 212 5 0 0 0 - - -;
#X text 380 211 Q;
#X obj 294 37 phasor~ 200;
#X msg 317 161 \$1 25;
#X obj 317 183 line~;
#X obj 294 235 vcf~ 10;
#X obj 149 53 loadbang;
#X msg 149 75 1000;
#X text 5 2 L'objet vcf~ prend un signal audio contrôle de la fréquence
centrale \, permettant des transitions plus fluide.;
#X connect 2 0 17 0;
#X connect 3 0 6 0;
#X connect 4 0 5 0;
#X connect 5 0 3 1;
#X connect 8 0 11 0;
#X connect 9 0 10 0;
#X connect 10 0 8 1;
#X connect 14 0 19 2;
#X connect 16 0 1 0;
#X connect 16 0 8 0;
#X connect 16 0 19 0;
#X connect 17 0 18 0;
#X connect 18 0 19 1;
#X connect 19 0 0 0;
#X connect 19 0 3 0;
#X connect 20 0 21 0;
#X connect 21 0 2 0;
#X restore 7 96 pd IIR_bandpass_audio_control;
#X connect 3 0 2 0;
#X connect 3 0 2 1;
