#N canvas 1 67 1231 596 10;
#X obj 85 128 noise~;
#X obj 83 205 spectre~;
#X obj 159 56 hsl 128 15 20 15000 1 0 empty empty Frequency -2 -8 0
10 -262144 -1 -1 7505 1;
#X floatatom 156 76 8 0 0 0 - - -;
#X obj 255 88 hsl 128 15 1 100 1 0 empty empty Q -2 -8 0 10 -262144
-1 -1 6350 1;
#X floatatom 252 110 8 0 0 0 - - -;
#X msg 156 95 \$1 25;
#X obj 156 117 line~;
#X msg 252 128 \$1 25;
#X obj 252 150 line~;
#X obj 12 266 dac~;
#X obj 16 56 hsl 128 15 0 1 0 0 empty empty Gain -2 -8 0 10 -262144
-1 -1 0 1;
#X floatatom 13 76 8 0 0 0 - - -;
#X msg 13 95 \$1 25;
#X obj 13 117 line~;
#X obj 13 235 *~;
#X obj 84 168 reson~ 1 2500 10;
#X text 39 20 ------ Filtre passe-bande résonant ------;
#X obj 359 17 loadbang;
#X msg 359 39 1000;
#X msg 399 39 10;
#X obj 496 191 noise~;
#X obj 545 219 delay~ 440 10;
#X obj 545 241 *~ 0.5;
#X obj 495 241 *~ 0.5;
#X obj 495 270 +~;
#X obj 494 306 spectre~;
#X floatatom 633 199 5 0 0 0 - - -;
#X text 543 437 |;
#X text 495 451 premier pic = fs/D;
#X text 494 467 44100/10 = 4410 Hz;
#X obj 887 328 noise~;
#X obj 886 388 spectre~;
#X obj 815 449 dac~;
#X obj 819 239 hsl 128 15 0 1 0 0 empty empty Gain -2 -8 0 10 -262144
-1 -1 0 1;
#X floatatom 816 259 8 0 0 0 - - -;
#X msg 816 278 \$1 25;
#X obj 816 300 line~;
#X obj 816 418 *~;
#X obj 887 351 comb~ 100 0.23 0.1 0.1 0.9;
#X text 910 84 arguments de l'objet comb~;
#X text 931 104 1 : Délai maximum en ms;
#X text 931 119 2 : Délai initial en ms;
#X text 931 134 3 : Gain du signal d'entrée;
#X text 931 151 4 : Gain du signal d'entrée retardé;
#X text 931 167 5 : Gain du signal de sortie réinjecté;
#X obj 413 372 dac~;
#X obj 417 162 hsl 128 15 0 1 0 0 empty empty Gain -2 -8 0 10 -262144
-1 -1 0 1;
#X floatatom 414 182 8 0 0 0 - - -;
#X msg 414 201 \$1 25;
#X obj 414 223 line~;
#X obj 414 341 *~;
#X text 439 130 ------ Filtre en peigne FIR ------;
#X text 861 207 ------ Filtre en peigne IIR ------;
#X connect 0 0 16 0;
#X connect 2 0 3 0;
#X connect 3 0 6 0;
#X connect 4 0 5 0;
#X connect 5 0 8 0;
#X connect 6 0 7 0;
#X connect 7 0 16 2;
#X connect 8 0 9 0;
#X connect 9 0 16 3;
#X connect 11 0 12 0;
#X connect 12 0 13 0;
#X connect 13 0 14 0;
#X connect 14 0 15 0;
#X connect 15 0 10 0;
#X connect 15 0 10 1;
#X connect 16 0 1 0;
#X connect 16 0 15 1;
#X connect 18 0 19 0;
#X connect 18 0 20 0;
#X connect 19 0 2 0;
#X connect 20 0 4 0;
#X connect 21 0 22 0;
#X connect 21 0 24 0;
#X connect 22 0 23 0;
#X connect 23 0 25 1;
#X connect 24 0 25 0;
#X connect 25 0 26 0;
#X connect 25 0 51 1;
#X connect 27 0 22 1;
#X connect 31 0 39 0;
#X connect 34 0 35 0;
#X connect 35 0 36 0;
#X connect 36 0 37 0;
#X connect 37 0 38 0;
#X connect 38 0 33 0;
#X connect 38 0 33 1;
#X connect 39 0 32 0;
#X connect 39 0 38 1;
#X connect 47 0 48 0;
#X connect 48 0 49 0;
#X connect 49 0 50 0;
#X connect 50 0 51 0;
#X connect 51 0 46 0;
#X connect 51 0 46 1;
