#N canvas 1 67 1214 557 10;
#X obj 117 362 spectre~;
#X obj 31 476 dac~;
#X obj 35 266 hsl 128 15 0 1 0 0 empty empty Gain -2 -8 0 10 -262144
-1 -1 0 1;
#X floatatom 32 286 8 0 0 0 - - -;
#X msg 32 305 \$1 25;
#X obj 32 327 line~;
#X obj 32 445 *~;
#X obj 118 325 comb~ 100 0.23 0.1 0.1 0.9;
#X text 369 263 arguments de l'objet comb~;
#X text 370 280 1 : Délai maximum en ms;
#X text 370 295 2 : Délai initial en ms;
#X text 370 310 3 : Gain du signal d'entrée;
#X text 370 327 4 : Gain du signal d'entrée retardé;
#X text 370 343 5 : Gain du signal de sortie réinjecté;
#N canvas 308 80 586 391 lfo 0;
#X obj 204 79 inlet freq;
#X obj 312 80 inlet min;
#X obj 403 80 inlet max;
#X obj 204 107 osc~;
#X obj 204 144 *~ 0.5;
#X obj 204 166 +~ 0.5;
#X obj 312 162 -;
#X obj 312 107 t b f;
#X obj 205 204 *~;
#X obj 204 239 +~;
#X obj 203 268 outlet~;
#X text 86 109 onde sinusoidale;
#X text 294 186 max - min = ambitus total;
#X text 79 148 rammène le signal;
#X text 79 160 entre 0 et 1;
#X text 93 198 multiplié par;
#X text 93 211 l'ambitus total;
#X text 126 233 additionné;
#X text 126 244 au minimum;
#X connect 0 0 3 0;
#X connect 1 0 7 0;
#X connect 1 0 9 1;
#X connect 2 0 6 0;
#X connect 3 0 4 0;
#X connect 4 0 5 0;
#X connect 5 0 8 0;
#X connect 6 0 8 1;
#X connect 7 0 6 0;
#X connect 7 1 6 1;
#X connect 8 0 9 0;
#X connect 9 0 10 0;
#X restore 207 223 pd lfo;
#X floatatom 207 164 5 0 0 0 - - -;
#X floatatom 226 184 5 0 0 0 - - -;
#X floatatom 246 204 5 0 0 0 - - -;
#X text 245 164 fréquence;
#X text 266 184 minimum;
#X text 286 204 maximum;
#X obj 118 296 noise~;
#N canvas 80 75 387 287 lfo 0;
#X obj 53 28 inlet freq;
#X obj 161 29 inlet min;
#X obj 260 29 inlet max;
#X obj 53 60 osc~;
#X obj 53 97 *~ 0.5;
#X obj 53 119 +~ 0.5;
#X obj 161 115 -;
#X obj 161 60 t b f;
#X obj 54 157 *~;
#X obj 53 203 +~;
#X obj 53 225 outlet~;
#X connect 0 0 3 0;
#X connect 1 0 7 0;
#X connect 1 0 9 1;
#X connect 2 0 6 0;
#X connect 3 0 4 0;
#X connect 4 0 5 0;
#X connect 5 0 8 0;
#X connect 6 0 8 1;
#X connect 7 0 6 0;
#X connect 7 1 6 1;
#X connect 8 0 9 0;
#X connect 9 0 10 0;
#X restore 404 186 pd lfo;
#X floatatom 404 127 5 0 0 0 - - -;
#X floatatom 423 147 5 0 0 0 - - -;
#X floatatom 443 167 5 0 0 0 - - -;
#X text 442 127 fréquence;
#X text 463 147 minimum;
#X text 483 167 maximum;
#X text 182 140 LFO sur le temps de délai;
#X text 393 100 LFO sur le feedback;
#X obj 404 209 clip~ 0 0.9;
#X obj 83 90 loadbang;
#X msg 83 112 0.1 0.1 0.4;
#X obj 83 134 unpack f f f;
#X obj 275 54 loadbang;
#X obj 275 98 unpack f f f;
#X msg 275 76 0.25 0.1 0.9;
#X text 15 8 Exemples de contrôle \, en audio \, de la fréquence
et du Q d'un filtre.;
#X text 27 224 construction d'un LFO -->;
#X obj 829 362 spectre~;
#X obj 743 476 dac~;
#X obj 746 195 hsl 128 15 0 1 0 0 empty empty Gain -2 -8 0 10 -262144
-1 -1 800 1;
#X floatatom 743 215 8 0 0 0 - - -;
#X msg 743 234 \$1 25;
#X obj 743 256 line~;
#X obj 744 445 *~;
#X floatatom 966 178 5 0 0 0 - - -;
#X floatatom 991 198 5 0 0 0 - - -;
#X floatatom 1016 218 5 0 0 0 - - -;
#X text 1031 198 minimum;
#X text 1056 218 maximum;
#X obj 804 107 loadbang;
#X obj 830 325 moog~;
#X obj 830 241 phasor~ 100;
#N canvas 245 87 831 484 var_alea 0;
#X obj 299 104 inlet min;
#X obj 379 104 inlet max;
#X obj 297 278 -;
#X obj 299 238 t b f;
#X obj 125 394 outlet~;
#X text 327 283 max - min = ambitus total;
#X obj 219 52 inlet speed;
#X obj 125 52 inlet start;
#X obj 125 118 metro 500;
#X obj 125 200 random;
#X obj 299 139 * 100;
#X obj 379 238 * 100;
#X obj 297 302 int;
#X obj 125 244 +;
#X obj 125 275 * 0.01;
#X obj 125 322 clip 0 1;
#X obj 125 346 pack f 500;
#X obj 125 370 line~;
#X text -21 201 random sur l'ambitus;
#X text -29 244 additionné au minimum;
#X text -15 269 compensation pour;
#X text -15 281 le random en entier;
#X text 21 328 min et max;
#X text 20 315 toujours entre;
#X text 202 346 liste [destination \, durée];
#X text 216 22 La vitesse contrôle le metro;
#X text 216 35 ainsi que la durée de la ligne;
#X text 391 194 min et max * 100;
#X text 391 207 pour assurer un;
#X text 390 220 random en entier;
#X connect 0 0 10 0;
#X connect 0 0 15 1;
#X connect 1 0 11 0;
#X connect 1 0 15 2;
#X connect 2 0 12 0;
#X connect 3 0 2 0;
#X connect 3 1 2 1;
#X connect 6 0 8 1;
#X connect 6 0 16 1;
#X connect 7 0 8 0;
#X connect 8 0 9 0;
#X connect 9 0 13 0;
#X connect 10 0 3 0;
#X connect 10 0 13 1;
#X connect 11 0 2 0;
#X connect 12 0 9 1;
#X connect 13 0 14 0;
#X connect 14 0 15 0;
#X connect 15 0 16 0;
#X connect 16 0 17 0;
#X connect 17 0 4 0;
#X restore 942 240 pd var_alea;
#X text 1004 178 vitesse;
#X obj 942 155 tgl 15 0 empty empty empty 17 7 0 10 -262144 -1 -1 1
1;
#X text 960 154 start/stop;
#X floatatom 979 288 5 1 4 0 - - -;
#X obj 979 307 sig~;
#X obj 1078 250 loadbang;
#X msg 1078 271 3;
#X text 762 82 Variations aléatoires sur la fréquence centrale;
#X obj 804 151 unpack f f f f;
#X msg 803 129 500 200 3000 1;
#X text 1014 307 Q en audio!;
#X text 1024 241 <---;
#X connect 2 0 3 0;
#X connect 3 0 4 0;
#X connect 4 0 5 0;
#X connect 5 0 6 0;
#X connect 6 0 1 0;
#X connect 6 0 1 1;
#X connect 7 0 0 0;
#X connect 7 0 6 1;
#X connect 14 0 7 1;
#X connect 15 0 14 0;
#X connect 16 0 14 1;
#X connect 17 0 14 2;
#X connect 21 0 7 0;
#X connect 22 0 31 0;
#X connect 23 0 22 0;
#X connect 24 0 22 1;
#X connect 25 0 22 2;
#X connect 31 0 7 4;
#X connect 32 0 33 0;
#X connect 33 0 34 0;
#X connect 34 0 15 0;
#X connect 34 1 16 0;
#X connect 34 2 17 0;
#X connect 35 0 37 0;
#X connect 36 0 23 0;
#X connect 36 1 24 0;
#X connect 36 2 25 0;
#X connect 37 0 36 0;
#X connect 42 0 43 0;
#X connect 43 0 44 0;
#X connect 44 0 45 0;
#X connect 45 0 46 0;
#X connect 46 0 41 0;
#X connect 46 0 41 1;
#X connect 47 0 55 1;
#X connect 48 0 55 2;
#X connect 49 0 55 3;
#X connect 52 0 65 0;
#X connect 53 0 40 0;
#X connect 53 0 46 1;
#X connect 54 0 53 0;
#X connect 55 0 53 1;
#X connect 57 0 55 0;
#X connect 59 0 60 0;
#X connect 60 0 53 2;
#X connect 61 0 62 0;
#X connect 62 0 59 0;
#X connect 64 0 47 0;
#X connect 64 1 48 0;
#X connect 64 2 49 0;
#X connect 64 3 57 0;
#X connect 65 0 64 0;
