#N canvas 47 72 1011 386 10;
#X obj 470 68 noise~;
#X obj 242 179 spectre~;
#X floatatom 539 50 8 0 0 0 - - -;
#X obj 539 69 sig~;
#X text 537 33 fréquence de coupure en Hz;
#X obj 683 180 spectre~;
#N canvas 1 67 702 269 lp2 0;
#X obj 552 -3885 loadbang;
#X obj 552 -3863 samplerate~;
#X obj 289 -3800 clip~ 1 20000;
#X obj 377 -3822 / 2;
#X obj 289 -3748 expr~ 2 - cos(2 * 3.14159 * $v1 / $f2);
#X obj 289 -3718 expr~ $v1 - sqrt($v1 * $v1 - 1.0);
#X text 331 -3764 calcul des coefficients;
#X obj 34 -3693 fexpr~ $x1 * (1 - $x2) + $y[-1] * $x2;
#X obj 34 -3671 outlet~;
#X obj 35 -3807 inlet~ signal;
#X obj 290 -3865 inlet~ cutoff;
#X connect 0 0 1 0;
#X connect 1 0 3 0;
#X connect 1 0 4 1;
#X connect 2 0 4 0;
#X connect 3 0 2 2;
#X connect 4 0 5 0;
#X connect 5 0 7 1;
#X connect 7 0 8 0;
#X connect 9 0 7 0;
#X connect 10 0 2 0;
#X restore 684 145 pd lp2;
#N canvas 350 71 716 567 lp1 0;
#X obj 399 529 block~ 1;
#X obj 91 467 delwrite~ memory 10;
#X obj 439 44 loadbang;
#X obj 439 66 samplerate~;
#X obj 439 132 expr 1000 / $f1;
#X floatatom 439 154 10 0 0 0 - - -;
#X obj 63 341 *~;
#X obj 81 387 *~;
#X obj 62 425 +~;
#X obj 62 526 outlet~;
#X obj 142 76 inlet~ cutoff;
#X obj 63 47 inlet~ signal;
#X obj 143 125 clip~ 1 20000;
#X obj 231 103 / 2;
#X obj 143 177 expr~ 2 - cos(2 * 3.14159 * $v1 / $f2);
#X text 129 177 b;
#X text 123 207 c2;
#X obj 143 207 expr~ $v1 - sqrt($v1 * $v1 - 1.0);
#X text 151 239 c1;
#X obj 170 237 expr~ 1 - $v1;
#X text 306 507 Block size de 1 pour permettre une délai récursif
de 1 échantillon.;
#X text 514 154 1 échantillon en ms;
#X text 185 161 calcul des coefficients;
#X text 104 451 écrit l'échantillon de sortie dans la ligne de délai
;
#X text 448 246 lecture de la ligne de délai;
#X text 449 261 temps de délai = 1 échantillon;
#X text 5 4 Filtre passe-bas IIR de premier ordre.;
#X obj 439 227 delread~ memory;
#X connect 2 0 3 0;
#X connect 3 0 4 0;
#X connect 3 0 13 0;
#X connect 3 0 14 1;
#X connect 4 0 5 0;
#X connect 5 0 27 0;
#X connect 6 0 8 0;
#X connect 7 0 8 1;
#X connect 8 0 1 0;
#X connect 8 0 9 0;
#X connect 10 0 12 0;
#X connect 11 0 6 0;
#X connect 12 0 14 0;
#X connect 13 0 12 2;
#X connect 14 0 17 0;
#X connect 17 0 19 0;
#X connect 17 0 7 1;
#X connect 19 0 6 1;
#X connect 27 0 7 0;
#X restore 241 145 pd lp1;
#X obj 144 283 dac~;
#X obj 101 146 hsl 128 15 0 1 0 0 empty empty Gain -2 -8 0 10 -262144
-1 -1 0 1;
#X floatatom 98 166 8 0 0 0 - - -;
#X msg 98 185 \$1 25;
#X obj 98 207 line~;
#X obj 145 252 *~;
#X obj 583 284 dac~;
#X obj 543 146 hsl 128 15 0 1 0 0 empty empty Gain -2 -8 0 10 -262144
-1 -1 0 1;
#X floatatom 540 166 8 0 0 0 - - -;
#X msg 540 185 \$1 25;
#X obj 540 207 line~;
#X obj 584 253 *~;
#X obj 509 -10 loadbang;
#X msg 509 12 1000;
#X text 11 -5 2 méthodes pour construire \, "à la main" \, un filtre
passe-bas récursif de premier ordre. La fréquence de coupure est
contrôlée avec un signal audio pour permettre des changements rapides.
;
#X text 294 146 delread~ / delwrite~;
#X text 736 145 fexpr~;
#X connect 0 0 7 0;
#X connect 0 0 6 0;
#X connect 2 0 3 0;
#X connect 3 0 7 1;
#X connect 3 0 6 1;
#X connect 6 0 5 0;
#X connect 6 0 19 1;
#X connect 7 0 1 0;
#X connect 7 0 13 1;
#X connect 9 0 10 0;
#X connect 10 0 11 0;
#X connect 11 0 12 0;
#X connect 12 0 13 0;
#X connect 13 0 8 0;
#X connect 13 0 8 1;
#X connect 15 0 16 0;
#X connect 16 0 17 0;
#X connect 17 0 18 0;
#X connect 18 0 19 0;
#X connect 19 0 14 0;
#X connect 19 0 14 1;
#X connect 20 0 21 0;
#X connect 21 0 2 0;
