#N canvas 383 132 888 525 10;
#X obj 98 340 dac~;
#X obj 66 126 vsl 15 128 0 0.5 0 0 empty empty gain 0 -9 0 10 -262144
-1 -1 0 1;
#X msg 66 262 \$1 20;
#X obj 66 284 line~;
#X obj 99 313 *~;
#N canvas 308 80 586 391 lfo 0;
#X obj 204 79 inlet freq;
#X obj 312 80 inlet min;
#X obj 403 80 inlet max;
#X obj 204 107 osc~;
#X obj 204 144 *~ 0.5;
#X obj 204 166 +~ 0.5;
#X obj 312 162 -;
#X obj 312 107 t b f;
#X obj 205 204 *~;
#X obj 204 239 +~;
#X obj 203 268 outlet~;
#X text 86 109 onde sinusoidale;
#X text 294 186 max - min = ambitus total;
#X text 79 148 rammène le signal;
#X text 79 160 entre 0 et 1;
#X text 93 198 multiplié par;
#X text 93 211 l'ambitus total;
#X text 126 233 additionné;
#X text 126 244 au minimum;
#X connect 0 0 3 0;
#X connect 1 0 7 0;
#X connect 1 0 9 1;
#X connect 2 0 6 0;
#X connect 3 0 4 0;
#X connect 4 0 5 0;
#X connect 5 0 8 0;
#X connect 6 0 8 1;
#X connect 7 0 6 0;
#X connect 7 1 6 1;
#X connect 8 0 9 0;
#X connect 9 0 10 0;
#X restore 229 258 pd lfo;
#X floatatom 229 199 5 0 0 0 - - -;
#X floatatom 248 219 5 0 0 0 - - -;
#X floatatom 268 239 5 0 0 0 - - -;
#X text 267 199 fréquence;
#X text 288 219 minimum;
#X text 308 239 maximum;
#X obj 262 92 loadbang;
#X obj 262 160 unpack f f f;
#X msg 262 114 0.1 1 10;
#N canvas 0 0 450 300 (subpatch) 0;
#X array snd 241073 float 2;
#X coords 0 1 241073 -1 200 140 1;
#X restore 613 4 graph;
#X obj 532 -34 soundfiler;
#X obj 532 -80 loadbang;
#X floatatom 532 -12 8 0 0 0 - - -;
#X obj 532 7 s size;
#X obj 116 35 r size;
#X obj 116 79 samplerate~;
#X obj 116 100 /;
#X floatatom 116 122 8 0 0 0 - - -;
#X obj 116 142 phasor~;
#X obj 117 186 *~;
#X obj 181 147 r size;
#X obj 181 169 - 3;
#X obj 117 208 +~ 1;
#X obj 117 230 tabread4~ snd;
#X obj 116 57 t b f;
#X text 11 -95 Flanger: LFO lent sur le temps de délai.;
#X text 329 115 Flanger;
#X text 457 116 Chorus;
#X obj 117 285 comb~ 20 5 0.3 0.3 0.4;
#X msg 532 -57 read -resize ../snds/flute.aif snd;
#X text 73 -80 Variations larges sur un temps de délai moyen de 5
ms.;
#X text 66 -42 Ambitus plus mince sur un temps de délai moyen de 12
ms.;
#X msg 399 115 1 10 14;
#X text 10 -56 Chorus: LFO un peu plus rapide sur le temps de délai.
;
#X connect 1 0 2 0;
#X connect 2 0 3 0;
#X connect 3 0 4 0;
#X connect 4 0 0 0;
#X connect 4 0 0 1;
#X connect 5 0 34 1;
#X connect 6 0 5 0;
#X connect 7 0 5 1;
#X connect 8 0 5 2;
#X connect 12 0 14 0;
#X connect 13 0 6 0;
#X connect 13 1 7 0;
#X connect 13 2 8 0;
#X connect 14 0 13 0;
#X connect 16 0 18 0;
#X connect 17 0 35 0;
#X connect 18 0 19 0;
#X connect 20 0 30 0;
#X connect 21 0 22 0;
#X connect 22 0 23 0;
#X connect 23 0 24 0;
#X connect 24 0 25 0;
#X connect 25 0 28 0;
#X connect 26 0 27 0;
#X connect 27 0 25 1;
#X connect 28 0 29 0;
#X connect 29 0 34 0;
#X connect 30 0 21 0;
#X connect 30 1 22 1;
#X connect 34 0 4 1;
#X connect 35 0 16 0;
#X connect 38 0 13 0;
