#N canvas 1 67 354 318 10;
#N canvas 313 142 321 297 voix 0;
#X floatatom 134 101 5 0 0 0 - - -;
#X obj 10 142 counter 1 4;
#X obj 10 164 sel 1;
#X obj -25 214 int;
#X obj 10 105 metro 100;
#X floatatom -25 235 5 0 0 0 - - -;
#X obj -7 8 inlet pitch/velocity;
#N canvas 1 67 450 300 aiguillage 0;
#X obj 64 62 moses 35;
#X obj 117 83 moses 50;
#X msg 276 172 2;
#X obj 170 104 moses 62;
#X obj 223 125 moses 75;
#X obj 276 146 moses 90;
#X msg 329 179 1;
#X msg 223 153 3;
#X msg 170 132 4;
#X msg 117 113 6;
#X msg 64 95 8;
#X obj 64 36 inlet velocity;
#X obj 64 236 outlet;
#X connect 0 0 10 0;
#X connect 0 1 1 0;
#X connect 1 0 9 0;
#X connect 1 1 3 0;
#X connect 2 0 12 0;
#X connect 3 0 8 0;
#X connect 3 1 4 0;
#X connect 4 0 7 0;
#X connect 4 1 5 0;
#X connect 5 0 2 0;
#X connect 5 1 6 0;
#X connect 6 0 12 0;
#X connect 7 0 12 0;
#X connect 8 0 12 0;
#X connect 9 0 12 0;
#X connect 10 0 12 0;
#X connect 11 0 0 0;
#X restore 134 78 pd aiguillage;
#X obj -7 32 unpack;
#X msg 96 98 1;
#X obj 77 33 loadbang;
#X obj -25 253 outlet;
#X obj -45 189 gate;
#X connect 0 0 1 4;
#X connect 1 0 2 0;
#X connect 2 0 12 1;
#X connect 3 0 5 0;
#X connect 4 0 1 0;
#X connect 5 0 11 0;
#X connect 6 0 8 0;
#X connect 7 0 0 0;
#X connect 8 0 3 1;
#X connect 8 0 9 0;
#X connect 8 1 12 0;
#X connect 8 1 7 0;
#X connect 9 0 1 2;
#X connect 10 0 4 0;
#X connect 12 0 3 0;
#X restore 29 191 pd voix;
#X obj 139 243 makenote 90 100;
#X obj 139 272 noteout;
#X obj 99 81 notein;
#X obj 99 104 poly 5;
#X obj 99 127 pack f f f;
#X obj 99 150 route 1 2 3 4 5;
#X text 5 5 Répétitions de notes à vitesses variables.;
#N canvas 315 147 329 306 voix 0;
#X floatatom 127 101 5 0 0 0 - - -;
#X obj 3 142 counter 1 4;
#X obj 3 164 sel 1;
#X obj -32 214 int;
#X obj 3 105 metro 100;
#X floatatom -32 235 5 0 0 0 - - -;
#X obj -14 8 inlet pitch/velocity;
#N canvas 1 67 450 300 aiguillage 0;
#X obj 64 62 moses 35;
#X obj 117 83 moses 50;
#X msg 276 172 2;
#X obj 170 104 moses 62;
#X obj 223 125 moses 75;
#X obj 276 146 moses 90;
#X msg 329 179 1;
#X msg 223 153 3;
#X msg 170 132 4;
#X msg 117 113 6;
#X msg 64 95 8;
#X obj 64 36 inlet velocity;
#X obj 64 236 outlet;
#X connect 0 0 10 0;
#X connect 0 1 1 0;
#X connect 1 0 9 0;
#X connect 1 1 3 0;
#X connect 2 0 12 0;
#X connect 3 0 8 0;
#X connect 3 1 4 0;
#X connect 4 0 7 0;
#X connect 4 1 5 0;
#X connect 5 0 2 0;
#X connect 5 1 6 0;
#X connect 6 0 12 0;
#X connect 7 0 12 0;
#X connect 8 0 12 0;
#X connect 9 0 12 0;
#X connect 10 0 12 0;
#X connect 11 0 0 0;
#X restore 127 78 pd aiguillage;
#X obj -14 32 unpack;
#X msg 89 98 1;
#X obj 70 33 loadbang;
#X obj -32 253 outlet;
#X obj -52 189 gate;
#X connect 0 0 1 4;
#X connect 1 0 2 0;
#X connect 2 0 12 1;
#X connect 3 0 5 0;
#X connect 4 0 1 0;
#X connect 5 0 11 0;
#X connect 6 0 8 0;
#X connect 7 0 0 0;
#X connect 8 0 3 1;
#X connect 8 0 9 0;
#X connect 8 1 12 0;
#X connect 8 1 7 0;
#X connect 9 0 1 2;
#X connect 10 0 4 0;
#X connect 12 0 3 0;
#X restore 84 191 pd voix;
#N canvas 315 147 295 280 voix 0;
#X floatatom 127 101 5 0 0 0 - - -;
#X obj 3 142 counter 1 4;
#X obj 3 164 sel 1;
#X obj -32 214 int;
#X obj 3 105 metro 100;
#X floatatom -32 235 5 0 0 0 - - -;
#X obj -14 8 inlet pitch/velocity;
#N canvas 1 67 450 300 aiguillage 0;
#X obj 64 62 moses 35;
#X obj 117 83 moses 50;
#X msg 276 172 2;
#X obj 170 104 moses 62;
#X obj 223 125 moses 75;
#X obj 276 146 moses 90;
#X msg 329 179 1;
#X msg 223 153 3;
#X msg 170 132 4;
#X msg 117 113 6;
#X msg 64 95 8;
#X obj 64 36 inlet velocity;
#X obj 64 236 outlet;
#X connect 0 0 10 0;
#X connect 0 1 1 0;
#X connect 1 0 9 0;
#X connect 1 1 3 0;
#X connect 2 0 12 0;
#X connect 3 0 8 0;
#X connect 3 1 4 0;
#X connect 4 0 7 0;
#X connect 4 1 5 0;
#X connect 5 0 2 0;
#X connect 5 1 6 0;
#X connect 6 0 12 0;
#X connect 7 0 12 0;
#X connect 8 0 12 0;
#X connect 9 0 12 0;
#X connect 10 0 12 0;
#X connect 11 0 0 0;
#X restore 127 78 pd aiguillage;
#X obj -14 32 unpack;
#X msg 89 98 1;
#X obj 70 33 loadbang;
#X obj -32 253 outlet;
#X obj -52 189 gate;
#X connect 0 0 1 4;
#X connect 1 0 2 0;
#X connect 2 0 12 1;
#X connect 3 0 5 0;
#X connect 4 0 1 0;
#X connect 5 0 11 0;
#X connect 6 0 8 0;
#X connect 7 0 0 0;
#X connect 8 0 3 1;
#X connect 8 0 9 0;
#X connect 8 1 12 0;
#X connect 8 1 7 0;
#X connect 9 0 1 2;
#X connect 10 0 4 0;
#X connect 12 0 3 0;
#X restore 139 191 pd voix;
#N canvas 315 147 319 306 voix 0;
#X floatatom 127 101 5 0 0 0 - - -;
#X obj 3 142 counter 1 4;
#X obj 3 164 sel 1;
#X obj -32 214 int;
#X obj 3 105 metro 100;
#X floatatom -32 235 5 0 0 0 - - -;
#X obj -14 8 inlet pitch/velocity;
#N canvas 1 67 450 300 aiguillage 0;
#X obj 64 62 moses 35;
#X obj 117 83 moses 50;
#X msg 276 172 2;
#X obj 170 104 moses 62;
#X obj 223 125 moses 75;
#X obj 276 146 moses 90;
#X msg 329 179 1;
#X msg 223 153 3;
#X msg 170 132 4;
#X msg 117 113 6;
#X msg 64 95 8;
#X obj 64 36 inlet velocity;
#X obj 64 236 outlet;
#X connect 0 0 10 0;
#X connect 0 1 1 0;
#X connect 1 0 9 0;
#X connect 1 1 3 0;
#X connect 2 0 12 0;
#X connect 3 0 8 0;
#X connect 3 1 4 0;
#X connect 4 0 7 0;
#X connect 4 1 5 0;
#X connect 5 0 2 0;
#X connect 5 1 6 0;
#X connect 6 0 12 0;
#X connect 7 0 12 0;
#X connect 8 0 12 0;
#X connect 9 0 12 0;
#X connect 10 0 12 0;
#X connect 11 0 0 0;
#X restore 127 78 pd aiguillage;
#X obj -14 32 unpack;
#X msg 89 98 1;
#X obj 70 33 loadbang;
#X obj -32 253 outlet;
#X obj -52 189 gate;
#X connect 0 0 1 4;
#X connect 1 0 2 0;
#X connect 2 0 12 1;
#X connect 3 0 5 0;
#X connect 4 0 1 0;
#X connect 5 0 11 0;
#X connect 6 0 8 0;
#X connect 7 0 0 0;
#X connect 8 0 3 1;
#X connect 8 0 9 0;
#X connect 8 1 12 0;
#X connect 8 1 7 0;
#X connect 9 0 1 2;
#X connect 10 0 4 0;
#X connect 12 0 3 0;
#X restore 194 191 pd voix;
#N canvas 315 147 310 289 voix 0;
#X floatatom 127 101 5 0 0 0 - - -;
#X obj 3 142 counter 1 4;
#X obj 3 164 sel 1;
#X obj -32 214 int;
#X obj 3 105 metro 100;
#X floatatom -32 235 5 0 0 0 - - -;
#X obj -14 8 inlet pitch/velocity;
#N canvas 1 67 450 300 aiguillage 0;
#X obj 64 62 moses 35;
#X obj 117 83 moses 50;
#X msg 276 172 2;
#X obj 170 104 moses 62;
#X obj 223 125 moses 75;
#X obj 276 146 moses 90;
#X msg 329 179 1;
#X msg 223 153 3;
#X msg 170 132 4;
#X msg 117 113 6;
#X msg 64 95 8;
#X obj 64 36 inlet velocity;
#X obj 64 236 outlet;
#X connect 0 0 10 0;
#X connect 0 1 1 0;
#X connect 1 0 9 0;
#X connect 1 1 3 0;
#X connect 2 0 12 0;
#X connect 3 0 8 0;
#X connect 3 1 4 0;
#X connect 4 0 7 0;
#X connect 4 1 5 0;
#X connect 5 0 2 0;
#X connect 5 1 6 0;
#X connect 6 0 12 0;
#X connect 7 0 12 0;
#X connect 8 0 12 0;
#X connect 9 0 12 0;
#X connect 10 0 12 0;
#X connect 11 0 0 0;
#X restore 127 78 pd aiguillage;
#X obj -14 32 unpack;
#X msg 89 98 1;
#X obj 70 33 loadbang;
#X obj -32 253 outlet;
#X obj -52 189 gate;
#X connect 0 0 1 4;
#X connect 1 0 2 0;
#X connect 2 0 12 1;
#X connect 3 0 5 0;
#X connect 4 0 1 0;
#X connect 5 0 11 0;
#X connect 6 0 8 0;
#X connect 7 0 0 0;
#X connect 8 0 3 1;
#X connect 8 0 9 0;
#X connect 8 1 12 0;
#X connect 8 1 7 0;
#X connect 9 0 1 2;
#X connect 10 0 4 0;
#X connect 12 0 3 0;
#X restore 249 191 pd voix;
#X connect 0 0 1 0;
#X connect 1 0 2 0;
#X connect 1 1 2 1;
#X connect 3 0 4 0;
#X connect 3 1 4 1;
#X connect 4 0 5 0;
#X connect 4 1 5 1;
#X connect 4 2 5 2;
#X connect 5 0 6 0;
#X connect 6 0 0 0;
#X connect 6 1 8 0;
#X connect 6 2 9 0;
#X connect 6 3 10 0;
#X connect 6 4 11 0;
#X connect 8 0 1 0;
#X connect 9 0 1 0;
#X connect 10 0 1 0;
#X connect 11 0 1 0;
