#N canvas 49 67 667 394 10;
#N canvas 370 149 532 502 voix 0;
#X floatatom 309 107 5 0 0 0 - - -;
#X obj 196 132 counter 1 4;
#X obj 196 154 sel 1;
#X obj 161 306 int;
#X obj 196 104 metro 100;
#X floatatom 161 328 5 0 0 0 - - -;
#X obj 179 25 inlet pitch/velocity;
#N canvas 1 67 450 300 aiguillage 0;
#X obj 64 62 moses 35;
#X obj 117 83 moses 50;
#X msg 276 172 2;
#X obj 170 104 moses 62;
#X obj 223 125 moses 75;
#X obj 276 146 moses 90;
#X msg 329 179 1;
#X msg 223 153 3;
#X msg 170 132 4;
#X msg 117 113 6;
#X msg 64 95 8;
#X obj 64 36 inlet velocity;
#X obj 64 236 outlet;
#X connect 0 0 10 0;
#X connect 0 1 1 0;
#X connect 1 0 9 0;
#X connect 1 1 3 0;
#X connect 2 0 12 0;
#X connect 3 0 8 0;
#X connect 3 1 4 0;
#X connect 4 0 7 0;
#X connect 4 1 5 0;
#X connect 5 0 2 0;
#X connect 5 1 6 0;
#X connect 6 0 12 0;
#X connect 7 0 12 0;
#X connect 8 0 12 0;
#X connect 9 0 12 0;
#X connect 10 0 12 0;
#X connect 11 0 0 0;
#X restore 309 84 pd aiguillage;
#X obj 179 49 unpack;
#X msg 274 104 1;
#X obj 264 49 loadbang;
#X obj 64 182 gate;
#X obj 179 375 drunk 24 5;
#X obj 179 355 bng 15 250 50 0 empty empty empty 17 7 0 10 -262144
-1 -1;
#X obj 179 398 - 12;
#X obj 161 421 +;
#X obj 161 443 outlet;
#X obj 212 284 receive transpo_range;
#X obj 246 324 / 4;
#X obj 204 324 / 2;
#X obj 246 346 clip 2 12;
#X obj 39 277 gate;
#X obj 64 204 t b b;
#X obj 96 226 random 100;
#X obj 96 248 < 100;
#X obj 128 199 receive percent_chance;
#X text 8 303 laisse passer un;
#X text 104 328;
#X text 8 317 certain pourcentage;
#X text 8 331 des notes.;
#X text 258 372 Applique une transpo aléatoire \,;
#X text 282 439;
#X text 258 403 mémorisée.;
#X text 257 388 d'un ambitus variable \, à la note;
#X connect 0 0 1 4;
#X connect 1 0 2 0;
#X connect 2 0 11 1;
#X connect 3 0 5 0;
#X connect 4 0 1 0;
#X connect 5 0 13 0;
#X connect 5 0 15 0;
#X connect 6 0 8 0;
#X connect 7 0 0 0;
#X connect 8 0 9 0;
#X connect 8 0 3 1;
#X connect 8 1 11 0;
#X connect 8 1 7 0;
#X connect 9 0 1 2;
#X connect 10 0 4 0;
#X connect 11 0 22 0;
#X connect 12 0 14 0;
#X connect 13 0 12 0;
#X connect 14 0 15 1;
#X connect 15 0 16 0;
#X connect 17 0 12 1;
#X connect 17 0 18 0;
#X connect 17 0 19 0;
#X connect 18 0 20 0;
#X connect 19 0 14 1;
#X connect 20 0 12 2;
#X connect 21 0 3 0;
#X connect 22 0 21 1;
#X connect 22 1 23 0;
#X connect 23 0 24 0;
#X connect 24 0 21 0;
#X connect 25 0 24 1;
#X restore 33 174 pd voix;
#X obj 143 300 makenote 90 100;
#X obj 143 329 noteout;
#X obj 103 70 notein;
#X obj 103 93 poly 5;
#X obj 103 116 pack f f f;
#X obj 103 139 route 1 2 3 4 5;
#X obj 194 258 ctlin 7;
#X floatatom 194 278 5 0 0 0 - - -;
#X obj 253 218 ctlin 1;
#X obj 253 238 * 10;
#X obj 253 258 + 50;
#X floatatom 253 278 5 0 0 0 - - -;
#X obj 320 61 ctlin 74;
#X obj 320 105 int;
#X obj 320 83 * 0.19;
#X floatatom 320 127 5 0 0 0 - - -;
#X obj 320 146 send transpo_range;
#X obj 463 105 int;
#X floatatom 463 127 5 0 0 0 - - -;
#X obj 463 61 ctlin 71;
#X obj 463 83 * 0.79;
#X obj 463 146 send percent_chance;
#X text 5 5 Le pianiste fou!;
#N canvas 622 67 535 548 voix 0;
#X floatatom 366 109 5 0 0 0 - - -;
#X obj 219 150 counter 1 4;
#X obj 219 172 sel 1;
#X obj 184 335 int;
#X obj 219 117 metro 100;
#X floatatom 184 357 5 0 0 0 - - -;
#X obj 202 18 inlet pitch/velocity;
#N canvas 1 67 450 300 aiguillage 0;
#X obj 64 62 moses 35;
#X obj 117 83 moses 50;
#X msg 276 172 2;
#X obj 170 104 moses 62;
#X obj 223 125 moses 75;
#X obj 276 146 moses 90;
#X msg 329 179 1;
#X msg 223 153 3;
#X msg 170 132 4;
#X msg 117 113 6;
#X msg 64 95 8;
#X obj 64 36 inlet velocity;
#X obj 64 236 outlet;
#X connect 0 0 10 0;
#X connect 0 1 1 0;
#X connect 1 0 9 0;
#X connect 1 1 3 0;
#X connect 2 0 12 0;
#X connect 3 0 8 0;
#X connect 3 1 4 0;
#X connect 4 0 7 0;
#X connect 4 1 5 0;
#X connect 5 0 2 0;
#X connect 5 1 6 0;
#X connect 6 0 12 0;
#X connect 7 0 12 0;
#X connect 8 0 12 0;
#X connect 9 0 12 0;
#X connect 10 0 12 0;
#X connect 11 0 0 0;
#X restore 366 86 pd aiguillage;
#X obj 202 42 unpack;
#X msg 319 106 1;
#X obj 287 42 loadbang;
#X obj 87 202 gate;
#X obj 202 404 drunk 24 5;
#X obj 202 384 bng 15 250 50 0 empty empty empty 17 7 0 10 -262144
-1 -1;
#X obj 202 427 - 12;
#X obj 184 450 +;
#X obj 184 472 outlet;
#X obj 235 304 receive transpo_range;
#X obj 269 336 / 4;
#X obj 227 353 / 2;
#X obj 269 358 clip 2 12;
#X obj 62 297 gate;
#X obj 87 224 t b b;
#X obj 119 246 random 100;
#X obj 119 268 < 100;
#X obj 151 219 receive percent_chance;
#X connect 0 0 1 4;
#X connect 1 0 2 0;
#X connect 2 0 11 1;
#X connect 3 0 5 0;
#X connect 4 0 1 0;
#X connect 5 0 13 0;
#X connect 5 0 15 0;
#X connect 6 0 8 0;
#X connect 7 0 0 0;
#X connect 8 0 9 0;
#X connect 8 0 3 1;
#X connect 8 1 11 0;
#X connect 8 1 7 0;
#X connect 9 0 1 2;
#X connect 10 0 4 0;
#X connect 11 0 22 0;
#X connect 12 0 14 0;
#X connect 13 0 12 0;
#X connect 14 0 15 1;
#X connect 15 0 16 0;
#X connect 17 0 12 1;
#X connect 17 0 18 0;
#X connect 17 0 19 0;
#X connect 18 0 20 0;
#X connect 19 0 14 1;
#X connect 20 0 12 2;
#X connect 21 0 3 0;
#X connect 22 0 21 1;
#X connect 22 1 23 0;
#X connect 23 0 24 0;
#X connect 24 0 21 0;
#X connect 25 0 24 1;
#X restore 88 174 pd voix;
#N canvas 622 67 535 548 voix 0;
#X floatatom 366 109 5 0 0 0 - - -;
#X obj 219 150 counter 1 4;
#X obj 219 172 sel 1;
#X obj 184 335 int;
#X obj 219 117 metro 100;
#X floatatom 184 357 5 0 0 0 - - -;
#X obj 202 18 inlet pitch/velocity;
#N canvas 1 67 450 300 aiguillage 0;
#X obj 64 62 moses 35;
#X obj 117 83 moses 50;
#X msg 276 172 2;
#X obj 170 104 moses 62;
#X obj 223 125 moses 75;
#X obj 276 146 moses 90;
#X msg 329 179 1;
#X msg 223 153 3;
#X msg 170 132 4;
#X msg 117 113 6;
#X msg 64 95 8;
#X obj 64 36 inlet velocity;
#X obj 64 236 outlet;
#X connect 0 0 10 0;
#X connect 0 1 1 0;
#X connect 1 0 9 0;
#X connect 1 1 3 0;
#X connect 2 0 12 0;
#X connect 3 0 8 0;
#X connect 3 1 4 0;
#X connect 4 0 7 0;
#X connect 4 1 5 0;
#X connect 5 0 2 0;
#X connect 5 1 6 0;
#X connect 6 0 12 0;
#X connect 7 0 12 0;
#X connect 8 0 12 0;
#X connect 9 0 12 0;
#X connect 10 0 12 0;
#X connect 11 0 0 0;
#X restore 366 86 pd aiguillage;
#X obj 202 42 unpack;
#X msg 319 106 1;
#X obj 287 42 loadbang;
#X obj 87 202 gate;
#X obj 202 404 drunk 24 5;
#X obj 202 384 bng 15 250 50 0 empty empty empty 17 7 0 10 -262144
-1 -1;
#X obj 202 427 - 12;
#X obj 184 450 +;
#X obj 184 472 outlet;
#X obj 235 304 receive transpo_range;
#X obj 269 336 / 4;
#X obj 227 353 / 2;
#X obj 269 358 clip 2 12;
#X obj 62 297 gate;
#X obj 87 224 t b b;
#X obj 119 246 random 100;
#X obj 119 268 < 100;
#X obj 151 219 receive percent_chance;
#X connect 0 0 1 4;
#X connect 1 0 2 0;
#X connect 2 0 11 1;
#X connect 3 0 5 0;
#X connect 4 0 1 0;
#X connect 5 0 13 0;
#X connect 5 0 15 0;
#X connect 6 0 8 0;
#X connect 7 0 0 0;
#X connect 8 0 9 0;
#X connect 8 0 3 1;
#X connect 8 1 11 0;
#X connect 8 1 7 0;
#X connect 9 0 1 2;
#X connect 10 0 4 0;
#X connect 11 0 22 0;
#X connect 12 0 14 0;
#X connect 13 0 12 0;
#X connect 14 0 15 1;
#X connect 15 0 16 0;
#X connect 17 0 12 1;
#X connect 17 0 18 0;
#X connect 17 0 19 0;
#X connect 18 0 20 0;
#X connect 19 0 14 1;
#X connect 20 0 12 2;
#X connect 21 0 3 0;
#X connect 22 0 21 1;
#X connect 22 1 23 0;
#X connect 23 0 24 0;
#X connect 24 0 21 0;
#X connect 25 0 24 1;
#X restore 143 174 pd voix;
#N canvas 622 67 535 548 voix 0;
#X floatatom 366 109 5 0 0 0 - - -;
#X obj 219 150 counter 1 4;
#X obj 219 172 sel 1;
#X obj 184 335 int;
#X obj 219 117 metro 100;
#X floatatom 184 357 5 0 0 0 - - -;
#X obj 202 18 inlet pitch/velocity;
#N canvas 1 67 450 300 aiguillage 0;
#X obj 64 62 moses 35;
#X obj 117 83 moses 50;
#X msg 276 172 2;
#X obj 170 104 moses 62;
#X obj 223 125 moses 75;
#X obj 276 146 moses 90;
#X msg 329 179 1;
#X msg 223 153 3;
#X msg 170 132 4;
#X msg 117 113 6;
#X msg 64 95 8;
#X obj 64 36 inlet velocity;
#X obj 64 236 outlet;
#X connect 0 0 10 0;
#X connect 0 1 1 0;
#X connect 1 0 9 0;
#X connect 1 1 3 0;
#X connect 2 0 12 0;
#X connect 3 0 8 0;
#X connect 3 1 4 0;
#X connect 4 0 7 0;
#X connect 4 1 5 0;
#X connect 5 0 2 0;
#X connect 5 1 6 0;
#X connect 6 0 12 0;
#X connect 7 0 12 0;
#X connect 8 0 12 0;
#X connect 9 0 12 0;
#X connect 10 0 12 0;
#X connect 11 0 0 0;
#X restore 366 86 pd aiguillage;
#X obj 202 42 unpack;
#X msg 319 106 1;
#X obj 287 42 loadbang;
#X obj 87 202 gate;
#X obj 202 404 drunk 24 5;
#X obj 202 384 bng 15 250 50 0 empty empty empty 17 7 0 10 -262144
-1 -1;
#X obj 202 427 - 12;
#X obj 184 450 +;
#X obj 184 472 outlet;
#X obj 235 304 receive transpo_range;
#X obj 269 336 / 4;
#X obj 227 353 / 2;
#X obj 269 358 clip 2 12;
#X obj 62 297 gate;
#X obj 87 224 t b b;
#X obj 119 246 random 100;
#X obj 119 268 < 100;
#X obj 151 219 receive percent_chance;
#X connect 0 0 1 4;
#X connect 1 0 2 0;
#X connect 2 0 11 1;
#X connect 3 0 5 0;
#X connect 4 0 1 0;
#X connect 5 0 13 0;
#X connect 5 0 15 0;
#X connect 6 0 8 0;
#X connect 7 0 0 0;
#X connect 8 0 9 0;
#X connect 8 0 3 1;
#X connect 8 1 11 0;
#X connect 8 1 7 0;
#X connect 9 0 1 2;
#X connect 10 0 4 0;
#X connect 11 0 22 0;
#X connect 12 0 14 0;
#X connect 13 0 12 0;
#X connect 14 0 15 1;
#X connect 15 0 16 0;
#X connect 17 0 12 1;
#X connect 17 0 18 0;
#X connect 17 0 19 0;
#X connect 18 0 20 0;
#X connect 19 0 14 1;
#X connect 20 0 12 2;
#X connect 21 0 3 0;
#X connect 22 0 21 1;
#X connect 22 1 23 0;
#X connect 23 0 24 0;
#X connect 24 0 21 0;
#X connect 25 0 24 1;
#X restore 198 174 pd voix;
#N canvas 618 67 535 548 voix 0;
#X floatatom 366 109 5 0 0 0 - - -;
#X obj 219 150 counter 1 4;
#X obj 219 172 sel 1;
#X obj 184 358 int;
#X obj 219 117 metro 100;
#X floatatom 184 384 5 0 0 0 - - -;
#X obj 202 18 inlet pitch/velocity;
#N canvas 1 67 450 300 aiguillage 0;
#X obj 64 62 moses 35;
#X obj 117 83 moses 50;
#X msg 276 172 2;
#X obj 170 104 moses 62;
#X obj 223 125 moses 75;
#X obj 276 146 moses 90;
#X msg 329 179 1;
#X msg 223 153 3;
#X msg 170 132 4;
#X msg 117 113 6;
#X msg 64 95 8;
#X obj 64 36 inlet velocity;
#X obj 64 236 outlet;
#X connect 0 0 10 0;
#X connect 0 1 1 0;
#X connect 1 0 9 0;
#X connect 1 1 3 0;
#X connect 2 0 12 0;
#X connect 3 0 8 0;
#X connect 3 1 4 0;
#X connect 4 0 7 0;
#X connect 4 1 5 0;
#X connect 5 0 2 0;
#X connect 5 1 6 0;
#X connect 6 0 12 0;
#X connect 7 0 12 0;
#X connect 8 0 12 0;
#X connect 9 0 12 0;
#X connect 10 0 12 0;
#X connect 11 0 0 0;
#X restore 366 86 pd aiguillage;
#X obj 202 42 unpack;
#X msg 319 106 1;
#X obj 287 42 loadbang;
#X obj 88 218 gate;
#X obj 202 431 drunk 24 5;
#X obj 202 411 bng 15 250 50 0 empty empty empty 17 7 0 10 -262144
-1 -1;
#X obj 202 454 - 12;
#X obj 184 477 +;
#X obj 184 499 outlet;
#X obj 235 331 receive transpo_range;
#X obj 269 363 / 4;
#X obj 227 380 / 2;
#X obj 269 385 clip 2 12;
#X obj 63 330 gate;
#X obj 88 245 t b b;
#X obj 120 267 random 100;
#X obj 120 301 < 100;
#X obj 152 240 receive percent_chance;
#X connect 0 0 1 4;
#X connect 1 0 2 0;
#X connect 2 0 11 1;
#X connect 3 0 5 0;
#X connect 4 0 1 0;
#X connect 5 0 13 0;
#X connect 5 0 15 0;
#X connect 6 0 8 0;
#X connect 7 0 0 0;
#X connect 8 0 9 0;
#X connect 8 0 3 1;
#X connect 8 1 11 0;
#X connect 8 1 7 0;
#X connect 9 0 1 2;
#X connect 10 0 4 0;
#X connect 11 0 22 0;
#X connect 12 0 14 0;
#X connect 13 0 12 0;
#X connect 14 0 15 1;
#X connect 15 0 16 0;
#X connect 17 0 12 1;
#X connect 17 0 18 0;
#X connect 17 0 19 0;
#X connect 18 0 20 0;
#X connect 19 0 14 1;
#X connect 20 0 12 2;
#X connect 21 0 3 0;
#X connect 22 0 21 1;
#X connect 22 1 23 0;
#X connect 23 0 24 0;
#X connect 24 0 21 0;
#X connect 25 0 24 1;
#X restore 253 174 pd voix;
#X text 319 45 modifier les numéros de contrôleurs;
#X connect 0 0 1 0;
#X connect 1 0 2 0;
#X connect 1 1 2 1;
#X connect 3 0 4 0;
#X connect 3 1 4 1;
#X connect 4 0 5 0;
#X connect 4 1 5 1;
#X connect 4 2 5 2;
#X connect 5 0 6 0;
#X connect 6 0 0 0;
#X connect 6 1 24 0;
#X connect 6 2 25 0;
#X connect 6 3 26 0;
#X connect 6 4 27 0;
#X connect 7 0 8 0;
#X connect 8 0 1 1;
#X connect 9 0 10 0;
#X connect 10 0 11 0;
#X connect 11 0 12 0;
#X connect 12 0 1 2;
#X connect 13 0 15 0;
#X connect 14 0 16 0;
#X connect 15 0 14 0;
#X connect 16 0 17 0;
#X connect 18 0 19 0;
#X connect 19 0 22 0;
#X connect 20 0 21 0;
#X connect 21 0 18 0;
#X connect 24 0 1 0;
#X connect 25 0 1 0;
#X connect 26 0 1 0;
#X connect 27 0 1 0;
