#N canvas 124 120 1042 572 10;
#X obj 439 -4 notein;
#X obj 439 20 poly 5;
#X obj 439 44 pack f f f;
#X obj 439 67 route 1 2 3 4 5;
#X obj 411 94 voix;
#X obj 479 232 makenote 100 250;
#X obj 479 260 noteout;
#X obj 533 178 ctlin 107;
#X floatatom 533 200 5 0 0 0 - - -;
#X obj 641 152 ctlin 35;
#X obj 641 174 * 10;
#X obj 641 196 + 50;
#X floatatom 641 218 5 0 0 0 - - -;
#X obj 45 101 ctlin 17;
#X obj 45 123 * 0.19;
#X obj 45 145 int;
#X floatatom 45 166 5 0 0 0 - - -;
#X obj 45 185 send rand_range;
#X obj 171 145 int;
#X floatatom 171 166 5 0 0 0 - - -;
#X obj 171 102 ctlin 16;
#X obj 171 123 * 0.79;
#X obj 171 185 send pourcentage;
#X msg 17 369 0 0 \, 1 2 \, 2 4 \, 3 5 \, 4 7 \, 5 9 \, 6 11;
#X msg 28 406 0 0 \, 1 2 \, 2 3 \, 3 5 \, 4 7 \, 5 8 \, 6 11;
#X obj 17 432 send gamme;
#X obj 347 408 loadbang;
#X obj 372 463 send bangs_metro;
#X obj 432 332 ctlin 28;
#X obj 432 354 * 2;
#X obj 432 376 + 50;
#X floatatom 432 398 5 0 0 0 - - -;
#X obj 17 345 loadbang;
#X obj 17 32 loadbang;
#X msg 17 59 0;
#X msg 136 61 100;
#X obj 372 440 metro 125;
#X obj 555 423 * 16;
#X obj 555 445 send delay;
#X obj 634 445 send delay_on;
#X obj 634 417 tgl 15 0 empty empty empty 17 7 0 10 -262144 -1 -1 0
1;
#X obj 555 348 hradio 15 1 0 17 empty empty empty 0 -8 0 10 -262144
-1 -1 0;
#X floatatom 555 368 5 0 0 0 - - -;
#X obj 555 387 t b f;
#X text 107 353 gamme majeure (défaut);
#X text 174 390 gamme mineure;
#X text 240 484 Plutôt que d'avoir un metro par voix \, il n'y a ici
qu'un seul metro qui envoit des bangs à toutes les voix via un send-receive.
;
#X text 549 331 Temps de délai en multiples de la vitesse du métronome
;
#X text 652 417 Active le délai transposé;
#X text 538 162 Volume;
#X text 645 136 Durée;
#X text 42 204 Ambitus du drunk;
#X text 171 204 % de notes entendues;
#X obj 445 94 voix;
#X obj 479 94 voix;
#X obj 513 94 voix;
#X obj 547 94 voix;
#X text 585 82 Utilise une abstraction (voix.pd) sauvegardée sur le
disque plutôt qu'un sous-patch (objet pd). Cela permet la modification
de toutes les instances d'un seul coup.;
#X text 3 -1 Le pianiste fou \, version amélioré!;
#X connect 0 0 1 0;
#X connect 0 1 1 1;
#X connect 1 0 2 0;
#X connect 1 1 2 1;
#X connect 1 2 2 2;
#X connect 2 0 3 0;
#X connect 3 0 4 0;
#X connect 3 1 53 0;
#X connect 3 2 54 0;
#X connect 3 3 55 0;
#X connect 3 4 56 0;
#X connect 4 0 5 0;
#X connect 5 0 6 0;
#X connect 5 1 6 1;
#X connect 7 0 8 0;
#X connect 8 0 5 1;
#X connect 9 0 10 0;
#X connect 10 0 11 0;
#X connect 11 0 12 0;
#X connect 12 0 5 2;
#X connect 13 0 14 0;
#X connect 14 0 15 0;
#X connect 15 0 16 0;
#X connect 16 0 17 0;
#X connect 18 0 19 0;
#X connect 19 0 22 0;
#X connect 20 0 21 0;
#X connect 21 0 18 0;
#X connect 23 0 25 0;
#X connect 24 0 25 0;
#X connect 26 0 36 0;
#X connect 28 0 29 0;
#X connect 29 0 30 0;
#X connect 30 0 31 0;
#X connect 31 0 36 1;
#X connect 31 0 37 0;
#X connect 32 0 23 0;
#X connect 33 0 34 0;
#X connect 33 0 35 0;
#X connect 34 0 16 0;
#X connect 35 0 19 0;
#X connect 36 0 27 0;
#X connect 37 0 38 0;
#X connect 40 0 39 0;
#X connect 41 0 42 0;
#X connect 42 0 43 0;
#X connect 43 0 37 0;
#X connect 43 1 37 1;
#X connect 53 0 5 0;
#X connect 54 0 5 0;
#X connect 55 0 5 0;
#X connect 56 0 5 0;
