#N canvas 1 67 402 264 10;
#N canvas 807 76 319 286 exercice_1 0;
#X obj 143 94 metro 200;
#X obj 21 131 counter 0 9;
#X obj 21 153 sel 9;
#X msg 67 183 0;
#X obj 143 129 random 36;
#X obj 143 151 + 36;
#X obj 143 173 makenote 100 500;
#X obj 143 202 noteout;
#X obj 143 15 bng 15 250 50 0 empty empty empty 17 7 0 10 -262144 -1
-1;
#X obj 143 35 t b b;
#X connect 0 0 1 0;
#X connect 0 0 4 0;
#X connect 1 0 2 0;
#X connect 2 0 3 0;
#X connect 3 0 0 0;
#X connect 4 0 5 0;
#X connect 5 0 6 0;
#X connect 6 0 7 0;
#X connect 6 1 7 1;
#X connect 8 0 9 0;
#X connect 9 0 0 0;
#X connect 9 1 1 2;
#X restore 8 43 pd exercice_1;
#N canvas 754 76 566 458 exercice_2 0;
#X obj 164 23 tgl 15 0 empty empty empty 17 7 0 10 -262144 -1 -1 0
1;
#X obj 164 43 t f f;
#X obj 196 68 sel 1;
#X obj 164 156 counter 6;
#X obj 164 211 * 2;
#X floatatom 69 324 5 0 0 0 - - -;
#X obj 290 286 counter 2 3;
#X obj 164 243 sel 12;
#X obj 290 356 /;
#X obj 290 311 t b f;
#X msg 290 333 12;
#X text 179 22 start/stop;
#X text 67 339 compte...;
#X obj 164 285 send reset;
#X obj 239 100 receive reset;
#X text 236 67 reset les counter à l'init;
#X obj 217 398 send pas;
#X obj 182 188 receive pas;
#X obj 290 398 send max_count;
#X floatatom 290 378 5 0 0 0 - - -;
#X floatatom 217 378 5 0 0 0 - - -;
#X text 331 339 12 / pas = max_count;
#X obj 262 122 receive max_count;
#X obj 106 102 metro 300;
#X connect 0 0 1 0;
#X connect 1 0 23 0;
#X connect 1 1 2 0;
#X connect 2 0 3 2;
#X connect 2 0 6 3;
#X connect 3 0 4 0;
#X connect 4 0 5 0;
#X connect 4 0 7 0;
#X connect 6 0 9 0;
#X connect 6 0 20 0;
#X connect 7 0 6 0;
#X connect 7 0 13 0;
#X connect 8 0 19 0;
#X connect 9 0 10 0;
#X connect 9 1 8 1;
#X connect 10 0 8 0;
#X connect 14 0 3 2;
#X connect 17 0 4 1;
#X connect 19 0 18 0;
#X connect 20 0 16 0;
#X connect 22 0 3 4;
#X connect 23 0 3 0;
#X restore 8 64 pd exercice_2;
#N canvas 687 92 491 311 exercice_3 0;
#X obj 53 26 tgl 15 0 empty empty empty 17 7 0 10 -262144 -1 -1 0 1
;
#X obj 53 46 metro 200;
#X obj 53 68 counter 0 7;
#X obj 53 117 funbuff;
#C restore;
#X msg 166 69 0 0 \, 1 2 \, 2 4 \, 3 5 \, 4 7 \, 5 9 \, 6 11 \, 7 12
;
#X obj 166 43 loadbang;
#X obj 53 139 + 48;
#X obj 53 214 makenote 100 500;
#X obj 53 244 noteout;
#X obj 79 165 pipe 100;
#X obj 79 187 + 12;
#X connect 0 0 1 0;
#X connect 1 0 2 0;
#X connect 2 0 3 0;
#X connect 3 0 6 0;
#X connect 4 0 3 0;
#X connect 5 0 4 0;
#X connect 6 0 7 0;
#X connect 6 0 9 0;
#X connect 7 0 8 0;
#X connect 7 1 8 1;
#X connect 9 0 10 0;
#X connect 10 0 7 0;
#X restore 8 85 pd exercice_3;
#X text 2 6 Exercices du chapitre 4;
#N canvas 751 120 458 354 exercice_4 0;
#X obj 53 26 tgl 15 0 empty empty empty 17 7 0 10 -262144 -1 -1 0 1
;
#X obj 53 46 metro 200;
#X obj 53 144 funbuff;
#C restore;
#X obj 166 43 loadbang;
#X obj 53 235 + 48;
#X obj 53 261 makenote 100 500;
#X obj 53 291 noteout;
#X obj 53 68 random 22;
#X obj 53 108 % 7;
#X msg 166 69 0 0 \, 1 2 \, 2 4 \, 3 5 \, 4 7 \, 5 9 \, 6 11;
#X msg 166 96 0 0 \, 1 2 \, 2 3 \, 3 5 \, 4 7 \, 5 8 \, 6 11;
#X obj 53 213 +;
#X obj 128 136 div 7;
#X obj 128 158 + 1;
#X obj 128 180 * 12;
#X connect 0 0 1 0;
#X connect 1 0 7 0;
#X connect 2 0 11 0;
#X connect 3 0 9 0;
#X connect 4 0 5 0;
#X connect 5 0 6 0;
#X connect 5 1 6 1;
#X connect 7 0 8 0;
#X connect 7 0 12 0;
#X connect 8 0 2 0;
#X connect 9 0 2 0;
#X connect 10 0 2 0;
#X connect 11 0 4 0;
#X connect 12 0 13 0;
#X connect 13 0 14 0;
#X connect 14 0 11 1;
#X restore 8 106 pd exercice_4;
