#N canvas 429 68 664 684 10;
#X obj 171 260 int;
#X floatatom 171 281 5 0 0 0 - - -;
#X obj 212 76 counter 1 4;
#X obj 212 98 sel 1;
#X obj 77 130 gate;
#X obj 189 7 inlet pit/vel;
#X obj 189 29 unpack;
#N canvas 1 67 423 390 aguillage 0;
#X obj 25 56 sel 0;
#X floatatom 57 268 5 0 0 0 - - -;
#X obj 57 84 moses 35;
#X obj 110 111 moses 50;
#X obj 163 136 moses 62;
#X obj 216 162 moses 75;
#X obj 269 189 moses 90;
#X msg 57 115 8;
#X msg 110 138 6;
#X msg 163 164 4;
#X msg 216 190 3;
#X msg 269 216 2;
#X msg 322 234 1;
#X obj 25 31 inlet;
#X obj 57 288 outlet;
#X connect 0 1 2 0;
#X connect 1 0 14 0;
#X connect 2 0 7 0;
#X connect 2 1 3 0;
#X connect 3 0 8 0;
#X connect 3 1 4 0;
#X connect 4 0 9 0;
#X connect 4 1 5 0;
#X connect 5 0 10 0;
#X connect 5 1 6 0;
#X connect 6 0 11 0;
#X connect 6 1 12 0;
#X connect 7 0 1 0;
#X connect 8 0 1 0;
#X connect 9 0 1 0;
#X connect 10 0 1 0;
#X connect 11 0 1 0;
#X connect 12 0 1 0;
#X connect 13 0 0 0;
#X restore 286 53 pd aguillage;
#X obj 171 644 outlet;
#X obj 171 339 t f b;
#X obj 171 469 +;
#X obj 203 406 drunk 24 2;
#X obj 203 447 - 12;
#X obj 228 332 receive rand_range;
#X obj 228 427 / 2;
#X obj 270 357 / 4;
#X obj 270 379 clip 2 8;
#X obj 207 173 receive pourcentage;
#X obj 77 152 t b b;
#X obj 109 173 random 100;
#X obj 109 204 <;
#X obj 52 231 gate;
#N canvas 547 151 404 295 snap_on_scale 0;
#X obj 149 22 inlet;
#X obj 149 224 outlet;
#X obj 149 137 funbuff;
#C restore;
#X obj 25 41 receive gamme;
#X obj 149 83 % 7;
#X obj 216 92 div 7;
#X obj 149 44 t f f;
#X obj 216 114 + 1;
#X obj 216 137 * 12;
#X obj 149 196 +;
#X floatatom 216 161 5 0 0 0 - - -;
#X floatatom 149 111 5 0 0 0 - - -;
#X connect 0 0 6 0;
#X connect 2 0 9 0;
#X connect 3 0 2 0;
#X connect 4 0 11 0;
#X connect 5 0 7 0;
#X connect 6 0 4 0;
#X connect 6 1 5 0;
#X connect 7 0 8 0;
#X connect 8 0 10 0;
#X connect 9 0 1 0;
#X connect 10 0 9 1;
#X connect 11 0 2 0;
#X restore 171 495 pd snap_on_scale;
#X floatatom 171 320 5 0 0 0 - - -;
#X obj 317 7 receive bangs_metro;
#X msg 356 379 set 0;
#X obj 356 358 loadbang;
#X obj 318 564 pipe 125;
#X obj 318 586 - 12;
#X obj 371 543 receive delay;
#X obj 293 608 gate;
#X obj 293 522 receive delay_on;
#N canvas 1 67 521 265 midi_notes_to_scale_degrees 0;
#X floatatom 52 68 5 0 0 0 - - -;
#X obj 52 109 * 7;
#X floatatom 52 153 5 0 0 0 - - -;
#X obj 52 87 / 12;
#X obj 52 131 int;
#X obj 52 44 inlet;
#X obj 52 173 outlet;
#X text 93 67 note midi;
#X text 93 87 nombre d'octaves + fraction d'octave;
#X text 92 109 conversion en degré d'une gamme à 7 notes par octave.
;
#X text 93 132 ne garde que la partie entière;
#X text 93 153 degré de la gamme;
#X connect 0 0 3 0;
#X connect 1 0 4 0;
#X connect 2 0 6 0;
#X connect 3 0 1 0;
#X connect 4 0 2 0;
#X connect 5 0 0 0;
#X restore 171 299 pd midi_notes_to_scale_degrees;
#X text 404 380 Initialise l'objet drunk à 0;
#X text 220 284 Conversion des notes midi en degrés de la gamme;
#X text 217 481 Conversion degrés vers notes midi;
#X text 382 580 Délai avec transposition;
#X text 384 23 Reçoit les bangs du metro global;
#X connect 0 0 1 0;
#X connect 1 0 32 0;
#X connect 2 0 3 0;
#X connect 3 0 4 1;
#X connect 4 0 18 0;
#X connect 5 0 6 0;
#X connect 6 0 0 1;
#X connect 6 1 4 0;
#X connect 6 1 7 0;
#X connect 7 0 2 4;
#X connect 9 0 10 0;
#X connect 9 1 11 0;
#X connect 10 0 22 0;
#X connect 11 0 12 0;
#X connect 12 0 10 1;
#X connect 13 0 11 1;
#X connect 13 0 14 0;
#X connect 13 0 15 0;
#X connect 14 0 12 1;
#X connect 15 0 16 0;
#X connect 16 0 11 2;
#X connect 17 0 20 1;
#X connect 18 0 21 1;
#X connect 18 1 19 0;
#X connect 19 0 20 0;
#X connect 20 0 21 0;
#X connect 21 0 0 0;
#X connect 22 0 8 0;
#X connect 22 0 27 0;
#X connect 23 0 9 0;
#X connect 24 0 2 0;
#X connect 25 0 11 0;
#X connect 26 0 25 0;
#X connect 27 0 28 0;
#X connect 28 0 30 1;
#X connect 29 0 27 1;
#X connect 30 0 8 0;
#X connect 31 0 30 0;
#X connect 32 0 23 0;
