#N canvas 0 50 450 537 12;
#X obj 56 110 t f b b, f 26;
#X obj 56 134 mtof;
#X obj 56 177 phasor~;
#X obj 56 201 vcf~ 1;
#X obj 145 135 envelo~;
#X obj 235 131 envelo~;
#X obj 145 177 *~ 5000;
#X floatatom 191 156 5 0 0 1 cutoff_Hz - -;
#X floatatom 314 110 5 0 0 1 amp_decay - -;
#X floatatom 110 201 5 0 0 1 Resonnance - -;
#X obj 95 226 *~;
#X obj 96 250 outlet~;
#X floatatom 219 87 5 0 0 2 filter_decay - -;
#X floatatom 56 77 5 0 0 0 - - -;
#X floatatom 95 77 5 0 0 0 - - -;
#X obj 77 155 * 8;
#X msg 219 48 182;
#X msg 314 89 571;
#X msg 239 231 6;
#X obj 371 48 loadbang;
#X obj 21 43 inlet frq;
#X obj 95 43 inlet filterOpen;
#X text 9 316 https://www.youtube.com/watch?v=_qImZOcHz2U&ab_channel=ReallyUsefulPlugins
;
#X connect 0 0 1 0;
#X connect 0 1 4 0;
#X connect 0 2 5 0;
#X connect 1 0 2 0;
#X connect 1 0 15 0;
#X connect 2 0 3 0;
#X connect 3 1 10 0;
#X connect 4 0 6 0;
#X connect 5 0 10 1;
#X connect 6 0 3 1;
#X connect 7 0 6 1;
#X connect 8 0 5 1;
#X connect 9 0 3 2;
#X connect 10 0 11 0;
#X connect 12 0 4 1;
#X connect 13 0 0 0;
#X connect 14 0 15 1;
#X connect 15 0 7 0;
#X connect 16 0 12 0;
#X connect 17 0 8 0;
#X connect 18 0 9 0;
#X connect 19 0 18 0;
#X connect 19 0 17 0;
#X connect 19 0 16 0;
#X connect 20 0 13 0;
#X connect 21 0 14 0;
