#N canvas 389 121 559 421 12;
#X obj 64 94 samplerate~;
#X obj 64 67 t b f;
#X obj 64 118 /;
#X floatatom 64 142 5 0 0 0 - - -;
#X obj 65 188 phasor~;
#X obj 65 212 *~;
#X obj 65 240 tabread4~ array2;
#X text 61 29 mettre le read avec le soundfiler;
#X text 64 44 avant le t b f;
#X text 194 243 mettre le bon nom de array;
#X text 80 269 output dans le dac ou autre;
#X obj 64 165 sig~;
#X connect 0 0 2 0;
#X connect 1 0 0 0;
#X connect 1 1 2 1;
#X connect 1 1 5 1;
#X connect 2 0 3 0;
#X connect 3 0 11 0;
#X connect 4 0 5 0;
#X connect 5 0 6 0;
#X connect 11 0 4 0;
