#N canvas 360 142 450 300 12;
#X obj 162 72 metro 1000;
#X floatatom 162 120 5 0 0 0 - - -;
#X obj 162 167 bng 15 250 50 0 empty empty empty 17 7 0 10 -262144
-1 -1;
#X obj 162 96 counter 120;
#X obj 162 143 sel 120;
#X connect 0 0 3 0;
#X connect 1 0 4 0;
#X connect 3 0 1 0;
#X connect 4 0 2 0;
