#N canvas 714 243 450 300 12;
#X obj 68 70 bng 15 250 50 0 empty empty empty 17 7 0 10 -262144 -1
-1;
#X msg 68 90 1 3;
#X obj 142 74 del 50;
#X obj 142 100 pack 0 500;
#X obj 68 44 inlet bng;
#X obj 235 45 inlet decay;
#X floatatom 235 71 5 0 0 1 decay_time - -;
#X obj 101 151 line~;
#X obj 101 177 *~;
#X obj 103 204 *~;
#X obj 103 230 outlet~;
#X connect 0 0 1 0;
#X connect 0 0 2 0;
#X connect 1 0 7 0;
#X connect 2 0 3 0;
#X connect 3 0 7 0;
#X connect 4 0 0 0;
#X connect 5 0 6 0;
#X connect 6 0 3 1;
#X connect 7 0 8 0;
#X connect 7 0 8 1;
#X connect 8 0 9 0;
#X connect 8 0 9 1;
#X connect 9 0 10 0;
