#N canvas 166 33 1132 633 12;
#X obj 24 47 noise~;
#X obj 24 93 +~;
#X obj 62 70 delay~ 1 1;
#X obj 24 117 *~ 0.5;
#X text 21 23 FIR Passe-bas 1po;
#X obj 178 48 noise~;
#X obj 216 71 delay~ 1 1;
#X obj 179 102 *~ 0.5;
#X obj 233 102 *~ 0.5;
#X text 172 24 FIR Passe-Haut 2so;
#X text 343 25 IIT Passe-Bas 1po;
#X obj 347 49 noise~;
#X obj 347 89 lop~ 1000;
#X floatatom 407 64 5 0 0 0 - - -;
#X text 424 91 coupe en haut;
#X text 425 107 de 1000Hz;
#X text 557 26 IIR Passe-bande 2so;
#X obj 559 52 noise~;
#X obj 560 106 bp~ 5000;
#X floatatom 616 53 5 0 0 0 - - -;
#X floatatom 617 78 5 0 0 0 - - -;
#X text 662 53 frq.;
#X text 659 81 Q;
#X text 13 186 FIR Rej de bande 1po;
#X obj 16 208 noise~;
#X obj 16 261 +~;
#X obj 33 231 delay~ 2 2;
#X obj 16 285 *~ 0.5;
#X text 178 186 FIR Passe-bande 2so;
#X obj 182 211 noise~;
#X obj 183 255 *~ 0.5;
#X obj 183 279 -~;
#X obj 244 232 delay~ 2 2;
#X obj 242 257 *~ 0.5;
#X obj 179 136 -~;
#X text 369 185 IIR passe-haut 1po;
#X obj 373 209 noise~;
#X obj 373 254 hip~ 5000;
#X floatatom 433 225 5 0 0 0 - - -;
#X text 451 249 coupe en bas;
#X text 454 267 de 5000Hz;
#X connect 0 0 1 0;
#X connect 0 0 2 0;
#X connect 1 0 3 0;
#X connect 2 0 1 1;
#X connect 5 0 6 0;
#X connect 5 0 7 0;
#X connect 6 0 8 0;
#X connect 7 0 34 0;
#X connect 8 0 34 1;
#X connect 11 0 12 0;
#X connect 13 0 12 1;
#X connect 17 0 18 0;
#X connect 19 0 18 1;
#X connect 20 0 18 2;
#X connect 24 0 25 0;
#X connect 24 0 26 0;
#X connect 25 0 27 0;
#X connect 26 0 25 1;
#X connect 29 0 30 0;
#X connect 30 0 31 0;
#X connect 32 0 33 0;
#X connect 33 0 31 1;
#X connect 36 0 37 0;
#X connect 38 0 37 1;
