#N canvas 658 68 1158 841 12;
#N canvas 0 50 450 250 (subpatch) 0;
#X array hann 515 float 2;
#X coords 0 1 515 -1 200 140 1 0 0;
#X restore 538 71 graph;
#X obj 351 13 bng 15 250 50 0 empty empty empty 17 7 0 10 -262144 -1
-1;
#X obj 373 151 until;
#X msg 398 94 512;
#X obj 349 201 f;
#X obj 386 202 + 1;
#X obj 398 120 t f b;
#X msg 459 156 0;
#X obj 425 341 tabwrite hann;
#X obj 349 227 t f f;
#X obj 507 307 + 1;
#X obj 273 283 expr -0.5 * cos(6.28318531 * $f1 / 511) + 0.5;
#X text 307 263 on fait 2*pi pour avoir 6.26....;
#X obj 354 36 t b b;
#X obj 18 178 tabread hann;
#X msg 18 204 \$1 513;
#X obj 121 249 tabwrite hann;
#X msg 17 145 1;
#X obj 121 178 tabread hann;
#X msg 120 145 2;
#X msg 121 204 \$1 514;
#X obj 219 178 tabread hann;
#X msg 218 145 512;
#X msg 219 204 \$1 0;
#X text 778 53 on se sert de cette onde pour moduler;
#X connect 1 0 13 0;
#X connect 2 0 4 0;
#X connect 3 0 6 0;
#X connect 4 0 5 0;
#X connect 4 0 9 0;
#X connect 5 0 4 1;
#X connect 6 0 2 0;
#X connect 6 1 7 0;
#X connect 7 0 4 1;
#X connect 9 0 11 0;
#X connect 9 1 10 0;
#X connect 10 0 8 1;
#X connect 11 0 8 0;
#X connect 13 0 17 0;
#X connect 13 0 19 0;
#X connect 13 0 22 0;
#X connect 13 1 3 0;
#X connect 14 0 15 0;
#X connect 15 0 16 0;
#X connect 17 0 14 0;
#X connect 18 0 20 0;
#X connect 19 0 18 0;
#X connect 20 0 16 0;
#X connect 21 0 23 0;
#X connect 22 0 21 0;
#X connect 23 0 16 0;
