#N canvas 689 9 1158 841 12;
#N canvas 0 50 450 250 (subpatch) 0;
#X array hann 515 float 2;
#X coords 0 1 515 -1 200 140 1 0 0;
#X restore 538 71 graph;
#X obj 351 13 bng 15 250 50 0 empty empty empty 17 7 0 10 -262144 -1
-1;
#X obj 373 151 until;
#X msg 398 94 512;
#X obj 349 201 f;
#X obj 386 202 + 1;
#X obj 398 120 t f b;
#X msg 459 156 0;
#X obj 425 341 tabwrite hann;
#X obj 349 227 t f f;
#X obj 507 307 + 1;
#X obj 273 283 expr -0.5 * cos(6.28318531 * $f1 / 511) + 0.5;
#X text 307 263 on fait 2*pi pour avoir 6.26....;
#X obj 354 36 t b b;
#X obj 18 178 tabread hann;
#X msg 18 204 \$1 513;
#X obj 121 249 tabwrite hann;
#X msg 17 145 1;
#X obj 121 178 tabread hann;
#X msg 120 145 2;
#X msg 121 204 \$1 514;
#X obj 219 178 tabread hann;
#X msg 218 145 512;
#X msg 219 204 \$1 0;
#X text 778 53 on se sert de cette onde pour moduler;
#X floatatom 164 472 5 0 0 0 - - -;
#X obj 164 497 osc~;
#X floatatom 247 471 5 0 0 0 - - -;
#X obj 247 496 tabosc4~ hann;
#X obj 205 542 *~;
#X obj 205 568 *~ 0.3;
#X obj 205 594 dac~;
#X text 98 448 freq. porteuse;
#X text 246 446 freq. modulante;
#N canvas 0 50 450 250 (subpatch) 0;
#X array port 1027 float 2;
#X coords 0 1 1027 -1 200 140 1;
#X restore 728 242 graph;
#X obj 730 443 s port;
#X floatatom 749 510 5 0 0 0 - - -;
#X floatatom 832 509 5 0 0 0 - - -;
#X obj 832 534 tabosc4~ hann;
#X obj 790 580 *~;
#X obj 790 606 *~ 0.3;
#X obj 790 632 dac~;
#X text 683 486 freq. porteuse;
#X text 831 484 freq. modulante;
#X msg 730 417 sinesum 1024 1 0 0.33 0 0.2 0 0.143 0 0.111 0 0.093
;
#X obj 694 534 tabosc4~ port;
#X msg 755 94 const 0;
#X obj 755 120 s hann;
#X msg 803 443 sinesum 1024 0 0 0 0.3 0 0 0 0 0.2 0 0 0 0.1;
#X text 954 291 signal bipolaire;
#X text 851 118 signal unipolaire;
#X text 841 155 unipolaire --> signal au descu de 0;
#X text 842 170 bipolaire --> signal de chaque cote de 0;
#X obj 268 574 hsl 128 15 0 1 0 0 empty empty empty -2 -8 0 10 -262144
-1 -1 0 1;
#X obj 882 607 hsl 128 15 0 1 0 0 empty empty empty -2 -8 0 10 -262144
-1 -1 0 1;
#X connect 1 0 13 0;
#X connect 2 0 4 0;
#X connect 3 0 6 0;
#X connect 4 0 5 0;
#X connect 4 0 9 0;
#X connect 5 0 4 1;
#X connect 6 0 2 0;
#X connect 6 1 7 0;
#X connect 7 0 4 1;
#X connect 9 0 11 0;
#X connect 9 1 10 0;
#X connect 10 0 8 1;
#X connect 11 0 8 0;
#X connect 13 0 17 0;
#X connect 13 0 19 0;
#X connect 13 0 22 0;
#X connect 13 1 3 0;
#X connect 14 0 15 0;
#X connect 15 0 16 0;
#X connect 17 0 14 0;
#X connect 18 0 20 0;
#X connect 19 0 18 0;
#X connect 20 0 16 0;
#X connect 21 0 23 0;
#X connect 22 0 21 0;
#X connect 23 0 16 0;
#X connect 25 0 26 0;
#X connect 26 0 29 0;
#X connect 27 0 28 0;
#X connect 28 0 29 1;
#X connect 29 0 30 0;
#X connect 30 0 31 0;
#X connect 30 0 31 1;
#X connect 36 0 45 0;
#X connect 37 0 38 0;
#X connect 38 0 39 1;
#X connect 39 0 40 0;
#X connect 40 0 41 0;
#X connect 40 0 41 1;
#X connect 44 0 35 0;
#X connect 45 0 39 0;
#X connect 46 0 47 0;
#X connect 48 0 35 0;
#X connect 53 0 30 1;
#X connect 54 0 40 1;
