#N canvas 239 99 450 300 12;
#X obj 120 148 dac~;
#X obj 114 122 *~;
#X obj 146 122 *~;
#X obj 191 82 line~;
#X obj 194 37 hsl 128 15 0 10 0 0 empty empty empty -2 -8 0 10 -258113
-4032 -4032 0 1;
#X msg 191 60 \$1 50;
#X connect 1 0 0 0;
#X connect 2 0 0 1;
#X connect 3 0 1 1;
#X connect 3 0 2 1;
#X connect 4 0 5 0;
#X connect 5 0 3 0;
