#N canvas 567 50 371 322 12;
#X obj 85 223 expr~ min($v1 \, $v1*-1+1)*2;
#X obj 86 42 phasor~ 1000;
#X obj 112 72 *~ -1;
#X obj 112 98 +~ 1;
#X obj 86 128 min~;
#X obj 86 154 *~ 2;
#X connect 1 0 2 0;
#X connect 1 0 4 0;
#X connect 2 0 3 0;
#X connect 3 0 4 1;
#X connect 4 0 5 0;
