#N canvas 809 627 450 300 12;
#X obj 152 163 vline~;
#X obj 217 201 snapshot~;
#X floatatom 217 248 5 0 0 0 - - -;
#X obj 217 159 tgl 15 0 empty empty empty 17 7 0 10 -262144 -1 -1 1
1;
#X msg 152 141 0;
#X obj 217 225 + 20;
#X obj 217 176 metro 10;
#X obj 217 138 loadbang;
#X obj 116 92 bng 15 250 50 0 empty empty empty 17 7 0 10 -262144 -1
-1;
#X msg 117 110 580 6488 \, 0 1000 7488;
#X obj 116 42 inlet sel;
#X obj 116 66 sel \$1;
#X text 271 111 filter up $ down;
#X connect 0 0 1 0;
#X connect 1 0 5 0;
#X connect 3 0 6 0;
#X connect 4 0 0 0;
#X connect 5 0 2 0;
#X connect 6 0 1 0;
#X connect 7 0 3 0;
#X connect 8 0 9 0;
#X connect 9 0 0 0;
#X connect 10 0 11 0;
#X connect 11 0 8 0;
