#N canvas 1 76 353 501 10;
#X obj 88 52 tgl 15 0 empty empty empty 17 7 0 10 -262144 -1 -1 0 1
;
#X obj 88 122 metro 125;
#X obj 88 72 t f f;
#X obj 196 100 sel 1;
#X obj 120 166 counter 1 16;
#X floatatom 148 102 5 0 0 0 - - -;
#X obj 120 188 sel 1 9;
#X msg 51 312 1;
#X obj 63 349 gate;
#X obj 88 144 t b b;
#X obj 120 210 t b b;
#X obj 63 395 makenote 100 500;
#X obj 63 420 noteout;
#X msg 221 256 127;
#X obj 166 210 t b b;
#X floatatom 163 249 5 0 0 0 - - -;
#X msg 63 372 60;
#X obj 110 267 random 2;
#X obj 110 289 sel 0;
#X msg 110 311 1;
#X msg 142 311 0;
#X msg 255 256 80;
#X text 11 9 Génération de rythmes aléatoires.;
#X connect 0 0 2 0;
#X connect 1 0 9 0;
#X connect 2 0 1 0;
#X connect 2 1 3 0;
#X connect 3 0 4 2;
#X connect 4 0 6 0;
#X connect 5 0 1 1;
#X connect 6 0 10 0;
#X connect 6 1 10 0;
#X connect 6 2 14 0;
#X connect 7 0 8 0;
#X connect 8 0 16 0;
#X connect 9 0 8 1;
#X connect 9 1 4 0;
#X connect 10 0 7 0;
#X connect 10 1 13 0;
#X connect 11 0 12 0;
#X connect 11 1 12 1;
#X connect 13 0 11 1;
#X connect 14 0 17 0;
#X connect 14 1 21 0;
#X connect 15 0 17 1;
#X connect 16 0 11 0;
#X connect 17 0 18 0;
#X connect 18 0 19 0;
#X connect 18 1 20 0;
#X connect 19 0 8 0;
#X connect 20 0 8 0;
#X connect 21 0 11 1;
