#N canvas 1 76 555 440 10;
#X obj 161 44 tgl 15 0 empty empty empty 17 7 0 10 -262144 -1 -1 0
1;
#X obj 161 97 metro 500;
#X obj 161 64 t f f;
#X obj 243 97 sel 1;
#X obj 243 146 + 1;
#X msg 176 322 1000;
#X obj 222 351 s metro;
#X obj 221 65 r metro;
#X obj 135 241 counter 1 2;
#X obj 135 263 sel 1 2;
#X msg 222 322 500;
#X obj 351 317 s change;
#X obj 293 97 r change;
#X obj 222 241 counter 1 3;
#X obj 222 263 sel 1 2 3;
#X msg 258 322 250;
#X msg 84 263 bang;
#X obj 122 196 gate 4;
#X obj 311 241 counter 1 3;
#X obj 311 263 sel 1 2 3;
#X obj 30 320 makenote 100 500;
#X obj 30 344 noteout;
#X msg 30 298 60;
#X obj 243 124 random 4;
#X floatatom 243 168 5 0 0 0 - - -;
#X text 8 10 Génération de rythmes cellulaires.;
#X connect 0 0 2 0;
#X connect 1 0 17 1;
#X connect 1 0 22 0;
#X connect 2 0 1 0;
#X connect 2 1 3 0;
#X connect 3 0 23 0;
#X connect 4 0 24 0;
#X connect 5 0 6 0;
#X connect 7 0 1 1;
#X connect 8 0 9 0;
#X connect 9 0 10 0;
#X connect 9 1 10 0;
#X connect 9 1 11 0;
#X connect 10 0 6 0;
#X connect 12 0 23 0;
#X connect 13 0 14 0;
#X connect 14 0 10 0;
#X connect 14 1 15 0;
#X connect 14 2 15 0;
#X connect 14 2 11 0;
#X connect 15 0 6 0;
#X connect 16 0 5 0;
#X connect 16 0 11 0;
#X connect 17 0 16 0;
#X connect 17 1 8 0;
#X connect 17 2 13 0;
#X connect 17 3 18 0;
#X connect 18 0 19 0;
#X connect 19 0 15 0;
#X connect 19 1 10 0;
#X connect 19 2 15 0;
#X connect 19 2 11 0;
#X connect 20 0 21 0;
#X connect 20 1 21 1;
#X connect 22 0 20 0;
#X connect 23 0 4 0;
#X connect 24 0 17 0;
