#N canvas 218 136 747 262 10;
#X obj 412 186 makenote 100 250;
#X obj 412 210 noteout;
#X obj 412 164 +;
#X text -32 9 Utilisation du concept de "grain" de l'objet line à
des fins génératives.;
#X floatatom 334 139 5 0 0 0 - - -;
#X floatatom 446 139 5 0 0 0 - - -;
#X floatatom 565 139 5 0 0 0 - - -;
#X obj 67 186 makenote 100 250;
#X obj 67 210 noteout;
#X obj 67 164 +;
#X obj 334 54 tgl 15 0 empty empty empty 17 7 0 10 -262144 -1 -1 1
1;
#X text 351 53 start / stop;
#X floatatom -18 139 5 0 0 0 - - -;
#X floatatom 101 139 5 0 0 0 - - -;
#X floatatom 220 139 5 0 0 0 - - -;
#X obj 101 117 myline 25 -12 50;
#X obj 446 117 myline 25 -12 50;
#X obj 334 117 myline 48 48 50;
#X obj -18 117 myline 24 36 100;
#X obj 220 117 myline 60 60 50;
#X obj 565 117 myline 60 60 50;
#X connect 0 0 1 0;
#X connect 0 1 1 1;
#X connect 2 0 0 0;
#X connect 4 0 2 0;
#X connect 5 0 2 1;
#X connect 6 0 0 1;
#X connect 7 0 8 0;
#X connect 7 1 8 1;
#X connect 9 0 7 0;
#X connect 10 0 15 0;
#X connect 10 0 16 0;
#X connect 10 0 17 0;
#X connect 10 0 18 0;
#X connect 10 0 19 0;
#X connect 10 0 20 0;
#X connect 12 0 9 0;
#X connect 13 0 9 1;
#X connect 14 0 7 1;
#X connect 15 0 13 0;
#X connect 16 0 5 0;
#X connect 17 0 4 0;
#X connect 18 0 12 0;
#X connect 19 0 14 0;
#X connect 20 0 6 0;
