#N canvas 355 76 520 176 10;
#N canvas 207 128 917 603 exercice_1 0;
#X obj 131 226 zl sect;
#X msg 463 209 1 9;
#X obj 100 15 tgl 15 0 empty empty empty 17 7 0 10 -262144 -1 -1 0
1;
#X obj 100 105 metro 125;
#X obj 100 35 t f f;
#X obj 208 83 sel 1;
#X obj 131 193 counter 1 16;
#X floatatom 160 85 5 0 0 0 - - -;
#X msg 62 379 1;
#X obj 74 409 gate;
#X obj 131 255 t b b;
#X obj 74 470 makenote 100 500;
#X obj 74 503 noteout;
#X msg 250 315 127;
#X obj 259 247 t b b;
#X floatatom 167 318 5 0 0 0 - - -;
#X msg 74 444 60;
#X obj 114 336 random 2;
#X obj 114 358 sel 0;
#X msg 114 380 1;
#X msg 146 380 0;
#X obj 100 127 t b b b;
#X msg 463 186 1 6 12;
#X msg 462 162 1 3 6 9 12;
#X floatatom 212 128 5 0 0 0 - - -;
#X msg 462 139 1 3 5;
#X text 207 112 nombre de taps dans la mesure;
#X text 459 121 Différentes listes de temps forts.;
#X text 420 270 L'objet "zl" \, le couteau suisse de la gestion des
listes.;
#X text 420 289 "zl sect" retourne les éléments en commun entre 2
listes.;
#X obj 291 361 random 40;
#X obj 430 69 loadbang;
#X obj 291 382 + 50;
#X floatatom 291 404 5 0 0 0 - - -;
#X text 290 423 Vélocité pour les temps faible entre 50 et 90;
#X text 130 302 % temps faibles;
#X text 421 315 Ici \, on compare la liste des temps forts avec le
"tap" courant (une liste de 1 seul élément). Si l'objet retourne
la valeur \, cela veut donc dire que le "tap" fait partie des temps
forts. On force donc l'ouverture de la porte. En premier lieu \, le
metro envoie un bang pour générer un temps faible \, au cas où "zl
sect" ne retourne rien.;
#X connect 0 0 10 0;
#X connect 1 0 0 1;
#X connect 2 0 4 0;
#X connect 3 0 21 0;
#X connect 4 0 3 0;
#X connect 4 1 5 0;
#X connect 5 0 6 2;
#X connect 6 0 0 0;
#X connect 7 0 3 1;
#X connect 8 0 9 0;
#X connect 9 0 16 0;
#X connect 10 0 8 0;
#X connect 10 1 13 0;
#X connect 11 0 12 0;
#X connect 11 1 12 1;
#X connect 13 0 11 1;
#X connect 14 0 17 0;
#X connect 14 1 30 0;
#X connect 15 0 17 1;
#X connect 16 0 11 0;
#X connect 17 0 18 0;
#X connect 18 0 19 0;
#X connect 18 1 20 0;
#X connect 19 0 9 0;
#X connect 20 0 9 0;
#X connect 21 0 9 1;
#X connect 21 1 6 0;
#X connect 21 2 14 0;
#X connect 22 0 0 1;
#X connect 23 0 0 1;
#X connect 24 0 6 4;
#X connect 25 0 0 1;
#X connect 30 0 32 0;
#X connect 31 0 1 0;
#X connect 32 0 33 0;
#X connect 33 0 11 1;
#X restore 22 55 pd exercice_1;
#N canvas 1 75 480 359 exercice_2 0;
#X obj 104 237 makenote 100 500;
#X obj 104 264 noteout;
#X obj 104 107 tgl 15 0 empty empty empty 17 7 0 10 -262144 -1 -1 0
1;
#X floatatom 237 89 5 0 0 0 - - -;
#X obj 104 169 rcell;
#X msg 104 195 60;
#X msg 156 195 64;
#X msg 205 194 67;
#X obj 156 169 rcell;
#X obj 205 168 rcell;
#X text 135 73 Multiplicateur des vitesses des metros.;
#X text 122 106 go!;
#X connect 0 0 1 0;
#X connect 0 1 1 1;
#X connect 2 0 4 0;
#X connect 2 0 8 0;
#X connect 2 0 9 0;
#X connect 3 0 4 1;
#X connect 3 0 8 1;
#X connect 3 0 9 1;
#X connect 4 0 5 0;
#X connect 4 1 0 1;
#X connect 5 0 0 0;
#X connect 6 0 0 0;
#X connect 7 0 0 0;
#X connect 8 0 6 0;
#X connect 8 1 0 1;
#X connect 9 0 7 0;
#X connect 9 1 0 1;
#X restore 22 77 pd exercice_2;
#X text 8 10 Ajouts d'extensions aux algorithmes de génération rythmique.
;
