#N canvas 1 77 520 409 10;
#X obj 98 242 line;
#X obj 98 94 bng 15 250 50 0 empty empty empty 17 7 0 10 -262144 -1
-1;
#X floatatom 98 188 5 0 0 0 - - -;
#X obj 98 114 t b b b;
#X floatatom 198 210 5 0 0 0 - - -;
#X floatatom 312 210 5 0 0 0 - - -;
#X obj 312 167 + 1;
#X obj 198 267 delay;
#X obj 198 246 t b f;
#X obj 173 288 gate;
#X obj 173 269 tgl 15 0 empty empty empty 17 7 0 10 -262144 -1 -1 0
1;
#X obj 56 243 bng 15 250 50 0 empty empty empty 17 7 0 10 -262144 -1
-1;
#X floatatom 98 312 5 0 0 0 - - -;
#X obj 98 291 int;
#X obj 173 50 tgl 15 0 empty empty empty 17 7 0 10 -262144 -1 -1 0
1;
#X obj 98 73 sel 1;
#X text 82 48 start / stop;
#X obj 312 145 random 4;
#X obj 198 167 + 10;
#X obj 198 145 random 41;
#X obj 98 331 outlet;
#X obj 173 26 inlet start/stop;
#X obj 98 144 random \$1;
#X obj 98 166 + \$2;
#X text 232 78 arg 1 : Ambitus de la génération;
#X text 232 95 arg 2 : Offset appliqué au random;
#X obj 312 189 * \$3;
#X text 232 112 arg 3 : Multiplicateur de la vitesse;
#X obj 198 189 * 100;
#X connect 0 0 13 0;
#X connect 1 0 3 0;
#X connect 2 0 0 0;
#X connect 3 0 22 0;
#X connect 3 1 19 0;
#X connect 3 2 17 0;
#X connect 4 0 0 1;
#X connect 4 0 8 0;
#X connect 5 0 0 2;
#X connect 6 0 26 0;
#X connect 7 0 9 1;
#X connect 8 0 7 0;
#X connect 8 1 7 1;
#X connect 9 0 11 0;
#X connect 10 0 9 0;
#X connect 11 0 1 0;
#X connect 12 0 20 0;
#X connect 13 0 12 0;
#X connect 14 0 15 0;
#X connect 14 0 10 0;
#X connect 15 0 1 0;
#X connect 17 0 6 0;
#X connect 18 0 28 0;
#X connect 19 0 18 0;
#X connect 21 0 14 0;
#X connect 22 0 23 0;
#X connect 23 0 2 0;
#X connect 26 0 5 0;
#X connect 28 0 4 0;
