#N canvas 1 76 631 546 10;
#X obj 184 119 tgl 15 0 empty empty empty 17 7 0 10 -262144 -1 -1 0
1;
#X obj 184 187 metro 500;
#X obj 184 139 t f f;
#X obj 273 188 sel 1;
#X obj 273 237 + 1;
#X obj 177 291 gate 4;
#X obj 273 215 random 4;
#X floatatom 273 259 5 0 0 0 - - -;
#X obj 244 73 r \$0-metro;
#X obj 323 188 r \$0-change;
#X obj 339 406 s \$0-change;
#X obj 97 426 s \$0-metro;
#X text 241 56 1- indépendantiser les sends/receives;
#X obj 184 91 inlet;
#X obj 244 139 * 1;
#X obj 335 94 inlet speed;
#X text 277 139 2- Mécanisme de contrôle global du tempo;
#X obj 184 209 t b b;
#N canvas 112 139 488 284 cell1 0;
#X obj 127 52 inlet;
#X msg 127 74 bang;
#X msg 96 153 1000;
#X obj 96 175 outlet time;
#X obj 198 176 outlet velocity;
#X obj 339 176 outlet change;
#X msg 198 154 100;
#X connect 0 0 1 0;
#X connect 1 0 5 0;
#X connect 1 0 6 0;
#X connect 1 0 2 0;
#X connect 2 0 3 0;
#X connect 6 0 4 0;
#X restore 97 332 pd cell1;
#X obj 186 427 outlet velocity;
#X obj 16 299 outlet bang;
#N canvas 305 76 527 385 cell2 0;
#X obj 163 106 counter 1 2;
#X obj 163 128 sel 1 2;
#X msg 61 198 500;
#X obj 163 67 inlet;
#X obj 61 231 outlet time;
#X obj 163 232 outlet velocity;
#X obj 304 207 outlet change;
#X msg 163 200 100;
#X msg 200 200 70;
#X text 162 251 Accent sur la première note de la cellule.;
#X connect 0 0 1 0;
#X connect 1 0 2 0;
#X connect 1 0 7 0;
#X connect 1 1 2 0;
#X connect 1 1 8 0;
#X connect 1 1 6 0;
#X connect 2 0 4 0;
#X connect 3 0 0 0;
#X connect 7 0 5 0;
#X connect 8 0 5 0;
#X restore 160 332 pd cell2;
#N canvas 305 76 527 385 cell3 0;
#X obj 163 67 inlet;
#X obj 61 231 outlet time;
#X obj 163 232 outlet velocity;
#X obj 304 232 outlet change;
#X msg 163 200 100;
#X msg 200 200 70;
#X msg 61 199 500;
#X obj 163 94 counter 1 3;
#X obj 163 116 sel 1 2 3;
#X msg 97 199 250;
#X connect 0 0 7 0;
#X connect 4 0 2 0;
#X connect 5 0 2 0;
#X connect 6 0 1 0;
#X connect 7 0 8 0;
#X connect 8 0 6 0;
#X connect 8 0 4 0;
#X connect 8 1 9 0;
#X connect 8 1 5 0;
#X connect 8 2 9 0;
#X connect 8 2 5 0;
#X connect 8 2 3 0;
#X connect 9 0 1 0;
#X restore 223 332 pd cell3;
#N canvas 301 78 527 385 cell4 0;
#X obj 163 67 inlet;
#X obj 61 231 outlet time;
#X obj 163 232 outlet velocity;
#X obj 304 232 outlet change;
#X msg 163 200 100;
#X msg 200 200 70;
#X msg 61 199 500;
#X obj 163 94 counter 1 3;
#X obj 163 116 sel 1 2 3;
#X msg 97 199 250;
#X connect 0 0 7 0;
#X connect 4 0 2 0;
#X connect 5 0 2 0;
#X connect 6 0 1 0;
#X connect 7 0 8 0;
#X connect 8 0 4 0;
#X connect 8 0 9 0;
#X connect 8 1 5 0;
#X connect 8 1 6 0;
#X connect 8 2 5 0;
#X connect 8 2 3 0;
#X connect 8 2 9 0;
#X connect 9 0 1 0;
#X restore 286 332 pd cell4;
#X text 185 446 3- Gestion des accents (voir le sous-patch cell2);
#X text 349 338 ... ajouter d'autres cellules ici.;
#X connect 0 0 2 0;
#X connect 1 0 17 0;
#X connect 2 0 1 0;
#X connect 2 1 3 0;
#X connect 3 0 6 0;
#X connect 4 0 7 0;
#X connect 5 0 18 0;
#X connect 5 1 21 0;
#X connect 5 2 22 0;
#X connect 5 3 23 0;
#X connect 6 0 4 0;
#X connect 7 0 5 0;
#X connect 8 0 14 0;
#X connect 9 0 6 0;
#X connect 13 0 0 0;
#X connect 14 0 1 1;
#X connect 15 0 14 1;
#X connect 17 0 20 0;
#X connect 17 1 5 1;
#X connect 18 0 11 0;
#X connect 18 1 19 0;
#X connect 18 2 10 0;
#X connect 21 0 11 0;
#X connect 21 1 19 0;
#X connect 21 2 10 0;
#X connect 22 0 11 0;
#X connect 22 1 19 0;
#X connect 22 2 10 0;
#X connect 23 0 11 0;
#X connect 23 1 19 0;
#X connect 23 2 10 0;
