#N canvas 6 67 424 270 10;
#X text 17 7 Génération d'une ligne mélodique aléatoire;
#N canvas 1 67 319 298 etape_1 0;
#X obj 36 45 tgl 15 0 empty empty empty 17 7 0 10 -262144 -1 -1 0 1
;
#X obj 36 125 random 24;
#X obj 36 167 + 48;
#X floatatom 36 193 5 0 0 0 - - -;
#X obj 36 83 metro 250;
#X text 32 28 start/stop;
#X text 46 65 génération de bangs;
#X text 44 107 entier au hasard entre 0 et 24;
#X text 45 150 + 48 \, entier entre 48 et 72;
#X connect 0 0 4 0;
#X connect 1 0 2 0;
#X connect 2 0 3 0;
#X connect 4 0 1 0;
#X restore 19 76 pd etape_1;
#N canvas 1 67 563 308 etape_2 0;
#X obj 66 25 tgl 15 0 empty empty empty 17 7 0 10 -262144 -1 -1 0 1
;
#X obj 66 68 random 24;
#X obj 66 90 + 48;
#X floatatom 66 112 5 0 0 0 - - -;
#X obj 66 45 metro 250;
#X obj 66 164 makenote 100 500;
#X obj 66 207 noteout;
#X text 124 103 makenote construit un noteon et un noteoff avec comme
pitch MIDI l'entier donné en première entrée. La vélocité de la
note est donné en premier argument de l'objet et la durée (ms) en
deuxième argument.;
#X text 128 209 On connecte pitch et vélocité au noteout \, qui communique
avec l'interface MIDI.;
#X connect 0 0 4 0;
#X connect 1 0 2 0;
#X connect 2 0 3 0;
#X connect 3 0 5 0;
#X connect 4 0 1 0;
#X connect 5 0 6 0;
#X connect 5 1 6 1;
#X restore 19 100 pd etape_2;
#N canvas 1 67 540 368 etape_3 0;
#X obj 45 23 tgl 15 0 empty empty empty 17 7 0 10 -262144 -1 -1 0 1
;
#X obj 45 66 random 24;
#X obj 45 88 + 48;
#X floatatom 45 110 5 0 0 0 - - -;
#X obj 45 43 metro 250;
#X obj 45 220 makenote 100 500;
#X obj 45 246 noteout;
#X obj 74 154 - 12;
#X floatatom 99 133 5 0 0 0 - - -;
#X text 96 116 transpo;
#X text 120 156 - 12 pour soustraire 12 demi-tons à la note générée.
;
#X text 79 191 Les deux valeurs sont données au makenote \, qui produira
deux notes simultannées.;
#X connect 0 0 4 0;
#X connect 1 0 2 0;
#X connect 2 0 3 0;
#X connect 3 0 5 0;
#X connect 3 0 7 0;
#X connect 4 0 1 0;
#X connect 5 0 6 0;
#X connect 5 1 6 1;
#X connect 7 0 5 0;
#X connect 8 0 7 1;
#X restore 19 124 pd etape_3;
#N canvas 1 67 676 388 etape_4 0;
#X obj 83 202 random 24;
#X floatatom 83 246 5 0 0 0 - - -;
#X floatatom 143 156 5 0 0 0 - - -;
#X obj 99 271 - 12;
#X obj 143 78 metro 5000;
#X obj 143 106 random 250;
#X obj 143 128 + 250;
#X floatatom 140 257 5 0 0 0 - - -;
#X obj 83 224 + 48;
#X text 135 242 transpo;
#X text 184 156 vitesse en ms;
#X obj 83 38 tgl 15 0 empty empty empty 17 7 0 10 -262144 -1 -1 0 1
;
#X obj 83 325 noteout;
#X obj 83 180 metro 250;
#X obj 83 298 makenote 100 500;
#X text 224 80 Un deuxième metro qui envoit des bangs aux 5 secondes.
;
#X text 189 129 Une valeur au hasard entre 250 et 500;
#X connect 0 0 8 0;
#X connect 1 0 3 0;
#X connect 1 0 14 0;
#X connect 2 0 13 1;
#X connect 3 0 14 0;
#X connect 4 0 5 0;
#X connect 5 0 6 0;
#X connect 6 0 2 0;
#X connect 7 0 3 1;
#X connect 8 0 1 0;
#X connect 11 0 4 0;
#X connect 11 0 13 0;
#X connect 13 0 0 0;
#X connect 14 0 12 0;
#X connect 14 1 12 1;
#X restore 19 148 pd etape_4;
#N canvas 1 67 582 391 etape_5 0;
#X obj 30 161 random 24;
#X floatatom 30 205 5 0 0 0 - - -;
#X floatatom 90 121 5 0 0 0 - - -;
#X obj 47 240 - 12;
#X obj 90 54 metro 5000;
#X obj 90 78 random 250;
#X obj 90 100 + 250;
#X floatatom 88 226 5 0 0 0 - - -;
#X obj 30 183 + 48;
#X text 83 211 transpo;
#X text 131 121 vitesse en ms;
#X obj 30 23 tgl 15 0 empty empty empty 17 7 0 10 -262144 -1 -1 0 1
;
#X obj 30 324 noteout;
#X obj 30 139 metro 250;
#X obj 30 297 makenote 100 500;
#X floatatom 139 275 5 0 0 0 - - -;
#X text 138 245 Contrôle de la durée des notes \, en ms \, via la
dernière entrée du makenote.;
#X connect 0 0 8 0;
#X connect 1 0 3 0;
#X connect 1 0 14 0;
#X connect 2 0 13 1;
#X connect 3 0 14 0;
#X connect 4 0 5 0;
#X connect 5 0 6 0;
#X connect 6 0 2 0;
#X connect 7 0 3 1;
#X connect 8 0 1 0;
#X connect 11 0 4 0;
#X connect 11 0 13 0;
#X connect 13 0 0 0;
#X connect 14 0 12 0;
#X connect 14 1 12 1;
#X connect 15 0 14 2;
#X restore 19 173 pd etape_5;
#N canvas 1 67 515 422 etape_6 0;
#X obj 52 220 random 24;
#X floatatom 52 264 5 0 0 0 - - -;
#X floatatom 112 180 5 0 0 0 - - -;
#X obj 68 289 - 12;
#X obj 112 65 metro 5000;
#X floatatom 109 275 5 0 0 0 - - -;
#X obj 52 242 + 48;
#X text 104 260 transpo;
#X text 153 180 vitesse en ms;
#X obj 52 50 tgl 15 0 empty empty empty 17 7 0 10 -262144 -1 -1 0 1
;
#X obj 52 360 noteout;
#X obj 52 198 metro 250;
#X obj 52 333 makenote 100 500;
#X floatatom 161 311 5 0 0 0 - - -;
#X text 156 296 durée en ms;
#X obj 112 122 + 1;
#X obj 112 94 random 4;
#X obj 112 150 * 125;
#X text 181 95 valeurs entre 0 et 4 (maximum exclu);
#X text 180 124 + 1 \, donnne comme possibilités 1 \, 2 \, 3 ou 4
;
#X text 179 153 * 125 \, donc 125 \, 250 \, 375 ou 500;
#X connect 0 0 6 0;
#X connect 1 0 3 0;
#X connect 1 0 12 0;
#X connect 2 0 11 1;
#X connect 3 0 12 0;
#X connect 4 0 16 0;
#X connect 5 0 3 1;
#X connect 6 0 1 0;
#X connect 9 0 4 0;
#X connect 9 0 11 0;
#X connect 11 0 0 0;
#X connect 12 0 10 0;
#X connect 12 1 10 1;
#X connect 13 0 12 2;
#X connect 15 0 17 0;
#X connect 16 0 15 0;
#X connect 17 0 2 0;
#X restore 19 198 pd etape_6;
#X text 17 50 Cliquer sur un objet pd pour afficher son contenu.;
