#N canvas 384 230 383 356 10;
#X obj 96 241 *~;
#X obj 96 263 dac~;
#X obj 117 180 hsl 128 15 0 1 0 0 empty empty empty -2 -8 0 10 -262144
-1 -1 0 1;
#X msg 114 198 \$1 50;
#X obj 114 220 line~;
#X obj 35 60 oscil1 1;
#X floatatom 104 46 5 0 0 0 - - -;
#X text 143 46 Freq (Hz);
#X text 9 -32 Oscillateur simple (rang en argument);
#X obj 35 81 oscil1 2;
#X obj 35 102 oscil1 3;
#X obj 35 123 oscil1 4;
#X obj 35 144 oscil1 5;
#X obj 35 165 oscil1 6;
#X obj 35 186 oscil1 7;
#X obj 35 207 oscil1 8;
#X obj 104 2 loadbang;
#X msg 104 24 100;
#X connect 0 0 1 0;
#X connect 0 0 1 1;
#X connect 2 0 3 0;
#X connect 3 0 4 0;
#X connect 4 0 0 1;
#X connect 5 0 9 0;
#X connect 6 0 5 1;
#X connect 6 0 9 1;
#X connect 6 0 10 1;
#X connect 6 0 11 1;
#X connect 6 0 12 1;
#X connect 6 0 13 1;
#X connect 6 0 14 1;
#X connect 6 0 15 1;
#X connect 9 0 10 0;
#X connect 10 0 11 0;
#X connect 11 0 12 0;
#X connect 12 0 13 0;
#X connect 13 0 14 0;
#X connect 14 0 15 0;
#X connect 15 0 0 0;
#X connect 16 0 17 0;
#X connect 17 0 6 0;
