#N canvas 178 79 428 373 10;
#X obj 91 244 *~;
#X obj 91 266 dac~;
#X obj 112 183 hsl 128 15 0 1 0 0 empty empty empty -2 -8 0 10 -262144
-1 -1 2400 1;
#X msg 109 201 \$1 50;
#X obj 109 223 line~;
#X floatatom 99 49 5 0 0 0 - - -;
#X text 105 33 Freq (Hz);
#X obj 144 64 hsl 128 15 10 2000 0 0 empty empty empty -2 -8 0 10 -262144
-1 -1 12700 0;
#X floatatom 141 82 5 0 0 0 - - -;
#X obj 30 63 oscil2 1;
#X obj 141 99 s amp_var_speed;
#X obj 144 123 hsl 128 15 0 200 0 0 empty empty empty -2 -8 0 10 -262144
-1 -1 12700 0;
#X floatatom 141 141 5 0 0 0 - - -;
#X obj 141 158 s amp_var_depth;
#X obj 30 84 oscil2 2;
#X obj 30 105 oscil2 3;
#X obj 30 126 oscil2 4;
#X obj 30 147 oscil2 5;
#X obj 30 168 oscil2 6;
#X obj 30 189 oscil2 7;
#X obj 30 210 oscil2 8;
#X text 7 -51 Variations d'amplitude independantes;
#X obj 99 -9 loadbang;
#X msg 99 13 100;
#X connect 0 0 1 0;
#X connect 0 0 1 1;
#X connect 2 0 3 0;
#X connect 3 0 4 0;
#X connect 4 0 0 1;
#X connect 5 0 9 1;
#X connect 5 0 14 1;
#X connect 5 0 15 1;
#X connect 5 0 16 1;
#X connect 5 0 17 1;
#X connect 5 0 18 1;
#X connect 5 0 19 1;
#X connect 5 0 20 1;
#X connect 7 0 8 0;
#X connect 8 0 10 0;
#X connect 9 0 14 0;
#X connect 11 0 12 0;
#X connect 12 0 13 0;
#X connect 14 0 15 0;
#X connect 15 0 16 0;
#X connect 16 0 17 0;
#X connect 17 0 18 0;
#X connect 18 0 19 0;
#X connect 19 0 20 0;
#X connect 20 0 0 0;
#X connect 22 0 23 0;
#X connect 23 0 5 0;
