#N canvas 172 82 527 420 10;
#X obj 25 293 *~;
#X obj 25 315 dac~;
#X obj 65 237 hsl 128 15 0 1 0 0 empty empty empty -2 -8 0 10 -262144
-1 -1 3900 1;
#X msg 62 255 \$1 50;
#X obj 62 277 line~;
#X floatatom 94 44 5 0 0 0 - - -;
#X text 132 44 Freq (Hz);
#X obj 298 54 hsl 128 15 10 2000 0 1 empty empty empty -2 -8 0 10 -262144
-1 -1 6400 0;
#X floatatom 295 72 5 0 0 0 - - -;
#X obj 295 89 s amp_var_speed;
#X obj 298 113 hsl 128 15 0 200 0 1 empty empty empty -2 -8 0 10 -262144
-1 -1 6400 0;
#X floatatom 295 131 5 0 0 0 - - -;
#X obj 295 148 s amp_var_depth;
#X obj 25 230 *~;
#X obj 133 65 tgl 15 0 empty empty empty 17 7 0 10 -262144 -1 -1 0
1;
#X obj 165 105 pack f 10;
#X obj 133 83 sel 0;
#X msg 133 105 0;
#X obj 133 146 pack f 1000;
#X obj 133 168 line~;
#X obj 133 190 *~;
#X obj 133 212 *~;
#X obj 25 58 oscil2 1;
#X obj 25 79 oscil2 2;
#X obj 25 100 oscil2 3;
#X obj 25 121 oscil2 4;
#X obj 25 142 oscil2 5;
#X obj 25 163 oscil2 6;
#X obj 25 184 oscil2 7;
#X obj 25 205 oscil2 8;
#X text 151 64 play;
#X obj 298 173 hsl 128 15 1 2000 0 1 empty empty empty -2 -8 0 10 -262144
-1 -1 58 0;
#X floatatom 295 191 5 0 0 0 - - -;
#X obj 295 208 s fadein;
#X obj 298 230 hsl 128 15 1 2000 0 1 empty empty empty -2 -8 0 10 -262144
-1 -1 6600 0;
#X floatatom 295 248 5 0 0 0 - - -;
#X obj 295 265 s fadeout;
#X obj 225 85 r fadein;
#X obj 207 126 r fadeout;
#X text 162 193 interpolation;
#X text 162 207 quartique;
#X obj 94 0 loadbang;
#X msg 94 22 100;
#X text 6 -44 Création de l'enveloppe d'amplitude globale;
#X connect 0 0 1 0;
#X connect 0 0 1 1;
#X connect 2 0 3 0;
#X connect 3 0 4 0;
#X connect 4 0 0 1;
#X connect 5 0 22 1;
#X connect 5 0 23 1;
#X connect 5 0 24 1;
#X connect 5 0 25 1;
#X connect 5 0 26 1;
#X connect 5 0 27 1;
#X connect 5 0 28 1;
#X connect 5 0 29 1;
#X connect 7 0 8 0;
#X connect 8 0 9 0;
#X connect 10 0 11 0;
#X connect 11 0 12 0;
#X connect 13 0 0 0;
#X connect 14 0 16 0;
#X connect 15 0 19 0;
#X connect 16 0 17 0;
#X connect 16 1 15 0;
#X connect 17 0 18 0;
#X connect 18 0 19 0;
#X connect 19 0 20 0;
#X connect 19 0 20 1;
#X connect 20 0 21 0;
#X connect 20 0 21 1;
#X connect 21 0 13 1;
#X connect 22 0 23 0;
#X connect 23 0 24 0;
#X connect 24 0 25 0;
#X connect 25 0 26 0;
#X connect 26 0 27 0;
#X connect 27 0 28 0;
#X connect 28 0 29 0;
#X connect 29 0 13 0;
#X connect 31 0 32 0;
#X connect 32 0 33 0;
#X connect 34 0 35 0;
#X connect 35 0 36 0;
#X connect 37 0 15 1;
#X connect 38 0 18 1;
#X connect 41 0 42 0;
#X connect 42 0 5 0;
