#N canvas 170 83 649 443 10;
#X obj 13 295 *~;
#X obj 13 317 dac~;
#X obj 53 239 hsl 128 15 0 1 0 0 empty empty empty -2 -8 0 10 -262144
-1 -1 0 1;
#X msg 50 257 \$1 50;
#X obj 50 279 line~;
#X floatatom 82 46 5 0 0 0 - - -;
#X text 120 46 Freq (Hz);
#X obj 288 106 hsl 128 15 10 2000 0 1 empty empty empty -2 -8 0 10
-262144 -1 -1 6400 0;
#X floatatom 285 124 5 0 0 0 - - -;
#X obj 285 141 s amp_var_speed;
#X obj 288 165 hsl 128 15 0 200 0 1 empty empty empty -2 -8 0 10 -262144
-1 -1 6400 0;
#X floatatom 285 183 5 0 0 0 - - -;
#X obj 285 200 s amp_var_depth;
#X obj 13 232 *~;
#X obj 121 67 tgl 15 0 empty empty empty 17 7 0 10 -262144 -1 -1 0
1;
#X obj 153 107 pack f 10;
#X obj 121 85 sel 0;
#X msg 121 107 0;
#X obj 121 148 pack f 1000;
#X obj 121 170 line~;
#X obj 121 192 *~;
#X obj 121 214 *~;
#X text 139 66 play;
#X obj 288 225 hsl 128 15 1 2000 0 1 empty empty empty -2 -8 0 10 -262144
-1 -1 58 0;
#X floatatom 285 243 5 0 0 0 - - -;
#X obj 285 260 s fadein;
#X obj 288 282 hsl 128 15 1 2000 0 1 empty empty empty -2 -8 0 10 -262144
-1 -1 6400 0;
#X floatatom 285 300 5 0 0 0 - - -;
#X obj 285 317 s fadeout;
#X obj 213 87 r fadein;
#X obj 195 128 r fadeout;
#X text 150 195 interpolation;
#X text 150 209 quartique;
#X obj 13 60 oscil3 1;
#X obj 288 50 hsl 128 15 0.001 2 1 1 empty empty empty -2 -8 0 10 -262144
-1 -1 11548 0;
#X floatatom 285 68 5 0 0 0 - - -;
#X obj 285 85 s spreader;
#X obj 427 106 hsl 128 15 10 2000 0 1 empty empty empty -2 -8 0 10
-262144 -1 -1 3000 0;
#X floatatom 424 124 5 0 0 0 - - -;
#X obj 427 165 hsl 128 15 0 200 0 1 empty empty empty -2 -8 0 10 -262144
-1 -1 635 0;
#X floatatom 424 183 5 0 0 0 - - -;
#X obj 424 141 s freq_var_speed;
#X obj 424 200 s freq_var_depth;
#X obj 13 81 oscil3 2;
#X obj 13 102 oscil3 3;
#X obj 13 123 oscil3 4;
#X obj 13 144 oscil3 5;
#X obj 13 165 oscil3 6;
#X obj 13 186 oscil3 7;
#X obj 13 207 oscil3 8;
#X text 6 -37 Étiremtent/compression des partiels et variations aléatoires
sur les fréquences.;
#X obj 82 1 loadbang;
#X msg 82 23 100;
#X connect 0 0 1 0;
#X connect 0 0 1 1;
#X connect 2 0 3 0;
#X connect 3 0 4 0;
#X connect 4 0 0 1;
#X connect 5 0 33 1;
#X connect 5 0 43 1;
#X connect 5 0 44 1;
#X connect 5 0 45 1;
#X connect 5 0 46 1;
#X connect 5 0 47 1;
#X connect 5 0 48 1;
#X connect 5 0 49 1;
#X connect 7 0 8 0;
#X connect 8 0 9 0;
#X connect 10 0 11 0;
#X connect 11 0 12 0;
#X connect 13 0 0 0;
#X connect 14 0 16 0;
#X connect 15 0 19 0;
#X connect 16 0 17 0;
#X connect 16 1 15 0;
#X connect 17 0 18 0;
#X connect 18 0 19 0;
#X connect 19 0 20 0;
#X connect 19 0 20 1;
#X connect 20 0 21 0;
#X connect 20 0 21 1;
#X connect 21 0 13 1;
#X connect 23 0 24 0;
#X connect 24 0 25 0;
#X connect 26 0 27 0;
#X connect 27 0 28 0;
#X connect 29 0 15 1;
#X connect 30 0 18 1;
#X connect 33 0 43 0;
#X connect 34 0 35 0;
#X connect 35 0 36 0;
#X connect 37 0 38 0;
#X connect 38 0 41 0;
#X connect 39 0 40 0;
#X connect 40 0 42 0;
#X connect 43 0 44 0;
#X connect 44 0 45 0;
#X connect 45 0 46 0;
#X connect 46 0 47 0;
#X connect 47 0 48 0;
#X connect 48 0 49 0;
#X connect 49 0 13 0;
#X connect 51 0 52 0;
#X connect 52 0 5 0;
