#N canvas 1 80 859 506 10;
#X obj 578 48 bng 15 250 50 0 empty empty empty 17 7 0 10 -262144 -1
-1;
#X obj 578 68 openpanel;
#N canvas 0 0 450 300 (subpatch) 0;
#X array src 1.10998e+06 float 2;
#X coords 0 1 1.10998e+06 -1 200 140 1;
#X restore 577 167 graph;
#X obj 578 112 soundfiler;
#X obj 578 134 s src_size;
#X floatatom 363 77 5 0 0 0 - - -;
#X obj 363 119 expr~ min($v1 \, $v1*-1+1) * 2;
#X obj 366 57 hsl 128 15 30 400 1 1 empty empty Fundamental_frequency
-2 -8 0 10 -262144 -1 -1 4200 0;
#X obj 384 170 hsl 128 15 64 512 0 1 empty empty Width_in_samples -2
-8 0 10 -262144 -1 -1 5443 0;
#X floatatom 381 190 5 0 0 0 - - -;
#X obj 202 334 tabread4~ src;
#X obj 222 57 hsl 128 15 0 1 0 1 empty empty Position -2 -8 0 10 -262144
-1 -1 3200 0;
#X floatatom 219 77 5 0 0 0 - - -;
#X obj 219 173 *;
#X obj 238 112 r src_size;
#X obj 420 336 hsl 128 15 100 10000 1 1 empty empty Filter_freq -2
-8 0 10 -262144 -1 -1 7500 0;
#X floatatom 417 354 5 0 0 0 - - -;
#X obj 219 195 sig~;
#X obj 219 217 lop~ 0.5;
#X obj 201 295 +~;
#X obj 238 134 t b f;
#X obj 62 57 hsl 128 15 0 1 0 1 empty empty LFO_frequency -2 -8 0 10
-262144 -1 -1 263 0;
#X floatatom 59 77 5 0 0 0 - - -;
#X obj 59 96 osc~;
#X obj 82 134 hsl 128 15 0 0.5 0 1 empty empty LFO_depth -2 -8 0 10
-262144 -1 -1 600 0;
#X floatatom 79 154 5 0 0 0 - - -;
#X obj 202 270 +~;
#X obj 79 180 *;
#X obj 201 383 lop~ 1000;
#X obj 381 230 lop~ 0.5;
#X obj 362 252 *~;
#X obj 79 202 sig~;
#X obj 79 224 lop~ 0.5;
#X obj 60 248 *~;
#X obj 201 402 lop~ 1000;
#X obj 201 448 dac~;
#X obj 363 96 phasor~ 100;
#X obj 381 208 sig~ 256;
#N canvas 0 0 450 300 (subpatch) 0;
#X array src2 1.10998e+06 float 2;
#X coords 0 1 1.10998e+06 -1 200 140 1;
#X restore 577 324 graph;
#X msg 578 90 read -resize \$1 src src2;
#X obj 300 383 lop~ 1000;
#X obj 300 402 lop~ 1000;
#X obj 301 334 tabread4~ src2;
#X obj 419 389 hsl 128 15 0 1 0 0 empty empty Gain -2 -8 0 10 -262144
-1 -1 2700 0;
#X floatatom 416 409 5 0 0 0 - - -;
#X text 446 102 onde triangulaire;
#X obj 300 423 *~ 0;
#X obj 201 423 *~ 0;
#X text 5 5 Synthèse par balayage d'un fichier son.;
#X connect 0 0 1 0;
#X connect 1 0 39 0;
#X connect 3 0 4 0;
#X connect 5 0 36 0;
#X connect 6 0 30 0;
#X connect 7 0 5 0;
#X connect 8 0 9 0;
#X connect 9 0 37 0;
#X connect 10 0 28 0;
#X connect 11 0 12 0;
#X connect 12 0 13 0;
#X connect 13 0 17 0;
#X connect 14 0 20 0;
#X connect 15 0 16 0;
#X connect 16 0 28 1;
#X connect 16 0 34 1;
#X connect 16 0 41 1;
#X connect 16 0 40 1;
#X connect 17 0 18 0;
#X connect 18 0 26 1;
#X connect 19 0 10 0;
#X connect 19 0 42 0;
#X connect 20 0 13 0;
#X connect 20 0 27 0;
#X connect 20 1 13 1;
#X connect 20 1 27 1;
#X connect 21 0 22 0;
#X connect 22 0 23 0;
#X connect 23 0 33 0;
#X connect 24 0 25 0;
#X connect 25 0 27 0;
#X connect 26 0 19 0;
#X connect 27 0 31 0;
#X connect 28 0 34 0;
#X connect 29 0 30 1;
#X connect 30 0 19 1;
#X connect 31 0 32 0;
#X connect 32 0 33 1;
#X connect 33 0 26 0;
#X connect 34 0 47 0;
#X connect 36 0 6 0;
#X connect 37 0 29 0;
#X connect 39 0 3 0;
#X connect 40 0 41 0;
#X connect 41 0 46 0;
#X connect 42 0 40 0;
#X connect 43 0 44 0;
#X connect 44 0 46 1;
#X connect 44 0 47 1;
#X connect 46 0 35 1;
#X connect 47 0 35 0;
