#N canvas 287 227 591 386 10;
#X msg 58 138 \$1 10;
#X obj 58 160 line~;
#X obj 59 219 osc~;
#X obj 26 323 +~;
#X obj 25 23 inlet~ signal;
#X obj 26 345 outlet~;
#X obj 124 193 loadbang;
#X obj 124 215 metro 1000;
#X obj 198 193 r amp_var_speed;
#X obj 59 299 *~;
#X obj 311 193 r amp_var_depth;
#X obj 124 259 pack f 1000;
#X obj 124 281 line~;
#X obj 124 237 expr random(-$f2 \, $f2) * 0.001 + 0.2;
#X obj 140 23 loadbang;
#X obj 140 71 f \$1;
#X obj 58 117 expr $f1 * pow($f2 \, $f3);
#X obj 191 71 r spreader;
#X obj 191 93 t b f;
#X obj 58 72 inlet freq;
#X obj 274 81 loadbang;
#X obj 274 168 line~;
#X obj 58 186 *~;
#X text 171 41 étirement/compression;
#X text 171 54 des partiels;
#X obj 274 103 metro 1000;
#X obj 274 146 pack f 1000;
#X obj 348 74 r freq_var_speed;
#X obj 407 95 r freq_var_depth;
#X text 359 145 variations aléatoires;
#X text 359 157 sur la fréquence;
#X obj 274 125 expr random(-$f2 \, $f2) * 0.0005 + 1;
#X connect 0 0 1 0;
#X connect 1 0 22 0;
#X connect 2 0 9 0;
#X connect 3 0 5 0;
#X connect 4 0 3 0;
#X connect 6 0 7 0;
#X connect 7 0 13 0;
#X connect 8 0 7 1;
#X connect 8 0 11 1;
#X connect 9 0 3 1;
#X connect 10 0 13 1;
#X connect 11 0 12 0;
#X connect 12 0 9 1;
#X connect 13 0 11 0;
#X connect 14 0 15 0;
#X connect 15 0 16 1;
#X connect 16 0 0 0;
#X connect 17 0 18 0;
#X connect 18 0 16 0;
#X connect 18 1 16 2;
#X connect 19 0 16 0;
#X connect 20 0 25 0;
#X connect 21 0 22 1;
#X connect 22 0 2 0;
#X connect 25 0 31 0;
#X connect 26 0 21 0;
#X connect 27 0 25 1;
#X connect 27 0 26 1;
#X connect 28 0 31 1;
#X connect 31 0 26 0;
