#N canvas 354 218 712 388 10;
#X msg 58 138 \$1 10;
#X obj 58 160 line~;
#X obj 59 219 osc~;
#X obj 26 323 +~;
#X obj 25 49 inlet~ signal;
#X obj 26 345 outlet~;
#X obj 124 193 loadbang;
#X obj 124 215 metro 1000;
#X obj 59 299 *~;
#X obj 124 259 pack f 1000;
#X obj 124 281 line~;
#X obj 124 237 expr random(-$f2 \, $f2) * 0.001 + 0.2;
#X obj 140 49 loadbang;
#X obj 140 71 f \$1;
#X obj 58 117 expr $f1 * pow($f2 \, $f3);
#X obj 191 93 t b f;
#X obj 58 72 inlet freq;
#X obj 291 81 loadbang;
#X obj 291 168 line~;
#X obj 58 186 *~;
#X obj 291 103 metro 1000;
#X obj 291 146 pack f 1000;
#X obj 291 125 expr random(-$f2 \, $f2) * 0.0005 + 1;
#X obj 191 71 r \$2-spreader;
#X obj 198 193 r \$2-amp_var_speed;
#X obj 373 193 r \$2-amp_var_depth;
#X obj 365 74 r \$2-freq_var_speed;
#X obj 424 95 r \$2-freq_var_depth;
#X text 268 7 arg 1 : rang harmonique;
#X text 268 21 arg 2 : numéro unique du synth (\$0 de la patch principale)
;
#X connect 0 0 1 0;
#X connect 1 0 19 0;
#X connect 2 0 8 0;
#X connect 3 0 5 0;
#X connect 4 0 3 0;
#X connect 6 0 7 0;
#X connect 7 0 11 0;
#X connect 8 0 3 1;
#X connect 9 0 10 0;
#X connect 10 0 8 1;
#X connect 11 0 9 0;
#X connect 12 0 13 0;
#X connect 13 0 14 1;
#X connect 14 0 0 0;
#X connect 15 0 14 0;
#X connect 15 1 14 2;
#X connect 16 0 14 0;
#X connect 17 0 20 0;
#X connect 18 0 19 1;
#X connect 19 0 2 0;
#X connect 20 0 22 0;
#X connect 21 0 18 0;
#X connect 22 0 21 0;
#X connect 23 0 15 0;
#X connect 24 0 7 1;
#X connect 24 0 9 1;
#X connect 25 0 11 1;
#X connect 26 0 20 1;
#X connect 26 0 21 1;
#X connect 27 0 22 1;
