#N canvas 423 169 310 254 10;
#X msg 55 101 \$1 10;
#X obj 55 123 line~;
#X obj 56 145 osc~;
#X obj 56 167 *~ 0.25;
#X obj 55 40 inlet freq;
#X obj 55 79 * 1;
#X obj 23 199 +~;
#X obj 22 15 inlet~ signal;
#X obj 23 221 outlet~;
#X obj 138 40 loadbang;
#X obj 138 62 f \$1;
#X text 50 200 Somme des partiels;
#X text 172 62 rang harmonique;
#X text 102 111 portamento sur la fréquence;
#X connect 0 0 1 0;
#X connect 1 0 2 0;
#X connect 2 0 3 0;
#X connect 3 0 6 1;
#X connect 4 0 5 0;
#X connect 5 0 0 0;
#X connect 6 0 8 0;
#X connect 7 0 6 0;
#X connect 9 0 10 0;
#X connect 10 0 5 1;
