#N canvas 417 172 440 287 10;
#X msg 55 101 \$1 10;
#X obj 55 123 line~;
#X obj 56 145 osc~;
#X obj 55 40 inlet freq;
#X obj 55 79 * 1;
#X obj 23 233 +~;
#X obj 22 15 inlet~ signal;
#X obj 23 255 outlet~;
#X obj 138 40 loadbang;
#X obj 138 62 f \$1;
#X obj 121 103 loadbang;
#X obj 121 125 metro 1000;
#X obj 195 103 r amp_var_speed;
#X obj 56 209 *~;
#X obj 308 103 r amp_var_depth;
#X text 131 85 Variations aléatoires sur l'amplitude;
#X obj 121 169 pack f 1000;
#X obj 121 191 line~;
#X obj 121 147 expr random(-$f2 \, $f2) * 0.001 + 0.2;
#X connect 0 0 1 0;
#X connect 1 0 2 0;
#X connect 2 0 13 0;
#X connect 3 0 4 0;
#X connect 4 0 0 0;
#X connect 5 0 7 0;
#X connect 6 0 5 0;
#X connect 8 0 9 0;
#X connect 9 0 4 1;
#X connect 10 0 11 0;
#X connect 11 0 18 0;
#X connect 12 0 11 1;
#X connect 12 0 16 1;
#X connect 13 0 5 1;
#X connect 14 0 18 1;
#X connect 16 0 17 0;
#X connect 17 0 13 1;
#X connect 18 0 16 0;
