#N canvas 352 219 591 386 10;
#X msg 58 138 \$1 10;
#X obj 58 160 line~;
#X obj 26 323 +~;
#X obj 25 49 inlet~ signal;
#X obj 26 345 outlet~;
#X obj 190 195 loadbang;
#X obj 190 217 metro 1000;
#X obj 59 299 *~;
#X obj 190 261 pack f 1000;
#X obj 190 283 line~;
#X obj 190 239 expr random(-$f2 \, $f2) * 0.001 + 0.2;
#X obj 140 49 loadbang;
#X obj 140 71 f \$1;
#X obj 58 117 expr $f1 * pow($f2 \, $f3);
#X obj 191 93 t b f;
#X obj 58 72 inlet freq;
#X obj 291 81 loadbang;
#X obj 291 168 line~;
#X obj 58 186 *~;
#X obj 291 103 metro 1000;
#X obj 291 146 pack f 1000;
#X obj 291 125 expr random(-$f2 \, $f2) * 0.0005 + 1;
#X obj 191 71 r \$2-spreader;
#X obj 264 195 r \$2-amp_var_speed;
#X obj 439 195 r \$2-amp_var_depth;
#X obj 365 74 r \$2-freq_var_speed;
#X obj 424 95 r \$2-freq_var_depth;
#X obj 59 219 tabosc4~ \$2-wave;
#X text 66 237 lecture d'array;
#X text 64 251 (\$0-wave de la;
#X text 67 266 patch principale);
#X connect 0 0 1 0;
#X connect 1 0 18 0;
#X connect 2 0 4 0;
#X connect 3 0 2 0;
#X connect 5 0 6 0;
#X connect 6 0 10 0;
#X connect 7 0 2 1;
#X connect 8 0 9 0;
#X connect 9 0 7 1;
#X connect 10 0 8 0;
#X connect 11 0 12 0;
#X connect 12 0 13 1;
#X connect 13 0 0 0;
#X connect 14 0 13 0;
#X connect 14 1 13 2;
#X connect 15 0 13 0;
#X connect 16 0 19 0;
#X connect 17 0 18 1;
#X connect 18 0 27 0;
#X connect 19 0 21 0;
#X connect 20 0 17 0;
#X connect 21 0 20 0;
#X connect 22 0 14 0;
#X connect 23 0 6 1;
#X connect 23 0 8 1;
#X connect 24 0 10 1;
#X connect 25 0 19 1;
#X connect 25 0 20 1;
#X connect 26 0 21 1;
#X connect 27 0 7 0;
