#N canvas 1 77 465 403 10;
#X floatatom 114 143 5 0 0 0 - - -;
#X text 49 142 Freq (Hz);
#X obj 40 339 *~;
#X obj 185 214 pack f 10;
#X obj 153 192 sel 0;
#X msg 153 214 0;
#X obj 153 255 pack f 1000;
#X obj 153 277 line~;
#X obj 153 299 *~;
#X obj 153 321 *~;
#X obj 40 361 outlet~;
#X obj 114 77 inlet midi;
#X obj 114 99 unpack;
#X obj 114 121 mtof;
#X obj 153 169 / 127;
#X text 13 7 Une voix du synth MIDI.;
#X obj 245 194 r \$1-fadein;
#X obj 227 235 r \$1-fadeout;
#X obj 40 167 oscil4 1 \$1;
#X obj 40 188 oscil4 2 \$1;
#X obj 40 209 oscil4 3 \$1;
#X obj 40 230 oscil4 4 \$1;
#X obj 40 251 oscil4 5 \$1;
#X obj 40 272 oscil4 6 \$1;
#X obj 40 293 oscil4 7 \$1;
#X obj 40 314 oscil4 8 \$1;
#X text 14 20 Reçoit en argument le numéro unique du synth (\$0 de
la patch principale) et la passe directement aux oscillateurs).;
#X connect 0 0 18 1;
#X connect 0 0 19 1;
#X connect 0 0 20 1;
#X connect 0 0 21 1;
#X connect 0 0 22 1;
#X connect 0 0 23 1;
#X connect 0 0 24 1;
#X connect 0 0 25 1;
#X connect 2 0 10 0;
#X connect 3 0 7 0;
#X connect 4 0 5 0;
#X connect 4 1 3 0;
#X connect 5 0 6 0;
#X connect 6 0 7 0;
#X connect 7 0 8 0;
#X connect 7 0 8 1;
#X connect 8 0 9 0;
#X connect 8 0 9 1;
#X connect 9 0 2 1;
#X connect 11 0 12 0;
#X connect 12 0 13 0;
#X connect 12 1 14 0;
#X connect 13 0 0 0;
#X connect 14 0 4 0;
#X connect 16 0 3 1;
#X connect 17 0 6 1;
#X connect 18 0 19 0;
#X connect 19 0 20 0;
#X connect 20 0 21 0;
#X connect 21 0 22 0;
#X connect 22 0 23 0;
#X connect 23 0 24 0;
#X connect 24 0 25 0;
#X connect 25 0 2 0;
