#N canvas 336 187 450 300 12;
#X obj 223 66 bng 15 250 50 0 empty empty empty 17 7 0 10 -262144 -1
-1;
#X msg 223 86 1;
#X obj 223 110 + 1;
#X floatatom 223 134 5 0 0 0 - - -;
#X connect 0 0 1 0;
#X connect 1 0 2 0;
#X connect 2 0 3 0;
#X connect 3 0 2 1;
