#N canvas 284 137 726 637 12;
#X obj 221 191 soundfiler;
#X floatatom 221 215 5 0 0 0 - - -;
#X obj 221 118 loadbang;
#X msg 221 143 symbol pouf.wav;
#X obj 261 465 *~;
#X obj 296 465 *~;
#X obj 341 432 line~;
#X msg 341 404 \$1 25;
#X obj 341 374 hsl 128 15 0 10 0 0 empty empty empty -2 -8 0 10 -4032
-1 -1 2500 1;
#X obj 272 493 dac~;
#X text 224 93 #1;
#X text 361 471 #6;
#X msg 221 167 read -resize \$1 snd;
#N canvas 0 22 450 278 (subpatch) 0;
#X array snd 11036 float 0;
#X coords 0 1 11035 -1 200 140 1;
#X restore 6 486 graph;
#X obj 37 20 tgl 15 0 empty empty empty 17 7 0 10 -4034 -258113 -258113
0 1;
#X obj 93 52 sel 0 1;
#X msg 93 76 stop;
#X obj 93 100 s stop;
#X obj 18 51 s start;
#N canvas 4 263 715 573 voix 0;
#X obj 165 200 bng 15 250 50 0 empty empty empty 17 7 0 10 -262144
-1 -1;
#X obj 155 373 counter 1;
#X floatatom 155 397 5 0 0 0 - - -;
#X obj 90 467 tabplay~ snd;
#X obj 155 420 int;
#X obj 90 439 r stop;
#X obj 189 421 inlet echantillons;
#X obj 165 141 r start;
#X obj 90 528 outlet~ voice;
#X obj 165 169 metro 1000;
#X obj 165 222 counter 16;
#X floatatom 165 246 5 0 0 0 - - -;
#X obj 145 288 gate 4;
#X floatatom 115 261 5 0 0 0 - - -;
#X obj 75 205 counter 4;
#X obj 75 181 metro 500;
#X obj 120 335 bng 15 250 50 0 empty empty empty 17 7 0 10 -262144
-1 -1;
#X obj 145 336 bng 15 250 50 0 empty empty empty 17 7 0 10 -262144
-1 -1;
#X obj 175 336 bng 15 250 50 0 empty empty empty 17 7 0 10 -262144
-1 -1;
#X obj 202 336 bng 15 250 50 0 empty empty empty 17 7 0 10 -262144
-1 -1;
#X obj 315 264 osc~ 1;
#X floatatom 315 240 5 0 0 0 - - -;
#X obj 318 290 *~ 0.5;
#X obj 319 316 +~ 0.5;
#X floatatom 386 285 5 0 0 0 - - -;
#X floatatom 441 274 5 0 0 0 - - -;
#X obj 387 349 -;
#X obj 386 312 t b f;
#X obj 519 369 snapshot~;
#X obj 415 202 loadbang;
#X obj 324 347 *~ 1;
#X obj 324 379 +~ 0;
#X floatatom 518 397 5 0 0 0 - - -;
#X obj 621 295 bng 15 250 50 0 empty empty empty 17 7 0 10 -262144
-1 -1;
#X obj 519 342 metro 100;
#X obj 94 499 bp~ 500 10;
#X obj 315 217 2;
#X obj 385 257 2500;
#X obj 441 230 2600;
#X text 330 176 LFO & Filter;
#X obj 45 17 loadbang;
#X obj 76 65 500;
#X obj 113 67 1000;
#X obj 31 117 *;
#X obj 19 81 r div;
#X obj 183 96 *;
#X floatatom 31 141 5 0 0 0 - - -;
#X floatatom 183 120 5 0 0 0 - - -;
#X connect 0 0 10 0;
#X connect 1 0 2 0;
#X connect 2 0 4 0;
#X connect 3 0 35 0;
#X connect 4 0 3 0;
#X connect 5 0 3 0;
#X connect 6 0 4 1;
#X connect 7 0 9 0;
#X connect 7 0 15 0;
#X connect 9 0 0 0;
#X connect 10 0 11 0;
#X connect 11 0 12 1;
#X connect 12 0 16 0;
#X connect 12 1 17 0;
#X connect 12 2 18 0;
#X connect 12 3 19 0;
#X connect 13 0 12 0;
#X connect 14 0 13 0;
#X connect 15 0 14 0;
#X connect 16 0 1 0;
#X connect 17 0 1 0;
#X connect 18 0 1 0;
#X connect 19 0 1 0;
#X connect 20 0 22 0;
#X connect 21 0 20 0;
#X connect 22 0 23 0;
#X connect 23 0 30 0;
#X connect 24 0 27 0;
#X connect 24 0 31 1;
#X connect 25 0 26 0;
#X connect 26 0 30 1;
#X connect 27 0 26 0;
#X connect 27 1 26 1;
#X connect 28 0 32 0;
#X connect 29 0 34 0;
#X connect 29 0 36 0;
#X connect 29 0 37 0;
#X connect 29 0 38 0;
#X connect 30 0 31 0;
#X connect 31 0 28 0;
#X connect 32 0 35 1;
#X connect 33 0 34 0;
#X connect 34 0 28 0;
#X connect 35 0 8 0;
#X connect 36 0 21 0;
#X connect 37 0 24 0;
#X connect 38 0 25 0;
#X connect 40 0 41 0;
#X connect 40 0 42 0;
#X connect 41 0 43 1;
#X connect 42 0 45 1;
#X connect 43 0 15 1;
#X connect 43 0 46 0;
#X connect 44 0 43 0;
#X connect 44 0 45 0;
#X connect 45 0 9 1;
#X connect 45 0 47 0;
#X restore 136 285 pd voix;
#N canvas 75 23 697 488 voix 0;
#X obj 174 272 bng 15 250 50 0 empty empty empty 17 7 0 10 -262144
-1 -1;
#X obj 164 445 counter 1;
#X floatatom 164 469 5 0 0 0 - - -;
#X obj 99 539 tabplay~ snd;
#X obj 164 492 int;
#X obj 99 511 r stop;
#X obj 198 493 inlet echantillons;
#X obj 189 207 r start;
#X obj 99 600 outlet~ voice;
#X floatatom 174 318 5 0 0 0 - - -;
#X obj 154 360 gate 4;
#X floatatom 124 333 5 0 0 0 - - -;
#X obj 88 283 counter 4;
#X obj 129 407 bng 15 250 50 0 empty empty empty 17 7 0 10 -262144
-1 -1;
#X obj 154 408 bng 15 250 50 0 empty empty empty 17 7 0 10 -262144
-1 -1;
#X obj 184 408 bng 15 250 50 0 empty empty empty 17 7 0 10 -262144
-1 -1;
#X obj 211 408 bng 15 250 50 0 empty empty empty 17 7 0 10 -262144
-1 -1;
#X obj 174 241 metro 800;
#X obj 174 294 counter 12;
#X obj 88 259 metro 400;
#X obj 405 360 osc~ 1;
#X floatatom 405 336 5 0 0 0 - - -;
#X obj 408 386 *~ 0.5;
#X obj 409 412 +~ 0.5;
#X floatatom 476 381 5 0 0 0 - - -;
#X floatatom 531 370 5 0 0 0 - - -;
#X obj 477 445 -;
#X obj 476 408 t b f;
#X obj 609 465 snapshot~;
#X obj 505 298 loadbang;
#X obj 414 443 *~ 1;
#X obj 414 475 +~ 0;
#X floatatom 608 493 5 0 0 0 - - -;
#X obj 711 391 bng 15 250 50 0 empty empty empty 17 7 0 10 -262144
-1 -1;
#X obj 609 438 metro 100;
#X obj 554 531 bp~ 500 10;
#X text 420 272 LFO & Filter;
#X obj 475 353 3000;
#X obj 531 326 3200;
#X obj 405 313 1.5;
#X obj 106 69 loadbang;
#X obj 125 166 *;
#X obj 66 122 r div;
#X obj 177 167 *;
#X obj 137 117 400;
#X obj 174 119 800;
#X floatatom 125 190 5 0 0 0 - - -;
#X floatatom 177 191 5 0 0 0 - - -;
#X connect 0 0 18 0;
#X connect 1 0 2 0;
#X connect 2 0 4 0;
#X connect 3 0 35 0;
#X connect 4 0 3 0;
#X connect 5 0 3 0;
#X connect 6 0 4 1;
#X connect 7 0 17 0;
#X connect 7 0 19 0;
#X connect 9 0 10 1;
#X connect 10 0 13 0;
#X connect 10 1 14 0;
#X connect 10 2 15 0;
#X connect 10 3 16 0;
#X connect 11 0 10 0;
#X connect 12 0 11 0;
#X connect 13 0 1 0;
#X connect 14 0 1 0;
#X connect 15 0 1 0;
#X connect 16 0 1 0;
#X connect 17 0 0 0;
#X connect 18 0 9 0;
#X connect 19 0 12 0;
#X connect 20 0 22 0;
#X connect 21 0 20 0;
#X connect 22 0 23 0;
#X connect 23 0 30 0;
#X connect 24 0 27 0;
#X connect 24 0 31 1;
#X connect 25 0 26 0;
#X connect 26 0 30 1;
#X connect 27 0 26 0;
#X connect 27 1 26 1;
#X connect 28 0 32 0;
#X connect 29 0 34 0;
#X connect 29 0 37 0;
#X connect 29 0 38 0;
#X connect 29 0 39 0;
#X connect 30 0 31 0;
#X connect 31 0 28 0;
#X connect 32 0 35 1;
#X connect 33 0 34 0;
#X connect 34 0 28 0;
#X connect 35 0 8 0;
#X connect 37 0 24 0;
#X connect 38 0 25 0;
#X connect 39 0 21 0;
#X connect 40 0 44 0;
#X connect 40 0 45 0;
#X connect 41 0 19 1;
#X connect 41 0 46 0;
#X connect 42 0 41 0;
#X connect 42 0 43 0;
#X connect 43 0 17 1;
#X connect 43 0 47 0;
#X connect 44 0 41 1;
#X connect 45 0 43 1;
#X restore 209 284 pd voix;
#N canvas 340 140 697 488 voix 0;
#X obj 187 257 bng 15 250 50 0 empty empty empty 17 7 0 10 -262144
-1 -1;
#X obj 177 430 counter 1;
#X floatatom 177 454 5 0 0 0 - - -;
#X obj 112 524 tabplay~ snd;
#X obj 177 477 int;
#X obj 112 496 r stop;
#X obj 211 478 inlet echantillons;
#X obj 187 198 r start;
#X obj 112 585 outlet~ voice;
#X floatatom 187 303 5 0 0 0 - - -;
#X obj 167 345 gate 4;
#X floatatom 137 318 5 0 0 0 - - -;
#X obj 101 268 counter 4;
#X obj 142 392 bng 15 250 50 0 empty empty empty 17 7 0 10 -262144
-1 -1;
#X obj 167 393 bng 15 250 50 0 empty empty empty 17 7 0 10 -262144
-1 -1;
#X obj 197 393 bng 15 250 50 0 empty empty empty 17 7 0 10 -262144
-1 -1;
#X obj 224 393 bng 15 250 50 0 empty empty empty 17 7 0 10 -262144
-1 -1;
#X obj 187 226 metro 400;
#X obj 101 244 metro 300;
#X obj 187 279 counter 4;
#X obj 372 303 osc~ 1;
#X floatatom 372 279 5 0 0 0 - - -;
#X obj 375 329 *~ 0.5;
#X obj 376 355 +~ 0.5;
#X floatatom 443 324 5 0 0 0 - - -;
#X floatatom 498 313 5 0 0 0 - - -;
#X obj 444 388 -;
#X obj 443 351 t b f;
#X obj 576 408 snapshot~;
#X obj 472 241 loadbang;
#X obj 381 386 *~ 1;
#X obj 381 418 +~ 0;
#X floatatom 575 436 5 0 0 0 - - -;
#X obj 678 334 bng 15 250 50 0 empty empty empty 17 7 0 10 -262144
-1 -1;
#X obj 576 381 metro 100;
#X obj 127 557 bp~ 500 10;
#X text 387 215 LFO & Filter;
#X obj 372 256 3;
#X obj 442 296 1000;
#X obj 498 269 1100;
#X obj 106 46 loadbang;
#X obj 125 143 *;
#X obj 66 99 r div;
#X obj 177 144 *;
#X obj 137 94 300;
#X obj 174 96 400;
#X floatatom 125 167 5 0 0 0 - - -;
#X floatatom 177 168 5 0 0 0 - - -;
#X connect 0 0 19 0;
#X connect 1 0 2 0;
#X connect 2 0 4 0;
#X connect 3 0 35 0;
#X connect 4 0 3 0;
#X connect 5 0 3 0;
#X connect 6 0 4 1;
#X connect 7 0 17 0;
#X connect 7 0 18 0;
#X connect 9 0 10 1;
#X connect 10 0 13 0;
#X connect 10 1 14 0;
#X connect 10 2 15 0;
#X connect 10 3 16 0;
#X connect 11 0 10 0;
#X connect 12 0 11 0;
#X connect 13 0 1 0;
#X connect 14 0 1 0;
#X connect 15 0 1 0;
#X connect 16 0 1 0;
#X connect 17 0 0 0;
#X connect 18 0 12 0;
#X connect 19 0 9 0;
#X connect 20 0 22 0;
#X connect 21 0 20 0;
#X connect 22 0 23 0;
#X connect 23 0 30 0;
#X connect 24 0 27 0;
#X connect 24 0 31 1;
#X connect 25 0 26 0;
#X connect 26 0 30 1;
#X connect 27 0 26 0;
#X connect 27 1 26 1;
#X connect 28 0 32 0;
#X connect 29 0 34 0;
#X connect 29 0 37 0;
#X connect 29 0 38 0;
#X connect 29 0 39 0;
#X connect 30 0 31 0;
#X connect 31 0 28 0;
#X connect 32 0 35 1;
#X connect 33 0 34 0;
#X connect 34 0 28 0;
#X connect 35 0 8 0;
#X connect 37 0 21 0;
#X connect 38 0 24 0;
#X connect 39 0 25 0;
#X connect 40 0 44 0;
#X connect 40 0 45 0;
#X connect 41 0 18 1;
#X connect 41 0 46 0;
#X connect 42 0 41 0;
#X connect 42 0 43 0;
#X connect 43 0 17 1;
#X connect 43 0 47 0;
#X connect 44 0 41 1;
#X connect 45 0 43 1;
#X restore 273 284 pd voix;
#N canvas 242 390 697 488 voix 0;
#X obj 181 289 bng 15 250 50 0 empty empty empty 17 7 0 10 -262144
-1 -1;
#X obj 171 462 counter 1;
#X floatatom 171 486 5 0 0 0 - - -;
#X obj 106 556 tabplay~ snd;
#X obj 171 509 int;
#X obj 106 528 r stop;
#X obj 205 510 inlet echantillons;
#X obj 181 230 r start;
#X obj 106 617 outlet~ voice;
#X floatatom 181 335 5 0 0 0 - - -;
#X obj 161 377 gate 4;
#X floatatom 131 350 5 0 0 0 - - -;
#X obj 95 300 counter 4;
#X obj 136 424 bng 15 250 50 0 empty empty empty 17 7 0 10 -262144
-1 -1;
#X obj 161 425 bng 15 250 50 0 empty empty empty 17 7 0 10 -262144
-1 -1;
#X obj 191 425 bng 15 250 50 0 empty empty empty 17 7 0 10 -262144
-1 -1;
#X obj 218 425 bng 15 250 50 0 empty empty empty 17 7 0 10 -262144
-1 -1;
#X obj 181 258 metro 1100;
#X obj 95 276 metro 900;
#X obj 181 311 counter 16;
#X obj 345 334 osc~ 1;
#X floatatom 345 310 5 0 0 0 - - -;
#X obj 348 360 *~ 0.5;
#X obj 349 386 +~ 0.5;
#X floatatom 416 355 5 0 0 0 - - -;
#X floatatom 471 344 5 0 0 0 - - -;
#X obj 417 419 -;
#X obj 416 382 t b f;
#X obj 549 439 snapshot~;
#X obj 445 272 loadbang;
#X obj 354 417 *~ 1;
#X obj 354 449 +~ 0;
#X floatatom 548 467 5 0 0 0 - - -;
#X obj 651 365 bng 15 250 50 0 empty empty empty 17 7 0 10 -262144
-1 -1;
#X obj 549 412 metro 100;
#X obj 113 587 bp~ 500 10;
#X obj 345 287 2;
#X text 360 246 LFO & Filter;
#X obj 415 327 4500;
#X obj 471 300 4600;
#X obj 106 69 loadbang;
#X obj 125 166 *;
#X obj 66 122 r div;
#X obj 177 167 *;
#X obj 137 117 900;
#X obj 174 120 1100;
#X floatatom 177 191 5 0 0 0 - - -;
#X floatatom 125 190 5 0 0 0 - - -;
#X connect 0 0 19 0;
#X connect 1 0 2 0;
#X connect 2 0 4 0;
#X connect 3 0 35 0;
#X connect 4 0 3 0;
#X connect 5 0 3 0;
#X connect 6 0 4 1;
#X connect 7 0 17 0;
#X connect 7 0 18 0;
#X connect 9 0 10 1;
#X connect 10 0 13 0;
#X connect 10 1 14 0;
#X connect 10 2 15 0;
#X connect 10 3 16 0;
#X connect 11 0 10 0;
#X connect 12 0 11 0;
#X connect 13 0 1 0;
#X connect 14 0 1 0;
#X connect 15 0 1 0;
#X connect 16 0 1 0;
#X connect 17 0 0 0;
#X connect 18 0 12 0;
#X connect 19 0 9 0;
#X connect 20 0 22 0;
#X connect 21 0 20 0;
#X connect 22 0 23 0;
#X connect 23 0 30 0;
#X connect 24 0 27 0;
#X connect 24 0 31 1;
#X connect 25 0 26 0;
#X connect 26 0 30 1;
#X connect 27 0 26 0;
#X connect 27 1 26 1;
#X connect 28 0 32 0;
#X connect 29 0 34 0;
#X connect 29 0 36 0;
#X connect 29 0 38 0;
#X connect 29 0 39 0;
#X connect 30 0 31 0;
#X connect 31 0 28 0;
#X connect 32 0 35 1;
#X connect 33 0 34 0;
#X connect 34 0 28 0;
#X connect 35 0 8 0;
#X connect 36 0 21 0;
#X connect 38 0 24 0;
#X connect 39 0 25 0;
#X connect 40 0 44 0;
#X connect 40 0 45 0;
#X connect 41 0 18 1;
#X connect 41 0 47 0;
#X connect 42 0 41 0;
#X connect 42 0 43 0;
#X connect 43 0 17 1;
#X connect 43 0 46 0;
#X connect 44 0 41 1;
#X connect 45 0 43 1;
#X restore 340 283 pd voix;
#X obj 59 161 hsl 128 15 1 10 0 0 empty empty empty -2 -8 0 10 -159808
-262144 -262144 0 1;
#X obj 56 188 s div;
#X text 56 140 ctr vitesse;
#X obj 11 106 loadbang;
#X msg 11 130 1;
#X connect 0 0 1 0;
#X connect 1 0 20 0;
#X connect 1 0 19 0;
#X connect 1 0 21 0;
#X connect 1 0 22 0;
#X connect 2 0 3 0;
#X connect 3 0 12 0;
#X connect 4 0 9 0;
#X connect 5 0 9 1;
#X connect 6 0 5 1;
#X connect 6 0 4 1;
#X connect 7 0 6 0;
#X connect 8 0 7 0;
#X connect 12 0 0 0;
#X connect 14 0 15 0;
#X connect 14 0 18 0;
#X connect 15 0 16 0;
#X connect 16 0 17 0;
#X connect 19 0 4 0;
#X connect 20 0 4 0;
#X connect 21 0 5 0;
#X connect 22 0 5 0;
#X connect 23 0 24 0;
#X connect 26 0 27 0;
#X connect 27 0 23 0;
