#N canvas 419 302 642 379 10;
#X obj 273 248 outlet;
#X obj 350 121 r \$0-last.state;
#X obj 273 78 route list bang float;
#X obj 273 228 t f f;
#X obj 323 245 s \$0-last.state;
#X obj 314 138 f 0;
#X obj 66 101 r \$0-last.state;
#X obj 60 41 inlet;
#X obj 60 61 route reset;
#X obj 60 81 t b b;
#X obj 500 41 inlet;
#X obj 273 208 r \$0-from.expr;
#X obj 500 61 s \$0-from.expr;
#X obj 500 141 outlet;
#X obj 273 178 s \$0-to.expr;
#X obj 500 121 r \$0-to.expr;
#X obj 66 121 list;
#X msg 60 248 const 1e-38;
#X obj 66 183 list split 100;
#X obj 120 123 loadbang;
#X obj 120 143 f \$2;
#X obj 120 163 sel 0;
#X obj 66 218 array set statesof\$1;
#X obj 60 268 array define -k statesof\$1 \$2;
#A 0 65 58 51 44 37 30 23 16 9 8;
#X connect 1 0 5 1;
#X connect 2 0 14 0;
#X connect 2 1 5 0;
#X connect 2 2 5 0;
#X connect 3 0 0 0;
#X connect 3 1 4 0;
#X connect 5 0 14 0;
#X connect 6 0 16 0;
#X connect 7 0 8 0;
#X connect 8 0 9 0;
#X connect 8 1 2 0;
#X connect 9 0 17 0;
#X connect 9 1 16 1;
#X connect 10 0 12 0;
#X connect 11 0 3 0;
#X connect 15 0 13 0;
#X connect 16 0 18 0;
#X connect 17 0 23 0;
#X connect 18 0 16 1;
#X connect 18 0 22 0;
#X connect 18 2 16 1;
#X connect 18 2 22 0;
#X connect 19 0 20 0;
#X connect 20 0 21 0;
#X connect 21 1 18 1;
