#N canvas 537 124 479 556 10;
#X obj 192 345 mod;
#X obj 103 465 outlet;
#X obj 103 405 +;
#X obj 103 445 +;
#X obj 207 285 text size \$0-scales;
#X obj 227 218 text define -k \$0-scales;
#A set 0 2 4 5 7 9 11 \; 0 2 3 5 7 8 10 \; 0 2 4 5 8 9 11 \; 0 2 3
5 7 8 11 \; 0 2 4 7 9 \; 0 3 5 7 10 \; 0 2 3 7 8 \; 0 1 5 7 8 \; 0
1 5 6 10 \; 0 4 5 9 11 \; 0 4 6 7 11 \; 0 2 4 5 7 9 11 \; 0 3 4 6 7
9 10 \;;
#X obj 103 385 text get \$0-scales;
#X obj 103 365 f;
#X obj 180 265 t f f;
#X obj 207 198 text size \$0-scales;
#X obj 180 95 inlet;
#X obj 180 225 moses;
#X msg 226 242 out of range!;
#X obj 226 262 print error;
#X obj 180 155 f \$1;
#X obj 230 95 inlet;
#X obj 230 155 f \$2;
#X obj 230 175 s \$0-transpose;
#X obj 118 425 r \$0-transpose;
#X obj 270 95 loadbang;
#X obj 270 115 t b b b;
#X text 63 22 quantize an incoming stream of floats to the pitch classes
of a scale. Arguments: \$1 = scale \$2 = transposition;
#X obj 103 222 inlet;
#X obj 103 242 i;
#X obj 207 305 t f f;
#X obj 219 345 div;
#X obj 103 262 t b f f;
#X obj 219 388 * 12;
#X connect 0 0 6 1;
#X connect 2 0 3 0;
#X connect 3 0 1 0;
#X connect 4 0 24 0;
#X connect 6 0 2 0;
#X connect 7 0 6 0;
#X connect 8 0 7 1;
#X connect 8 1 4 0;
#X connect 9 0 11 1;
#X connect 10 0 14 0;
#X connect 11 0 8 0;
#X connect 11 1 12 0;
#X connect 12 0 13 0;
#X connect 14 0 11 0;
#X connect 15 0 16 0;
#X connect 16 0 17 0;
#X connect 18 0 3 1;
#X connect 19 0 20 0;
#X connect 20 0 14 0;
#X connect 20 1 16 0;
#X connect 20 2 9 0;
#X connect 22 0 23 0;
#X connect 23 0 26 0;
#X connect 24 0 0 1;
#X connect 24 1 25 1;
#X connect 25 0 27 0;
#X connect 26 0 7 0;
#X connect 26 1 0 0;
#X connect 26 2 25 0;
#X connect 27 0 2 1;
