#N canvas 16 349 543 378 10;
#X obj 30 186 *;
#X obj 30 227 +;
#X obj 132 169 -;
#X obj 30 247 outlet;
#X obj 30 29 inlet;
#X obj 80 29 inlet;
#X obj 150 29 inlet;
#X obj 210 42 loadbang;
#X text 238 205 - accepts ranges starting from 0;
#X text 238 225 - takes arguments for min and max range;
#X text 238 185 adapted from rh_scalelog with these mods:;
#X text 238 245 - the generated range is linear;
#X obj 80 89 t a a;
#X obj 150 89 t b a;
#X obj 90 59 f \$1;
#X obj 160 59 f \$2;
#X obj 132 129 pack f f;
#X msg 132 149 \$2 \$1;
#X connect 0 0 1 0;
#X connect 1 0 3 0;
#X connect 2 0 0 1;
#X connect 4 0 0 0;
#X connect 5 0 12 0;
#X connect 6 0 13 0;
#X connect 7 0 14 0;
#X connect 7 0 15 0;
#X connect 12 0 16 0;
#X connect 12 1 1 1;
#X connect 13 0 16 0;
#X connect 13 1 16 1;
#X connect 14 0 12 0;
#X connect 15 0 13 0;
#X connect 16 0 17 0;
#X connect 17 0 2 0;
