#N canvas 222 23 936 699 10;
#X declare -path abs;
#X obj 547 304 expr.cell one;
#X obj 547 254 metro 300;
#X obj 627 274 pack f f;
#X obj 627 234 r \$0-x.s;
#X obj 672 254 r \$0-r.s;
#X floatatom 143 169 5 0 0 1 r #0-r.r #0-r.s, f 5;
#X floatatom 143 149 5 0 0 1 x #0-x.r #0-x.s, f 5;
#X obj 547 414 noteout;
#X obj 547 384 makenote 127 300;
#N canvas 0 22 450 278 (subpatch) 0;
#X array \$0-show.one 500 float 2;
#X coords 0 1 500 -1 500 200 1 0 0;
#X restore 27 234 graph;
#X obj 727 361 f;
#X obj 700 341 t f b;
#X obj 757 361 + 1;
#X obj 787 361 mod 500;
#X obj 547 614 noteout;
#X obj 547 584 makenote 127 300;
#X obj 547 504 expr.cell two;
#X obj 143 19 loadbang;
#X obj 143 39 f \$0;
#X obj 123 24 bng 15 250 50 0 empty empty empty 17 7 0 10 -262144 -1
-1;
#X obj 547 484 metro 450;
#X obj 700 391 tabwrite \$0-show.one;
#X obj 723 561 f;
#X obj 696 541 t f b;
#X obj 753 561 + 1;
#X obj 783 561 mod 500;
#N canvas 0 22 450 278 (subpatch) 0;
#X array \$0-show.two 500 float 2;
#X coords 0 1 500 -1 500 200 1 0 0;
#X restore 27 464 graph;
#X obj 696 591 tabwrite \$0-show.two;
#X obj 547 364 f2scale 0 60;
#X obj 273 19 declare -path abs;
#X obj 193 150 tgl 15 0 \$0-go.s \$0-go.r go! 17 7 0 10 -262144 -1
-1 1 1;
#X obj 547 234 r \$0-go.s;
#X obj 547 464 r \$0-go.r;
#X obj 547 564 f2scale 0 48;
#X obj 547 524 t f f;
#X obj 547 324 t f f;
#X obj 643 298 cnv 15 180 30 empty empty empty 20 12 0 14 -261682 -66577
0;
#X obj 647 304 expr 1 - ($f2 * pow($f1 \, 2));
#X obj 643 498 cnv 15 265 30 empty empty empty 20 12 0 14 -261682 -66577
0;
#X obj 647 504 expr (statesofone[0] + statesofone[1]) / 2;
#N canvas 739 174 266 294 DSP 0;
#X obj 96 65 notein;
#X obj 96 85 mtof;
#X obj 96 105 blip16~ 3000;
#X obj 96 175 dac~;
#X obj 96 155 *~ 0.5;
#X connect 0 0 1 0;
#X connect 0 1 2 1;
#X connect 1 0 2 0;
#X connect 2 0 4 0;
#X connect 4 0 3 0;
#X connect 4 0 3 1;
#X restore 273 39 pd DSP;
#X obj 547 344 scale.lin -15 15;
#X obj 547 544 scale.lin 0 20;
#X msg 143 59 \; \$1-r.r 1.93 \; \$1-x.r 0.48 \; \$1-go.r 1 \; pd dsp
1 \;;
#X connect 0 0 35 0;
#X connect 0 1 37 0;
#X connect 1 0 0 0;
#X connect 2 0 0 0;
#X connect 3 0 2 0;
#X connect 4 0 2 1;
#X connect 8 0 7 0;
#X connect 8 1 7 1;
#X connect 10 0 12 0;
#X connect 10 0 21 1;
#X connect 11 0 21 0;
#X connect 11 1 10 0;
#X connect 12 0 13 0;
#X connect 13 0 10 1;
#X connect 15 0 14 0;
#X connect 15 1 14 1;
#X connect 16 0 34 0;
#X connect 16 1 39 0;
#X connect 17 0 18 0;
#X connect 18 0 43 0;
#X connect 19 0 18 0;
#X connect 20 0 16 0;
#X connect 22 0 24 0;
#X connect 22 0 27 1;
#X connect 23 0 27 0;
#X connect 23 1 22 0;
#X connect 24 0 25 0;
#X connect 25 0 22 1;
#X connect 28 0 8 0;
#X connect 31 0 1 0;
#X connect 32 0 20 0;
#X connect 33 0 15 0;
#X connect 34 0 42 0;
#X connect 34 1 23 0;
#X connect 35 0 41 0;
#X connect 35 1 11 0;
#X connect 37 0 0 1;
#X connect 39 0 16 1;
#X connect 41 0 28 0;
#X connect 42 0 33 0;
