#N canvas 57 91 762 658 12;
#N canvas 0 22 450 278 (subpatch) 0;
#X array source 100 float 2;
#X coords 0 1 100 -1 200 140 1;
#X restore 487 389 graph;
#X obj 498 64 bng 15 250 50 0 empty empty empty 17 7 0 10 -262144 -1
-1;
#X obj 496 103 openpanel;
#X obj 496 176 soundfiler;
#X floatatom 498 207 5 0 0 0 - - -;
#X obj 497 234 s sourcesize;
#X obj 311 198 hsl 128 15 0 1 0 0 empty empty empty -2 -8 0 10 -262144
-1 -1 0 1;
#X floatatom 308 218 5 0 0 0 - - -;
#X msg 496 138 read -resize \$1 source;
#X obj 204 84 r sourcesize;
#X obj 204 110 t f b;
#X obj 231 148 samplerate~;
#X obj 192 153 /;
#X obj 203 191 * 1000;
#X floatatom 203 215 5 0 0 0 - - -;
#X obj 308 241 t b f;
#X obj 203 238 *;
#X floatatom 203 262 5 0 0 0 - - -;
#X obj 101 344 tabplay~ source;
#X obj 198 452 dac~;
#X obj 294 361 hsl 128 15 0 127 0 0 empty empty empty -2 -8 0 10 -262144
-1 -1 0 1;
#X floatatom 291 381 5 0 0 0 - - -;
#X msg 291 404 \$1 20;
#X obj 291 428 line~;
#X obj 203 408 *~;
#X obj 104 309 metro 5000;
#X obj 97 273 tgl 15 0 empty empty empty 17 7 0 10 -262144 -1 -1 0
1;
#X connect 1 0 2 0;
#X connect 2 0 8 0;
#X connect 3 0 4 0;
#X connect 4 0 5 0;
#X connect 6 0 7 0;
#X connect 7 0 15 0;
#X connect 8 0 3 0;
#X connect 9 0 10 0;
#X connect 10 0 12 0;
#X connect 10 1 11 0;
#X connect 11 0 12 1;
#X connect 12 0 13 0;
#X connect 13 0 14 0;
#X connect 14 0 16 0;
#X connect 15 0 16 0;
#X connect 15 1 16 1;
#X connect 16 0 17 0;
#X connect 17 0 25 1;
#X connect 18 0 24 0;
#X connect 20 0 21 0;
#X connect 21 0 22 0;
#X connect 22 0 23 0;
#X connect 23 0 24 1;
#X connect 24 0 19 0;
#X connect 24 0 19 1;
#X connect 25 0 18 0;
#X connect 26 0 25 0;
