#N canvas 547 56 862 604 12;
#X obj 605 549 dac~;
#X obj 599 523 *~;
#X obj 631 523 *~;
#X obj 676 500 line~;
#X obj 679 455 hsl 128 15 0 1 0 0 empty empty empty -2 -8 0 10 -262144
-33289 -1 0 1;
#X msg 676 478 \$1 50;
#X msg 445 77 read -resize \$1 array1;
#X obj 445 100 soundfiler;
#X obj 445 49 openpanel;
#X obj 445 31 bng 15 250 50 0 empty empty empty 17 7 0 10 -262144 -1
-1;
#X msg 515 49 open transparent.wav;
#X obj 515 27 loadbang;
#X obj 445 151 samplerate~;
#X obj 445 124 t b f;
#X obj 445 175 /;
#X floatatom 445 199 5 0 0 0 - - -;
#X obj 445 222 phasor~;
#X obj 445 246 *~;
#X obj 445 270 tabread4~ array1;
#X obj 444 295 s~ tabSp;
#N canvas 0 50 450 250 (subpatch) 0;
#X array array1 29877 float 2;
#X coords 0 1 29877 -1 200 140 1;
#X restore 23 19 graph;
#X text 407 71 #1;
#X text 411 217 #2;
#X obj 86 259 r~ tabSp;
#X text 73 235 frq - Q - Temps en ms - frqModu;
#X obj 462 333 r~ tabSp;
#X obj 71 316 multiBandDelay~ 1500 7 450 4;
#X obj 50 349 multiBandDelay~ 500 6 100 6;
#X obj 476 361 multiBandDelay~ 100 8 300 1;
#X obj 86 287 multiBandDelay~ 3000 12 200 2;
#X obj 460 415 multiBandDelay~ 600 10 1000 10;
#X obj 469 388 multiBandDelay~ 4000 12 800 6;
#X connect 1 0 0 0;
#X connect 2 0 0 1;
#X connect 3 0 1 1;
#X connect 3 0 2 1;
#X connect 4 0 5 0;
#X connect 5 0 3 0;
#X connect 6 0 7 0;
#X connect 7 0 13 0;
#X connect 8 0 6 0;
#X connect 9 0 8 0;
#X connect 10 0 6 0;
#X connect 11 0 10 0;
#X connect 12 0 14 0;
#X connect 13 0 12 0;
#X connect 13 1 14 1;
#X connect 13 1 17 1;
#X connect 14 0 15 0;
#X connect 15 0 16 0;
#X connect 16 0 17 0;
#X connect 17 0 18 0;
#X connect 18 0 19 0;
#X connect 23 0 26 0;
#X connect 23 0 27 0;
#X connect 23 0 29 0;
#X connect 25 0 28 0;
#X connect 25 0 30 0;
#X connect 25 0 31 0;
#X connect 26 0 1 0;
#X connect 27 0 1 0;
#X connect 28 0 2 0;
#X connect 29 0 1 0;
#X connect 30 0 2 0;
#X connect 31 0 2 0;
