#N canvas 666 83 869 529 12;
#X obj 80 217 inlet~ src;
#X floatatom 116 152 5 0 0 0 - - -;
#X floatatom 163 152 5 0 0 0 - - -;
#X obj 163 124 \$2;
#X obj 116 125 \$1;
#X text 111 101 frq;
#X text 167 99 Q;
#X obj 204 45 loadbang;
#X obj 372 125 \$4;
#X text 375 99 freqMod;
#X floatatom 372 150 5 0 0 0 - - -;
#X obj 372 173 osc~;
#X obj 372 196 *~ 0.5;
#X obj 372 219 +~ 0.5;
#X obj 81 341 *~;
#X obj 81 371 outlet~;
#X obj 81 252 bp~;
#X obj 231 152 mstosamps~;
#X obj 81 288 delay~ 22000 0;
#X obj 231 128 \$3;
#X text 229 102 temps en ms;
#X connect 0 0 16 0;
#X connect 1 0 16 1;
#X connect 2 0 16 2;
#X connect 3 0 2 0;
#X connect 4 0 1 0;
#X connect 7 0 3 0;
#X connect 7 0 4 0;
#X connect 7 0 8 0;
#X connect 7 0 19 0;
#X connect 8 0 10 0;
#X connect 10 0 11 0;
#X connect 11 0 12 0;
#X connect 12 0 13 0;
#X connect 13 0 14 1;
#X connect 14 0 15 0;
#X connect 16 0 18 0;
#X connect 17 0 18 1;
#X connect 18 0 14 0;
#X connect 19 0 17 0;
