#N canvas 93 116 1081 599 10;
#X msg 144 73 bang;
#X floatatom 144 117 8 0 0 0 - - -;
#X obj 144 95 expr random(-100 \, 100) * 0.0001 + 1;
#X text 189 74 légère déviation autour de 1;
#X msg 30 41 bang;
#X obj 30 63 random 200;
#X obj 30 85 - 100;
#X obj 30 107 * 0.0001;
#X obj 30 129 + 1;
#X floatatom 30 153 8 0 0 0 - - -;
#X text 94 95 ----->;
#X text 6 7 Les expressions en data.;
#X obj 528 102 expr 8.1758 * pow(1.0594633 \, $i1);
#X floatatom 528 81 5 0 0 0 - - -;
#X floatatom 528 127 8 0 0 0 - - -;
#X text 573 81 conversion midi -> Hz;
#X floatatom 418 41 5 0 0 0 - - -;
#X floatatom 418 152 8 0 0 0 - - -;
#X obj 418 60 t b f;
#X obj 418 105 pow;
#X msg 418 82 1.05946;
#X obj 418 127 * 8.1758;
#X text 480 104 ----->;
#X floatatom 130 219 5 0 0 0 - - -;
#X floatatom 130 264 8 0 0 0 - - -;
#X obj 130 240 expr pow(2 \, $f1 / 12);
#X text 175 218 midi -> transpo;
#X floatatom 31 186 5 0 0 0 - - -;
#X floatatom 31 297 8 0 0 0 - - -;
#X obj 31 205 / 12;
#X obj 31 227 t b f;
#X msg 31 249 2;
#X obj 31 271 pow;
#X text 80 241 ----->;
#X obj 511 260 expr ($f1+$f2+$f3+$f4) * 0.25;
#X floatatom 511 242 5 0 0 0 - - -;
#X floatatom 577 242 5 0 0 0 - - -;
#X floatatom 644 242 5 0 0 0 - - -;
#X floatatom 711 242 5 0 0 0 - - -;
#X floatatom 511 284 8 0 0 0 - - -;
#X text 544 221 moyenne d'un ensemble;
#X floatatom 351 191 5 0 0 0 - - -;
#X floatatom 395 191 5 0 0 0 - - -;
#X obj 351 214 +;
#X obj 351 236 +;
#X obj 351 258 +;
#X obj 351 280 * 0.25;
#X floatatom 439 191 5 0 0 0 - - -;
#X floatatom 483 191 5 0 0 0 - - -;
#X floatatom 351 303 8 0 0 0 - - -;
#X text 459 261 ----->;
#N canvas 0 0 450 300 (subpatch) 0;
#X array values 12 float 3;
#A 0 0.0142855 0.299996 0.557136 0.571422 0.428566 0.0714277 -0.328567
-0.614278 -0.714277 -0.699991 -0.457137 -0.0999987;
#X coords 0 1 12 -1 200 140 1;
#X restore 229 410 graph;
#X obj 26 472 expr $s2[$f1];
#X msg 114 447 symbol values;
#X obj 114 421 loadbang;
#X floatatom 26 451 5 0 11 0 - - -;
#X floatatom 26 496 8 0 0 0 - - -;
#X text 52 376 $s# permet de spécifier le nom d'un array;
#N canvas 0 0 450 300 (subpatch) 0;
#X array wave 512 float 2;
#X coords 0 1 511 -1 200 140 1;
#X restore 831 276 graph;
#X msg 502 378 bang;
#X obj 502 562 tabwrite wave;
#X floatatom 701 504 5 0 0 0 - - -;
#X obj 502 447 until;
#X msg 502 424 512;
#X obj 502 474 f;
#X obj 535 474 + 1;
#X floatatom 502 496 5 0 0 0 - - -;
#X obj 502 400 t b b;
#X msg 550 447 0;
#X obj 502 515 t f f;
#X text 571 503 nombre de périodes;
#X obj 701 459 loadbang;
#X msg 701 481 2;
#X text 603 433 Calcul des échantillons à écrire dans un array;
#X obj 502 539 expr atan2(sin($f1/511*3.14159*2*$f2) \, 1-$f3) * 0.5
;
#X floatatom 876 504 5 0 1 0 - - -;
#X obj 876 459 loadbang;
#X text 755 504 distortion (0->1);
#X msg 876 481 0.9;
#X text 540 379 Générer l'écriture dans l'array;
#X connect 0 0 2 0;
#X connect 2 0 1 0;
#X connect 4 0 5 0;
#X connect 5 0 6 0;
#X connect 6 0 7 0;
#X connect 7 0 8 0;
#X connect 8 0 9 0;
#X connect 12 0 14 0;
#X connect 13 0 12 0;
#X connect 16 0 18 0;
#X connect 18 0 20 0;
#X connect 18 1 19 1;
#X connect 19 0 21 0;
#X connect 20 0 19 0;
#X connect 21 0 17 0;
#X connect 23 0 25 0;
#X connect 25 0 24 0;
#X connect 27 0 29 0;
#X connect 29 0 30 0;
#X connect 30 0 31 0;
#X connect 30 1 32 1;
#X connect 31 0 32 0;
#X connect 32 0 28 0;
#X connect 34 0 39 0;
#X connect 35 0 34 0;
#X connect 36 0 34 1;
#X connect 37 0 34 2;
#X connect 38 0 34 3;
#X connect 41 0 43 0;
#X connect 42 0 43 1;
#X connect 43 0 44 0;
#X connect 44 0 45 0;
#X connect 45 0 46 0;
#X connect 46 0 49 0;
#X connect 47 0 44 1;
#X connect 48 0 45 1;
#X connect 52 0 56 0;
#X connect 53 0 52 1;
#X connect 54 0 53 0;
#X connect 55 0 52 0;
#X connect 59 0 67 0;
#X connect 61 0 74 1;
#X connect 62 0 64 0;
#X connect 63 0 62 0;
#X connect 64 0 65 0;
#X connect 64 0 66 0;
#X connect 65 0 64 1;
#X connect 66 0 69 0;
#X connect 67 0 63 0;
#X connect 67 1 68 0;
#X connect 68 0 64 1;
#X connect 69 0 74 0;
#X connect 69 1 60 1;
#X connect 71 0 72 0;
#X connect 72 0 61 0;
#X connect 74 0 60 0;
#X connect 75 0 74 2;
#X connect 76 0 78 0;
#X connect 78 0 75 0;
