#N canvas 245 109 683 558 10;
#X obj 29 97 expr~ $v1 * ($v2 * 0.5 + 0.5);
#N canvas 0 0 450 300 (subpatch) 0;
#X array view1 64 float 2;
#X coords 0 1 64 -1 200 140 1;
#X restore 334 34 graph;
#X obj 29 122 tabsend~ view1;
#X obj 228 73 osc~ 100;
#X obj 30 72 osc~ 2000;
#N canvas 0 0 450 300 (subpatch) 0;
#X array view2 64 float 2;
#X coords 0 1 63 -1 200 140 1;
#X restore 333 198 graph;
#X obj 135 278 tabsend~ view2;
#X obj 135 253 expr~ abs($v1);
#X obj 136 228 osc~ 800;
#N canvas 0 0 450 300 (subpatch) 0;
#X array view3 64 float 2;
#X coords 0 1 63 -1 200 140 1;
#X restore 331 363 graph;
#X obj 47 472 tabsend~ view3;
#X text 5 8 Les expressions sur des vecteurs audio.;
#X obj 47 447 expr~ max(min($v1 \, $f2) \, -$f2);
#X floatatom 254 428 5 0 0 0 - - -;
#X obj 158 413 hsl 128 15 0 1 0 0 empty empty empty -2 -8 0 10 -262144
-1 -1 8890 1;
#X obj 155 369 loadbang;
#X msg 155 391 0.7;
#X text 28 53 Modulation d'amplitude;
#X text 134 209 Rectification positive;
#X text 45 399 hard clipping;
#X obj 48 422 osc~ 1000;
#X connect 0 0 2 0;
#X connect 3 0 0 1;
#X connect 4 0 0 0;
#X connect 7 0 6 0;
#X connect 8 0 7 0;
#X connect 12 0 10 0;
#X connect 13 0 12 1;
#X connect 14 0 13 0;
#X connect 15 0 16 0;
#X connect 16 0 14 0;
#X connect 20 0 12 0;
