#N canvas 61 76 1273 634 10;
#X obj 183 244 noise~;
#X floatatom 503 226 8 0 1 0 - - -;
#X obj 503 245 sig~;
#X text 915 250 fréquence de coupure en Hz;
#X obj 183 306 spectre~;
#X obj 83 410 dac~;
#X obj 18 281 hsl 128 15 0 1 0 0 empty empty Gain -2 -8 0 10 -262144
-1 -1 0 1;
#X floatatom 15 301 8 0 0 0 - - -;
#X msg 15 320 \$1 25;
#X obj 15 342 line~;
#X obj 84 379 *~;
#X obj 908 185 loadbang;
#X msg 908 230 1000;
#X obj 183 267 fexpr~ $x1[0] * (1 - $x2[0]) + $y[-1] * $x2[0];
#X text 280 225 gain de l'échantillon de retour;
#X text 7 1 Design de filtre IIR avec l'objet fexpr~;
#X text 7 32 Pour un filtre passe-bas IIR de premier ordre \, nous
aurions l'équation suivante:;
#X text 25 72 y[n] = x[n] * (1 - g) + y[n-1] * g;
#X text 9 98 où:;
#X text 25 133 y[n] = échantillon de sortie;
#X text 25 118 x[n] = échantillon d'entrée;
#X text 25 150 y[-1] = échantillon de sortie précédent;
#X obj 503 182 loadbang;
#X msg 503 204 0.9;
#X text 25 166 g = le gain de l'échantillon réinjecté entre 0 et
1;
#X text 604 6 "g" détermine la fréquence de coupure en réinjectant
plus ou moins fort l'échantillon de sortie dans le filtre. L'équation
suivante permet de déterminer la valeur de "g" en fonction d'une fréquence
de coupure en Hz:;
#X text 642 73 b = 2 - cos(pi * fc / sr);
#X text 641 90 c2 = b - sqrt(b * b - 1);
#X text 641 107 c1 = 1 - c2;
#X text 641 184 c2 = gain de l'échantillon réinjecté;
#X text 641 201 c1 = gain de l'échantillon courant;
#X text 640 153 fc = fréquence de coupure;
#X text 641 168 sr = fréquence d'échantillonnage;
#X text 609 131 où:;
#X obj 1171 250 samplerate~;
#X obj 908 313 clip~ 1 20000;
#X obj 996 291 / 2;
#X obj 908 352 expr~ 2 - cos(2 * 3.14159 * $v1 / $f2);
#X obj 908 382 expr~ $v1 - sqrt($v1 * $v1 - 1.0);
#X text 950 336 calcul des coefficients;
#X obj 908 207 t b b;
#X obj 590 378 noise~;
#X obj 517 486 dac~;
#X obj 520 325 hsl 128 15 0 1 0 0 empty empty Gain -2 -8 0 10 -262144
-1 -1 0 1;
#X floatatom 517 345 8 0 0 0 - - -;
#X msg 517 364 \$1 25;
#X obj 517 386 line~;
#X obj 518 455 *~;
#X obj 589 443 spectre~;
#X floatatom 908 291 5 0 0 0 - - -;
#X obj 911 267 hsl 128 15 20 20000 1 0 empty empty empty -2 -8 0 10
-262144 -1 -1 9100 1;
#X obj 590 406 fexpr~ $x1[0] * (1 - $x2[0]) + $y[-1] * $x2[0];
#X text 17 497 Cet objet offre jusqu'à la taille du "block size" en
échantillons passés \, en entrée comme en sortie. Il est donc possible
de créer des filtres très complexe à l'intérieur d'un seul objet!
Consulter la documentation pour le détail de la syntaxe.;
#X connect 0 0 13 0;
#X connect 1 0 2 0;
#X connect 2 0 13 1;
#X connect 6 0 7 0;
#X connect 7 0 8 0;
#X connect 8 0 9 0;
#X connect 9 0 10 0;
#X connect 10 0 5 0;
#X connect 10 0 5 1;
#X connect 11 0 40 0;
#X connect 12 0 50 0;
#X connect 13 0 4 0;
#X connect 13 0 10 1;
#X connect 22 0 23 0;
#X connect 23 0 1 0;
#X connect 34 0 36 0;
#X connect 34 0 37 1;
#X connect 35 0 37 0;
#X connect 36 0 35 2;
#X connect 37 0 38 0;
#X connect 38 0 51 1;
#X connect 40 0 12 0;
#X connect 40 1 34 0;
#X connect 41 0 51 0;
#X connect 43 0 44 0;
#X connect 44 0 45 0;
#X connect 45 0 46 0;
#X connect 46 0 47 0;
#X connect 47 0 42 0;
#X connect 47 0 42 1;
#X connect 49 0 35 0;
#X connect 50 0 49 0;
#X connect 51 0 48 0;
#X connect 51 0 47 1;
