#N canvas 199 114 483 393 10;
#X floatatom 173 68 5 0 0 0 - - -;
#X floatatom 218 68 5 0 0 0 - - -;
#X floatatom 263 68 5 0 0 0 - - -;
#X obj 195 109 bondo 3;
#X text 173 52 min;
#X text 218 52 pas;
#X text 263 52 max;
#X msg 62 66 bang;
#X obj 129 218 +;
#X obj 78 244 t f f;
#X obj 157 273 >;
#X floatatom 157 327 5 0 0 0 - - -;
#X obj 108 66 r reset;
#X obj 286 111 bondo;
#X obj 286 133 >=;
#X obj 286 155 + 1;
#X obj 78 135 gate 2;
#X obj 212 245 t f f;
#X obj 224 302 sel 1;
#X obj 224 325 s reset;
#X obj 78 218 f;
#X obj 212 219 f;
#X obj 263 219 -;
#X obj 308 273 <;
#X text 318 149 le compte descend;
#X text 318 135 Si min >= max;
#X obj 263 245 t f f;
#X obj 129 244 t f f;
#X text 9 5 Un compteur bi-directionnel "maison".;
#X connect 0 0 3 0;
#X connect 0 0 13 0;
#X connect 1 0 3 1;
#X connect 2 0 3 2;
#X connect 2 0 13 1;
#X connect 3 0 20 1;
#X connect 3 0 21 1;
#X connect 3 1 8 1;
#X connect 3 1 22 1;
#X connect 3 2 10 1;
#X connect 3 2 23 1;
#X connect 7 0 16 1;
#X connect 8 0 27 0;
#X connect 9 0 11 0;
#X connect 9 1 8 0;
#X connect 10 0 18 0;
#X connect 12 0 3 0;
#X connect 13 0 14 0;
#X connect 13 1 14 1;
#X connect 14 0 15 0;
#X connect 15 0 16 0;
#X connect 16 0 20 0;
#X connect 16 1 21 0;
#X connect 17 0 11 0;
#X connect 17 1 22 0;
#X connect 18 0 19 0;
#X connect 20 0 9 0;
#X connect 21 0 17 0;
#X connect 22 0 26 0;
#X connect 23 0 18 0;
#X connect 26 0 23 0;
#X connect 26 1 21 1;
#X connect 27 0 10 0;
#X connect 27 1 20 1;
