#N canvas 400 111 771 372 10;
#X floatatom -32 250 5 0 0 0 - - -;
#X obj -104 46 tgl 15 0 empty empty empty 17 7 0 10 -262144 -1 -1 1
1;
#X obj -32 179 metro 500;
#X obj -32 226 fcounter;
#X obj 28 88 random 100;
#X obj 28 110 < 50;
#X obj 28 132 sel 1;
#X obj 21 248 s end_v_1;
#X obj 28 66 r end_v_1;
#X obj -32 156 r start;
#X obj -104 66 s start;
#X floatatom 189 248 5 0 0 0 - - -;
#X obj 189 225 fcounter;
#X obj 189 292 makenote 100 500;
#X obj 189 315 noteout;
#X obj 249 89 random 100;
#X obj 249 111 < 50;
#X obj 249 133 sel 1;
#X obj 189 156 r start;
#X obj 242 248 s end_v_2;
#X obj 249 67 r end_v_2;
#X obj 189 178 metro 125;
#N canvas 1 80 371 343 values 0;
#X obj 102 25 r end_v_1;
#X obj 102 69 sel 0 1 2 3;
#X msg 102 93 36 4 48;
#X msg 120 115 48 3 60;
#X msg 139 136 48 2 40;
#X msg 157 158 55 3 46;
#X obj 102 181 unpack f f f;
#X obj 102 245 outlet to_min;
#X obj 142 224 outlet to_pas;
#X obj 183 203 outlet to_max;
#X obj 102 47 random 12;
#X connect 0 0 10 0;
#X connect 1 0 2 0;
#X connect 1 1 3 0;
#X connect 1 2 4 0;
#X connect 1 3 5 0;
#X connect 2 0 6 0;
#X connect 3 0 6 0;
#X connect 4 0 6 0;
#X connect 5 0 6 0;
#X connect 6 0 7 0;
#X connect 6 1 8 0;
#X connect 6 2 9 0;
#X connect 10 0 1 0;
#X restore -15 201 pd values;
#N canvas 1 79 355 308 values 0;
#X obj 102 69 sel 0 1 2 3;
#X obj 102 181 unpack f f f;
#X obj 102 245 outlet to_min;
#X obj 142 224 outlet to_pas;
#X obj 183 203 outlet to_max;
#X obj 102 25 r end_v_2;
#X msg 102 93 60 4 72;
#X msg 120 115 72 3 84;
#X msg 139 136 60 2 52;
#X msg 157 158 67 3 58;
#X obj 102 47 random 12;
#X connect 0 0 6 0;
#X connect 0 1 7 0;
#X connect 0 2 8 0;
#X connect 0 3 9 0;
#X connect 1 0 2 0;
#X connect 1 1 3 0;
#X connect 1 2 4 0;
#X connect 5 0 10 0;
#X connect 6 0 1 0;
#X connect 7 0 1 0;
#X connect 8 0 1 0;
#X connect 9 0 1 0;
#X connect 10 0 0 0;
#X restore 206 200 pd values;
#X obj 249 156 fcounter 125 125 375;
#X obj 28 156 fcounter 250 250 500;
#X floatatom 409 247 5 0 0 0 - - -;
#X obj 409 224 fcounter;
#X obj 469 89 random 100;
#X obj 469 111 < 50;
#X obj 469 133 sel 1;
#X obj 409 156 r start;
#X obj 409 178 metro 125;
#N canvas 1 79 355 308 values 0;
#X obj 102 69 sel 0 1 2 3;
#X obj 102 181 unpack f f f;
#X obj 102 245 outlet to_min;
#X obj 142 224 outlet to_pas;
#X obj 183 203 outlet to_max;
#X obj 102 25 r end_v_2;
#X msg 102 93 60 4 72;
#X msg 120 115 72 3 84;
#X msg 139 136 60 2 52;
#X msg 157 158 67 3 58;
#X obj 102 47 random 12;
#X connect 0 0 6 0;
#X connect 0 1 7 0;
#X connect 0 2 8 0;
#X connect 0 3 9 0;
#X connect 1 0 2 0;
#X connect 1 1 3 0;
#X connect 1 2 4 0;
#X connect 5 0 10 0;
#X connect 6 0 1 0;
#X connect 7 0 1 0;
#X connect 8 0 1 0;
#X connect 9 0 1 0;
#X connect 10 0 0 0;
#X restore 426 200 pd values;
#X obj 469 156 fcounter 125 125 375;
#X obj 462 246 s end_v_3;
#X obj 469 67 r end_v_3;
#X text -87 44 go!;
#X text -107 4 Petit contrepoint frénétique.;
#X connect 0 0 13 0;
#X connect 1 0 10 0;
#X connect 2 0 3 0;
#X connect 3 0 0 0;
#X connect 3 1 7 0;
#X connect 4 0 5 0;
#X connect 5 0 6 0;
#X connect 6 0 25 0;
#X connect 8 0 4 0;
#X connect 9 0 2 0;
#X connect 11 0 13 0;
#X connect 12 0 11 0;
#X connect 12 1 19 0;
#X connect 13 0 14 0;
#X connect 13 1 14 1;
#X connect 15 0 16 0;
#X connect 16 0 17 0;
#X connect 17 0 24 0;
#X connect 18 0 21 0;
#X connect 20 0 15 0;
#X connect 21 0 12 0;
#X connect 22 0 3 1;
#X connect 22 1 3 2;
#X connect 22 2 3 3;
#X connect 23 0 12 1;
#X connect 23 1 12 2;
#X connect 23 2 12 3;
#X connect 24 0 21 1;
#X connect 25 0 2 1;
#X connect 26 0 13 0;
#X connect 27 0 26 0;
#X connect 27 1 35 0;
#X connect 28 0 29 0;
#X connect 29 0 30 0;
#X connect 30 0 34 0;
#X connect 31 0 32 0;
#X connect 32 0 27 0;
#X connect 33 0 27 1;
#X connect 33 1 27 2;
#X connect 33 2 27 3;
#X connect 34 0 32 1;
#X connect 36 0 28 0;
