#N canvas 1 76 410 219 10;
#N canvas 1 75 441 379 exercice_2_expressions 0;
#X obj 35 44 expr 1 / $f1 * 1000;
#X floatatom 35 24 5 0 0 0 - - -;
#X floatatom 35 66 5 0 0 0 - - -;
#X text 74 66 ms;
#X text 75 25 Hz;
#X floatatom 34 144 7 0 0 0 - - -;
#X msg 34 99 bang;
#X obj 34 122 expr random(0 \, 10000) * 0.0001;
#X floatatom 34 181 5 0 0 0 - - -;
#X floatatom 34 223 5 0 0 0 - - -;
#X obj 34 201 expr $f1 * (1 + (random(0 \, 200) - 100) * 0.0001);
#X floatatom 34 261 5 0 0 0 - - -;
#X floatatom 34 303 5 0 0 0 - - -;
#X obj 34 281 expr sqrt($f1*$f1 + $f2*$f2);
#X floatatom 227 262 5 0 0 0 - - -;
#X connect 0 0 2 0;
#X connect 1 0 0 0;
#X connect 6 0 7 0;
#X connect 7 0 5 0;
#X connect 8 0 10 0;
#X connect 10 0 9 0;
#X connect 11 0 13 0;
#X connect 13 0 12 0;
#X connect 14 0 13 1;
#X restore 14 62 pd exercice_2_expressions;
#N canvas 1 76 458 383 exercice_3_conditions 0;
#X obj 35 54 expr if ($f1 <= 64 \, $f1 \, -1);
#X floatatom 35 35 5 0 0 0 - - -;
#X floatatom 35 76 5 0 0 0 - - -;
#X floatatom 36 111 5 0 0 0 - - -;
#X floatatom 36 152 5 0 0 0 - - -;
#X obj 36 130 expr if ($f1 % 2 == 0 \, $f1 \, $f1+1);
#X floatatom 37 178 5 0 0 0 - - -;
#X floatatom 37 219 5 0 0 0 - - -;
#X floatatom 175 178 5 0 0 0 - - -;
#X floatatom 314 178 5 0 0 0 - - -;
#X obj 37 197 expr if ($f1 == $f2 && $f1 == $f3 \, 1 \, 0);
#X floatatom 37 252 5 0 0 0 - - -;
#X floatatom 37 293 5 0 0 0 - - -;
#X obj 37 271 expr if ($f1 >= 36 && $f1 <= 84 && $f2 == 1 \, $f1 \,
-1);
#X obj 405 252 tgl 15 0 empty empty empty 17 7 0 10 -262144 -1 -1 0
1;
#X connect 0 0 2 0;
#X connect 1 0 0 0;
#X connect 3 0 5 0;
#X connect 5 0 4 0;
#X connect 6 0 10 0;
#X connect 8 0 10 1;
#X connect 9 0 10 2;
#X connect 10 0 7 0;
#X connect 11 0 13 0;
#X connect 13 0 12 0;
#X connect 14 0 13 1;
#X restore 14 86 pd exercice_3_conditions;
#N canvas 428 135 574 236 exercice_1_horloge 0;
#X obj 94 51 tgl 15 0 empty empty empty 17 7 0 10 -262144 -1 -1 0 1
;
#X floatatom 168 108 5 0 0 0 - - -;
#X floatatom 130 108 5 0 0 0 - - -;
#X floatatom 92 108 5 0 0 0 - - -;
#X floatatom 54 108 5 0 0 0 - - -;
#X msg 161 50 reset;
#N canvas 1 75 814 267 horloge 0;
#X obj 546 63 metro 1;
#X obj 546 168 counter 0 999;
#X obj 374 143 sel 0;
#X obj 374 168 counter 0 59;
#X obj 195 143 sel 0;
#X obj 195 166 counter 0 59;
#X obj 33 141 sel 0;
#X obj 33 165 counter 0 23;
#X obj 414 47 loadbang;
#X msg 414 69 bang;
#X obj 546 39 inlet start/pause;
#X obj 670 89 inlet reset;
#X obj 33 188 outlet heures;
#X obj 195 190 outlet minutes;
#X obj 374 192 outlet secondes;
#X obj 546 192 outlet ms;
#X connect 0 0 1 0;
#X connect 1 0 2 0;
#X connect 1 0 15 0;
#X connect 2 0 3 0;
#X connect 3 0 4 0;
#X connect 3 0 14 0;
#X connect 4 0 5 0;
#X connect 5 0 6 0;
#X connect 5 0 13 0;
#X connect 6 0 7 0;
#X connect 7 0 12 0;
#X connect 8 0 9 0;
#X connect 9 0 1 2;
#X connect 9 0 3 2;
#X connect 9 0 5 2;
#X connect 9 0 7 2;
#X connect 10 0 0 0;
#X connect 11 0 9 0;
#X restore 94 74 pd horloge;
#X msg 264 149 0 : 0 : 13 : 188;
#X obj 432 102 t b f;
#X obj 264 127 sprintf set %d : %d : %d : %d;
#X obj 264 52 tgl 15 0 empty empty empty 17 7 0 10 -262144 -1 -1 0
1;
#X msg 331 51 reset;
#N canvas 1 75 814 267 horloge 0;
#X obj 546 63 metro 1;
#X obj 546 168 counter 0 999;
#X obj 374 143 sel 0;
#X obj 374 168 counter 0 59;
#X obj 195 143 sel 0;
#X obj 195 166 counter 0 59;
#X obj 33 141 sel 0;
#X obj 33 165 counter 0 23;
#X obj 414 47 loadbang;
#X msg 414 69 bang;
#X obj 546 39 inlet start/pause;
#X obj 670 89 inlet reset;
#X obj 33 188 outlet heures;
#X obj 195 190 outlet minutes;
#X obj 374 192 outlet secondes;
#X obj 546 192 outlet ms;
#X connect 0 0 1 0;
#X connect 1 0 2 0;
#X connect 1 0 15 0;
#X connect 2 0 3 0;
#X connect 3 0 4 0;
#X connect 3 0 14 0;
#X connect 4 0 5 0;
#X connect 5 0 6 0;
#X connect 5 0 13 0;
#X connect 6 0 7 0;
#X connect 7 0 12 0;
#X connect 8 0 9 0;
#X connect 9 0 1 2;
#X connect 9 0 3 2;
#X connect 9 0 5 2;
#X connect 9 0 7 2;
#X connect 10 0 0 0;
#X connect 11 0 9 0;
#X restore 264 75 pd horloge;
#X text 262 169 Affichage plus élégant!;
#X connect 0 0 6 0;
#X connect 5 0 6 1;
#X connect 6 0 4 0;
#X connect 6 1 3 0;
#X connect 6 2 2 0;
#X connect 6 3 1 0;
#X connect 8 0 9 0;
#X connect 8 1 9 3;
#X connect 9 0 7 0;
#X connect 10 0 12 0;
#X connect 11 0 12 1;
#X connect 12 0 9 0;
#X connect 12 1 9 1;
#X connect 12 2 9 2;
#X connect 12 3 8 0;
#X restore 14 38 pd exercice_1_horloge;
#X text 13 7 Exercices du chapitre 6;
