#N canvas 496 265 569 403 10;
#X floatatom 189 75 5 0 0 0 - - -;
#X floatatom 234 75 5 0 0 0 - - -;
#X floatatom 279 75 5 0 0 0 - - -;
#X obj 211 116 bondo 3;
#X text 199 59 min;
#X text 244 59 pas;
#X text 293 59 max;
#X msg 58 73 bang;
#X obj 145 225 +;
#X obj 94 251 t f f;
#X obj 173 280 >;
#X floatatom 173 334 5 0 0 0 - - -;
#X obj 302 118 bondo;
#X obj 302 140 >=;
#X obj 302 162 + 1;
#X obj 94 142 gate 2;
#X obj 228 252 t f f;
#X obj 240 309 sel 1;
#X obj 94 225 f;
#X obj 228 226 f;
#X obj 279 226 -;
#X obj 324 280 <;
#X text 334 156 le compte descend;
#X text 334 142 Si min >= max;
#X obj 279 252 t f f;
#X obj 145 251 t f f;
#X obj 58 31 inlet bang;
#X obj 161 31 inlet min;
#X obj 234 31 inlet pas;
#X obj 306 31 inlet max;
#X obj 173 374 outlet count;
#X obj 240 353 outlet bang_end_of_cycle;
#X obj 104 73 r \$0-reset;
#X obj 279 331 s \$0-reset;
#N canvas 1 75 566 288 arguments 0;
#X obj 122 28 loadbang;
#X obj 19 62 f \$1;
#X obj 19 121 outlet to_min;
#X obj 122 83 expr if ($f1 == 0 \, 1 \, $f1);
#X obj 122 61 f \$2;
#X obj 122 121 outlet to_pas;
#X obj 315 121 outlet to_max;
#X obj 315 61 f \$3;
#X obj 315 83 expr if ($f1 == 0 \, 10 \, $f1);
#X text 31 106 default = 0;
#X text 135 106 default = 1;
#X text 320 106 default = 10;
#X connect 0 0 1 0;
#X connect 0 0 4 0;
#X connect 0 0 7 0;
#X connect 1 0 2 0;
#X connect 3 0 5 0;
#X connect 4 0 3 0;
#X connect 7 0 8 0;
#X connect 8 0 6 0;
#X restore 208 11 pd arguments;
#X connect 0 0 3 0;
#X connect 0 0 12 0;
#X connect 1 0 3 1;
#X connect 2 0 3 2;
#X connect 2 0 12 1;
#X connect 3 0 18 1;
#X connect 3 0 19 1;
#X connect 3 1 8 1;
#X connect 3 1 20 1;
#X connect 3 2 10 1;
#X connect 3 2 21 1;
#X connect 7 0 15 1;
#X connect 8 0 25 0;
#X connect 9 0 11 0;
#X connect 9 1 8 0;
#X connect 10 0 17 0;
#X connect 11 0 30 0;
#X connect 12 0 13 0;
#X connect 12 1 13 1;
#X connect 13 0 14 0;
#X connect 14 0 15 0;
#X connect 15 0 18 0;
#X connect 15 1 19 0;
#X connect 16 0 11 0;
#X connect 16 1 20 0;
#X connect 17 0 31 0;
#X connect 17 0 33 0;
#X connect 18 0 9 0;
#X connect 19 0 16 0;
#X connect 20 0 24 0;
#X connect 21 0 17 0;
#X connect 24 0 21 0;
#X connect 24 1 19 1;
#X connect 25 0 10 0;
#X connect 25 1 18 1;
#X connect 26 0 7 0;
#X connect 27 0 0 0;
#X connect 28 0 1 0;
#X connect 29 0 2 0;
#X connect 32 0 3 0;
#X connect 34 0 0 0;
#X connect 34 1 1 0;
#X connect 34 2 2 0;
