#N canvas 3 83 422 250 10;
#N canvas 1 67 719 379 etape_1 0;
#X obj 316 46 loadbang;
#X obj 154 244 funbuff;
#C restore;
#X msg 316 80 0 48 \, 1 52 \, 2 50 \, 3 48 \, 4 55 \, 5 57 \, 6 54
\, 7 55;
#X msg 317 119 0 54 \, 1 52 \, 2 50 \, 3 54 \, 4 52 \, 5 50 \, 6 54
\, 7 57;
#X msg 317 155 0 55 \, 1 59 \, 2 55 \, 3 50 \, 4 55 \, 5 57 \, 6 55
\, 7 59;
#X msg 317 193 0 60 \, 1 62 \, 2 60 \, 3 59 \, 4 60 \, 5 55 \, 6 52
\, 7 50;
#X connect 0 0 2 0;
#X connect 2 0 1 0;
#X connect 3 0 1 0;
#X connect 4 0 1 0;
#X connect 5 0 1 0;
#X restore 18 74 pd etape_1;
#N canvas 1 67 721 390 etape_2 0;
#X obj 249 43 loadbang;
#X obj 87 241 funbuff;
#C restore;
#X msg 249 77 0 48 \, 1 52 \, 2 50 \, 3 48 \, 4 55 \, 5 57 \, 6 54
\, 7 55;
#X msg 250 116 0 54 \, 1 52 \, 2 50 \, 3 54 \, 4 52 \, 5 50 \, 6 54
\, 7 57;
#X msg 250 152 0 55 \, 1 59 \, 2 55 \, 3 50 \, 4 55 \, 5 57 \, 6 55
\, 7 59;
#X msg 250 190 0 60 \, 1 62 \, 2 60 \, 3 59 \, 4 60 \, 5 55 \, 6 52
\, 7 50;
#X obj 87 45 tgl 15 0 empty empty empty 17 7 0 10 -262144 -1 -1 0 1
;
#X obj 87 65 metro 125;
#X obj 87 87 counter 0 7;
#X floatatom 87 271 5 0 0 0 - - -, f 5;
#X connect 0 0 2 0;
#X connect 1 0 9 0;
#X connect 2 0 1 0;
#X connect 3 0 1 0;
#X connect 4 0 1 0;
#X connect 5 0 1 0;
#X connect 6 0 7 0;
#X connect 7 0 8 0;
#X connect 8 0 1 0;
#X restore 18 99 pd etape_2;
#N canvas 1 67 719 379 etape_3 0;
#X obj 249 43 loadbang;
#X obj 87 241 funbuff;
#C restore;
#X msg 249 77 0 48 \, 1 52 \, 2 50 \, 3 48 \, 4 55 \, 5 57 \, 6 54
\, 7 55;
#X msg 250 116 0 54 \, 1 52 \, 2 50 \, 3 54 \, 4 52 \, 5 50 \, 6 54
\, 7 57;
#X msg 250 152 0 55 \, 1 59 \, 2 55 \, 3 50 \, 4 55 \, 5 57 \, 6 55
\, 7 59;
#X msg 250 190 0 60 \, 1 62 \, 2 60 \, 3 59 \, 4 60 \, 5 55 \, 6 52
\, 7 50;
#X obj 87 45 tgl 15 0 empty empty empty 17 7 0 10 -262144 -1 -1 0 1
;
#X obj 87 65 metro 125;
#X obj 87 87 counter 0 7;
#X floatatom 87 266 5 0 0 0 - - -, f 5;
#X obj 87 289 makenote 100 250;
#X obj 87 316 noteout;
#X connect 0 0 2 0;
#X connect 1 0 9 0;
#X connect 2 0 1 0;
#X connect 3 0 1 0;
#X connect 4 0 1 0;
#X connect 5 0 1 0;
#X connect 6 0 7 0;
#X connect 7 0 8 0;
#X connect 8 0 1 0;
#X connect 9 0 10 0;
#X connect 10 0 11 0;
#X connect 10 1 11 1;
#X restore 18 125 pd etape_3;
#N canvas 1 67 707 468 etape_4 0;
#X obj 230 175 loadbang;
#X obj 67 313 funbuff;
#C restore;
#X msg 230 201 0 48 \, 1 52 \, 2 50 \, 3 48 \, 4 55 \, 5 57 \, 6 54
\, 7 55;
#X msg 231 228 0 54 \, 1 52 \, 2 50 \, 3 54 \, 4 52 \, 5 50 \, 6 54
\, 7 57;
#X msg 231 255 0 55 \, 1 59 \, 2 55 \, 3 50 \, 4 55 \, 5 57 \, 6 55
\, 7 59;
#X msg 231 282 0 60 \, 1 62 \, 2 60 \, 3 59 \, 4 60 \, 5 55 \, 6 52
\, 7 50;
#X obj 67 21 tgl 15 0 empty empty empty 17 7 0 10 -262144 -1 -1 0 1
;
#X obj 67 41 metro 125;
#X obj 67 63 counter 0 7;
#X floatatom 67 338 5 0 0 0 - - -, f 5;
#X obj 67 361 makenote 100 250;
#X obj 67 388 noteout;
#X obj 99 109 sel 0;
#X obj 67 85 t f f;
#X obj 99 131 counter 0 7;
#X obj 99 153 sel 0 2 4 6;
#X connect 0 0 2 0;
#X connect 1 0 9 0;
#X connect 2 0 1 0;
#X connect 3 0 1 0;
#X connect 4 0 1 0;
#X connect 5 0 1 0;
#X connect 6 0 7 0;
#X connect 7 0 8 0;
#X connect 8 0 13 0;
#X connect 9 0 10 0;
#X connect 10 0 11 0;
#X connect 10 1 11 1;
#X connect 12 0 14 0;
#X connect 13 0 1 0;
#X connect 13 1 12 0;
#X connect 14 0 15 0;
#X connect 15 0 2 0;
#X connect 15 1 3 0;
#X connect 15 2 4 0;
#X connect 15 3 5 0;
#X restore 19 151 pd etape_4;
#N canvas 3 83 725 489 etape_5 0;
#X obj 230 175 loadbang;
#X obj 67 313 funbuff;
#C restore;
#X msg 230 201 0 48 \, 1 52 \, 2 50 \, 3 48 \, 4 55 \, 5 57 \, 6 54
\, 7 55;
#X msg 231 228 0 54 \, 1 52 \, 2 50 \, 3 54 \, 4 52 \, 5 50 \, 6 54
\, 7 57;
#X msg 231 255 0 55 \, 1 59 \, 2 55 \, 3 50 \, 4 55 \, 5 57 \, 6 55
\, 7 59;
#X msg 231 282 0 60 \, 1 62 \, 2 60 \, 3 59 \, 4 60 \, 5 55 \, 6 52
\, 7 50;
#X obj 67 21 tgl 15 0 empty empty empty 17 7 0 10 -262144 -1 -1 0 1
;
#X obj 67 41 metro 125;
#X obj 67 63 counter 0 7;
#X floatatom 67 338 5 0 0 0 - - -, f 5;
#X obj 67 389 makenote 100 250;
#X obj 67 416 noteout;
#X obj 99 109 sel 0;
#X obj 67 85 t f f;
#X obj 99 131 counter 0 7;
#X obj 99 153 sel 0 2 4 6;
#X obj 67 218 t f f;
#X obj 142 327 sel 0 4;
#X msg 188 356 80;
#X msg 142 356 120;
#X connect 0 0 2 0;
#X connect 1 0 9 0;
#X connect 2 0 1 0;
#X connect 3 0 1 0;
#X connect 4 0 1 0;
#X connect 5 0 1 0;
#X connect 6 0 7 0;
#X connect 7 0 8 0;
#X connect 8 0 13 0;
#X connect 9 0 10 0;
#X connect 10 0 11 0;
#X connect 10 1 11 1;
#X connect 12 0 14 0;
#X connect 13 0 16 0;
#X connect 13 1 12 0;
#X connect 14 0 15 0;
#X connect 15 0 2 0;
#X connect 15 1 3 0;
#X connect 15 2 4 0;
#X connect 15 3 5 0;
#X connect 16 0 1 0;
#X connect 16 1 17 0;
#X connect 17 0 19 0;
#X connect 17 1 19 0;
#X connect 17 2 18 0;
#X connect 18 0 10 1;
#X connect 19 0 10 1;
#X restore 19 178 pd etape_5;
#X text 17 50 Cliquer sur un objet pd pour afficher son contenu.;
#X text 17 7 Lecture de mélodies en boucle;
