#N canvas 1 67 461 539 10;
#X obj 56 41 tgl 15 0 empty empty empty 17 7 0 10 -262144 -1 -1 1 1
;
#X obj 56 62 metro 250;
#X floatatom 116 42 5 0 0 0 - - -;
#X floatatom 103 107 5 0 0 0 - - -;
#X floatatom 56 187 5 0 0 0 - - -;
#X text 49 24 start;
#X text 111 24 vitesse;
#X text 76 89 direction;
#X floatatom 151 108 5 0 0 0 - - -;
#X text 148 90 # d'octaves;
#X floatatom 56 354 5 0 0 0 - - -;
#X obj 130 165 loadbang;
#X obj 56 375 makenote 100 250;
#X obj 56 401 noteout;
#X obj 56 275 + 36;
#X obj 130 189 bng 15 250 50 0 empty empty empty 17 7 0 10 -262144
-1 -1;
#X text 146 188 appelle un changement de gamme;
#X obj 77 324 delay 125;
#X obj 77 303 bng 15 250 50 0 empty empty empty 17 7 0 10 -262144 -1
-1;
#N canvas 350 198 390 297 scales 0;
#X msg 69 119 0 0 \, 1 2 \, 2 4 \, 3 5 \, 4 7 \, 5 9 \, 6 11;
#X text 126 102 degrés d'une gamme majeure;
#X text 127 138 degrés d'une gamme mineure;
#X msg 69 155 0 0 \, 1 2 \, 2 3 \, 3 5 \, 4 7 \, 5 8 \, 6 11;
#X obj 46 96 sel 0 1;
#X obj 46 74 counter 0 1;
#X obj 46 47 inlet;
#X obj 45 197 outlet;
#X connect 0 0 7 0;
#X connect 3 0 7 0;
#X connect 4 0 3 0;
#X connect 4 1 0 0;
#X connect 5 0 4 0;
#X connect 6 0 5 0;
#X restore 130 212 pd scales;
#N canvas 1 67 425 310 get_note 0;
#X obj 90 133 % 7;
#X obj 151 174 * 12;
#X obj 90 203 +;
#X text 187 174 octave;
#X obj 151 94 div 7;
#X obj 90 175 funbuff;
#C restore;
#X obj 90 66 t f f;
#X text 45 175 degré;
#X obj 151 133 + 1;
#X text 143 72 division en entier;
#X obj 90 29 inlet degree;
#X obj 90 238 outlet MIDI_pitch;
#X obj 280 131 inlet scale;
#X connect 0 0 5 0;
#X connect 1 0 2 1;
#X connect 2 0 11 0;
#X connect 4 0 8 0;
#X connect 5 0 2 0;
#X connect 6 0 0 0;
#X connect 6 1 4 0;
#X connect 8 0 1 0;
#X connect 10 0 6 0;
#X connect 12 0 5 0;
#X restore 56 234 pd get_note;
#X floatatom 56 256 5 0 0 0 - - -;
#N canvas 985 415 295 250 incrementor 0;
#X floatatom 153 2 5 0 0 0 - - -;
#X obj 153 21 sel 1 2 3 4;
#X msg 153 109 7;
#X msg 171 87 14;
#X msg 190 65 21;
#X msg 208 44 28;
#X obj 19 133 counter 0 6;
#X floatatom 19 158 5 0 0 0 - - -;
#X obj 19 -24 inlet bangs;
#X obj 37 44 inlet direction;
#X obj 153 -24 inlet num_octaves;
#X obj 19 182 outlet;
#X connect 0 0 1 0;
#X connect 1 0 2 0;
#X connect 1 1 3 0;
#X connect 1 2 4 0;
#X connect 1 3 5 0;
#X connect 2 0 6 4;
#X connect 3 0 6 4;
#X connect 4 0 6 4;
#X connect 5 0 6 4;
#X connect 6 0 7 0;
#X connect 7 0 11 0;
#X connect 8 0 6 0;
#X connect 9 0 6 1;
#X connect 10 0 0 0;
#X restore 56 140 pd incrementor;
#X connect 0 0 1 0;
#X connect 1 0 22 0;
#X connect 2 0 1 1;
#X connect 3 0 22 1;
#X connect 4 0 20 0;
#X connect 8 0 22 2;
#X connect 10 0 12 0;
#X connect 11 0 15 0;
#X connect 12 0 13 0;
#X connect 12 1 13 1;
#X connect 14 0 10 0;
#X connect 14 0 18 0;
#X connect 15 0 19 0;
#X connect 17 0 10 0;
#X connect 18 0 17 0;
#X connect 19 0 20 1;
#X connect 20 0 21 0;
#X connect 21 0 14 0;
#X connect 22 0 4 0;
